<?xml version="1.0" encoding="UTF-8" standalone="no"?>
<svg
   xmlns:dc="http://purl.org/dc/elements/1.1/"
   xmlns:cc="http://creativecommons.org/ns#"
   xmlns:rdf="http://www.w3.org/1999/02/22-rdf-syntax-ns#"
   xmlns:svg="http://www.w3.org/2000/svg"
   xmlns="http://www.w3.org/2000/svg"
   xmlns:sodipodi="http://sodipodi.sourceforge.net/DTD/sodipodi-0.dtd"
   xmlns:inkscape="http://www.inkscape.org/namespaces/inkscape"
   cursor="default"
   viewBox="0 0 256 256"
   version="1.1"
   id="svg24"
   sodipodi:docname="super_tshirt.svg"
   inkscape:version="0.92.3 (2405546, 2018-03-11)">
  <metadata
     id="metadata30">
    <rdf:RDF>
      <cc:Work
         rdf:about="">
        <dc:format>image/svg+xml</dc:format>
        <dc:type
           rdf:resource="http://purl.org/dc/dcmitype/StillImage" />
      </cc:Work>
    </rdf:RDF>
  </metadata>
  <defs
     id="defs28">
    <inkscape:path-effect
       effect="bspline"
       id="path-effect873"
       is_visible="true"
       weight="33.333333"
       steps="2"
       helper_size="0"
       apply_no_weight="true"
       apply_with_weight="true"
       only_selected="false" />
    <inkscape:path-effect
       effect="bspline"
       id="path-effect873-3"
       is_visible="true"
       weight="33.333333"
       steps="2"
       helper_size="0"
       apply_no_weight="true"
       apply_with_weight="true"
       only_selected="false" />
  </defs>
  <sodipodi:namedview
     pagecolor="#ffffff"
     bordercolor="#666666"
     borderopacity="1"
     objecttolerance="10"
     gridtolerance="10"
     guidetolerance="10"
     inkscape:pageopacity="0"
     inkscape:pageshadow="2"
     inkscape:window-width="1920"
     inkscape:window-height="1001"
     id="namedview26"
     showgrid="false"
     inkscape:zoom="2.6074563"
     inkscape:cx="57.383735"
     inkscape:cy="143.09693"
     inkscape:window-x="-9"
     inkscape:window-y="-9"
     inkscape:window-maximized="1"
     inkscape:current-layer="svg24" />
  <path
     style="fill:#000000;stroke-width:0.50556022"
     d="m 124.59961,187.36617 c -0.16754,-0.27109 -2.46243,-0.65468 -5.09974,-0.8524 -2.63731,-0.19773 -8.94546,-0.61421 -9.21757,-0.70959 -4.28921,-1.50351 4.78943,-1.467 11.64253,-0.59224 8.53204,1.08907 9.15246,-0.21968 9.35355,-2.62376 0.2238,-2.67567 1.61255,-2.57532 1.61255,0.11652 0,1.09582 0.21202,2.12344 0.47117,2.2836 1.1745,0.72589 12.61767,-1.96493 20.12007,-4.73115 8.87861,-3.27365 10.6204,-4.81566 11.27129,-9.97847 0.24056,-1.90811 0.59282,-4.43631 0.78279,-5.61822 l 0.34541,-2.14892 -1.58134,0.31627 c -2.35748,0.47149 -1.97031,-0.502 1.10243,-2.77197 3.17562,-2.34597 6.77343,-6.24573 9.59987,-10.40555 4.19803,-6.17846 8.76463,-16.12554 7.05404,-15.36528 -0.20855,0.0927 -2.9523,1.71063 -6.09723,3.59542 -5.13354,3.0766 -9.74728,4.91484 -12.33555,4.91484 -1.37815,0 -1.07893,-0.85783 0.43144,-1.2369 4.65533,-1.16841 14.33715,-7.46032 17.14558,-11.14237 1.56433,-2.05094 2.58829,-2.25377 3.22545,-0.6389 1.03242,2.61661 6.12921,9.05849 10.00623,12.64698 7.10643,6.57755 16.03243,10.08637 19.64201,7.72128 0.72448,-0.47469 1.7616,-1.86765 2.30472,-3.09546 1.62265,-3.66828 3.00238,-2.71057 1.68545,1.16992 -1.06042,3.12472 -1.8538,3.94898 -4.57411,4.7522 -2.4813,0.73263 -2.53888,1.12936 -0.64315,4.43133 2.77725,4.83739 6.47482,8.06086 11.5794,10.09469 2.90551,1.15764 10.24086,6.79867 11.38444,8.72301 0.27795,0.32725 6.99873,-4.17395 10.10251,-5.74353 1.43593,-0.72615 1.51156,-0.1321 0.86994,0.61329 -1.60581,1.86555 -10.29429,7.58768 -10.79556,7.59924 -0.26551,0.006 -1.67404,-0.96688 -3.12991,-2.14863 -1.45588,-1.18175 -4.35332,-2.9005 -6.43875,-3.81946 -6.8127,-3.00204 -7.28728,-3.30953 -11.29657,-7.31929 -3.05902,-3.05938 -4.36593,-4.83213 -5.71507,-7.75216 -0.96202,-2.08218 -2.13487,-3.92115 -2.60634,-4.08662 -0.47146,-0.16547 -1.81161,-0.72233 -2.97811,-1.23748 -1.16649,-0.51514 -2.3423,-0.93661 -2.61291,-0.93661 -0.27061,0 -1.69138,-1.02376 -3.15727,-2.27502 -1.46589,-1.25126 -2.83767,-2.27502 -3.04839,-2.27502 -0.21073,0 -1.81559,-1.19439 -3.56637,-2.6542 -1.75078,-1.4598 -3.90586,-3.147 -4.78907,-3.74932 -1.96153,-1.33769 -2.06496,-1.24587 -5.22034,4.63406 -2.57845,4.80482 -7.44624,11.80012 -10.27246,14.76208 -1.70818,1.79023 -2.10436,2.62244 -2.52708,5.30838 -0.62843,3.99291 -0.65909,5.30306 -0.17115,7.31241 0.33944,1.39779 0.2412,1.64399 -0.77969,1.95396 -0.64244,0.19506 -1.62307,0.76185 -2.17919,1.25954 -1.16514,1.04272 -3.66791,2.58673 -6.57228,4.05457 -1.11223,0.56211 -2.3635,1.22383 -2.78058,1.4705 -0.41709,0.24665 -2.0096,0.78114 -3.53892,1.18774 -9.79754,2.60486 -12.57064,3.39464 -13.91138,3.96199 -0.86475,0.36592 -3.77298,0.65607 -6.81659,0.68009 -2.91961,0.0231 -5.6835,0.2209 -6.14198,0.43969 -0.46021,0.21963 -0.97004,0.17704 -1.13822,-0.0951 z m -14.45686,-1.46771 c -0.97209,-0.11725 -2.02699,-0.42859 -2.34423,-0.69188 -0.31724,-0.26328 -2.47759,-1.1724 -4.80078,-2.02026 -2.32319,-0.84786 -5.135826,-2.2804 -6.250298,-3.18342 -1.114472,-0.90303 -2.765698,-2.07189 -3.669386,-2.59748 -0.903689,-0.52559 -1.662318,-1.07719 -1.685841,-1.22578 -0.02351,-0.14859 -0.107735,-1.97644 -0.187134,-4.06187 -0.198791,-5.22133 -1.08295,-7.49864 -3.419043,-8.80633 -2.60046,-1.45568 -8.319923,-6.5614 -11.089377,-9.8994 -2.514085,-3.0302 -6.343764,-8.83141 -7.678691,-11.63169 -0.462942,-0.97111 -1.387262,-2.44695 -2.054051,-3.27963 l -1.212338,-1.51397 -1.115868,1.00841 c -0.613724,0.55463 -1.498505,1.80467 -1.966184,2.77787 -0.609625,1.2686 -1.146969,1.73885 -1.898323,1.6613 -0.576404,-0.0595 -1.409866,0.28177 -1.852135,0.75834 -0.442269,0.47658 -1.263903,1.3726 -1.825854,1.99115 -0.56195,0.61856 -1.653145,1.25827 -2.424878,1.42158 -0.771733,0.16331 -2.654411,0.84093 -4.183731,1.5058 -1.52932,0.66488 -3.286864,1.34686 -3.905654,1.51551 -0.884893,0.24119 -1.348669,1.08269 -2.17246,3.94184 -1.502011,5.21307 -1.712658,5.52153 -7.042492,10.31275 -7.68066,6.90449 -11.334431,11.22899 -14.12643,16.71963 l -1.100224,2.16367 -2.636247,-0.34401 c -4.065899,-0.53057 -10.478534,-5.02906 -10.705744,-5.72128 -0.097703,-0.29767 0.2328718,-0.7989 1.819708,0.27022 0.9098,0.61298 2.441577,2.08959 3.07105,2.17586 1.913325,0.26225 2.925959,1.05899 2.925959,0.39442 0,-1.17896 3.075991,-7.42204 3.656872,-7.42204 0.272683,0 0.358506,0.35775 0.190716,0.795 -0.822107,2.14238 -1.991127,7.2967 -1.717076,7.57076 0.469225,0.46922 2.41953,-0.72311 2.41953,-1.4792 0,-1.93195 7.235384,-10.47174 13.409281,-15.82673 1.661784,-1.44136 3.740311,-3.83013 4.618949,-5.30838 1.517155,-2.5525 2.989345,-7.62406 2.461203,-8.47861 -0.135291,-0.21891 -0.95237,-0.53929 -1.815732,-0.71196 -2.150111,-0.43003 -4.518015,-2.20673 -4.518015,-3.39 0,-1.26301 0.421309,-1.2321 1.879599,0.13789 0.89785,0.84349 1.970525,1.16452 4.41009,1.31986 5.981333,0.38087 10.235185,-1.837 18.929949,-9.86969 3.072052,-2.83812 6.275701,-5.51711 7.119223,-5.95332 1.875062,-0.96963 3.043624,-0.48032 7.078854,2.96408 3.14002,2.68028 8.740853,6.55836 12.781376,8.84998 2.760718,1.56576 3.382375,2.24255 2.527801,2.75199 -0.68382,0.40764 -7.519834,-2.51265 -11.774917,-5.03016 -2.29319,-1.35675 -5.250738,-3.43371 -6.572328,-4.61546 -4.246124,-3.79681 -4.103258,-2.66716 0.586076,4.63425 5.74284,8.94174 6.834102,10.4786 9.750067,13.73137 2.602028,2.90257 4.075999,4.03436 11.044464,8.48049 3.021915,1.9281 3.965033,3.64594 1.687893,3.07441 l -1.219082,-0.30597 0.253538,4.21443 c 0.208999,3.47409 0.489762,4.56325 1.598248,6.2001 1.676321,2.47534 6.776097,5.35288 12.719827,7.17713 4.83442,1.48379 5.98918,2.13468 4.95314,2.79189 -0.36074,0.22883 -0.76963,0.38313 -0.90866,0.34289 -0.13903,-0.0403 -1.04812,-0.1691 -2.02021,-0.28635 z m 10.35138,-4.64482 c -2.07867,-0.49851 -4.28669,-2.00951 -4.28669,-2.93348 0,-0.55438 0.30683,-0.66434 1.13751,-0.40766 4.68246,1.44689 10.71133,1.55714 12.31618,0.22523 0.56681,-0.47041 0.88561,-0.47741 1.3337,-0.0293 0.94647,0.94647 -0.59493,2.06105 -3.9625,2.86525 -3.28374,0.78419 -4.26124,0.82604 -6.5382,0.27998 z m 14.9246,-0.91142 c -1.3921,-0.25594 -2.5278,-1.02605 -2.5278,-1.71407 0,-0.24401 2.10589,-0.44366 4.67977,-0.44366 5.37977,0 7.79344,-0.54944 8.81391,-2.00635 0.39563,-0.56486 1.04769,-1.02701 1.44901,-1.02701 1.17786,0 0.84042,1.48371 -0.68417,3.00831 -2.04126,2.04125 -7.23951,3.00851 -11.73072,2.18278 z m 102.04318,-6.25879 c -0.56088,-0.76466 -1.15659,-1.92311 -1.32381,-2.57434 -0.29813,-1.16104 -0.28407,-1.16598 0.72368,-0.25397 0.94043,0.85108 1.43415,2.12295 1.43415,2.79017 0,0.70326 0.0925,1.30134 -0.83402,0.0381 z M 8.795357,176.69931 c -0.4299934,-0.69574 0.1270194,-2.70978 2.040923,-7.37952 2.380733,-5.80876 4.633389,-13.86988 5.449132,-19.49969 0.897175,-6.19181 1.665211,-7.48663 9.606348,-16.19525 4.494744,-4.92915 6.386358,-7.37992 6.633623,-8.59453 0.512482,-2.51739 2.083811,-6.64976 3.265765,-8.58849 0.793668,-1.30183 1.040002,-2.56429 1.041444,-5.33741 0.0038,-7.27411 2.299873,-14.086144 6.316722,-18.740459 1.966849,-2.278983 7.578873,-5.883043 10.115875,-6.496447 0.834174,-0.201689 2.392739,-1.068326 3.463476,-1.92586 1.518217,-1.215911 2.466765,-1.496974 4.297263,-1.597684 1.756111,-0.09662 2.933655,-2.059993 9.986174,-3.73295 1.143708,-1.623433 2.989931,-2.251637 5.310713,-2.868306 0.973567,-1.173075 3.2783,-2.209189 4.914121,-2.209189 0.814022,0 2.360961,-0.36876 3.437637,-0.819466 1.185857,-0.496411 3.201506,-0.793007 5.112928,-0.75235 2.020142,0.04297 4.196458,-0.298809 6.0492,-0.949995 3.853602,-1.354432 34.583439,-3.294876 34.377539,-1.845118 42.03143,3.111104 -12.06813,1.753077 -20.07385,2.759072 -8.10904,1.018977 -18.089029,3.053297 -20.400781,2.835603 -3.055909,-0.28777 -4.876907,0.506239 -4.876907,2.126476 0,0.36834 -0.881388,1.119362 -1.958646,1.668936 -3.660726,1.867564 -5.147973,4.635 -4.63622,8.626968 0.123362,0.962295 7.438838,8.446886 9.122667,9.33356 0.695146,0.366051 3.197669,1.051984 5.561163,1.524296 2.363494,0.472312 6.003527,1.277698 8.088964,1.789747 2.08544,0.512046 6.15478,1.509116 9.043,2.215706 2.88821,0.70658 23.34906,1.64488 23.49632,1.79214 2.23649,1.08935 -16.45696,1.26202 -21.66977,-0.47563 -1.08441,-0.36147 -4.86602,-0.95071 -8.34175,-1.52659 -3.47573,-0.57589 -9.845785,-1.70295 -14.155686,-2.504599 -1.207662,-1.183663 -3.500569,-1.073293 -4.58846,-1.764622 -2.067295,-1.313716 -3.017896,-2.772105 -4.535603,-4.420624 -19.28517,-20.947354 -18.70149,-5.557315 -23.649144,-4.950373 -1.845022,-0.003 -7.72075,3.702563 -10.381442,6.547059 -1.329506,1.421349 -2.85251,3.568173 -3.384453,4.770719 -2.315368,5.23427 -3.218883,14.82772 -1.780451,18.90467 0.395883,1.12206 0.585469,2.17442 0.4213,2.33859 -0.653625,0.65362 -1.226556,0.21741 -1.932009,-1.47098 -0.406631,-0.9732 -0.846194,-1.76946 -0.976807,-1.76946 -0.130614,0 -0.792374,1.09503 -1.47058,2.43341 -1.136672,2.24311 -1.610117,4.16972 -2.685032,10.92628 -0.394485,2.47961 -1.660062,3.88941 -1.660062,1.84925 0,-0.57929 -0.20188,-1.05325 -0.448621,-1.05325 -0.591684,0 -11.361715,11.55418 -12.129733,13.01288 -0.327867,0.62272 -1.021884,3.12524 -1.54226,5.56116 -1.786206,8.36137 -4.741668,18.05151 -6.584077,22.17942 -1.858984,4.16504 -2.4650751,5.30883 -3.289953,4.2729 z M 80.148475,94.088638 c 0.16281,-0.162807 -0.830368,-1.612406 -2.207054,-3.22133 -10.735393,-9.505393 -2.196047,-12.346 -18.852389,-4.602456 11.802278,-15.223492 20.667613,7.549505 21.059443,7.823786 z M 130.86869,173.4238 c 0,-1.30589 0.22062,-1.81159 0.79037,-1.81159 0.58401,0 0.74901,0.41882 0.63195,1.60414 -0.22889,2.31766 -1.42232,2.49173 -1.42232,0.20745 z m 111.85379,-6.72237 c -1.70606,-2.99926 -4.04334,-7.61448 -5.19396,-10.25603 -3.68125,-8.45131 -5.96761,-11.54663 -11.7513,-15.90918 -2.32851,-1.75636 -4.67219,-3.27472 -5.20819,-3.37414 -1.31578,-0.24404 -4.81146,-7.35199 -6.7861,-13.79857 -0.84628,-2.76281 -1.6676,-5.15158 -1.82517,-5.30838 -0.15756,-0.1568 -0.73411,0.28367 -1.2812,0.97881 -2.40759,3.05909 -2.63284,3.26465 -2.85313,2.6038 -0.11923,-0.3577 0.3912,-2.00515 1.13429,-3.66099 0.99575,-2.21881 1.4248,-4.171 1.63138,-7.42261 0.24609,-3.87376 0.11863,-4.89129 -1.04485,-8.34111 -0.72881,-2.16102 -1.92858,-4.841023 -2.66614,-5.955554 -5.47864,-4.6221 -7.89122,-7.235478 -12.8144,-10.556595 -10.62441,-2.158797 -14.4838,-6.739891 -15.4345,-1.424205 -0.12126,2.094807 -5.19355,8.219964 -2.72236,6.92828 1.68879,-0.903817 1.77696,-0.09645 0.17262,1.580688 -0.81391,0.850831 -3.18609,2.33562 -5.27153,3.29953 -2.08543,0.963909 -4.40346,2.090084 -5.15116,2.50261 -0.7477,0.412526 -3.93273,1.204831 -7.07784,1.760676 -3.14511,0.55585 -9.08368,1.8383 -13.19682,2.8499 -5.2878,1.30049 -20.14828,1.72956 -20.52882,1.34903 -0.91758,-0.91759 14.17584,-2.1864 19.24485,-3.23237 2.59485,-0.53544 5.28668,-0.9736 5.98182,-0.97369 2.4941,-3.1e-4 8.93015,-1.672121 13.39735,-3.480046 3.82045,-1.546177 5.01617,-2.326612 7.45701,-4.867093 2.41676,-2.515412 2.9065,-3.325336 2.90415,-4.802823 -0.008,-5.0175 -2.35079,-7.807083 -8.6792,-10.334244 -2.03731,-0.81357 -4.84171,-1.982829 -6.232,-2.598353 -1.39029,-0.615524 -3.72219,-1.627281 -5.18199,-2.24835 -0.84481,-0.359422 -4.86476,-0.522055 -8.84093,-1.177826 -4.76866,-0.786471 -40.27526,-2.411748 -9.53741,-2.434315 1.14518,-8.41e-4 16.48374,0.357152 20.52697,1.333427 1.66835,0.402839 3.97275,0.740538 5.1209,0.750443 1.14814,0.0099 3.30941,0.566462 4.80282,1.236793 1.4934,0.670332 3.69006,1.374169 4.88146,1.564083 1.19139,0.189914 2.79919,0.877949 3.57289,1.528968 0.77369,0.651018 2.02953,1.339989 2.79076,1.531046 0.76124,0.191057 1.99721,1.115832 2.74662,2.055055 1.02276,1.281807 1.75472,1.707683 2.93508,1.707694 0.86488,8e-6 2.44652,0.593127 3.51474,1.318043 1.675,1.136687 2.32812,1.28469 4.74699,1.075722 3.2946,-0.284623 4.77637,0.325658 8.15888,3.360327 1.27643,1.145159 3.43176,2.764613 4.78962,3.598788 2.85158,1.751796 5.62754,5.189417 7.93149,9.821979 1.4617,2.939042 1.62702,3.742432 1.72941,8.404132 0.12439,5.6637 0.87902,9.54015 3.11137,15.98284 2.67823,7.72953 4.26132,9.83799 10.27491,13.68484 1.4918,0.95429 4.16016,3.3087 5.92968,5.23202 3.2262,3.50659 4.12478,5.11981 8.88989,15.95996 1.17974,2.68378 2.88953,6.08965 3.79953,7.56859 1.82255,2.96203 2.26977,5.6138 0.99139,5.87847 -0.54301,0.11242 -1.75221,-1.53204 -3.88987,-5.29007 z m -125.17907,3.8854 c -2.11392,-0.63349 -3.35821,-1.96849 -3.35821,-3.60302 0,-1.65472 0.7897,-1.92128 1.26407,-0.42667 0.63443,1.99891 5.38139,3.23629 10.48579,2.73332 3.4335,-0.33833 3.54738,-0.39474 4.26524,-2.11282 0.89168,-2.13408 1.83252,-1.57416 1.58994,0.94622 -0.11623,1.2077 -0.52702,1.87891 -1.42711,2.33185 -1.43977,0.72453 -10.52931,0.8175 -12.81972,0.13112 z m 16.99059,-0.29018 c -0.34757,-0.15696 -0.63195,-0.57517 -0.63195,-0.92935 0,-0.44042 1.23849,-0.7387 3.91809,-0.94363 5.04743,-0.38605 7.46744,-1.1858 8.15511,-2.69507 0.62698,-1.37608 1.47176,-1.55098 1.91481,-0.39642 0.45854,1.19495 -1.39652,3.32663 -3.54106,4.06909 -2.10289,0.72804 -8.82718,1.34147 -9.815,0.89538 z m -31.37387,-3.10964 c -1.98685,-0.34538 -0.91559,-1.36114 2.0647,-1.95773 1.75833,-0.35198 4.63572,-1.61486 7.54445,-3.31125 5.02444,-2.93028 9.86281,-5.07862 13.54936,-6.0162 2.16206,-0.54986 2.22482,-0.61548 1.2639,-1.32155 -3.57647,-2.62795 -12.24511,-7.73906 -13.11333,-7.73175 -0.5733,0.005 -2.63487,0.35749 -4.58127,0.78369 -3.98685,0.873 -12.5592,1.01786 -14.587967,0.24652 -2.564091,-0.97486 -1.425397,-1.54455 3.086465,-1.54415 4.469522,3.9e-4 12.765402,-1.32762 12.765402,-2.0435 0,-0.21343 -4.72067,-3.7441 -10.49038,-7.84593 -14.631015,-10.40156 -17.940665,-13.35042 -16.95689,-15.10833 0.220712,-0.39439 3.165424,-3.07865 6.543799,-5.96503 l 6.142501,-5.24796 3.20961,0.3632 c 1.76529,0.19976 5.48464,0.66462 8.26522,1.03301 10.11248,1.33978 38.36723,0.57902 51.60695,-1.3895 1.96913,-0.29278 2.16996,-0.19263 4.45626,2.22213 1.31681,1.39081 2.9383,3.26621 3.6033,4.16757 0.665,0.90136 1.67409,2.07204 2.24241,2.60152 0.56833,0.52947 1.03332,1.39922 1.03332,1.93277 0,1.69956 -8.585,10.54498 -17.07633,17.59432 l -4.69012,3.89363 4.59937,0.14584 c 3.27035,0.10369 4.54163,0.31907 4.39954,0.74534 -0.25958,0.77872 -2.5722,1.28245 -8.3203,1.81227 -4.40484,0.40602 -4.78421,0.53614 -7.00263,2.40184 -1.29003,1.08491 -3.6306,2.96354 -5.20129,4.17474 -1.57068,1.21121 -2.92086,2.3733 -3.0004,2.58245 -0.0795,0.20914 1.17173,0.53112 2.78058,0.7155 3.58365,0.41071 7.05765,1.53198 8.73158,2.81821 1.92551,1.47955 1.05279,1.62522 -3.00314,0.50126 -2.52332,-0.69924 -4.84163,-0.97819 -7.29544,-0.87779 l -3.59677,0.14715 -0.15673,2.5278 c -0.27624,4.45572 -2.09488,4.29069 -2.11055,-0.19152 l -0.008,-2.21376 -2.58142,0.34244 c -3.12671,0.41477 -8.63679,2.42686 -11.10957,4.05683 -2.89135,1.90587 -8.67215,4.66132 -10.32312,4.92057 -0.83418,0.13098 -2.04167,0.14689 -2.68333,0.0353 z m 34.26488,-17.3858 c 3.34548,-2.26401 6.08268,-4.31867 6.08268,-4.5659 0,-0.87922 -1.47348,-0.9837 -6.29341,-0.44625 -4.72606,0.52699 -4.98962,0.50186 -8.19805,-0.78172 -3.75056,-1.50045 -6.1766,-1.41398 -7.98466,0.28459 -0.60368,0.56713 -1.36731,1.03115 -1.69696,1.03115 -0.68756,0 -0.75604,0.48742 -0.19295,1.37357 0.40375,0.6354 11.19147,7.21359 11.83746,7.2183 0.19977,0.002 3.10042,-1.84972 6.44589,-4.11374 z m -10.53104,1.04892 c -1.74056,-1.13099 -3.07555,-2.32537 -2.96666,-2.65419 0.23184,-0.70007 5.03175,-1.30946 8.39249,-1.06551 1.28732,0.0934 2.51121,0.18003 2.71976,0.1924 0.20854,0.0124 0.37917,0.33477 0.37917,0.71644 0,0.72071 -4.21174,4.86721 -4.94378,4.86721 -0.22899,0 -1.84043,-0.92536 -3.58098,-2.05635 z m 4.48028,-0.94717 c 0,-0.26165 -0.22954,-0.61759 -0.51009,-0.79098 -0.71471,-0.44172 -2.60043,0.22729 -2.248,0.79754 0.38,0.61485 2.75809,0.60919 2.75809,-0.007 z m -13.65013,-5.26364 c 0,-0.098 -1.36501,-1.25062 -3.03336,-2.56135 -3.01931,-2.3721 -3.83422,-3.82781 -2.14863,-3.83818 0.4866,-0.003 6.91353,-0.13616 14.28207,-0.29592 12.59654,-0.27311 13.50312,-0.23212 15.16681,0.68566 1.13491,0.62608 1.94293,1.54805 2.25318,2.57094 0.30792,1.01519 0.81259,1.5948 1.38861,1.5948 1.38708,0 22.64734,-20.32109 22.64734,-21.64689 0,-0.52975 -5.63156,-7.47635 -7.08421,-8.73845 -0.74494,-0.64723 -1.4224,-0.72496 -3.36997,-0.38665 -4.39896,0.76413 -11.39336,1.4204 -20.38499,1.91268 -9.39685,0.51447 -29.90517,-0.0548 -34.85012,-0.96735 -5.719055,-1.05542 -5.913711,-0.98513 -11.317341,4.08635 -2.691769,2.52632 -4.894126,4.78648 -4.894126,5.02258 0,1.03369 11.886251,10.50171 19.976757,15.91253 4.8617,3.25144 8.96679,6.11774 9.12243,6.36957 0.26365,0.4266 2.24555,0.67344 2.24555,0.27968 z m 31.79208,-9.84557 c -4.54549,-3.48232 -14.38461,-4.80993 -31.79208,-4.28977 -8.32367,0.24872 -10.15339,0.16997 -11.75314,-0.50586 -3.70483,-1.56513 -3.8947,-5.91789 -0.36017,-8.25693 5.28059,-3.49453 20.51318,-5.35503 28.35979,-3.46384 4.05526,0.97739 5.91847,1.78621 8.32091,3.6121 1.38647,1.05374 2.07649,1.18324 6.06672,1.13858 6.78707,-0.076 6.8224,-0.0953 8.26297,-4.51173 1.82493,-5.59487 2.12801,-5.60767 6.38196,-0.26969 3.07782,3.86214 3.07763,3.86573 -0.38452,7.14337 -7.19052,6.80729 -11.10114,10.32745 -11.47295,10.32745 -0.23309,0 -0.96636,-0.41566 -1.62949,-0.92368 z m 4.03595,-3.68824 c 4.07181,-3.50048 9.16683,-8.70496 9.16683,-9.36378 0,-0.38522 -0.7677,-1.5381 -1.70601,-2.56197 l -1.70601,-1.86158 -1.15068,3.15585 c -0.63287,1.73571 -1.59346,3.39281 -2.13463,3.68244 -0.54119,0.28963 -3.52134,0.6384 -6.62257,0.77506 l -5.63861,0.24844 -2.98993,-2.07188 c -3.68219,-2.5516 -6.66211,-3.42058 -13.188,-3.84582 -4.25549,-0.27729 -5.8157,-0.15013 -9.85842,0.80352 -9.55565,2.25408 -12.13344,3.55145 -12.13344,6.10656 0,2.54382 1.0451,2.73649 13.90938,2.56422 6.3989,-0.0857 14.13397,0.0955 17.18905,0.40258 5.25155,0.5279 11.21131,1.92965 12.8853,3.03066 1.23913,0.815 2.04142,0.60034 3.97774,-1.0643 z m -60.416754,-5.53777 c -3.862783,-3.30978 -3.859891,-3.39806 0.245596,-7.50355 2.398848,-2.39885 3.961403,-3.57301 4.735234,-3.55823 2.318374,0.0443 7.151684,1.28465 7.352414,1.88685 0.11608,0.34823 -0.75318,1.02998 -1.98829,1.55942 -4.256411,1.8245 -7.053711,5.05889 -6.841411,7.91038 0.157345,2.1134 -0.785509,2.03405 -3.503543,-0.29487 z m 2.590218,-3.30099 c 0.539903,-1.00254 1.841356,-2.55868 2.892118,-3.45809 1.844538,-1.57886 2.013918,-2.30252 0.538912,-2.30252 -0.866485,0 -6.204978,4.97817 -6.204978,5.78617 0,0.60584 0.996226,1.79723 1.502828,1.79723 0.159211,0 0.731217,-0.82025 1.27112,-1.82279 z m 47.520666,-0.71896 c -0.19562,-0.31653 -1.58185,-1.35988 -3.08049,-2.31855 -3.83379,-2.45245 -3.63425,-3.22866 0.82997,-3.22866 3.97789,0 4.18033,0.17848 4.24459,3.74222 0.0273,1.51338 -0.17958,2.08442 -0.80079,2.21049 -0.46068,0.0935 -0.99765,-0.089 -1.19328,-0.4055 z m -3.57081,21.07741 c 2.37972,-0.71801 2.78947,-1.54849 1.20875,-2.44989 -0.89054,-0.50783 -3.91021,-0.63826 -12.70358,-0.54871 -6.34443,0.0646 -11.76472,0.25925 -12.04507,0.43251 -0.67281,0.41582 1.51688,2.74117 2.56141,2.72009 0.43813,-0.009 1.23821,-0.3501 1.77796,-0.75834 1.49557,-1.1312 7.1923,-0.9857 9.39051,0.23984 2.04062,1.13767 6.67657,1.30993 9.81002,0.3645 z m -53.65735,11.81439 c -0.893841,-0.545 -2.172468,-1.85229 -2.841395,-2.90508 -0.668927,-1.05279 -1.700745,-2.34756 -2.292928,-2.87726 -1.239078,-1.10833 -1.415776,-2.73023 -0.342325,-3.14215 0.441243,-0.16932 1.354593,0.42459 2.288216,1.48792 0.854614,0.97336 2.570814,2.18795 3.813774,2.69909 2.544454,1.04636 2.769702,1.42528 1.126211,1.89458 -1.092257,0.3119 -1.058734,0.3947 0.842572,2.08121 l 1.980082,1.75638 -1.474522,-0.002 c -0.810989,-0.001 -2.205845,-0.4478 -3.099685,-0.9928 z m 81.2509,-2.17896 c 0,-0.35522 0.36477,-1.16662 0.81059,-1.80313 0.76403,-1.09081 0.74951,-1.17325 -0.25278,-1.43535 -1.54824,-0.40488 -1.32411,-0.94284 1.08526,-2.60482 1.18175,-0.81517 2.58202,-1.96361 3.11172,-2.55209 2.24055,-2.4892 3.24914,-0.2259 1.05915,2.37676 -0.69514,0.82613 -1.2639,1.9541 -1.2639,2.5066 0,1.11335 -2.84667,4.15788 -3.88767,4.15788 -0.36431,0 -0.66237,-0.29063 -0.66237,-0.64585 z M 67.487346,121.20692 c -0.551465,-0.55147 -0.374322,-0.91432 1.82938,-3.74725 2.79234,-3.58964 9.479254,-9.88683 9.479254,-8.9268 0,0.96165 -2.411194,4.30786 -6.214518,8.6244 -3.061926,3.47509 -4.514178,4.62958 -5.094116,4.04965 z m 114.568544,-2.08981 c -4.67877,-3.09748 -9.0373,-9.84899 -8.03848,-12.45189 0.54659,-1.4244 1.31284,-0.80194 2.91163,2.36524 0.87209,1.72759 2.93628,4.93713 4.5871,7.13232 1.65082,2.19518 2.92123,4.0715 2.82315,4.16959 -0.0981,0.0981 -1.12562,-0.44878 -2.2834,-1.21526 z"
     id="path840"
     inkscape:connector-curvature="0"
     sodipodi:nodetypes="ccsscscsscccssccsccccccccsccsssccscccssscccccccsscscccccscscscscsccccccccsccssccscscssccsccccscccccccccsscccsccccscscccccccsscscccccssccsscccsssssccssscssscssssccssscsscscccscsssssscccccccssccsccccccccccccccssscsssccsscssscccccssssccscscccsccccsccccscccccscccsccccccsssscscscscsccccccccccccccccccccccccccscccccccssccscccsccsccssccsccsscscccsccccscsccsccsccccccsccccssccccsscssssccsccccccccccccscsccccccccsccscssssccsccccscccc" />
  <path
     style="opacity:0.98999999;fill:#ff8080;fill-opacity:1;fill-rule:nonzero;stroke:#000000;stroke-width:1.91900003;stroke-miterlimit:4;stroke-dasharray:none;stroke-opacity:1;paint-order:stroke fill markers"
     d="m 118.93962,184.86781 c -5.25246,-0.45715 -7.01244,-0.77732 -10.35491,-1.88374 -7.2253,-2.39171 -12.151661,-5.35634 -13.620438,-8.19664 -0.305351,-0.59049 -0.650929,-2.08082 -0.767955,-3.31185 -0.11703,-1.23104 -0.294233,-3.02352 -0.39379,-3.98329 l -0.181016,-1.74505 1.345346,0.15707 c 2.673625,0.31213 1.424872,-1.23835 -3.737156,-4.64014 -5.226921,-3.44455 -7.134324,-5.01483 -9.821626,-8.08571 -3.225833,-3.68628 -12.749471,-18.35313 -12.244891,-18.85771 0.09543,-0.0954 1.453849,0.85216 3.018708,2.10576 3.543584,2.83874 7.686181,5.32615 12.227189,7.34178 4.136779,1.8362 6.150389,2.28658 6.150389,1.37565 0,-0.71658 -0.490463,-1.08902 -5.600462,-4.25278 -3.547389,-2.1963 -5.202097,-3.38516 -11.78959,-8.47047 -1.232654,-0.95156 -2.687344,-1.84209 -3.232649,-1.97895 -1.539807,-0.38647 -3.550821,0.93249 -9.483269,6.21977 -9.28245,8.27297 -12.408044,9.91981 -18.400153,9.69481 -3.078082,-0.11557 -3.612477,-0.2464 -4.838738,-1.18459 -1.72085,-1.31659 -1.881377,-1.31348 -1.881377,0.0364 0,1.38376 0.895299,2.18728 3.705926,3.32601 2.669764,1.08165 2.807597,1.4929 1.709124,5.09946 -1.136849,3.73255 -2.554884,5.68995 -7.767038,10.72129 -5.514324,5.32304 -10.412405,11.07742 -11.562147,13.58349 -0.456999,0.99611 -1.231106,1.98293 -1.735936,2.21295 -0.900407,0.41025 -0.907928,0.39586 -0.639013,-1.22254 0.149665,-0.90072 0.594651,-2.67316 0.988858,-3.93877 0.867927,-2.78648 0.872997,-2.87636 0.162269,-2.87636 -0.519454,0 -3.654305,5.90238 -3.654305,6.88042 0,0.94774 -3.206855,-0.008 -4.89447,-1.45828 l -1.251073,-1.07529 1.385291,-2.99828 c 1.975105,-4.27486 4.111901,-11.0725 6.331136,-20.14079 1.252729,-5.11894 2.238736,-8.33041 2.825986,-9.20438 0.995153,-1.48101 9.384279,-10.49814 10.811372,-11.62069 0.893799,-0.70306 0.899411,-0.70132 0.899411,0.27915 0,1.4184 1.010244,1.24176 1.485884,-0.2598 0.217152,-0.68554 0.742925,-3.11944 1.168384,-5.40868 0.46072,-2.47897 1.272847,-5.24547 2.00814,-6.84071 l 1.234578,-2.67845 0.894013,1.75913 c 0.826512,1.6263 1.706683,2.20879 2.180111,1.44276 0.107536,-0.17399 -0.07481,-1.33892 -0.405219,-2.58873 -1.298965,-4.91349 0.01056,-15.52951 2.42875,-19.689274 2.205818,-3.794447 8.769418,-9.014598 12.647209,-10.058558 0.81313,-0.218906 2.082455,-0.968331 2.820722,-1.665389 1.600081,-1.510763 5.080526,-3.477238 6.776329,-3.828668 0.873107,-0.180939 1.683092,-0.01489 2.876366,0.58967 3.268197,1.655794 8.244718,6.108781 10.436532,9.338596 0.55227,0.813817 1.004128,1.275285 1.004128,1.025483 0,-0.249801 0.918953,0.487067 2.042121,1.637484 1.523423,1.560385 2.538604,2.239107 3.99678,2.672139 1.075063,0.31926 2.297622,0.764018 2.716793,0.988353 0.419175,0.224335 5.739633,1.267524 11.823236,2.318194 6.08361,1.05067 11.66514,2.09038 12.40341,2.31047 2.57309,0.76705 13.67727,1.18791 20.49538,0.7768 7.28559,-0.43931 9.32882,-0.72199 16.48047,-2.28009 2.76051,-0.60142 7.17638,-1.5586 9.81305,-2.12707 3.77812,-0.814568 5.78828,-1.512899 9.4865,-3.295622 4.63249,-2.233085 7.7717,-4.501579 7.7717,-5.616079 0,-0.426104 -0.25703,-0.507714 -1.00654,-0.319599 l -1.00654,0.252625 1.08812,-1.84099 c 1.70863,-2.890847 2.45902,-4.446129 2.45902,-5.096628 0,-0.979199 1.13478,-2.305336 1.97268,-2.305336 0.42825,0 2.70517,0.664377 5.05983,1.476393 2.35466,0.812016 5.17532,1.689276 6.26813,1.949467 2.2473,0.535065 3.82643,1.633731 10.23486,7.120817 3.78893,3.244189 4.64661,4.189735 5.56604,6.136249 2.11462,4.476823 2.54143,6.246693 2.49716,10.354923 -0.0438,4.06923 -0.38954,5.81033 -1.93003,9.72056 -1.42563,3.61864 -0.90616,4.21038 1.408,1.60388 1.02478,-1.15423 1.9355,-2.01714 2.02383,-1.91758 0.0883,0.0996 0.89024,2.38579 1.78202,5.0805 1.72078,5.19973 4.81748,11.91238 6.01143,13.03085 0.39462,0.36967 2.07967,1.56358 3.74456,2.65314 3.77929,2.4733 7.55145,5.97455 9.42001,8.7435 0.78734,1.16672 3.34003,6.0044 5.67264,10.7504 2.33262,4.74601 4.74347,9.40567 5.35745,10.35481 l 1.11631,1.72571 -3.09237,1.80879 -3.09237,1.80879 -0.51458,-1.23341 c -0.28302,-0.67837 -0.78437,-1.53542 -1.11411,-1.90455 -1.49505,-1.67366 -1.71179,0.072 -0.2723,2.19317 0.92631,1.365 0.94078,1.46353 0.28764,1.95889 -0.37826,0.28689 -0.7838,0.5271 -0.9012,0.53381 -0.1174,0.007 -1.06661,-0.7867 -2.10934,-1.76313 -2.78578,-2.60865 -6.75982,-5.3096 -11.0921,-7.53874 -2.76551,-1.42297 -4.46753,-2.61536 -6.13625,-4.29892 -2.3245,-2.34516 -5.1856,-6.71506 -5.1856,-7.92022 0,-0.43538 0.61089,-0.85196 1.85564,-1.2654 2.24158,-0.74453 3.6668,-2.14779 4.45746,-4.38877 0.6541,-1.85392 0.78657,-4.2609 0.2345,-4.2609 -0.40923,0 -1.33956,1.18961 -2.71245,3.4684 -1.62746,2.70135 -3.92324,3.2837 -8.07946,2.04943 -7.73856,-2.2981 -16.6438,-9.91557 -22.11692,-18.91863 -0.82606,-1.35883 -1.70004,-2.53664 -1.94218,-2.61735 -0.24214,-0.0807 -1.61495,1.03105 -3.05068,2.4706 -4.04726,4.05801 -11.69337,8.96355 -16.29772,10.4562 -1.7134,0.55544 -1.94323,1.55729 -0.35724,1.55729 2.66518,0 7.40315,-2.03257 14.64319,-6.28185 2.00387,-1.17611 3.69748,-1.97999 3.76358,-1.7864 0.17974,0.52643 -1.87791,5.23921 -3.87788,8.88174 -3.75191,6.83335 -7.25494,11.27133 -12.25407,15.52468 -4.05263,3.44804 -4.18359,3.80469 -1.32735,3.6148 0.9356,-0.0622 1.04409,0.0408 0.86584,0.82227 -0.11207,0.49136 -0.45899,2.65947 -0.77092,4.81803 -0.69318,4.7967 -1.52946,6.5399 -3.88639,8.10107 -4.57877,3.03285 -22.25569,8.42974 -26.32603,8.03752 -1.07773,-0.10384 -1.26433,-0.27887 -1.35502,-1.27097 -0.1908,-2.08757 -0.47748,-2.87637 -1.04538,-2.87637 -0.30836,0 -0.66533,0.4746 -0.79327,1.05467 -0.56844,2.57731 -0.81521,2.9781 -2.1119,3.42999 -1.57563,0.5491 -2.20605,0.53885 -10.32612,-0.16789 z m 8.58819,-3.8947 c 3.15724,-0.87547 4.33545,-1.82705 3.56567,-2.87979 -0.49583,-0.67809 -0.5543,-0.67788 -1.82674,0.007 -1.61804,0.87042 -6.98502,0.87338 -10.51425,0.006 -2.33666,-0.57443 -3.05162,-0.36319 -2.6157,0.77282 0.23845,0.62139 2.44018,2.01278 3.86289,2.44116 1.81437,0.54632 4.80448,0.40865 7.52813,-0.3466 z m 16.593,-0.99402 c 2.03088,-0.6031 4.94096,-3.2141 4.62845,-4.15276 -0.28607,-0.85922 -1.50857,-0.71224 -2.57513,0.30959 -1.28853,1.23448 -3.13264,1.70803 -6.71642,1.7247 -5.92088,0.0275 -8.09345,0.76337 -5.84862,1.9809 2.18172,1.1833 6.78739,1.24358 10.51172,0.13757 z m -11.92542,-5.71705 c 0.34599,-1.37854 0.0498,-2.72362 -0.59975,-2.72362 -0.59962,0 -1.00995,2.07368 -0.61433,3.10464 0.32091,0.83629 0.9588,0.6361 1.21408,-0.38102 z m -3.90035,-3.26165 c 2.81351,-0.35046 3.77911,-1.3197 3.60707,-3.6207 -0.15376,-2.05669 -0.86127,-2.17121 -1.81875,-0.29439 -0.9551,1.87215 -1.78346,2.09144 -7.18189,1.90126 -4.1734,-0.14703 -6.53605,-0.97794 -7.22101,-2.53951 -0.44183,-1.00728 -1.46293,-0.97989 -1.66022,0.0445 -0.22741,1.18087 0.74875,2.94168 2.00116,3.6097 2.01901,1.07692 7.5773,1.48409 12.27364,0.89911 z m 13.00128,-0.8127 c 4.15973,-0.60146 6.79049,-2.3806 6.79049,-4.5923 0,-1.39898 -1.10522,-1.35138 -2.43926,0.10505 -1.41993,1.5502 -2.77015,1.99858 -7.69513,2.55541 -3.58074,0.40485 -4.30987,0.72472 -3.92689,1.72273 0.27423,0.71463 3.19388,0.79859 7.27079,0.20911 z m -32.7755,-3.84763 c 1.61714,-0.6443 4.6381,-2.13817 6.71324,-3.31972 4.01848,-2.28804 7.61304,-3.74474 10.77462,-4.36642 1.06896,-0.2102 2.31187,-0.45877 2.76204,-0.55239 0.75715,-0.15746 0.83035,0.0162 0.97689,2.31772 0.2801,4.39881 1.88842,4.26368 2.39355,-0.20111 l 0.2596,-2.29452 h 3.80126 c 2.45511,0 4.9718,0.27294 7.10665,0.77072 3.43699,0.8014 4.39705,0.7317 3.57442,-0.25951 -0.92191,-1.11083 -4.11692,-2.4031 -7.80335,-3.15619 -2.05297,-0.4194 -3.8092,-0.83906 -3.90273,-0.9326 -0.15664,-0.15664 6.12749,-5.43342 8.94768,-7.51335 0.9727,-0.71738 2.12123,-0.99968 5.75273,-1.41396 5.62159,-0.6413 8.18079,-1.2276 8.18079,-1.87416 0,-0.7693 -0.93289,-0.96157 -4.66551,-0.96157 -1.929,0 -3.39583,-0.15508 -3.3244,-0.35147 0.0703,-0.19331 2.11253,-2.03317 4.53827,-4.08857 5.15843,-4.3709 13.55576,-12.65641 15.29182,-15.08819 0.84032,-1.17709 1.13346,-1.93559 0.95966,-2.48319 -0.26618,-0.83864 -5.65792,-7.21766 -7.94112,-9.39522 -1.55226,-1.48044 0.13555,-1.45564 -13.29606,-0.19535 -5.34739,0.50174 -11.10992,0.67352 -23.39445,0.69736 -14.98684,0.0291 -16.84798,-0.0405 -23.11155,-0.86387 l -6.812144,-0.8955 -5.076841,4.37715 c -6.932392,5.97697 -7.953211,6.97931 -7.953211,7.80926 0,1.02871 4.481544,5.17274 9.80056,9.06247 2.519701,1.84263 7.569766,5.52731 11.222366,8.18818 3.6526,2.66087 6.56832,4.91072 6.47939,4.99965 -0.48588,0.48588 -6.15141,1.34385 -10.973774,1.66183 -5.618901,0.3705 -6.674298,0.6582 -5.621068,1.53231 1.43676,1.1924 12.006572,1.20788 16.897412,0.0247 2.81958,-0.68209 3.9105,-0.4705 7.20422,1.39723 4.58644,2.60078 9.60014,5.89007 9.35366,6.13656 -0.11728,0.11728 -1.7335,0.72254 -3.59161,1.34503 -1.85811,0.62249 -6.1397,2.57228 -9.51463,4.33286 -3.37494,1.76058 -7.56005,3.66177 -9.30026,4.22487 -1.88215,0.60902 -3.164,1.23227 -3.164,1.53837 0,1.31987 2.84943,1.22742 6.45588,-0.20945 z M 90.55947,155.38324 c 0,-0.1316 -0.800087,-0.94355 -1.777967,-1.80431 l -1.77797,-1.56503 1.010939,-0.33698 c 0.556013,-0.18534 1.010935,-0.49227 1.010935,-0.68208 0,-0.1898 -0.906055,-0.80342 -2.013456,-1.36359 -1.107401,-0.56017 -2.860186,-1.77861 -3.895076,-2.70765 -1.03489,-0.92903 -2.156673,-1.63707 -2.492851,-1.57341 -1.029195,0.19488 -0.987253,2.171 0.07041,3.31707 0.513044,0.55593 1.65956,1.99071 2.547809,3.18841 1.760344,2.37361 4.004642,3.76605 6.070805,3.76656 0.685534,1.7e-4 1.246426,-0.10738 1.246426,-0.23899 z m 79.77166,-4.02563 c 0.8435,-0.86916 1.53364,-1.86733 1.53364,-2.21814 0,-0.35082 0.60404,-1.5754 1.3423,-2.72131 1.42939,-2.21863 1.67638,-3.34752 0.80553,-3.6817 -0.71406,-0.27401 -7.13353,4.79052 -7.13353,5.62788 0,0.35693 0.37114,0.74602 0.82477,0.86465 0.78936,0.20642 0.79759,0.25716 0.19175,1.18178 -0.34815,0.53136 -0.63301,1.31734 -0.63301,1.74663 0,1.28995 1.39284,0.92692 3.06855,-0.79979 z M 71.230793,118.70916 c 3.72708,-3.83213 7.82321,-9.04943 7.82321,-9.96455 0,-0.95806 -1.62418,0.13041 -4.847306,3.24848 -5.696211,5.51057 -8.366081,9.49656 -6.360924,9.49656 0.374411,0 1.897673,-1.25122 3.38502,-2.78049 z m 112.704857,0.57527 c -0.37034,-0.58007 -1.51915,-2.20724 -2.55291,-3.61594 -1.03376,-1.40871 -2.80493,-4.17002 -3.93594,-6.13625 -2.31907,-4.03164 -3.38211,-4.66725 -3.59111,-2.14715 -0.15095,1.82023 0.83966,4.03311 3.20555,7.16076 2.77623,3.6701 8.87717,7.87553 6.87441,4.73858 z"
     id="path842"
     inkscape:connector-curvature="0" />
  <path
     style="opacity:0.98999999;fill:#ff5555;fill-opacity:1;fill-rule:nonzero;stroke:#000000;stroke-width:0.76800001;stroke-miterlimit:4;stroke-dasharray:none;stroke-opacity:1;paint-order:stroke fill markers"
     d="m 122.59992,103.06722 c -10.48075,-0.7013 -11.3764,-0.81985 -17.35934,-2.29769 -2.96914,-0.7334 -7.44009,-1.776073 -9.935444,-2.317055 -5.63317,-1.221244 -7.604587,-1.785529 -8.46645,-2.423377 -0.89813,-0.66469 -6.831041,-6.612002 -7.781952,-7.800843 -0.749862,-0.937485 -0.752782,-0.947799 -0.733106,-2.588729 0.03557,-2.966369 1.297851,-5.045151 4.029205,-6.635471 1.522505,-0.886473 2.566683,-1.748078 2.566683,-2.117903 0,-0.609241 0.49667,-1.255256 1.227977,-1.597219 0.621612,-0.29067 1.385549,-0.388959 3.661846,-0.471139 2.088293,-0.07539 4.373707,-0.344874 8.341463,-0.983571 13.122268,-2.112316 12.380908,-2.059756 34.228768,-2.426671 15.42229,-0.259003 14.04733,-0.273853 17.92935,0.193645 l 3.164,0.38103 5.08159,2.179971 c 2.79486,1.198985 5.96643,2.551793 7.04793,3.006241 5.72345,2.405016 8.10093,5.237712 8.10093,9.652007 0,1.650333 -0.33506,2.33435 -2.1106,4.308681 -1.88478,2.095807 -3.46225,3.374902 -5.36132,4.347226 -4.28583,2.194347 -11.02727,4.227612 -15.65945,4.722997 -1.04116,0.11135 -3.57569,0.50026 -5.6323,0.86425 -2.97137,0.52588 -12.6471,1.88446 -16.29941,2.28862 -0.36913,0.0408 -3.0873,-0.0874 -6.04037,-0.285 z"
     id="path844"
     inkscape:connector-curvature="0" />
  <path
     style="opacity:0.98999999;fill:#ff9955;fill-opacity:1;fill-rule:nonzero;stroke:#000000;stroke-width:0.704;stroke-miterlimit:4;stroke-dasharray:none;stroke-opacity:1;paint-order:stroke fill markers"
     d="m 116.05389,144.60319 c -0.1146,-0.0507 -0.96884,-0.64562 -1.89831,-1.32206 -0.92946,-0.67644 -3.52045,-2.47182 -5.75773,-3.98974 -6.01906,-4.0837 -9.09977,-6.31695 -13.830517,-10.02596 -4.433077,-3.47564 -8.067797,-6.70016 -8.067797,-7.1573 0,-0.24165 2.285368,-2.59907 4.969707,-5.12638 2.752203,-2.5912 3.725528,-3.37755 4.90286,-3.96101 0.928499,-0.46014 1.070047,-0.49071 2.237288,-0.48319 0.685343,0.004 2.161329,0.16456 3.279979,0.35587 4.83795,0.82737 13.15415,1.22509 25.76271,1.2321 6.61046,0.004 9.16008,-0.046 11.93221,-0.2325 8.01325,-0.53907 12.64803,-0.98024 16.88135,-1.60686 3.15166,-0.46651 3.83997,-0.45567 4.53094,0.0714 0.92143,0.70281 5.38915,6.01146 6.69159,7.95111 l 0.56752,0.84517 -0.43683,0.60828 c -1.29921,1.80912 -8.69256,9.17772 -15.08203,15.03156 -4.61925,4.23201 -6.63657,5.88688 -7.17624,5.88688 -0.42387,0 -0.78632,-0.44681 -1.33503,-1.64577 -0.28943,-0.63242 -0.69728,-1.25233 -1.0476,-1.59231 -0.72761,-0.70612 -2.00443,-1.33742 -3.0513,-1.50864 -0.44746,-0.0732 -2.97966,-0.13218 -5.62712,-0.13109 -5.64593,0.002 -22.22233,0.35397 -22.54633,0.4783 -0.33815,0.12976 -0.40733,0.54209 -0.16846,1.00401 0.31864,0.61619 1.39058,1.63359 3.76985,3.57806 1.17226,0.95803 2.13138,1.76651 2.13138,1.79661 0,0.0911 -1.40856,0.0424 -1.63209,-0.0565 z m 36.0336,-9.47173 c 1.82094,-1.47036 10.65822,-9.68394 12.20214,-11.34098 1.2957,-1.39063 1.31581,-2.13268 0.10358,-3.82227 -2.02571,-2.82343 -4.46825,-5.536 -5.13573,-5.70353 -0.94802,-0.23794 -1.3804,0.42692 -2.65465,4.08199 -0.50941,1.4612 -1.0851,2.88603 -1.27932,3.16629 -0.82091,1.18457 -1.80937,1.38569 -6.91429,1.40681 -3.09419,0.0128 -3.92373,-0.0232 -4.42548,-0.19218 -0.33963,-0.11436 -1.29563,-0.67042 -2.12445,-1.23569 -2.41263,-1.64544 -4.4981,-2.50754 -7.90212,-3.26661 -2.63655,-0.58793 -3.87325,-0.69488 -7.93221,-0.68595 -5.29611,0.0116 -9.54773,0.51906 -14.10169,1.68299 -4.77768,1.22111 -7.23894,2.58803 -8.35019,4.63749 -0.4298,0.79269 -0.46337,0.94299 -0.46337,2.07494 0,1.01385 0.0536,1.32358 0.31647,1.83051 0.71173,1.37227 1.98296,2.25925 3.8232,2.66757 0.87321,0.19375 1.72333,0.21697 6.16542,0.16841 16.10007,-0.176 21.08281,-0.0208 26.44416,0.82344 3.81251,0.60037 7.44779,1.85157 9.29635,3.19962 0.78346,0.57134 1.76834,1.13719 1.98302,1.13932 0.0903,9.5e-4 0.51744,-0.28358 0.94916,-0.63217 z M 96.367671,127.283 c 0.264858,-0.18551 0.301357,-0.33159 0.301357,-1.20606 0,-3.13178 2.38919,-5.99309 6.666322,-7.98362 1.41705,-0.65948 2.14724,-1.2042 2.14724,-1.60185 0,-0.49631 -2.3627,-1.31652 -5.2042,-1.80663 -1.632678,-0.28161 -2.423125,-0.265 -3.069015,0.0645 -0.832788,0.42486 -2.749041,2.09912 -4.660161,4.07167 -2.402905,2.48014 -2.749397,3.2794 -1.910803,4.40768 0.75994,1.02246 3.546917,3.40658 4.589596,3.92617 0.804029,0.40066 0.757964,0.39548 1.139664,0.12813 z m 48.498889,-5.53344 c 0.4268,-0.4268 0.54574,-1.43699 0.37721,-3.20384 -0.22022,-2.30885 -0.48376,-2.48985 -3.71916,-2.55446 -2.44353,-0.0488 -3.59455,0.10023 -3.96891,0.5139 -0.47826,0.52847 0.0882,1.10114 3.09299,3.12667 0.80915,0.54546 1.78542,1.27747 2.16949,1.6267 1.00979,0.91819 1.50299,1.03642 2.04838,0.49103 z"
     id="path850"
     inkscape:connector-curvature="0" />
  <path
     style="opacity:0.98999999;fill:#ff9955;fill-opacity:1;fill-rule:nonzero;stroke:#000000;stroke-width:0.44800001;stroke-miterlimit:4;stroke-dasharray:none;stroke-opacity:1;paint-order:stroke fill markers"
     d="m 130.04578,153.44972 c -2.53649,-1.34082 -8.69423,-5.11943 -10.41918,-6.39359 -0.51025,-0.3769 -0.80116,-0.84621 -0.80116,-1.29249 0,-0.28742 0.0352,-0.31224 0.64407,-0.45447 0.39484,-0.0922 1.02419,-0.49519 1.69492,-1.08523 0.58049,-0.51067 1.50344,-0.98471 2.20338,-1.13171 0.3854,-0.0809 0.73823,-0.0979 1.45763,-0.0701 1.4147,0.0547 2.09869,0.23139 4.64407,1.19993 2.79619,1.06398 3.15211,1.09227 7.66102,0.60893 2.56256,-0.27469 3.90159,-0.36427 4.77966,-0.31974 0.79718,0.0404 1.13299,0.12231 1.36649,0.33323 0.25567,0.23094 0.24165,0.37178 -0.067,0.67326 -1.35361,1.32212 -11.67618,8.33163 -12.26331,8.32735 -0.0851,-6.2e-4 -0.49041,-0.17853 -0.90058,-0.39535 z m 0.88144,-0.72508 c 1.04686,-0.63038 3.48676,-3.0064 4.25415,-4.14276 0.28107,-0.4162 0.32366,-0.70987 0.15131,-1.04315 -0.0566,-0.10948 -0.17101,-0.21368 -0.25423,-0.23156 -0.39059,-0.0839 -3.34592,-0.24063 -4.53879,-0.24063 -2.61598,0 -5.33898,0.36006 -6.29049,0.83179 -0.46138,0.22874 -0.45219,0.41514 0.0463,0.93957 0.52879,0.55628 1.17276,1.07655 2.19158,1.77058 1.35644,0.92402 3.78294,2.35184 4.00338,2.3557 0.0208,3.4e-4 0.21738,-0.10743 0.43677,-0.23954 z"
     id="path852"
     inkscape:connector-curvature="0" />
  <path
     style="opacity:0.98999999;fill:#ffdd55;fill-opacity:1;fill-rule:nonzero;stroke:#000000;stroke-width:0.33000001;stroke-miterlimit:4;stroke-dasharray:none;stroke-opacity:1;paint-order:stroke fill markers"
     d="m 150.72375,132.59216 c -0.0373,-0.0126 -0.17458,-0.0407 -0.30509,-0.0623 -0.13051,-0.0216 -0.49661,-0.19233 -0.81356,-0.3793 -0.70945,-0.41852 -1.66414,-0.7928 -3.03461,-1.18973 -3.42923,-0.99319 -8.12945,-1.78659 -11.81284,-1.994 -3.67957,-0.2072 -5.25871,-0.23315 -14.71187,-0.24171 -10.18501,-0.009 -10.92279,-0.0272 -12.34346,-0.30099 -1.11761,-0.21536 -1.5841,-0.48344 -1.87616,-1.07814 -0.16974,-0.34564 -0.18669,-0.44737 -0.18212,-1.09297 0.004,-0.56886 0.0357,-0.79021 0.15747,-1.10184 0.53706,-1.37404 2.27731,-2.37765 6.1385,-3.5401 2.35306,-0.70842 6.98252,-1.83586 8.74984,-2.13091 1.37005,-0.22873 2.1753,-0.29176 3.72881,-0.29187 3.96441,-3e-4 8.44919,0.52203 10.9246,1.27236 2.21704,0.67202 3.51514,1.36094 6.60813,3.50703 l 1.80392,1.25165 0.46727,-0.0273 c 0.257,-0.015 1.84015,-0.0884 3.51812,-0.16302 4.84872,-0.21562 7.51682,-0.49033 8.28012,-0.85254 0.6245,-0.29635 1.6258,-2.18717 2.64611,-4.99682 0.49978,-1.37626 0.6779,-1.79584 0.7316,-1.72341 0.039,0.0527 0.4981,0.56147 1.02013,1.13068 0.52204,0.56922 1.15602,1.30934 1.40887,1.64473 0.44929,0.59598 0.86232,1.3146 0.86232,1.50036 0,0.57936 -4.37308,5.10247 -8.33724,8.62327 -1.69129,1.50213 -2.37189,1.98005 -3.08378,2.16543 -0.41626,0.10839 -0.43076,0.11029 -0.54508,0.0715 z"
     id="path860"
     inkscape:connector-curvature="0" />
  <path
     style="opacity:0.98999999;fill:#ffdd55;fill-opacity:1;fill-rule:nonzero;stroke:#000000;stroke-width:0.322;stroke-miterlimit:4;stroke-dasharray:none;stroke-opacity:1;paint-order:stroke fill markers"
     d="m 133.36781,143.12609 c -1.33752,-0.12652 -2.54904,-0.43208 -3.38983,-0.85497 -1.45061,-0.72961 -3.59849,-1.09151 -6.02537,-1.01523 -1.66243,0.0522 -2.81785,0.27885 -3.36446,0.65983 -0.66889,0.46621 -1.47352,0.81183 -1.89002,0.81183 -0.78648,0 -2.49745,-1.51243 -2.62916,-2.32408 -0.0356,-0.21935 -0.0208,-0.25646 0.12438,-0.31165 0.45404,-0.17263 4.48734,-0.32245 11.27616,-0.41887 7.91512,-0.11242 11.79725,0.004 13.01695,0.39074 0.61587,0.19522 1.21806,0.70334 1.29613,1.09364 0.0402,0.20094 0.0131,0.25157 -0.29194,0.54557 -1.09107,1.05166 -4.93344,1.72487 -8.12284,1.42319 z"
     id="path862"
     inkscape:connector-curvature="0" />
  <path
     style="opacity:0.98999999;fill:#ffdd55;fill-opacity:1;fill-rule:nonzero;stroke:#000000;stroke-width:0.42199999;stroke-miterlimit:4;stroke-dasharray:none;stroke-opacity:1;paint-order:stroke fill markers"
     d="m 94.249166,123.98574 c -0.626446,-0.29041 -1.348221,-1.35175 -1.231839,-1.81137 0.07208,-0.28465 0.888264,-1.22006 2.122791,-2.43287 1.369224,-1.34514 2.354589,-2.19268 3.24253,-2.78899 0.606946,-0.40761 0.60884,-0.40831 1.035319,-0.38115 1.081583,0.0689 0.884133,0.66885 -0.68796,2.09047 -1.275371,1.15329 -2.357476,2.4227 -2.962019,3.47472 -0.521317,0.90719 -0.862836,1.43713 -1.089727,1.69097 -0.218458,0.2444 -0.232236,0.24948 -0.429095,0.15822 z"
     id="path864"
     inkscape:connector-curvature="0" />
  <path
     style="opacity:0.98999999;fill:#ffdd55;fill-opacity:1;fill-rule:nonzero;stroke:#000000;stroke-width:0.207;stroke-miterlimit:4;stroke-dasharray:none;stroke-opacity:1;paint-order:stroke fill markers"
     d="m 129.69081,150.33709 c -0.29123,-0.0328 -0.60778,-0.11551 -0.78813,-0.20582 -0.38582,-0.19317 -0.41708,-0.47078 -0.0813,-0.72222 0.33688,-0.25229 0.91345,-0.4265 1.40928,-0.42581 0.34156,4.6e-4 0.55195,0.0628 0.74368,0.22038 0.23431,0.19256 0.4219,0.55149 0.3866,0.73969 -0.047,0.25029 -0.55516,0.41579 -1.25995,0.41031 -0.15567,-0.001 -0.34023,-0.009 -0.41015,-0.0165 z"
     id="path866"
     inkscape:connector-curvature="0" />
</svg>
