<?xml version="1.0" encoding="UTF-8" standalone="no"?>
<!-- Created with Inkscape (http://www.inkscape.org/) -->

<svg
   xmlns:dc="http://purl.org/dc/elements/1.1/"
   xmlns:cc="http://creativecommons.org/ns#"
   xmlns:rdf="http://www.w3.org/1999/02/22-rdf-syntax-ns#"
   xmlns:svg="http://www.w3.org/2000/svg"
   xmlns="http://www.w3.org/2000/svg"
   xmlns:sodipodi="http://sodipodi.sourceforge.net/DTD/sodipodi-0.dtd"
   xmlns:inkscape="http://www.inkscape.org/namespaces/inkscape"
   viewBox="0 0 256 256"
   version="1.1"
   id="svg8"
   inkscape:version="0.92.3 (2405546, 2018-03-11)"
   sodipodi:docname="super_cape.svg">
  <defs
     id="defs2" />
  <sodipodi:namedview
     id="base"
     pagecolor="#ffffff"
     bordercolor="#666666"
     borderopacity="1.0"
     inkscape:pageopacity="0.0"
     inkscape:pageshadow="2"
     inkscape:zoom="2.8"
     inkscape:cx="125.57673"
     inkscape:cy="141.26406"
     inkscape:document-units="mm"
     inkscape:current-layer="layer1"
     showgrid="false"
     inkscape:window-width="1920"
     inkscape:window-height="1001"
     inkscape:window-x="-9"
     inkscape:window-y="-9"
     inkscape:window-maximized="1"
     inkscape:snap-global="false"
     units="px" />
  <metadata
     id="metadata5">
    <rdf:RDF>
      <cc:Work
         rdf:about="">
        <dc:format>image/svg+xml</dc:format>
        <dc:type
           rdf:resource="http://purl.org/dc/dcmitype/StillImage" />
        <dc:title />
      </cc:Work>
    </rdf:RDF>
  </metadata>
  <g
     inkscape:label="Calque 1"
     inkscape:groupmode="layer"
     id="layer1"
     transform="translate(0,-229.26668)">
    <path
       style="fill:#000000;stroke-width:0.55840474"
       d="m 96.783355,461.88092 c -3.893316,-1.48702 -6.120397,-3.67454 -6.96823,-6.84452 -0.822145,-3.07391 -0.680981,-3.0539 -8.381102,-1.18839 -3.167561,0.76741 -7.073665,1.39562 -8.680201,1.39602 -3.392938,4.3e-4 -3.673016,-0.46158 -3.389982,-5.59695 l 0.168522,-3.05761 h -2.792024 -2.792025 l -0.87352,4.18803 c -0.819093,3.92708 -0.95828,4.17616 -2.23362,3.99728 -2.327311,-0.32639 -7.778231,-3.54086 -9.066163,-5.34641 -1.048681,-1.47013 -1.227421,-2.45742 -1.221619,-6.74774 0.01284,-9.82373 1.629637,-20.72129 9.193383,-61.98291 0.619291,-3.37835 1.750929,-9.9117 2.514758,-14.51853 2.648467,-15.97365 3.819111,-21.18085 10.395642,-46.24103 4.668053,-17.78785 6.289707,-24.71751 7.800207,-33.33165 2.319407,-13.22733 3.930088,-21.60302 4.798147,-24.95097 0.750575,-2.89478 1.156956,-3.56084 2.516107,-4.12382 0.891514,-0.36928 3.005304,-1.50503 4.697291,-2.52389 1.691988,-1.01887 3.423026,-1.71944 3.846776,-1.55684 0.423732,0.1626 1.355438,-0.0231 2.070461,-0.41266 0.77631,-0.42295 2.806217,-0.65074 5.038767,-0.56542 2.05628,0.0786 4.2368,-0.1237 4.84557,-0.4495 0.88745,-0.47496 1.4193,-0.33374 2.68294,0.71239 2.37253,1.96412 4.87445,2.60105 10.17508,2.59035 5.59846,-0.0113 11.25482,-1.0886 14.55464,-2.77205 2.26479,-1.1554 2.40399,-1.16209 4.83775,-0.23263 2.35891,0.90088 2.62238,0.90143 4.4929,0.009 1.8439,-0.87929 2.08746,-0.88174 3.3813,-0.034 0.85949,0.56316 2.06623,0.8118 3.14612,0.64825 1.00424,-0.15209 2.46674,0.10802 3.42706,0.60951 0.92136,0.48115 3.17307,1.15257 5.0038,1.49203 l 3.32856,0.61722 2.05965,7.79321 c 1.13282,4.28628 2.48053,9.80348 2.99492,12.26046 0.51438,2.45699 1.1715,5.59801 1.46029,6.98006 0.28879,1.38205 1.41302,6.53334 2.49829,11.44729 1.88694,8.54365 3.5387,16.88401 5.55015,28.02462 0.50944,2.82152 2.06579,8.85229 3.45855,13.40172 3.87961,12.67254 5.67936,18.97078 8.26763,28.93266 5.25422,20.22265 7.13784,28.38718 10.91804,47.32429 5.75091,28.80951 6.12272,33.51017 2.94886,37.28207 -1.27375,1.51378 -5.64745,4.27545 -6.01833,3.80014 -0.0766,-0.0982 -0.36636,-1.93753 -0.64389,-4.08739 -0.44084,-3.41518 -0.65961,-3.93088 -1.73218,-4.08349 -0.67518,-0.0961 -1.77227,0.11679 -2.43795,0.4731 -1.07642,0.57608 -1.17016,0.95073 -0.84717,3.38558 l 0.36318,2.73783 -2.66307,1.68886 c -4.30344,2.72917 -6.11226,3.01604 -19.1532,3.03757 l -12.0057,0.0198 -0.17551,1.52332 c -0.20573,1.78569 -2.20156,3.51515 -5.05436,4.37981 -1.30692,0.39612 -11.17404,0.68434 -27.71601,0.80962 -24.5351,0.18581 -25.816771,0.14475 -28.589485,-0.91418 z m 41.991195,-0.73922 c 9.51193,-0.023 14.30884,-0.23961 15.05457,-0.67992 0.96867,-0.57195 0.79885,-0.69054 -1.47791,-1.03195 -1.4148,-0.21216 -3.31378,-0.83664 -4.21998,-1.38773 -1.53688,-0.93464 -1.6716,-1.29692 -2.00431,-5.3897 -0.19619,-2.41324 -0.52663,-17.90075 -0.73432,-34.41668 l -0.37764,-30.02898 -1.86071,6.47327 c -3.45102,12.00573 -6.88524,20.91799 -8.06046,20.91799 -0.23481,0 -0.58056,-1.31923 -0.76835,-2.93161 -0.29148,-2.50282 -0.0485,-3.70759 1.66139,-8.23649 7.56009,-20.02446 10.00789,-39.3275 10.7096,-84.45476 l 0.3364,-21.63425 -6.15545,6.27812 c -3.38552,3.45296 -8.0176,8.22555 -10.29355,10.60574 -2.27595,2.3802 -4.37951,4.3254 -4.67456,4.32268 -1.06235,-0.01 -24.26865,-20.88042 -24.26865,-21.82605 0,-0.61911 5.97483,-8.89687 7.06123,-9.78289 0.52589,-0.4289 5.55674,-0.59628 16.17971,-0.53833 l 15.4165,0.0841 1.47186,1.66037 c 0.80953,0.9132 2.30992,2.66314 3.33419,3.88876 l 1.86234,2.22838 -0.31327,-3.62273 c -0.17228,-1.99251 -0.48415,-8.59275 -0.69301,-14.6672 l -0.37975,-11.04446 -1.92957,3.4991 c -1.06126,1.92451 -3.17124,5.18107 -4.68882,7.2368 -2.75921,3.73762 -2.75937,3.73773 -6.77822,4.58348 -4.35321,0.91612 -6.61443,0.93411 -6.89957,0.0549 -0.25085,-0.7735 2.18016,-1.81533 5.98062,-2.56303 3.12268,-0.61435 3.27004,-0.72818 5.9778,-4.61747 1.52692,-2.19317 3.32269,-5.0647 3.99061,-6.38116 1.3017,-2.56569 3.00493,-13.3569 2.18788,-13.86186 -0.25794,-0.15942 -0.90639,0.5108 -1.44099,1.48938 -2.06366,3.77753 -5.78783,8.37448 -7.93634,9.79629 -2.22088,1.46971 -8.15844,3.22548 -9.04815,2.67559 -1.24885,-0.77182 -0.0474,-1.91325 4.19895,-3.989 3.72913,-1.82295 5.34426,-3.03652 8.08963,-6.07836 3.32891,-3.68839 3.39439,-3.81984 2.21681,-4.45007 -0.968,-0.51805 -1.67247,-0.45604 -3.4828,0.30661 -4.50512,1.89791 -7.9128,2.52804 -13.71665,2.53641 -7.18636,0.0105 -9.51614,-0.45094 -11.74377,-2.32536 -2.78182,-2.34075 -3.1126,-0.97374 -0.91538,3.78303 1.59696,3.45727 2.33314,4.39489 4.49253,5.72173 1.42041,0.87279 2.58257,1.80026 2.58257,2.06106 0,1.12359 -1.11612,0.96026 -3.41932,-0.50038 -3.01588,-1.91261 -5.34215,-4.59429 -6.76695,-7.80082 -0.59133,-1.33079 -1.15543,-2.33592 -1.25355,-2.23361 -0.40593,0.42326 1.56202,9.97761 2.8436,13.80558 1.64867,4.9244 3.65665,8.49909 5.77568,10.28215 0.85366,0.7183 3.97341,2.03343 6.93277,2.9225 2.95936,0.88906 5.38065,1.81348 5.38065,2.05425 0,1.35575 -9.23107,-0.82098 -12.40933,-2.92618 -2.9723,-1.96876 -6.69393,-8.13036 -8.91808,-14.76495 -1.0935,-3.26188 -1.51266,-4.02822 -1.53561,-2.80759 -0.0173,0.9234 -0.28228,2.55307 -0.5887,3.6215 -2.37193,8.27038 -3.693695,33.49865 -2.803321,53.50587 1.286051,28.89812 4.434671,53.17528 9.223981,71.12079 0.71109,2.66442 1.18721,4.95006 1.05806,5.07921 -0.12916,0.12916 0.64333,2.66071 1.71662,5.62568 1.07328,2.96501 1.89311,5.40957 1.82185,5.43239 -2.14821,0.68795 -2.69091,0.40156 -3.82968,-2.02107 -1.38289,-2.942 -2.02053,-2.92668 -1.04635,0.0252 0.36834,1.11607 0.51643,2.18251 0.32909,2.36987 -0.54053,0.54054 -1.86752,-1.59767 -2.59704,-4.18469 -0.37724,-1.33784 -1.00901,-2.37323 -1.44807,-2.37323 -1.49095,0 -2.4229,-4.12852 -3.52937,-15.63532 -0.28058,-2.91767 -0.8942,-8.25563 -1.36362,-11.86217 -1.774449,-13.63267 -3.045965,-50.66106 -2.488124,-72.45697 0.408728,-15.96958 1.149938,-24.53 3.093374,-35.72596 1.88182,-10.84108 2.05203,-12.2342 1.36199,-11.14814 -1.82891,2.87859 -4.308355,21.99638 -5.101549,39.33562 -0.295051,6.44959 -0.700579,12.73163 -0.901183,13.96012 -0.200621,1.2285 -0.333544,16.27499 -0.295374,33.43665 0.06491,29.20246 1.037064,61.96271 2.354975,79.36112 0.302426,3.99258 0.705849,13.03874 0.896495,20.10256 l 0.346619,12.84331 -2.604835,2.3999 c -1.43265,1.31995 -2.458978,2.63587 -2.28074,2.92428 0.338701,0.54803 4.923634,1.97168 7.805712,2.42374 0.92137,0.14458 6.32393,0.10892 12.00571,-0.0792 5.68177,-0.18809 16.61254,-0.35716 24.29061,-0.3757 z M 118.95118,261.41467 c -3.71782,-0.59496 -7.07666,-2.0055 -7.51873,-3.1575 -0.49595,-1.29243 -0.18355,-1.30715 2.89735,-0.1365 1.56777,0.59571 4.51243,1.25338 6.54366,1.46148 2.03123,0.20811 3.81877,0.58162 3.97231,0.83004 0.2869,0.46422 -1.55325,1.67597 -2.36785,1.55923 -0.25053,-0.0359 -1.83756,-0.28644 -3.52674,-0.55675 z m 11.1681,-1.57115 c 0,-0.66943 6.66574,-4.72893 7.08179,-4.31288 0.73139,0.7314 -0.50989,2.08536 -3.12815,3.41214 -2.98413,1.51217 -3.95364,1.73305 -3.95364,0.90074 z M 93.628083,454.65428 c 1.243339,-0.47271 1.389788,-0.69373 0.734367,-1.10826 -1.504381,-0.95147 -3.331506,-0.63234 -3.331506,0.58191 0,1.2729 0.413289,1.35664 2.597139,0.52635 z M 184.61612,453.781 c 1.56444,-0.43912 3.32341,-1.17278 3.90884,-1.63031 1.01486,-0.79318 0.99942,-0.82022 -0.33158,-0.58093 -10.71608,1.9266 -11.35312,1.993 -13.52079,1.40931 -1.16466,-0.31361 -2.46829,-1.12571 -2.89697,-1.80469 -0.65553,-1.03826 -3.10429,-12.69771 -6.76822,-32.22595 -3.34233,-17.81424 -7.69758,-60.56157 -9.1881,-90.18235 -0.32455,-6.44959 -0.71251,-13.35984 -0.86216,-15.35615 -0.14973,-1.99629 -0.52939,-10.41424 -0.8439,-18.70656 -0.31449,-8.2923 -0.94178,-18.0848 -1.39399,-21.7611 -0.45221,-3.6763 -0.82837,-9.20451 -0.83593,-12.28491 l -0.0145,-5.60071 -2.0099,-1.00104 c -1.10546,-0.55057 -2.1001,-0.91086 -2.21034,-0.80063 -0.11021,0.11023 0.0379,1.03153 0.32927,2.04733 1.82554,6.36533 2.67516,46.70064 1.39452,66.2045 -0.46382,7.06382 -0.94138,23.89971 -1.06124,37.41312 -0.20191,22.76499 -0.034,34.79894 1.1045,79.16232 l 0.42656,16.62101 1.72505,-0.28301 c 0.94878,-0.15568 6.49942,-0.0665 12.33476,0.19816 11.80014,0.53517 16.50052,0.34514 20.71335,-0.83741 z M 82.003866,452.81205 c 3.48099,-0.70941 7.980102,-1.25257 9.998017,-1.20701 l 3.668952,0.0829 -0.376773,-13.99649 c -0.207226,-7.69808 -0.608818,-20.27855 -0.892431,-27.95662 -1.391618,-37.67407 -1.706124,-82.85258 -0.69388,-99.67524 1.715808,-28.51568 3.874196,-48.3049 6.059974,-55.56127 0.313095,-1.03943 0.240585,-1.02838 -1.046539,0.15951 -1.896656,1.75041 -2.592644,4.45165 -3.220993,12.5012 -0.29552,3.7859 -1.156527,12.66294 -1.913319,19.72676 -1.700113,15.86862 -2.976931,32.91333 -5.061403,67.56697 -0.461854,7.67806 -1.091845,17.22679 -1.400004,21.21939 -0.308144,3.99258 -0.941846,12.66182 -1.408214,19.26496 -0.466368,6.60314 -1.215931,17.15699 -1.665688,23.45299 -0.449757,6.29602 -1.083443,15.21654 -1.408198,19.82337 -0.952368,13.51016 -0.790737,12.91618 -3.817649,14.02911 -2.214872,0.81437 -4.213701,1.91442 -3.402191,1.87242 0.138159,-0.006 3.099365,-0.59344 6.580339,-1.30287 z m -7.166665,-2.01847 3.071219,-1.06428 -1.954409,-0.79758 c -1.074928,-0.43869 -2.645448,-0.96148 -3.490035,-1.16176 -1.480892,-0.35118 -1.53561,-0.28419 -1.53561,1.88009 0,1.23434 0.18846,2.23606 0.4188,2.22604 0.230341,-0.01 1.80086,-0.49715 3.490035,-1.08251 z m 126.459249,-1.19073 c 1.08562,-0.95318 1.97385,-2.11472 1.97385,-2.5812 0,-0.67748 -0.16287,-0.71297 -0.80949,-0.17631 -0.44521,0.36949 -1.56975,0.59206 -2.49895,0.49459 -0.9292,-0.0975 -1.69572,0.008 -1.70333,0.23417 -0.14667,4.34928 0.16102,4.55471 3.03792,2.02875 z m -21.27732,-1.80563 c 6.27682,-2.9301 12.46883,-4.47125 18.1465,-4.51653 l 5.22579,-0.0416 -0.32345,-2.51281 c -2.6316,-20.44441 -6.74886,-41.59 -13.21037,-67.84618 -1.20929,-4.91396 -2.73942,-11.19602 -3.40028,-13.96012 -0.66085,-2.7641 -2.19627,-8.29231 -3.41202,-12.28489 -3.88716,-12.76561 -5.36466,-18.30572 -6.25465,-23.45301 -1.21524,-7.02837 -6.02462,-30.29396 -8.9459,-43.27637 -4.13526,-18.37736 -5.4951,-23.45299 -6.28348,-23.45299 -0.40135,0 -0.72973,0.37692 -0.72973,0.8376 0,1.30646 -1.01809,1.00519 -3.99987,-1.18363 -1.51442,-1.11168 -2.88157,-1.89315 -3.03814,-1.73658 -0.15663,0.15655 -0.0246,2.88791 0.29325,6.06967 1.18138,11.82603 2.29052,25.71759 3.11471,39.01011 0.46655,7.52449 0.97152,15.56553 1.12218,17.86893 0.15069,2.30343 0.52901,10.34447 0.8408,17.86897 0.76019,18.34681 1.21575,22.81956 4.17887,41.02919 0.75085,4.6143 2.01446,12.78705 2.80804,18.16171 3.12231,21.1464 6.37723,39.8746 8.34627,48.02281 0.40818,1.68917 0.90702,4.02966 1.10852,5.20109 0.20151,1.17143 0.5404,2.03824 0.75313,1.92623 0.21272,-0.11198 1.85965,-0.89121 3.65983,-1.73154 z M 63.856903,445.50953 c 7.421842,0.0323 8.838458,0.19 11.471695,1.27688 1.652323,0.68201 3.114402,1.12982 3.249076,0.99516 0.536605,-0.5366 2.981656,-30.09561 3.008565,-36.3716 0.03165,-7.37124 0.70042,-16.78138 3.571935,-50.25642 2.388567,-27.84508 3.470451,-42.57374 4.204254,-57.23649 0.850998,-17.00478 1.080037,-20.24042 1.99613,-28.19944 1.005431,-8.73515 2.433261,-18.51578 2.88443,-19.75832 0.256478,-0.70637 0.05045,-0.6598 -0.947837,0.21415 -0.70156,0.61425 -1.499559,1.70262 -1.773324,2.41861 -0.485277,1.26917 -2.024999,1.41369 -1.747299,0.16402 0.163061,-0.73377 -0.935531,-0.8146 -1.989254,-0.14637 -0.689367,0.43717 -1.900237,6.02576 -5.400554,24.92557 -2.649415,14.30537 -4.277431,21.52416 -7.602365,33.70967 -5.681307,20.82139 -10.147213,41.44232 -12.532695,57.86872 -0.490611,3.37835 -1.616883,9.6604 -2.502854,13.9601 -4.393519,21.3225 -7.154038,39.69121 -7.628216,50.75868 l -0.356468,8.31991 1.813648,-1.33986 c 1.732857,-1.28014 2.190904,-1.3382 10.281133,-1.30297 z M 133.84862,309.91992 c 4.30606,-4.37651 8.89478,-9.14074 10.19717,-10.58719 l 2.36796,-2.62992 -2.42359,-2.90319 c -4.53038,-5.42691 -4.84562,-5.67565 -6.71844,-5.30109 -0.9394,0.18788 -7.57182,0.3416 -14.73872,0.3416 h -13.03074 l -3.09322,4.18263 c -1.70127,2.30045 -3.09321,4.41032 -3.09321,4.6886 0,0.27828 0.94232,1.32538 2.09403,2.32688 1.15171,1.00151 4.35556,3.8822 7.11966,6.40153 7.89296,7.19403 12.76991,11.4374 13.14504,11.4374 0.18968,0 3.86801,-3.58077 8.17406,-7.95725 z m -11.66989,2.91546 c -1.55264,-1.54449 -2.72555,-2.87699 -2.60646,-2.96109 0.11904,-0.0842 2.54088,-0.0519 5.38176,0.0716 3.51423,0.15278 5.16525,0.4384 5.16525,0.89336 0,0.73156 -3.96428,4.80421 -4.67635,4.80421 -0.24267,0 -1.71156,-1.26368 -3.2642,-2.80818 z m 5.14645,0.29756 c 0.72018,-0.76659 1.20374,-1.48815 1.07454,-1.60347 -0.36475,-0.32562 -6.0473,-0.77623 -6.32219,-0.50132 -0.25716,0.25715 3.06324,3.45404 3.61678,3.48224 0.17679,0.01 0.91069,-0.61086 1.63087,-1.37745 z m -1.75588,-4.55627 c -0.82073,-0.14186 -1.59813,-0.71212 -1.74704,-1.28152 -0.30225,-1.15577 -3.11297,-1.98168 -4.85854,-1.42766 -0.62113,0.19715 -1.12935,0.84407 -1.12935,1.43763 0,0.59354 -0.20343,1.07918 -0.45206,1.07918 -0.69569,0 -6.56667,-5.42481 -6.24016,-5.76593 0.1584,-0.16541 2.04293,-0.0747 4.18803,0.2015 2.14512,0.27624 5.6877,0.51047 7.87242,0.52051 4.9573,0.0228 9.70933,0.89641 10.79801,1.98508 2.04803,2.04805 -3.34966,4.12945 -8.43131,3.25121 z m 6.08559,-1.10274 c 1.66768,-0.44691 1.59927,-1.77894 -0.12499,-2.43451 -0.75978,-0.28888 -5.0944,-0.68927 -9.63247,-0.8898 l -8.25106,-0.36456 1.23704,1.28753 c 1.11326,1.1587 1.37702,1.21263 2.63578,0.53895 2.03563,-1.08943 4.32673,-0.84751 7.38335,0.77966 2.701,1.43785 4.40669,1.71136 6.75238,1.08273 z m 6.43467,-6.97804 c -0.34602,-0.34603 -1.96679,-0.95286 -3.6017,-1.34852 -2.88989,-0.69938 -2.91356,-0.7207 -0.85082,-0.76687 1.16695,-0.0262 2.8906,0.35011 3.83032,0.83606 1.65501,0.85584 1.75922,0.83505 3.3227,-0.66288 1.95175,-1.86989 2.02995,-2.98577 0.32172,-4.59057 -1.70511,-1.60186 -2.05802,-1.53303 -2.05802,0.40132 0,1.78722 -0.78809,2.29337 -3.57085,2.29337 -1.26849,0 -2.2723,-0.48854 -3.38043,-1.64517 -2.75767,-2.87838 -8.65797,-3.31433 -12.3263,-0.91075 -0.76087,0.49855 -1.38341,1.13768 -1.38341,1.42031 0,0.81976 2.36674,2.25242 3.72093,2.25242 0.68135,0 11.30725,0.25625 11.52334,0.60589 0.28244,0.457 -10.11009,0.55691 -11.6735,0.27923 -3.47852,-0.61783 -4.05199,-0.8791 -4.41074,-2.0094 -0.8444,-2.66047 2.75872,-5.02589 7.62522,-5.00591 3.24935,0.0133 7.53944,1.62489 8.08074,3.03547 0.21676,0.56489 1.05367,0.8611 2.43294,0.8611 2.02112,0 2.11632,-0.0864 2.45968,-2.23362 0.19643,-1.22849 0.55316,-2.23362 0.7927,-2.23362 0.23956,0 1.52382,1.10886 2.85392,2.46414 l 2.41837,2.46414 -2.14116,2.5615 c -2.2214,2.65752 -2.92121,2.9968 -3.98565,1.93236 z m -31.56289,-1.87454 c -0.84458,-0.74336 -1.53398,-1.55209 -1.53201,-1.79717 0.002,-0.24507 1.02666,-1.63918 2.27706,-3.09801 2.14037,-2.49713 2.43439,-2.65242 5.02205,-2.65242 1.51171,0 2.74857,0.23079 2.74857,0.51286 0,0.28208 -0.90537,1.07241 -2.01193,1.75631 -2.13306,1.3183 -4.12497,4.06271 -4.12844,5.6881 -0.003,1.30152 -0.53551,1.20964 -2.3753,-0.40967 z m 1.81481,-1.6738 c 0,-0.41863 1.04856,-1.65865 2.33012,-2.75562 1.28157,-1.09699 2.15114,-2.17349 1.93237,-2.39225 -0.59484,-0.59484 -3.80085,1.3691 -5.2951,3.24366 -1.05693,1.32592 -1.18026,1.80423 -0.63474,2.46154 0.75662,0.91167 1.66735,0.60727 1.66735,-0.55733 z m 24.68427,-5.20959 c -1.514,-1.16502 -1.11447,-1.78102 1.15517,-1.78102 1.26778,0 1.56466,0.20126 1.30294,0.88328 -0.18642,0.4858 -0.33894,1.114 -0.33894,1.39601 0,0.76521 -0.6872,0.60364 -2.11917,-0.49827 z"
       id="path826"
       inkscape:connector-curvature="0"
       sodipodi:nodetypes="csccccccscccscscccsccccsccsccccccsssccccscccccccsccccscccccccscssccsccscscscccccscccscscccccccscccsccscccccsscsccscsccccccsccsscccccscccccccsccsccssscsccsccccscssccccccccsssccccccccssscccsscsscccccccccscccsccccccccssssssscccsccsscscccccccssscccccssscscccsccccscsscssscccssccscccscccsscccccccccccsccscccccssccsscscccscscccscccsscccsccccscscsc" />
    <path
       style="opacity:0.98999999;fill:#ff8080;fill-opacity:1;fill-rule:nonzero;stroke:#000000;stroke-width:2.01448822;stroke-miterlimit:4;stroke-dasharray:none;stroke-opacity:1;paint-order:stroke fill markers"
       d="m 100.88983,231.86571 c -2.777036,-0.63808 -5.892861,-1.80632 -5.892861,-2.20945 0,-0.22459 1.073929,-1.49057 2.38651,-2.81328 l 2.386511,-2.40494 -0.436967,-13.13974 c -0.240332,-7.22686 -0.663443,-16.67545 -0.940248,-20.99688 -1.340192,-20.92288 -1.923831,-40.50743 -2.197823,-73.75 -0.150922,-18.310801 -0.0914,-29.485833 0.185455,-34.82143 1.427862,-27.517474 2.279249,-37.479335 4.181663,-48.928571 0.57795,-3.478309 1.52349,-7.137601 1.77843,-6.882663 0.0871,0.08712 -0.48342,4.036865 -1.26787,8.777215 -2.573788,15.553314 -3.129736,22.44093 -3.450516,42.748305 -0.296657,18.780293 0.504333,45.003124 1.843641,60.357144 0.655515,7.51494 2.919255,27.32318 3.408075,29.82143 0.63821,3.26179 1.05498,4.2394 2.13521,5.00859 0.69088,0.49196 1.23293,1.37212 1.63969,2.6625 1.11774,3.54589 3.31617,5.18507 2.58407,1.92672 -0.65278,-2.34333 -0.60254,-3.00198 0.60233,-0.61315 0.87385,1.72412 1.59762,2.44467 2.44933,2.43844 1.7858,-0.013 1.78042,-0.32535 -0.10516,-6.10213 -1.85258,-5.67567 -3.956,-14.24897 -5.75101,-23.44041 -5.91824,-30.30472 -8.122503,-73.531288 -5.1679,-101.344848 0.47101,-4.433927 2.05065,-13.254548 2.44416,-13.64806 0.0812,-0.08116 0.50534,0.94752 0.94261,2.28596 1.96947,6.028357 6.24659,13.205923 8.92607,14.979117 2.07906,1.375862 7.28754,3.01925 10.31118,3.253405 4.00649,0.310267 3.17359,-0.502925 -2.4884,-2.429538 -2.63554,-0.896799 -5.45688,-1.975678 -6.26965,-2.39751 -2.39864,-1.244919 -4.83751,-5.066194 -6.66076,-10.436231 -0.86619,-2.551209 -2.44649,-9.265957 -2.89981,-12.321429 -0.20083,-1.353591 -0.14405,-1.298021 1.08174,1.058764 2.09304,4.024232 7.00981,8.405522 9.43283,8.405522 1.19792,0 0.71867,-1.067846 -1.08502,-2.417583 -2.93059,-2.193017 -3.68673,-3.09371 -5.01631,-5.975274 -2.26422,-4.907219 -2.13025,-5.573957 0.7253,-3.609683 2.58835,1.780473 4.67407,2.103159 12.47587,1.93017 6.53891,-0.144987 6.69606,-0.166914 10.50711,-1.465981 3.9926,-1.360956 5.05369,-1.537675 5.92428,-0.98666 0.70819,0.448236 -0.0198,1.48663 -3.46571,4.943755 -2.18372,2.190787 -3.63464,3.246187 -6.98683,5.082206 -4.0375,2.211368 -5.17109,3.161815 -4.69323,3.935002 0.54735,0.885646 5.6805,-0.199673 8.9449,-1.891253 1.6428,-0.851282 5.24146,-4.815039 7.45599,-8.212422 1.10922,-1.701688 2.192,-3.202287 2.40619,-3.334664 0.86396,-0.533957 -0.91185,10.413299 -2.13932,13.188217 -0.8616,1.947795 -5.39328,8.714403 -6.55594,9.789198 -0.53644,0.495903 -2.18904,1.1332 -4.37932,1.68881 -3.48241,0.883387 -5.20135,1.661081 -5.20135,2.353235 0,1.816899 9.62771,0.441566 11.86043,-1.694282 1.25114,-1.196848 5.40362,-7.233744 7.16759,-10.420264 l 1.25995,-2.276045 0.20531,2.633188 c 0.11292,1.448253 0.30201,5.767116 0.42021,9.597473 0.1182,3.830357 0.34832,8.8125 0.51138,11.071428 0.16306,2.258929 0.25756,4.147154 0.20999,4.19605 -0.0476,0.0489 -1.4829,-1.518064 -3.18964,-3.482143 l -3.10314,-3.57105 -14.01033,0.0031 c -7.70568,0.0017 -14.87337,0.106736 -15.92822,0.233398 l -1.91789,0.230294 -2.91905,3.963029 c -4.38189,5.94905 -4.29952,5.79155 -3.52929,6.748975 1.95405,2.428946 19.89045,18.6323 22.75333,20.55486 l 1.39778,0.938675 10.29418,-10.532596 10.29418,-10.532596 2.4e-4,5.178571 c 7.1e-4,17.090714 -0.97223,45.19808 -1.97198,56.96428 -1.44352,16.98891 -3.3596,26.68544 -7.93946,40.17857 -2.35688,6.94382 -2.7226,8.35116 -2.69145,10.35715 0.0198,1.27678 0.21641,2.78086 0.43688,3.34239 0.35102,0.89406 0.47352,0.96065 0.98559,0.53571 1.24798,-1.0356 4.1769,-8.80952 7.44895,-19.77096 l 1.9821,-7.62813 -0.0453,9.27092 c 0.0318,14.48125 0.7456,51.47684 1.06971,55.445 0.26812,3.28262 0.44042,4.00553 1.12949,4.73901 0.77695,0.82702 4.6458,2.28034 6.07045,2.28034 0.37216,0 0.67666,0.14792 0.67666,0.32872 0,0.56905 -3.86693,0.72889 -26.60714,1.09978 -24.89513,0.40603 -24.4723,0.40672 -26.42857,-0.0428 z M 123.95972,32.367273 c 2.00866,-1.186545 1.06637,-1.696213 -4.49847,-2.433137 -0.98214,-0.13006 -2.99107,-0.620898 -4.46428,-1.09075 -3.0919,-0.986098 -3.92857,-1.062647 -3.92857,-0.359429 0,0.783325 1.94349,2.230141 3.8282,2.849876 1.35596,0.445869 6.14412,1.446487 7.72384,1.614109 0.16612,0.01763 0.7688,-0.243674 1.33928,-0.580669 z m 9.24894,-2.093078 c 2.62366,-1.221226 4.28831,-2.534764 4.28831,-3.383808 0,-1.133411 -1.09422,-0.833622 -4.3133,1.181743 -4.30858,2.697458 -4.2914,4.211202 0.025,2.202065 z"
       id="path842"
       inkscape:connector-curvature="0"
       transform="translate(0,229.26668)"
       sodipodi:nodetypes="csccsssscccssccccccssscscssccccsscsssccscsssccsscccssscccsscscsccccsscccsccscssscccscsscccsccc" />
    <path
       style="opacity:0.98999999;fill:#ff8080;fill-opacity:1;fill-rule:nonzero;stroke:#000000;stroke-width:3.01228346;stroke-miterlimit:4;stroke-dasharray:none;stroke-opacity:1;paint-order:stroke fill markers"
       d="m 160.53268,225.11181 c -3.53571,-0.16115 -7.33059,-0.20634 -8.43305,-0.10041 l -2.00448,0.1926 -0.22958,-6.55843 c -1.26316,-36.08602 -1.57327,-100.37633 -0.58289,-120.844151 0.35496,-7.335711 0.53033,-18.422357 0.51975,-32.857143 -0.0161,-21.997419 -0.379,-31.560841 -1.42106,-37.451182 -0.28276,-1.598278 -0.51706,-3.02475 -0.52068,-3.169937 -0.004,-0.145187 0.87735,0.169542 1.95771,0.699399 l 1.96428,0.963376 v 4.849269 c 0,2.667098 0.31262,8.21844 0.69471,12.336315 0.76136,8.205465 1.24828,16.328071 1.79762,29.987046 0.1975,4.910714 0.44493,10.133928 0.54984,11.607142 0.10491,1.473215 0.51232,8.457072 0.90535,15.519686 1.98936,35.74819 5.84779,72.04759 9.98334,93.92162 3.76326,19.90482 5.38163,27.09525 6.34115,28.17374 1.63666,1.83959 4.55135,2.08334 11.24844,0.94071 2.3531,-0.40148 4.46023,-0.66553 4.68253,-0.58677 0.54775,0.19406 -1.97043,1.2384 -4.59583,1.90598 -2.63285,0.66947 -13.56308,0.89477 -22.85715,0.47114 z"
       id="path844"
       inkscape:connector-curvature="0"
       transform="translate(0,229.26668)" />
    <path
       style="opacity:0.98999999;fill:#ff8080;fill-opacity:1;fill-rule:nonzero;stroke:#000000;stroke-width:1.83307087;stroke-miterlimit:4;stroke-dasharray:none;stroke-opacity:1;paint-order:stroke fill markers"
       d="m 176.25619,219.78063 c -0.31847,-0.5153 -2.87265,-12.37957 -4.07821,-18.9435 -1.6195,-8.81766 -3.3641,-19.41999 -5.55353,-33.75 -1.08042,-7.07143 -2.68088,-17.4375 -3.55659,-23.03571 -2.64116,-16.88448 -2.96307,-20.36098 -3.96839,-42.85714 -0.91466,-20.467372 -2.29315,-41.131586 -4.16311,-62.406866 -0.62567,-7.118417 -1.03263,-13.047514 -0.90438,-13.175772 0.12826,-0.128258 1.49199,0.593223 3.03051,1.60329 1.53852,1.010068 2.99286,1.836487 3.23188,1.836487 0.23901,0 0.60922,-0.441964 0.82269,-0.982143 l 0.47742,-0.178572 0.53207,0.625001 c 1.54789,3.558795 8.82384,36.100475 13.81365,61.781503 1.95676,10.070812 1.92878,9.959082 5.89321,23.532172 8.37275,28.66595 16.81291,67.01244 20.29045,92.18632 0.40702,2.94643 0.82094,5.85529 0.91982,6.46413 l 0.17978,1.10698 -4.73825,0.24944 c -7.10292,0.37393 -13.66313,2.06923 -19.63077,5.073 -1.31588,0.66234 -2.4851,1.05446 -2.59825,0.87138 z"
       id="path850"
       inkscape:connector-curvature="0"
       transform="translate(0,229.26668)"
       sodipodi:nodetypes="ccscsscsscccsssccssc" />
    <path
       style="opacity:0.98999999;fill:#ff8080;fill-opacity:1;fill-rule:nonzero;stroke:#000000;stroke-width:1.78771651;stroke-miterlimit:4;stroke-dasharray:none;stroke-opacity:1;paint-order:stroke fill markers"
       d="m 75.269499,217.33573 c -2.83391,-0.99054 -3.47695,-1.07298 -9.673158,-1.24017 -7.945049,-0.21438 -10.198861,0.0135 -11.961187,1.20946 -0.718598,0.48766 -1.398689,1.04704 -1.511313,0.93441 -0.379122,-0.37912 0.638802,-15.20206 1.522639,-22.04735 1.097144,-8.49735 3.154757,-20.62584 5.695434,-33.57143 1.079419,-5.5 2.687805,-14.43801 3.574191,-19.86224 2.547113,-15.58706 5.381122,-29.03792 9.35973,-44.423476 5.576006,-21.562793 7.022782,-27.559025 8.66026,-35.892857 0.984182,-5.008928 2.757754,-14.055199 3.94127,-20.102823 1.183517,-6.047624 2.360098,-11.431553 2.614623,-11.964286 0.579468,-1.212855 1.891086,-1.486869 2.161807,-0.451629 0.353882,1.353253 0.848286,1.050198 2.791168,-1.71091 0.600286,-0.853092 1.168111,-1.474397 1.261828,-1.380677 0.09372,0.09372 -0.229635,2.88099 -0.718564,6.193934 -2.083186,14.115457 -2.704696,20.859383 -3.797132,41.202105 -0.9084,16.915783 -1.629054,26.790449 -4.274528,58.571429 -2.717376,32.64473 -3.145605,38.4444 -3.401771,46.07143 -0.374702,11.15627 -2.308715,36.35081 -2.96908,38.67843 l -0.240503,0.84772 z"
       id="path852"
       inkscape:connector-curvature="0"
       transform="translate(0,229.26668)"
       sodipodi:nodetypes="csscssssssssscssssccc" />
    <path
       style="opacity:0.98999999;fill:#ff8080;fill-opacity:1;fill-rule:nonzero;stroke:#000000;stroke-width:0.77480316;stroke-miterlimit:4;stroke-dasharray:none;stroke-opacity:1;paint-order:stroke fill markers"
       d="m 75.382806,224.59011 c 0,-0.0743 2.076586,-0.87724 3.264258,-1.3214 2.394986,-0.89566 2.957493,-1.61858 3.329928,-4.27952 0.341776,-2.44191 5.771187,-78.88144 7.001413,-98.57143 2.030349,-32.496116 3.106444,-46.513759 5.003577,-65.178573 0.578997,-5.696429 1.30845,-13.169643 1.621007,-16.607143 0.66623,-7.327202 1.351762,-10.353868 2.510782,-12.232143 1.244156,-2.016244 2.431459,-3.618888 1.200686,-0.178571 -2.607095,7.287501 -5.249438,39.304382 -6.046091,62.410714 -0.675829,19.601916 -0.295133,53.581846 1.064338,94.999996 0.38362,11.6875 0.806531,25.12207 0.939803,29.8546 l 0.242313,8.6046 -4.602866,0.22995 c -2.531576,0.12648 -6.692151,0.63067 -9.245722,1.12042 -4.918745,0.94338 -6.283426,1.3608 -6.283426,1.1485 z"
       id="path854"
       inkscape:connector-curvature="0"
       transform="translate(0,229.26668)"
       sodipodi:nodetypes="sccsssssssscccs" />
    <path
       style="opacity:0.98999999;fill:#ff5555;fill-opacity:1;fill-rule:nonzero;stroke:#000000;stroke-width:1.47023622;stroke-miterlimit:4;stroke-dasharray:none;stroke-opacity:1;paint-order:stroke fill markers"
       d="m 71.198026,222.3942 c -0.174877,-0.2702 -0.207812,-3.44111 -0.03902,-3.75651 0.131182,-0.24511 0.217285,-0.27053 0.674959,-0.19927 0.825163,0.12848 2.528306,0.67291 4.281755,1.36871 0.885823,0.35151 1.596086,0.65199 1.578364,0.66773 -0.07695,0.0683 -6.122496,2.07718 -6.25118,2.07718 -0.0785,0 -0.188696,-0.071 -0.244881,-0.15784 z"
       id="path860"
       inkscape:connector-curvature="0"
       transform="translate(0,229.26668)" />
    <path
       style="opacity:0.98999999;fill:#ff5555;fill-opacity:1;fill-rule:nonzero;stroke:#000000;stroke-width:0.94110236;stroke-miterlimit:4;stroke-dasharray:none;stroke-opacity:1;paint-order:stroke fill markers"
       d="m 91.267356,225.69482 c -0.08681,-0.0896 -0.157837,-0.40211 -0.157837,-0.69456 0,-0.43875 0.06794,-0.5889 0.388496,-0.85863 0.627672,-0.52816 2.038953,-0.40503 2.849197,0.24857 0.318681,0.25707 0.338784,0.31226 0.171572,0.47105 -0.287275,0.27281 -1.865396,0.85635 -2.516805,0.93063 -0.381901,0.0436 -0.630117,0.0108 -0.734623,-0.0971 z"
       id="path862"
       inkscape:connector-curvature="0"
       transform="translate(0,229.26668)" />
    <path
       style="opacity:0.98999999;fill:#ff5555;fill-opacity:1;fill-rule:nonzero;stroke:#000000;stroke-width:0.11716535;stroke-miterlimit:4;stroke-dasharray:none;stroke-opacity:1;paint-order:stroke fill markers"
       d="m 198.46383,221.49087 c -0.15479,-0.38324 -0.19897,-3.13745 -0.0527,-3.28374 0.0506,-0.0506 0.60188,-0.0802 1.22518,-0.0658 1.41931,0.0327 2.30962,-0.13214 2.89118,-0.53516 0.57828,-0.40076 0.6285,-0.39485 0.6285,0.0739 0,0.53229 -0.54374,1.27898 -1.77438,2.43667 -1.83853,1.72956 -2.62471,2.09982 -2.91781,1.37415 z"
       id="path864"
       inkscape:connector-curvature="0"
       transform="translate(0,229.26668)" />
    <path
       style="opacity:0.98999999;fill:#ff8080;fill-opacity:1;fill-rule:nonzero;stroke:#000000;stroke-width:0.12718378;stroke-miterlimit:4;stroke-dasharray:none;stroke-opacity:1;paint-order:stroke fill markers"
       d="m 138.52131,70.392098 c -0.19099,-0.06304 -0.58094,-0.232858 -0.86656,-0.377368 -0.94176,-0.476485 -2.06842,-0.782428 -3.28138,-0.891058 -0.37502,-0.03359 -0.82391,-0.08838 -0.99753,-0.121767 -0.86981,-0.167257 -3.96381,-0.322895 -10.06996,-0.50655 -1.53539,-0.04618 -1.78366,-0.06824 -2.14657,-0.190763 -1.37013,-0.462555 -2.71479,-1.471105 -2.71479,-2.0362 0,-0.24264 0.64128,-0.925512 1.25329,-1.334582 2.4716,-1.652017 6.02317,-2.0822 9.10078,-1.102326 1.3666,0.43511 2.26057,0.974547 3.44969,2.081612 0.84467,0.786372 1.23353,1.048972 1.92719,1.30143 0.4354,0.158467 0.52906,0.168562 1.56792,0.169003 1.27222,5.43e-4 1.82285,-0.08088 2.38301,-0.352384 0.70641,-0.342385 0.88545,-0.729336 0.96125,-2.077531 0.0546,-0.970918 0.11135,-1.215479 0.30639,-1.319859 0.18949,-0.101414 0.65182,0.166203 1.35039,0.781667 2.076,1.82903 2.06365,2.832129 -0.0603,4.90303 -1.15806,1.129125 -1.49221,1.295001 -2.16279,1.073646 z"
       id="path876"
       inkscape:connector-curvature="0"
       transform="translate(0,229.26668)" />
    <path
       style="opacity:0.98999999;fill:#ff8080;fill-opacity:1;fill-rule:nonzero;stroke:#000000;stroke-width:0.12718378;stroke-miterlimit:4;stroke-dasharray:none;stroke-opacity:1;paint-order:stroke fill markers"
       d="m 107.23814,68.653746 c -0.22419,-0.09824 -0.70372,-0.60273 -0.79092,-0.832106 -0.15751,-0.414262 0.0592,-0.948646 0.74069,-1.826307 1.12117,-1.443937 3.18215,-2.99109 4.5585,-3.421996 0.48476,-0.151768 0.54499,-0.158065 0.69448,-0.07262 0.20019,0.114427 0.18646,0.236153 -0.0684,0.606605 -0.29035,0.422004 -0.8788,1.027854 -1.874,1.929413 -1.44441,1.308509 -2.11732,2.154953 -2.19249,2.75793 -0.096,0.770015 -0.51037,1.103367 -1.06785,0.859078 z"
       id="path878"
       inkscape:connector-curvature="0"
       transform="translate(0,229.26668)" />
    <path
       style="opacity:0.98999999;fill:#ff8080;fill-opacity:1;fill-rule:nonzero;stroke:#000000;stroke-width:0.12718378;stroke-miterlimit:4;stroke-dasharray:none;stroke-opacity:1;paint-order:stroke fill markers"
       d="m 128.16724,78.371379 c -0.84477,-0.1867 -1.6993,-0.514562 -2.93048,-1.124338 -0.69738,-0.345399 -1.56627,-0.748332 -1.93088,-0.895406 -1.34321,-0.541831 -2.66269,-0.778226 -3.69532,-0.662048 -0.79276,0.08919 -1.20402,0.213581 -2.13065,0.644428 -0.44372,0.206317 -0.9167,0.389867 -1.05105,0.407888 -0.40503,0.05433 -0.78355,-0.20724 -1.78049,-1.230372 -0.48727,-0.500075 -0.87389,-0.921288 -0.85915,-0.936028 0.0147,-0.01474 0.64916,0.0019 1.40982,0.03687 0.76066,0.03502 2.97401,0.134821 4.91855,0.221786 5.82196,0.260373 9.7122,0.571687 11.06532,0.885496 0.69845,0.161982 1.24382,0.505224 1.50158,0.945058 0.40866,0.697334 -0.0563,1.251905 -1.32979,1.585978 -0.53267,0.139737 -0.79706,0.168972 -1.7038,0.188395 -0.77471,0.01659 -1.18744,-0.0022 -1.48366,-0.06771 z"
       id="path880"
       inkscape:connector-curvature="0"
       transform="translate(0,229.26668)" />
    <path
       style="opacity:0.98999999;fill:#ff8080;fill-opacity:1;fill-rule:nonzero;stroke:#000000;stroke-width:0.12718378;stroke-miterlimit:4;stroke-dasharray:none;stroke-opacity:1;paint-order:stroke fill markers"
       d="m 125.2794,84.990083 c -0.98898,-0.671132 -3.17307,-2.847755 -3.17307,-3.162228 0,-0.121525 0.66024,-0.150101 1.89743,-0.08212 1.81151,0.09954 3.50445,0.28315 4.10726,0.445469 0.31867,0.08581 0.31646,0.193349 -0.0142,0.688478 -0.49337,0.738827 -2.15386,2.346787 -2.41389,2.337533 -0.04,-0.0014 -0.22157,-0.103631 -0.40356,-0.22713 z"
       id="path882"
       inkscape:connector-curvature="0"
       transform="translate(0,229.26668)" />
    <path
       style="opacity:0.98999999;fill:#ff9955;fill-opacity:1;fill-rule:nonzero;stroke:#000000;stroke-width:0.12718378;stroke-miterlimit:4;stroke-dasharray:none;stroke-opacity:1;paint-order:stroke fill markers"
       d="m 125.11384,88.206212 c -1.48136,-1.111549 -5.26791,-4.436895 -11.70928,-10.283099 -3.41566,-3.100058 -5.49924,-4.979628 -7.35704,-6.636685 -1.49848,-1.33656 -2.17996,-2.015762 -2.52349,-2.515065 l -0.20856,-0.30313 0.13927,-0.286655 c 0.3605,-0.742003 1.58415,-2.506448 4.15739,-5.994748 l 1.92114,-2.604299 9.47929,-4.07e-4 c 11.82519,-5.08e-4 16.55522,-0.09218 18.45306,-0.357632 1.76355,-0.246672 2.01631,-0.03275 6.98405,5.91084 l 1.92353,2.301373 -1.42707,1.5814 c -0.78488,0.869771 -1.66882,1.836323 -1.96431,2.147893 -6.88255,7.257199 -16.97629,17.395284 -17.3192,17.395284 -0.0416,0 -0.28852,-0.159781 -0.54878,-0.35507 z m 0.63196,-1.91793 c 0.40104,-0.204596 1.2898,-0.986 2.30532,-2.026847 1.408,-1.443121 2.17902,-2.466251 2.08404,-2.765494 -0.0775,-0.24432 -0.73864,-0.448535 -1.93807,-0.598674 -1.49899,-0.187635 -4.89027,-0.353527 -7.23404,-0.353867 -1.16188,-1.9e-4 -1.40474,0.01507 -1.40474,0.08816 0,0.52322 5.35434,5.780379 5.88981,5.782913 0.0274,1.27e-4 0.16138,-0.05666 0.29768,-0.126189 z m 4.67006,-6.944217 c 1.87024,-0.330111 3.2788,-0.954105 3.80602,-1.686067 0.37482,-0.520379 0.27413,-1.20295 -0.24465,-1.658447 -0.94813,-0.832468 -3.86431,-1.526678 -7.69509,-1.831852 -0.45142,-0.03596 -1.9137,-0.09397 -3.24952,-0.128903 -3.15698,-0.08256 -5.20971,-0.22461 -8.119,-0.561821 -2.2486,-0.260632 -3.72834,-0.297425 -3.79602,-0.09439 -0.10553,0.316602 2.80693,3.206839 4.9585,4.920673 0.76047,0.605747 1.21945,0.876323 1.39304,0.821226 0.17592,-0.05583 0.3206,-0.413551 0.37943,-0.938071 0.0653,-0.582338 0.1906,-0.846227 0.57054,-1.201615 0.31839,-0.297812 0.51717,-0.376861 1.23169,-0.489788 1.16179,-0.183617 2.96409,0.270055 3.69549,0.930228 0.16277,0.146918 0.34023,0.397294 0.44237,0.624142 0.32955,0.731913 1.002,1.163692 2.06271,1.324464 0.97125,0.147212 0.98581,0.147983 2.4195,0.128079 1.05311,-0.01462 1.53395,-0.05001 2.14499,-0.15786 z m 9.32864,-7.708555 c 0.45326,-0.217305 1.57647,-1.379665 3.13176,-3.240916 0.75221,-0.900186 1.36765,-1.65542 1.36765,-1.678297 0,-0.02288 -0.93044,-0.963363 -2.06766,-2.089967 -1.98049,-1.962021 -2.97699,-2.834091 -3.23846,-2.834091 -0.26351,0 -0.56643,0.873779 -0.8486,2.447827 -0.25695,1.433339 -0.42558,1.759305 -0.98853,1.910893 -0.31775,0.08556 -2.13023,0.08602 -2.57947,6.57e-4 -0.19098,-0.03629 -0.5035,-0.144836 -0.69448,-0.24121 -0.28085,-0.141725 -0.38057,-0.237141 -0.52159,-0.499072 -0.79927,-1.484612 -4.49437,-2.918384 -7.81571,-3.032649 -3.66898,-0.126225 -6.87507,1.160021 -7.81925,3.136998 -0.21113,0.442079 -0.22686,0.516576 -0.22686,1.074781 0,1.324118 0.50158,1.901878 2.00125,2.305201 1.07634,0.289471 2.52638,0.540104 3.52302,0.608935 1.01871,0.07036 7.83544,0.02391 8.93166,-0.06086 0.55243,-0.04272 0.60356,-0.03431 2.08344,0.342739 2.39127,0.609251 3.67655,1.089929 4.21494,1.576328 0.53598,0.484231 0.95251,0.557661 1.54689,0.2727 z m -31.07057,-0.989619 c 0.14116,-0.09425 0.20945,-0.324279 0.26895,-0.905848 0.0714,-0.698302 0.20842,-1.119894 0.6078,-1.87064 0.40225,-0.756149 0.90591,-1.439459 1.6001,-2.170807 0.68848,-0.725337 1.08105,-1.046396 2.15721,-1.764248 0.88523,-0.590492 1.79325,-1.423786 1.75812,-1.613426 -0.0659,-0.355645 -1.3408,-0.557009 -3.24178,-0.512019 -1.72929,0.04093 -2.05142,0.136294 -2.92999,0.867446 -0.99425,0.827429 -3.9213,4.472282 -3.9195,4.880704 0.001,0.32819 1.02298,1.434617 2.18594,2.367571 0.78911,0.633049 1.28866,0.871166 1.51315,0.721267 z m 26.3742,-7.275832 c 0.0294,-0.02722 0.0917,-0.269745 0.13842,-0.538949 0.0468,-0.269204 0.16137,-0.738419 0.25471,-1.042701 0.30386,-0.990573 0.17138,-1.099999 -1.33044,-1.098942 -1.4387,10e-4 -1.98874,0.18721 -1.98874,0.673221 0,0.367579 0.38703,0.791279 1.32583,1.451425 0.83846,0.5896 1.36601,0.77288 1.60022,0.555946 z"
       id="path888"
       inkscape:connector-curvature="0"
       transform="translate(0,229.26668)" />
  </g>
</svg>
