<?xml version="1.0" encoding="UTF-8" standalone="no"?>
<!-- Created with Inkscape (http://www.inkscape.org/) -->

<svg
   xmlns:dc="http://purl.org/dc/elements/1.1/"
   xmlns:cc="http://creativecommons.org/ns#"
   xmlns:rdf="http://www.w3.org/1999/02/22-rdf-syntax-ns#"
   xmlns:svg="http://www.w3.org/2000/svg"
   xmlns="http://www.w3.org/2000/svg"
   xmlns:sodipodi="http://sodipodi.sourceforge.net/DTD/sodipodi-0.dtd"
   xmlns:inkscape="http://www.inkscape.org/namespaces/inkscape"
   viewBox="0 0 256 256"
   id="svg4166"
   version="1.1"
   inkscape:version="0.92.3 (2405546, 2018-03-11)"
   sodipodi:docname="PrincessLeiaDress.svg">
  <style
     id="style3">
    svg { cursor: default; }
  </style>
  <defs
     id="defs4168" />
  <sodipodi:namedview
     id="base"
     pagecolor="#ffffff"
     bordercolor="#666666"
     borderopacity="1.0"
     inkscape:pageopacity="0.0"
     inkscape:pageshadow="2"
     inkscape:zoom="1.979899"
     inkscape:cx="244.26847"
     inkscape:cy="176.69625"
     inkscape:document-units="px"
     inkscape:current-layer="g935"
     showgrid="false"
     units="px"
     inkscape:window-width="1920"
     inkscape:window-height="1001"
     inkscape:window-x="-9"
     inkscape:window-y="-9"
     inkscape:window-maximized="1" />
  <metadata
     id="metadata4171">
    <rdf:RDF>
      <cc:Work
         rdf:about="">
        <dc:format>image/svg+xml</dc:format>
        <dc:type
           rdf:resource="http://purl.org/dc/dcmitype/StillImage" />
        <dc:title></dc:title>
      </cc:Work>
    </rdf:RDF>
  </metadata>
  <g
     inkscape:label="Layer 1"
     inkscape:groupmode="layer"
     id="layer1"
     transform="translate(0,-796.36216)"
     style="display:inline">
    <g
       id="g828"
       transform="translate(-7.5,-1.7857143)" />
    <path
       transform="translate(-7.5,-1.78571)"
       style="display:inline;fill:#8c8c8c;fill-opacity:1;stroke-width:0.37695077"
       d="m 107.5589,1038.3982 c -1.65858,-0.3968 -4.11818,-0.8921 -5.46578,-1.1006 -1.3476,-0.2086 -3.676804,-0.8089 -5.176001,-1.3341 -1.499198,-0.5252 -2.977687,-0.9548 -3.285531,-0.9548 -0.307844,0 -1.116762,-0.2373 -1.797595,-0.5274 -0.680834,-0.2901 -2.001205,-0.8377 -2.934158,-1.2171 -0.932953,-0.3793 -3.979697,-2.0345 -6.770543,-3.6783 -2.790846,-1.6437 -6.089972,-3.3867 -7.331393,-3.8732 -1.24142,-0.4865 -2.748386,-1.3504 -3.348813,-1.9197 -0.979491,-0.9288 -1.070971,-1.2148 -0.890129,-2.7828 0.110855,-0.9612 0.610948,-2.7423 1.111316,-3.958 0.500368,-1.2157 1.291164,-3.6522 1.757323,-5.4145 0.77192,-2.9181 1.946894,-6.7834 5.500122,-18.09356 3.695066,-11.76171 4.514254,-14.8145 5.61389,-20.92077 0.617914,-3.43127 2.460305,-11.83572 3.429299,-15.64346 0.290177,-1.14027 0.783919,-3.85432 1.097204,-6.03121 1.417543,-9.84995 1.80306,-12.23884 2.270066,-14.06672 0.274533,-1.07453 0.618531,-2.88664 0.764442,-4.02692 0.14591,-1.14027 0.65819,-3.09099 1.1384,-4.33493 1.679513,-4.35062 3.11424,-9.41842 2.734626,-9.65937 -0.240519,-0.15266 -0.23476,-0.31991 0.01636,-0.4751 0.685571,-0.42371 2.339921,-6.04164 2.431421,-8.25675 0.0488,-1.18042 0.19383,-2.14766 0.32238,-2.14941 0.12855,-0.002 0.44492,-0.80892 0.70305,-1.79371 0.25812,-0.98478 1.033794,-3.65642 1.723694,-5.93697 0.68991,-2.28055 1.45088,-4.90978 1.69105,-5.84274 0.59144,-2.29744 2.82469,-7.9981 4.16567,-10.63342 0.60228,-1.18361 1.09733,-2.62545 1.1001,-3.20408 0.008,-1.66253 2.09267,-7.22135 3.38096,-9.01525 1.34098,-1.86728 1.17094,-2.73029 -0.73181,-3.71424 -1.40162,-0.72481 -1.76174,-1.84975 -0.97603,-3.04889 0.56377,-0.86043 0.56242,-0.9489 -0.018,-1.17161 -0.34528,-0.1325 -1.21737,0.0766 -1.93799,0.46469 -1.28122,0.68999 -1.32169,0.6899 -1.82921,-0.004 -0.54134,-0.74033 -0.93979,-0.65462 -2.97237,0.63937 -1.57233,1.00098 -8.844521,7.41034 -12.39938,10.92822 -3.143126,3.11043 -3.906554,3.68136 -4.922566,3.68136 -1.626101,0 -2.272623,-0.6042 -2.99618,-2.80004 -1.353022,-4.10614 -0.04234,-24.21139 1.879291,-28.82746 0.293748,-0.70563 0.629245,-1.18781 0.745548,-1.07151 0.116302,0.1163 0.283629,1.45696 0.371838,2.97924 0.229697,3.96408 0.801581,6.03993 2.096875,7.61135 1.14871,1.39358 2.842579,1.88449 3.122507,0.90494 0.07406,-0.25915 0.604111,-2.50672 1.177893,-4.9946 0.573781,-2.48787 1.519246,-6.3045 2.101032,-8.48139 0.581786,-2.17689 1.175882,-5.14538 1.320212,-6.59664 0.282205,-2.8376 2.064306,-8.6934 2.627366,-8.63327 0.18847,0.0201 0.69791,0.66304 1.13209,1.4287 0.67499,1.19033 0.857214,1.31044 1.257084,0.82862 0.25721,-0.30992 1.21526,-1.00161 2.129,-1.5371 1.22812,-0.71973 2.25617,-1.87916 3.94242,-4.44625 1.33782,-2.03665 2.90972,-3.91997 3.80132,-4.55444 0.83614,-0.595 1.63448,-1.38522 1.7741,-1.75606 0.48232,-1.28112 7.1924,-5.50681 9.6442,-6.07345 1.89089,-0.43702 2.02807,-0.18973 2.1881,3.94419 0.24666,6.37213 2.27052,10.10482 6.58565,12.1462 5.1758,2.44855 10.82266,1.6261 18.43515,-2.68502 4.22601,-2.39328 7.14619,-4.56236 11.27349,-8.37379 1.65859,-1.53165 3.33814,-2.95888 3.73234,-3.17162 0.6189,-0.33399 1.32637,0.2421 5.18307,4.22058 2.45649,2.53406 4.46635,4.75893 4.46635,4.94417 0,0.18523 0.25444,0.33679 0.56542,0.33679 0.31099,0 0.56543,0.24175 0.56543,0.53722 0,0.93115 3.45645,5.69004 6.78058,9.3356 1.75975,1.92991 5.41261,5.79891 8.11747,8.59777 6.88063,7.11976 10.05074,11.42918 10.80212,14.68435 0.64614,2.79924 0.14942,3.96201 -2.71514,6.35586 -5.22561,4.36694 -6.84608,5.97859 -9.12515,9.07553 -2.43714,3.31172 -2.53819,3.47208 -4.18223,6.63696 -1.18153,2.27452 -1.66093,3.50711 -5.13131,13.19328 -1.4856,4.14645 -2.86183,7.83356 -3.05829,8.19356 -0.19646,0.36 -0.3572,0.87886 -0.3572,1.15303 0,0.27416 -0.5713,1.44722 -1.26956,2.6068 -0.69826,1.15957 -1.46501,2.66895 -1.70387,3.35416 -0.99037,2.84096 -3.2614,3.79503 -5.06164,2.12642 -1.08897,-1.00934 -2.74801,-5.63063 -3.22954,-8.99592 -0.18941,-1.32376 -0.68123,-3.28863 -1.09292,-4.36638 l -0.74853,-1.95953 1.28575,-1.43302 c 1.63331,-1.8204 1.80099,-2.52088 1.25597,-5.24684 -0.24384,-1.21957 -0.58635,-2.98072 -0.76113,-3.91368 -1.03061,-5.5012 -2.88193,-9.95475 -5.12824,-12.33653 -2.23764,-2.37259 -2.2504,-2.52201 -0.38719,-4.53327 0.91166,-0.98409 1.85294,-2.16363 2.09174,-2.62118 0.26668,-0.51096 0.94303,-0.92737 1.7531,-1.07935 2.30463,-0.43235 2.00072,-1.03031 -0.42733,-0.84081 -3.9383,0.30737 -11.77465,4.04435 -12.60168,6.00945 -0.65569,1.55801 0.17912,2.58537 2.10082,2.58537 h 1.52705 l 1.39589,3.86374 c 1.79396,4.96561 2.07099,6.75119 1.24341,8.01424 -0.61648,0.94088 -0.53614,3.18815 0.14809,4.14242 0.53417,0.745 1.54633,4.40912 2.10858,7.63331 1.01718,5.83293 1.25671,10.21445 1.3244,24.2262 0.0365,7.56334 0.13932,13.87912 0.22841,14.03506 0.0891,0.15593 0.24527,2.86998 0.34706,6.03121 0.13291,4.12735 0.38584,6.40257 0.89719,8.07066 0.39165,1.27763 0.82503,3.39798 0.96305,4.71188 0.32285,3.07327 2.23609,12.60243 3.1664,15.77067 0.39569,1.3476 1.14902,3.89202 1.67406,5.65427 1.34492,4.51406 2.20147,9.41617 3.44561,19.71944 0.32077,2.65644 0.75292,5.70975 0.96033,6.78508 0.20741,1.0754 0.87331,5.263 1.47977,9.3058 1.31591,8.7721 2.06882,13.0445 2.78532,15.8051 0.29213,1.1256 0.44516,2.2706 0.34006,2.5444 -0.14133,0.3683 -1.20779,0.498 -4.09578,0.498 -7.86444,0 -18.38641,2.0941 -30.31717,6.0336 -4.70726,1.5544 -5.88489,1.8635 -9.42377,2.4735 -1.76225,0.3038 -4.47629,0.8081 -6.03121,1.1207 -1.55493,0.3127 -5.71081,0.6411 -9.2353,0.7299 -5.39771,0.1359 -6.88367,0.048 -9.42377,-0.56 z m 13.57023,-1.7139 c 4.75868,-0.3878 12.47817,-1.882 16.98027,-3.2868 15.05334,-4.6969 24.61562,-6.6817 32.18978,-6.6817 2.08534,0 3.79154,-0.1284 3.79154,-0.2853 0,-0.1569 -0.41782,-2.15 -0.92847,-4.4292 -0.86833,-3.8755 -1.97747,-10.5868 -2.83404,-17.1487 -2.28004,-17.46631 -3.97814,-27.27373 -5.64559,-32.60618 -1.35111,-4.32083 -4.1074,-16.66378 -4.3665,-19.55368 -0.13247,-1.47753 -0.5549,-4.89158 -0.93873,-7.58678 -1.15679,-8.12271 -1.45986,-12.3251 -1.68549,-23.37095 -0.41762,-20.44495 -0.82191,-27.03134 -1.97279,-32.13907 -0.84208,-3.73722 -1.14956,-4.57511 -1.60679,-4.3784 -1.91748,0.82498 -3.77499,1.35624 -5.08883,1.45542 -1.17969,0.0891 -1.53324,0.28067 -1.62467,0.8805 -0.0643,0.42167 -0.36073,0.96904 -0.65877,1.2164 -0.9403,0.78038 -7.25573,0.86021 -12.48004,0.15776 -2.66088,-0.35778 -6.6479,-0.84055 -8.86005,-1.07282 -2.21215,-0.23227 -4.13739,-0.53818 -4.27831,-0.6798 -0.14092,-0.14163 -0.65833,-0.0743 -1.14982,0.14966 -0.61577,0.28056 -1.04357,0.28626 -1.37596,0.0183 -0.26529,-0.21387 -1.07604,-0.50937 -1.80167,-0.65668 -1.3636,-0.27683 -4.78789,-2.0328 -6.36476,-3.26386 -1.06158,-0.82877 -1.55121,-0.89147 -1.55121,-0.19865 0,0.79076 -1.40978,4.95362 -3.23168,9.54267 -0.91777,2.31169 -1.66868,4.47202 -1.66868,4.80071 0,0.65201 -2.50467,8.51934 -4.162174,13.07365 -0.57108,1.56915 -1.5867,5.13133 -2.256954,7.91597 -0.67025,2.78464 -1.693075,6.50481 -2.272946,8.26706 -0.57987,1.76224 -1.331758,4.73073 -1.670862,6.59664 -0.339104,1.8659 -0.93093,4.57995 -1.315169,6.03121 -0.384239,1.45126 -0.898931,4.41975 -1.14376,6.59664 -0.458414,4.07599 -1.822402,12.41943 -2.105112,12.87687 -0.08762,0.14177 -0.59023,2.3489 -1.116915,4.90473 -0.526684,2.55584 -1.185718,5.57992 -1.464518,6.7202 -0.2788,1.14028 -0.617449,2.83655 -0.752554,3.76951 -0.48641,3.35885 -1.841359,8.24899 -4.543339,16.39736 -1.512453,4.5611 -3.535382,11.51581 -4.495398,15.45491 -0.960016,3.9392 -2.348215,9.2344 -3.084886,11.7672 -0.736671,2.5328 -1.282249,4.9018 -1.212394,5.2646 0.0824,0.4278 1.052795,1.0021 2.762953,1.635 1.44977,0.5365 5.095549,2.263 8.101731,3.8365 6.078722,3.1819 12.186541,5.2963 19.978397,6.9161 4.7847,0.9947 11.17303,1.6824 13.57023,1.4607 0.72563,-0.067 2.67635,-0.2326 4.33493,-0.3677 z m -13.38175,-73.9426 c -1.24701,-0.42841 -1.50783,-1.35898 -1.50307,-5.36265 0.007,-5.78666 2.92665,-22.41236 5.06815,-28.85892 0.68871,-2.07323 1.37326,-4.50605 1.52121,-5.40625 0.3343,-2.03399 2.09854,-6.91399 3.53445,-9.7765 0.5951,-1.18634 1.85266,-4.44696 2.79458,-7.24582 1.97902,-5.88057 3.25776,-8.78264 5.14437,-11.67499 1.88848,-2.89524 1.84438,-2.84131 2.10816,-2.57753 0.13103,0.13104 -0.55299,1.81635 -1.52007,3.74514 -0.96707,1.9288 -2.74774,6.14218 -3.95703,9.36308 -5.16251,13.75009 -6.08638,16.6557 -6.98019,21.95312 -0.26946,1.59701 -0.59562,3.0747 -0.72482,3.28374 -0.31891,0.51601 -1.62463,6.3103 -2.2719,10.08189 -0.29035,1.69181 -0.69464,3.72734 -0.89843,4.52341 -0.20378,0.79607 -0.47663,2.38035 -0.60632,3.52062 -0.1297,1.14028 -0.4009,2.83656 -0.60267,3.76951 -0.44845,2.07354 -1.02127,9.04933 -0.74234,9.0403 0.11074,-0.004 0.96467,-1.9869 1.89762,-4.40737 1.86637,-4.84214 4.01057,-8.77939 4.7812,-8.77939 0.61271,0 0.61288,-0.0137 -0.0321,2.58425 -0.29052,1.1702 -0.63747,2.76374 -0.77099,3.5412 -0.13352,0.77746 -0.39404,1.41357 -0.57894,1.41357 -0.34556,0 -0.17005,-1.8861 0.37708,-4.05222 0.64132,-2.53905 -0.2376,-1.08823 -1.25762,2.07593 -2.43186,7.54375 -3.53339,9.67428 -4.78034,9.24588 z m 63.0565,-53.72877 c 0.33076,-0.6738 0.9773,-2.07323 1.43675,-3.10985 0.45945,-1.03661 1.04368,-2.13919 1.29826,-2.45018 0.2546,-0.31098 1.14386,-2.43133 1.97615,-4.71188 3.24496,-8.8915 6.56733,-17.36786 7.69774,-19.63919 1.79976,-3.61628 7.06249,-10.41527 11.64644,-15.04618 4.41438,-4.4596 4.6559,-4.96059 3.59211,-7.45099 -0.87689,-2.05286 -5.51662,-7.95062 -9.31332,-11.83855 -6.30431,-6.45582 -10.24085,-11.0506 -15.98967,-18.66338 -0.82929,-1.09818 -3.09333,-3.73281 -5.0312,-5.85474 -3.03429,-3.3225 -3.62263,-3.80496 -4.2382,-3.47552 -0.39313,0.21041 -2.21192,1.6918 -4.04175,3.292 -4.16444,3.64183 -6.36935,5.19053 -11.44526,8.03903 -4.86101,2.7279 -7.55151,3.71601 -10.87756,3.99485 -5.87541,0.49257 -11.64319,-3.40874 -13.76842,-9.31291 -0.33582,-0.93296 -0.72273,-3.26123 -0.8598,-5.17394 l -0.24922,-3.47765 -3.0156,1.53105 c -3.48075,1.76721 -4.29188,2.3623 -7.99722,5.86714 -3.2064,3.03288 -3.56146,3.84165 -4.84014,11.02492 -0.49536,2.78281 -1.08362,5.24241 -1.30724,5.46579 -0.47559,0.47506 -0.16178,-2.3696 0.43711,-3.9624 0.20184,-0.5368 0.31529,-1.97863 0.25212,-3.20409 l -0.11486,-2.22809 -0.84257,1.42568 c -0.46341,0.78412 -1.68292,1.94806 -2.71001,2.58654 -1.69305,1.05245 -1.96231,1.42095 -2.883194,3.94587 -1.16891,3.20493 -1.91612,3.70409 -1.4887,0.99449 0.7492,-4.74952 0.82901,-5.61198 0.58208,-6.29072 -0.42367,-1.16458 -1.467439,2.39222 -1.928542,6.57179 -0.217389,1.97047 -0.804594,4.80833 -1.304899,6.30635 -1.261939,3.7785 -3.038928,11.24828 -3.746043,15.74692 -1.097759,6.9839 -1.790201,10.36614 -2.122249,10.36614 -0.431241,0 -0.441312,0.11427 0.427617,-4.8517 0.983449,-5.62046 0.976768,-6.01673 -0.09814,-5.82046 -1.138623,0.2079 -3.580641,-1.85047 -4.420269,-3.72584 l -0.647634,-1.44654 -0.267397,4.81243 c -0.802279,14.43887 -0.732057,17.81723 0.370348,17.81723 0.308501,0 1.152341,-0.59143 1.875201,-1.31429 1.712796,-1.7128 9.03298,-7.76987 12.346327,-10.21595 3.171994,-2.34172 6.023034,-3.48692 6.889864,-2.76751 0.4653,0.38616 0.83941,0.39145 1.84967,0.0261 0.69653,-0.25187 1.68906,-0.35186 2.20564,-0.22221 0.89806,0.2254 0.95095,0.14198 1.20645,-1.90297 0.47884,-3.83253 0.0189,-7.26039 -1.36428,-10.16631 -1.00653,-2.1147 -1.25417,-3.10667 -1.27043,-5.08884 -0.0177,-2.1558 0.1869,-2.89589 1.64437,-5.9489 0.9155,-1.91774 1.80605,-3.48679 1.97899,-3.48679 0.50544,0 0.38394,0.49101 -0.89794,3.62889 -1.75692,4.30068 -1.71159,6.84114 0.19581,10.97556 l 1.43362,3.10746 -0.0751,4.99698 c -0.0701,4.66995 -0.13587,5.07691 -1.00423,6.21823 -1.05654,1.38864 -0.91605,2.20833 0.46873,2.73483 0.52618,0.20005 1.15145,0.7912 1.3895,1.31367 0.23805,0.52247 0.66004,0.94995 0.93775,0.94995 0.2777,0 0.50491,0.15322 0.50491,0.34049 0,0.18727 1.51871,1.1053 3.3749,2.04007 1.85619,0.93476 3.54647,1.80561 3.75618,1.93522 0.20971,0.1296 2.63485,0.29556 5.38921,0.36877 4.79315,0.12743 7.34491,0.55359 7.80877,1.30412 0.20821,0.33691 0.72463,0.27837 6.71706,-0.76135 1.29571,-0.22481 2.76955,-0.30491 3.27521,-0.178 0.50566,0.12691 1.02461,0.0605 1.15321,-0.14758 0.1286,-0.20809 0.55253,-0.37834 0.94205,-0.37834 0.76952,0 0.80189,-0.1481 0.78926,-3.61137 -0.008,-2.15885 0.073,-2.36956 1.3923,-3.62582 1.46736,-1.3973 6.21798,-4.38667 8.45955,-5.32326 3.63683,-1.51956 7.45035,-0.92187 9.77522,1.53206 l 1.25952,1.32944 -1.13085,-0.21296 c -0.62197,-0.11713 -1.4277,-0.3278 -1.79052,-0.46816 -0.52482,-0.20304 -0.65966,-0.0543 -0.65966,0.7275 0,0.89467 -0.13465,0.98271 -1.50308,0.98271 -1.32798,0 -1.60742,0.1653 -2.39891,1.4191 -0.49271,0.7805 -1.17335,1.64941 -1.51253,1.9309 -0.84154,0.69842 -0.78447,1.0361 0.44392,2.62697 2.53911,3.28833 4.50811,8.15211 4.98147,12.30514 0.73573,6.45488 1.9027,12.30045 3.94724,19.77246 0.36721,1.34203 0.4343,2.18398 0.19324,2.42505 -0.2031,0.2031 -0.4432,0.29536 -0.53354,0.20501 -0.1471,-0.14709 -2.43134,-9.00252 -3.05614,-11.8479 l -0.24832,-1.13085 -0.7221,0.8899 c -0.92066,1.13459 -0.90865,2.05777 0.0652,5.01349 0.43301,1.31424 0.9291,3.06804 1.10242,3.89733 0.67992,3.25328 1.06832,4.30976 2.06469,5.61608 0.56949,0.74663 1.15821,1.35751 1.30828,1.35751 0.15007,0 0.54348,-0.55129 0.87424,-1.22509 z m -48.86193,-36.54777 c -0.11962,-0.45742 -0.14748,-0.90168 -0.0619,-0.98725 0.29707,-0.29706 1.36907,1.06139 1.13564,1.43909 -0.38618,0.62485 -0.84236,0.43288 -1.07372,-0.45184 z m 22.48761,-1.05307 c 0.13679,-0.51831 0.25102,-1.24924 0.25385,-1.62429 0.003,-0.37505 0.17477,-0.57708 0.3821,-0.44894 0.59708,0.36902 0.43842,1.9305 -0.25385,2.49826 -0.56637,0.46451 -0.60539,0.4211 -0.3821,-0.42503 z m -24.53734,-0.78903 c -0.3194,-0.90351 -0.3636,-1.65649 -0.13274,-2.2617 l 0.34606,-0.90726 0.25686,0.98446 c 0.14127,0.54145 0.201,1.55921 0.13275,2.2617 l -0.12411,1.27725 z m 0.009,-5.40152 c 0.0532,-0.81327 0.30882,-1.54832 0.56798,-1.63346 0.63673,-0.20917 0.57507,1.00547 -0.11015,2.16974 -0.54941,0.93351 -0.55371,0.92846 -0.45783,-0.53628 z m 15.55176,-1.21578 c 2.54059,-0.69192 5.8857,-2.37745 9.6049,-4.83971 6.40887,-4.24293 8.58482,-4.32043 6.40362,-0.2281 -0.6732,1.26306 -1.36999,2.29647 -1.54843,2.29647 -0.4512,0 -0.4086,-0.42056 0.22427,-2.21432 0.30179,-0.85535 0.44442,-1.55519 0.31697,-1.55519 -0.12746,0 -1.09529,0.65178 -2.15075,1.4484 -1.05545,0.79663 -3.34506,2.27683 -5.08802,3.28934 -2.89701,1.68292 -3.39852,1.84813 -5.84274,1.92469 -1.47055,0.0461 -2.33446,-0.009 -1.91982,-0.12158 z m 41.15046,-0.76094 c -0.13821,-0.13821 -0.2513,-0.71808 -0.2513,-1.28859 0,-0.77885 -0.3287,-1.24042 -1.31933,-1.85267 -0.72563,-0.44846 -1.31673,-0.92877 -1.31355,-1.06736 0.0208,-0.90947 0.91783,-1.33769 3.22238,-1.53837 l 2.54245,-0.2214 -1.47174,-0.70671 c -3.25907,-1.56497 -6.61693,-2.43253 -11.21878,-2.89854 -2.62106,-0.26542 -4.76556,-0.60608 -4.76556,-0.75701 0,-0.15094 0.86291,-0.48144 1.91758,-0.73445 2.17451,-0.52166 5.96974,-0.2673 8.82262,0.59129 3.51972,1.05928 9.23819,4.72916 9.23819,5.9287 0,0.18485 -1.07071,0.21834 -2.40657,0.0753 -2.72651,-0.29199 -4.56148,0.0429 -3.49756,0.63829 0.34476,0.19294 0.89002,0.85972 1.21168,1.48175 0.76959,1.48822 0.22593,3.28621 -0.71051,2.34978 z m -38.13485,23.9992 c 0.12813,-0.20732 0.40259,-0.37695 0.60991,-0.37695 0.20733,0 0.25592,0.19583 0.10799,0.43519 -0.16707,0.27033 -0.10336,0.33284 0.1682,0.16502 0.29043,-0.1795 -0.006,-0.68843 -0.88414,-1.51632 -1.04551,-0.98604 -1.32129,-1.5358 -1.32129,-2.63392 0,-2.70116 1.80581,-4.62907 4.03012,-4.30261 1.02047,0.14978 1.07585,0.0849 1.07585,-1.25999 v -1.4179 l -2.8357,0.22483 c -1.55963,0.12365 -2.99119,0.36701 -3.18123,0.5408 -0.20892,0.19106 -0.16768,1.95581 0.10431,4.46351 0.24741,2.28115 0.3421,4.57678 0.21043,5.10141 -0.20925,0.8337 -0.11834,0.95388 0.72158,0.95388 0.52855,0 1.06583,-0.16963 1.19397,-0.37695 z m -11.01502,-1.39922 c -0.0961,-0.25126 -0.50278,-0.56097 -0.9038,-0.68825 -1.26771,-0.40236 -1.9565,-1.89428 -1.74418,-3.77795 0.21945,-1.94694 1.02748,-3.01058 2.87285,-3.78163 1.20542,-0.50365 1.39233,-0.4766 2.92902,0.42396 0.90279,0.52908 1.64193,0.82758 1.64252,0.66335 7.6e-4,-0.16423 0.50899,-0.63786 1.12977,-1.05251 0.62078,-0.41464 1.12917,-0.86706 1.12977,-1.00538 0.002,-0.47239 -3.95205,-1.1418 -7.44369,-1.26017 l -3.4868,-0.11821 -0.002,1.19188 c -10e-4,0.65554 -0.192,1.8704 -0.4241,2.69969 -0.2321,0.82929 -0.44319,2.61038 -0.46909,3.95798 -0.0326,1.69942 -0.18731,2.42269 -0.50471,2.36047 -0.26722,-0.0524 -0.36666,0.14733 -0.23899,0.48003 0.17264,0.44987 0.79404,0.54805 2.95342,0.46666 1.95449,-0.0737 2.68495,-0.23342 2.56011,-0.55992 z m 14.37694,-0.98195 c 0.95162,-0.69584 1.11608,-2.74561 0.30932,-3.85534 -0.80022,-1.10075 -2.36073,-1.20323 -3.25612,-0.21384 -1.17546,1.29887 -0.78037,4.02946 0.62211,4.29965 1.49554,0.28812 1.63429,0.27436 2.32469,-0.23047 z m 7.41502,-0.94815 c -0.2033,-0.37987 -0.63334,-0.90952 -0.95564,-1.17701 -0.83137,-0.68997 -0.80114,0.25127 0.0378,1.17833 0.80646,0.89113 1.39497,0.89028 0.9178,-0.002 z m -18.371,-0.61067 c 1.27289,-1.17967 1.26196,-2.1737 -0.0392,-3.5636 -1.39157,-1.48648 -2.30505,-1.68212 -3.75031,-0.8032 -1.67722,1.01998 -2.07377,3.06461 -0.84753,4.36988 1.18233,1.25853 3.27724,1.25714 4.63704,-0.003 z m 20.96255,-2.06644 c 0.55907,-1.04463 0.48268,-1.93647 -0.23364,-2.728 -0.76501,-0.84532 -1.39973,-0.87361 -2.17635,-0.097 -0.58946,0.58946 -0.82017,2.82369 -0.34105,3.30281 0.55026,0.55026 2.36998,0.2342 2.75104,-0.47782 z m -39.63074,-0.3075 c -0.21544,-2.57076 0.1084,-3.96597 1.16603,-5.02359 2.12996,-2.12996 5.4112,-0.98499 6.37253,2.22366 0.24478,0.81698 0.68344,1.68327 0.97483,1.92509 0.55942,0.46428 0.59927,0.36129 1.19142,-3.07962 l 0.24266,-1.41004 -2.33353,-1.10359 c -1.28345,-0.60697 -2.61664,-1.34705 -2.96266,-1.64462 -0.68086,-0.58552 -3.01728,-1.78224 -3.47957,-1.78224 -0.27809,0 -1.2544,2.56509 -2.60758,6.85096 -0.46267,1.46542 -0.53317,2.08451 -0.22384,1.96581 0.24834,-0.0953 0.68165,0.25673 0.96292,0.78229 0.60205,1.12495 0.77232,1.19725 0.69679,0.29589 z m 2.44559,-4.51147 c -1.03741,0.46478 -1.78624,2.22572 -1.47457,3.46754 5.12195,8.12898 8.62774,-5.598 1.47457,-3.46754 z m 34.32502,1.46303 c 0.64306,-0.70801 1.0592,-0.84074 2.11949,-0.67602 1.00204,0.15567 1.16068,0.11374 0.65966,-0.17437 -0.36281,-0.20863 -0.65966,-0.71015 -0.65966,-1.1145 0,-0.89232 -3.8e-4,-0.89234 -2.53527,-0.0933 -1.74499,0.55006 -2.00571,0.75217 -1.82345,1.41357 0.11697,0.42445 0.32579,1.44986 0.46405,2.27868 l 0.25138,1.50695 0.36182,-1.13 c 0.199,-0.62149 0.72189,-1.52643 1.16198,-2.01097 z m -3.84348,-1.65174 c -0.23965,-0.23965 -0.60264,-0.24377 -1.01759,-0.0115 -0.58833,0.32925 -0.56666,0.43441 0.24639,1.19589 l 0.89143,0.83489 0.12615,-0.82335 c 0.0694,-0.45284 -0.0415,-0.99098 -0.24638,-1.19588 z"
       id="path832"
       inkscape:connector-curvature="0"
       sodipodi:nodetypes="ccsssccsccscssssssscccccccsccccccccsssscsccssscccsscccccsccsssssssccsssscccccccccscccscsccccscccccccscsccsccccccccsscccscsccccccscccccscscccsssccscscsccccccccscscccccccccccccsssscscccccscssccccssscscscscccccccscscssscscsscscccscccsccccccssscccccscscccscccsscccscccccccccsccccccccccccccccccccccccscscscccccsccccccscssccccccssccscscccccsccssccccccccscccccccccccccccccccscccccsccccccccccsccccccccscscccccccccscccc" />
    <path
       transform="translate(-7.5,-1.78571)"
       style="display:inline;fill:#000000;fill-opacity:1;stroke:#000000;stroke-width:1;stroke-linejoin:miter;stroke-miterlimit:4;stroke-dasharray:none;stroke-opacity:1;paint-order:stroke fill markers"
       d="m 109.58475,1038.572 c -1.78832,-0.2449 -3.41028,-0.5435 -3.60437,-0.6634 -0.19409,-0.12 -2.02717,-0.4875 -4.07352,-0.8168 -2.090674,-0.3365 -4.245834,-0.9233 -4.919504,-1.3397 -0.659384,-0.4075 -2.451975,-1.0177 -3.983537,-1.356 -3.138202,-0.6932 -6.482762,-2.2502 -11.454524,-5.3328 -1.865907,-1.1568 -4.817704,-2.7118 -6.559551,-3.4554 -1.972706,-0.8421 -3.45928,-1.7434 -3.942076,-2.3901 -0.75332,-1.009 -0.757452,-1.0988 -0.147183,-3.1993 0.345344,-1.1886 1.053613,-3.3624 1.573932,-4.8306 0.520318,-1.4683 1.37156,-4.3519 1.891649,-6.4082 0.520088,-2.0562 1.812593,-6.3678 2.872233,-9.5813 4.217575,-12.79038 7.138114,-23.39379 7.683054,-27.89436 0.138067,-1.14028 0.729175,-4.02395 1.313573,-6.40816 2.471665,-10.08384 2.82156,-11.92032 3.985925,-20.92077 0.295029,-2.28055 0.810498,-5.24904 1.145485,-6.59664 0.334988,-1.3476 0.757404,-3.46149 0.938701,-4.69754 0.181298,-1.23606 0.915151,-3.86529 1.630786,-5.84274 0.715634,-1.97745 1.583089,-4.61314 1.927678,-5.85708 0.885765,-3.19755 1.754115,-5.54352 1.971455,-5.32618 0.28296,0.28295 -1.348931,7.25602 -2.381907,10.17792 -1.063413,3.00799 -1.461779,4.57348 -2.218579,8.71849 -0.302825,1.65858 -0.812342,3.94856 -1.132259,5.08884 -0.319917,1.14027 -0.830539,4.10876 -1.134715,6.59663 -0.857757,7.01564 -1.241877,9.3343 -2.234528,13.48831 -0.50619,2.11829 -1.202652,5.20845 -1.547692,6.86704 -0.345041,1.65858 -0.863744,3.88985 -1.152673,4.95837 -0.288929,1.06853 -0.525325,2.35104 -0.525325,2.85004 0,1.607 -2.146284,9.30873 -5.019707,18.01271 -1.539966,4.66477 -3.438361,11.19542 -4.218656,14.51252 -0.780294,3.3172 -1.917294,7.8123 -2.526667,9.9892 -1.855016,6.6268 -1.83354,6.4928 -1.12408,7.0116 0.34835,0.2547 1.312965,0.6642 2.14359,0.9099 0.830624,0.2458 4.478713,1.9595 8.106865,3.8083 7.23368,3.686 11.049613,5.029 19.978397,7.031 5.45125,1.2224 6.29736,1.3116 12.62785,1.3318 5.44738,0.017 7.67693,-0.1423 11.30852,-0.81 6.37595,-1.1722 8.10208,-1.5541 9.64579,-2.1339 2.8674,-1.077 15.09946,-4.3799 20.13332,-5.4363 5.20311,-1.092 12.02156,-1.9078 15.96651,-1.9104 1.7361,0 1.98523,-0.09 1.77626,-0.6346 -0.91406,-2.382 -2.42174,-11.293 -4.93129,-29.14571 -1.36495,-9.71012 -2.35359,-16.12862 -2.84501,-18.47058 -0.50101,-2.38768 -2.13122,-8.19057 -2.44246,-8.69416 -0.11562,-0.18708 -0.43856,-1.40313 -0.71765,-2.70234 -0.27908,-1.29922 -0.95482,-4.31293 -1.50164,-6.69714 -0.8678,-3.78372 -2.1562,-12.69407 -2.07087,-14.32182 0.0264,-0.50318 0.0541,-0.50344 0.2443,-0.002 0.118,0.31098 0.59262,1.41356 1.05472,2.45018 0.48848,1.09582 1.02815,3.46263 1.28926,5.65426 0.5802,4.86993 2.33739,12.70484 4.18479,18.65906 1.50782,4.85971 1.93879,6.92385 2.79395,13.38176 1.88875,14.26319 5.14079,34.93789 6.12061,38.91149 0.31833,1.291 0.48826,2.5832 0.37761,2.8716 -0.15568,0.4057 -1.59363,0.5718 -6.35758,0.7345 -6.79085,0.232 -11.92094,1.0955 -19.56609,3.2934 -1.53955,0.4426 -3.13844,0.8938 -3.55309,1.0027 -0.41464,0.1089 -3.10849,0.9468 -5.98633,1.862 -2.87784,0.9152 -6.43195,1.8341 -7.89802,2.042 -1.46606,0.2079 -3.69142,0.6155 -4.94523,0.9057 -4.76808,1.1035 -12.92434,1.4462 -17.9705,0.7551 z m -2.62997,-76.54988 c -1.13606,-1.36886 -0.51706,-10.3697 1.3448,-19.55481 0.50431,-2.48788 1.19265,-5.9595 1.52966,-7.71471 0.33702,-1.75522 1.0889,-4.56549 1.67085,-6.24504 0.58196,-1.67956 1.17013,-3.80566 1.30705,-4.72467 0.29364,-1.97099 1.62542,-5.70118 3.62464,-10.15232 0.79151,-1.76224 2.11413,-5.23961 2.93915,-7.72749 1.71428,-5.16943 3.39722,-8.92823 5.27417,-11.77971 0.71646,-1.08845 1.35463,-1.97899 1.41815,-1.97899 0.22959,0 -0.72025,2.37697 -1.6346,4.09058 -2.38597,4.47159 -8.66905,21.76566 -9.88066,27.19633 -0.43942,1.96957 -1.06937,4.68362 -1.39988,6.03122 -0.94048,3.83466 -1.60222,6.79378 -2.0231,9.04681 -0.21302,1.14028 -0.5545,2.83656 -0.75886,3.76951 -0.20436,0.93295 -0.87719,4.90221 -1.49517,8.82056 -1.11459,7.06714 -1.38472,10.40796 -0.84089,10.39957 0.15549,-0.002 1.11244,-2.16515 2.12655,-4.80612 1.77257,-4.61617 4.06155,-8.75975 4.83904,-8.75975 0.20425,0 0.25664,0.29685 0.1164,0.65967 -0.14023,0.36281 -0.5164,1.93187 -0.83593,3.48679 -0.31953,1.55492 -0.66874,2.91195 -0.77604,3.01561 -0.20092,0.19413 0.17536,-2.92185 0.53487,-4.42917 0.11551,-0.48431 0.0261,-0.84814 -0.20834,-0.84814 -0.22585,0 -0.51693,0.46647 -0.64685,1.03661 -0.44196,1.93953 -2.49721,7.8149 -3.42836,9.80072 -0.97848,2.08676 -1.84695,2.51126 -2.79665,1.36694 z m 52.68906,-17.0104 c -0.21849,-0.36935 -0.5436,-2.66672 -0.82981,-5.86372 -0.12632,-1.41097 -0.31863,-2.93762 -0.42735,-3.39255 -0.10874,-0.45494 -0.2617,-3.79565 -0.33992,-7.4238 -0.58249,-27.01787 -0.92898,-33.43665 -2.08565,-38.63745 -0.41498,-1.86591 -0.83185,-3.76435 -0.92638,-4.21876 l -0.17185,-0.8262 -1.63017,0.7211 c -0.89658,0.3966 -2.5792,0.83263 -3.73914,0.96896 -1.79689,0.21119 -2.14179,0.37854 -2.3306,1.13084 -0.12189,0.48563 -0.58223,1.07597 -1.02298,1.31185 -1.09321,0.58507 -10.86426,0.66589 -12.04702,0.0996 -0.49577,-0.23735 -2.76732,-0.62731 -5.04787,-0.86658 -2.28055,-0.23927 -4.90979,-0.51678 -5.84274,-0.6167 -0.93295,-0.0999 -2.54442,-0.24033 -3.58103,-0.31202 -2.4728,-0.171 -5.28993,-1.28351 -8.08993,-3.19477 -1.24723,-0.85135 -2.32925,-1.54791 -2.40448,-1.54791 -0.0752,0 -0.43961,1.14499 -0.80973,2.54442 -0.37011,1.39943 -1.0738,3.40892 -1.56375,4.46554 -0.48995,1.05662 -0.89082,2.14062 -0.89082,2.40889 0,0.26827 -0.32221,1.18486 -0.71603,2.03686 -0.39382,0.852 -1.00463,2.65167 -1.35736,3.99927 -0.35274,1.3476 -1.10875,3.8072 -1.68003,5.46579 -0.57128,1.65858 -1.40793,4.203 -1.85922,5.65426 -0.451294,1.45126 -0.984154,2.8931 -1.184144,3.20408 -0.60469,0.94033 -0.175,-3.69884 0.57608,-6.21969 0.370634,-1.24394 1.174944,-3.95798 1.787354,-6.03121 1.74275,-5.89987 3.32406,-10.82689 3.87137,-12.06243 0.27552,-0.62196 1.05958,-2.31824 1.74236,-3.7695 0.68278,-1.45126 1.2058,-2.94451 1.16228,-3.31833 -0.14383,-1.23506 1.84289,-6.65319 3.15395,-8.60142 0.70868,-1.05309 1.28851,-2.14348 1.28851,-2.42308 0,-0.2796 -0.60182,-0.96739 -1.33738,-1.52843 -1.84424,-1.40667 -2.27589,-2.29609 -1.5198,-3.13156 0.32751,-0.36189 0.59547,-0.85666 0.59547,-1.09949 0,-0.64028 -2.08572,-0.54233 -2.63865,0.12392 -0.66071,0.7961 -1.54254,0.70249 -1.77553,-0.18848 -0.2451,-0.93723 -0.28307,-0.93593 -1.94949,0.0665 -3.02672,1.82079 -13.500903,11.15798 -16.16979,14.41454 -0.601731,0.73423 -2.07842,1.12314 -3.193431,0.84106 -1.800694,-0.45555 -2.734766,-4.73864 -2.393288,-10.97417 0.671989,-12.27079 1.491586,-18.70759 2.654983,-20.85123 0.52911,-0.97493 0.556996,-0.87386 0.571352,2.07075 0.02602,5.33785 2.066056,9.33275 4.63902,9.08438 1.175244,-0.11345 1.227997,-0.19176 1.475842,-2.19088 0.141368,-1.14028 0.875397,-4.44802 1.631175,-7.35054 2.023846,-7.77246 2.075821,-8.00617 2.467489,-11.09534 0.198088,-1.56236 0.812239,-4.14392 1.36478,-5.7368 0.983814,-2.83618 1.017574,-2.87922 1.630124,-2.07882 0.34403,0.44952 0.73444,1.11562 0.86756,1.48021 0.21231,0.58144 0.532844,0.46514 2.608584,-0.94653 1.83086,-1.24513 2.8745,-2.36544 4.61063,-4.94941 1.25335,-1.8654 2.95268,-3.86063 3.84905,-4.51926 0.88272,-0.64859 1.61156,-1.3913 1.61965,-1.65045 0.008,-0.25916 0.14498,-0.47119 0.30421,-0.47119 0.15924,0 1.30423,-0.84383 2.54442,-1.87518 1.2402,-1.03135 2.3771,-1.87949 2.52644,-1.88476 0.14936,-0.005 1.19866,-0.43364 2.33179,-0.95195 1.13314,-0.5183 2.41038,-0.94237 2.8383,-0.94237 0.85199,0 0.91365,0.29024 0.80089,3.7695 -0.0756,2.33221 0.98696,6.05757 2.43013,8.52014 1.99748,3.40845 6.99735,5.70801 11.50072,5.28946 6.19523,-0.57578 14.91737,-5.12623 21.4797,-11.2062 3.03326,-2.81031 5.11239,-4.48815 5.56159,-4.48815 0.40274,0 7.73913,7.33368 9.05016,9.04682 0.39665,0.51831 1.26734,1.97662 1.93486,3.2407 0.90487,1.71352 3.40525,4.56363 9.8268,11.20124 8.4355,8.71932 12.82854,13.94936 14.3654,17.1024 1.02418,2.10123 1.05399,5.15377 0.0633,6.48305 -0.40458,0.54286 -1.65083,1.61949 -2.76946,2.39251 -4.39046,3.03404 -9.20235,8.66911 -12.17544,14.25831 -1.43997,2.70703 -3.87683,8.98876 -8.39644,21.64434 -0.90554,2.53566 -1.37761,3.57063 -3.09269,6.78056 -0.43882,0.8213 -0.79786,1.69953 -0.79786,1.95163 0,0.2521 -0.4638,0.82319 -1.03066,1.26909 -1.11917,0.88033 -2.8418,0.81039 -3.80677,-0.15457 -0.68526,-0.68527 -2.70158,-6.8987 -2.70158,-8.32513 0,-0.62264 -0.43644,-2.44258 -0.96986,-4.0443 l -0.96986,-2.91222 1.43113,-1.71209 c 1.58451,-1.89558 1.68736,-2.82374 0.71066,-6.41322 -0.28207,-1.03661 -0.63226,-2.80287 -0.77821,-3.92501 -0.47431,-3.64674 -4.24982,-11.71844 -5.48127,-11.71844 -0.2018,0 -0.56207,-0.42832 -0.80059,-0.95181 -0.3832,-0.84102 -0.30289,-1.09331 0.68994,-2.16747 0.61798,-0.66861 1.57337,-1.83162 2.12307,-2.58447 0.70946,-0.97163 1.39366,-1.44275 2.35796,-1.62366 1.99132,-0.37357 1.45056,-1.1755 -0.7161,-1.06194 -3.42494,0.17951 -11.94446,4.20019 -12.78431,6.0334 -0.27323,0.59641 -0.26111,1.12785 0.0408,1.79052 0.3524,0.77342 0.69602,0.94238 1.91667,0.94238 h 1.4873 l 1.53639,3.92957 c 1.63828,4.19019 1.98668,7.0061 1.00254,8.10317 -0.44497,0.49604 -0.45576,0.87747 -0.0648,2.29139 0.25798,0.93295 0.66224,2.15907 0.89835,2.72471 1.84084,4.41003 2.60003,12.22316 2.95849,30.44695 0.28526,14.50218 0.39622,26.00841 0.25082,26.00921 -0.0396,2.2e-4 -0.14725,-0.12682 -0.23923,-0.28232 z m 12.00085,-37.33658 c 0.36186,-0.97463 1.11522,-2.53538 1.67415,-3.46834 0.55893,-0.93295 1.62319,-3.39255 2.36503,-5.46578 3.17557,-8.87487 7.06651,-18.62054 8.19825,-20.53422 3.08456,-5.21575 7.09136,-10.22868 11.93789,-14.93557 3.38613,-3.28857 3.52066,-3.48149 3.28566,-4.71188 -0.58449,-3.06027 -4.01489,-7.83866 -10.52883,-14.66622 -3.93701,-4.12655 -5.54885,-5.89215 -10.15022,-11.1185 -0.54759,-0.62197 -2.15264,-2.74232 -3.56677,-4.71188 -3.65171,-5.08601 -9.76746,-11.68548 -10.82898,-11.68548 -0.18078,0 -1.42624,1.02719 -2.76768,2.28264 -3.10889,2.9096 -7.60742,6.37152 -9.78952,7.53371 -0.93295,0.49689 -2.88367,1.60348 -4.33493,2.45908 -7.54313,4.4471 -14.41118,4.40092 -19.45154,-0.13079 -3.001,-2.69815 -4.32684,-5.87599 -4.68111,-11.21988 -0.10757,-1.62253 -0.26911,-3.02359 -0.35899,-3.11347 -0.21556,-0.21556 -5.24545,2.38566 -7.208,3.72764 -0.84896,0.58052 -2.04156,1.61673 -2.65022,2.3027 -0.60865,0.68596 -1.73141,1.71764 -2.49502,2.29262 -1.15743,0.8715 -1.55067,1.55913 -2.36396,4.13365 -0.53657,1.69853 -1.13573,4.35142 -1.33148,5.89529 -0.19574,1.54388 -0.44682,2.89798 -0.55795,3.0091 -0.18351,0.18351 -0.12042,-0.78156 0.39088,-5.97901 l 0.16687,-1.69628 -0.72857,0.94238 c -0.40071,0.51831 -1.09845,1.42146 -1.55052,2.00701 -0.45208,0.58555 -1.48359,1.4823 -2.29226,1.99279 -0.80866,0.51049 -1.65729,1.38842 -1.88585,1.95097 -0.228564,0.56255 -0.646164,1.55734 -0.928014,2.21064 -0.28185,0.6533 -0.51761,1.50144 -0.52391,1.88475 -0.01,0.59695 -0.0606,0.61297 -0.35404,0.11169 -0.20832,-0.35589 -0.19493,-1.16839 0.0342,-2.07323 0.61151,-2.41518 0.76697,-4.04468 0.51525,-5.40083 -0.13008,-0.7008 -0.3718,-1.12487 -0.53715,-0.94237 -0.54458,0.60102 -1.833495,6.31248 -2.031528,9.00214 -0.106871,1.45152 -0.534562,3.57187 -0.950425,4.71189 -1.451937,3.98025 -3.210341,11.65382 -4.405196,19.22402 -0.539933,3.42083 -1.158642,6.38932 -1.37491,6.59664 -0.269675,0.25852 -0.324009,0.14009 -0.172939,-0.37695 0.338895,-1.15988 1.334791,-7.3553 1.454252,-9.04682 0.09725,-1.37702 0.03215,-1.49745 -0.750607,-1.38836 -1.357255,0.18916 -3.411184,-1.337 -4.397601,-3.2676 -0.831567,-1.62753 -0.908835,-1.68515 -1.085971,-0.80983 -0.326011,1.611 -1.000277,18.21917 -0.788137,19.41297 0.470931,2.65011 0.552645,2.82713 1.305076,2.82713 0.417202,0 0.853087,-0.24636 0.968634,-0.54747 0.236656,-0.61672 8.623887,-7.90775 12.270832,-10.66705 3.722404,-2.8164 4.857624,-3.23314 9.119194,-3.34766 2.04523,-0.0549 3.79864,-0.17995 3.89645,-0.27777 0.0978,-0.0978 0.20554,-2.10306 0.23939,-4.45609 0.0598,-4.16021 0.0251,-4.35603 -1.25781,-7.09794 -1.16888,-2.49818 -1.31796,-3.16357 -1.30736,-5.83531 0.0111,-2.79362 0.12764,-3.23759 1.5832,-6.03122 1.83662,-3.52496 2.10339,-2.99908 0.47807,0.94238 -1.64644,3.99264 -1.57765,6.48092 0.28165,10.18831 l 1.41249,2.81649 0.031,5.08884 0.0309,5.08883 -1.16073,1.65168 c -1.12884,1.60631 -1.1401,1.66326 -0.40986,2.07323 0.41297,0.23186 1.29213,0.97284 1.95368,1.64664 0.66155,0.6738 1.38383,1.22509 1.60508,1.22509 0.22124,0 0.35985,0.15518 0.30802,0.34485 -0.0518,0.18966 1.74882,1.31076 4.00143,2.49132 4.02177,2.10775 4.1408,2.14317 6.59664,1.9626 3.05343,-0.22451 8.23907,0.36637 9.34253,1.06454 0.68976,0.43641 1.48802,0.41295 5.36421,-0.15767 2.50461,-0.3687 4.75221,-0.54778 4.99465,-0.39794 0.24244,0.14983 1.0015,-0.008 1.6868,-0.35017 1.02809,-0.51371 1.28925,-0.90191 1.49337,-2.21981 0.13606,-0.87846 0.13768,-2.0343 0.004,-2.56851 -0.4327,-1.72403 1.9732,-3.91455 7.82614,-7.12552 3.1778,-1.74336 5.99021,-2.12102 8.81301,-1.18344 1.78626,0.5933 3.87156,2.23846 3.41545,2.69456 -0.11662,0.11663 -0.81024,-0.0379 -1.54137,-0.34338 -1.54129,-0.64399 -1.84317,-0.48586 -1.52122,0.7969 0.2196,0.87494 0.16483,0.91268 -0.96456,0.66462 -1.3309,-0.29231 -3.05149,0.55093 -3.05149,1.4955 0,0.29899 -0.53392,1.15172 -1.18649,1.89495 l -1.18649,1.35134 1.13736,1.20619 c 2.52828,2.68132 4.79391,8.30825 5.36957,13.33587 0.7355,6.42368 1.88493,12.35118 3.2866,16.94866 0.51456,1.6878 0.87006,3.46889 0.78999,3.95798 -0.11747,0.71751 -0.24299,0.56164 -0.64991,-0.80702 -0.27738,-0.93295 -0.72759,-2.40137 -1.00047,-3.26316 -0.27287,-0.86178 -0.79617,-3.02454 -1.16289,-4.80612 -0.36691,-1.78158 -0.7688,-3.23924 -0.89327,-3.23924 -0.12447,0 -0.60878,0.40712 -1.07624,0.9047 -0.8358,0.88967 -0.84,0.94132 -0.25257,3.10985 0.32854,1.21282 1.02911,3.88541 1.55682,5.93907 0.63752,2.48102 1.35418,4.28356 2.13578,5.37191 1.08119,1.50552 1.22851,1.59073 1.82188,1.05374 0.35507,-0.32134 0.94164,-1.38168 1.30349,-2.35631 z M 122.34637,873.0691 c -0.15118,-0.15117 -0.27486,-0.53496 -0.27486,-0.85285 0,-0.4243 0.11151,-0.46648 0.41936,-0.15864 0.23064,0.23065 0.35433,0.61443 0.27486,0.85286 -0.0795,0.23842 -0.26819,0.3098 -0.41936,0.15863 z m 22.19163,-1.90814 c 0.34695,-1.44426 0.52751,-1.58095 0.52751,-0.39937 0,0.54062 -0.17643,1.09199 -0.39206,1.22526 -0.25716,0.15893 -0.30376,-0.12526 -0.13545,-0.82589 z m -24.47689,-0.37713 c -0.13822,-0.13821 -0.25131,-0.84499 -0.25131,-1.57062 0,-1.6729 0.39898,-1.32782 0.5415,0.46834 0.1143,1.44053 0.10049,1.49297 -0.29019,1.10228 z m -0.22481,-5.03637 c 0.0516,-1.08177 0.58299,-2.03606 0.87269,-1.56732 0.15144,0.24503 0.0111,0.82281 -0.31192,1.28395 -0.37289,0.53237 -0.57759,0.63581 -0.56077,0.28337 z m 16.93629,-2.03684 c 2.28635,-0.63619 4.44841,-1.77838 8.42452,-4.45057 3.84675,-2.58525 5.46988,-3.34474 6.54649,-3.0632 0.74724,0.19541 0.74007,0.25309 -0.29802,2.3961 -1.28393,2.65051 -1.96039,3.24172 -1.40974,1.23208 0.21366,-0.77976 0.54573,-1.71459 0.73794,-2.07741 0.53117,-1.00266 -0.1379,-0.80002 -1.9788,0.59931 -4.96824,3.77656 -9.40821,5.9266 -12.12067,5.86938 l -1.598,-0.0337 z m 39.91506,-0.68569 c -0.023,-0.25915 -0.013,-0.83638 0.0222,-1.28274 0.0464,-0.58857 -0.35647,-1.04782 -1.46608,-1.67145 -0.84147,-0.47295 -1.52996,-0.99233 -1.52996,-1.15418 0,-0.62797 1.5566,-1.0747 3.74472,-1.0747 1.25757,0 2.28649,-0.14452 2.28649,-0.32115 0,-0.55864 -5.09353,-2.69512 -7.78243,-3.26434 -1.42104,-0.30083 -3.6863,-0.64358 -5.0339,-0.76167 -1.3476,-0.1181 -3.04388,-0.31852 -3.76951,-0.44538 l -1.31932,-0.23065 1.5078,-0.29381 c 2.37101,-0.46202 6.60654,-0.37609 8.66987,0.1759 2.32754,0.62267 5.4682,2.18507 7.78273,3.8717 1.86156,1.35654 2.72441,2.61138 1.54443,2.24604 -0.94948,-0.29397 -5.34003,-0.37754 -5.61077,-0.10679 -0.12605,0.12604 0.21601,0.75822 0.76011,1.40485 0.97399,1.15753 1.37659,3.37956 0.61233,3.37956 -0.20732,0 -0.39572,-0.21204 -0.41867,-0.47119 z m -71.14246,-26.29232 c 0,-0.5183 0.0856,-0.73034 0.19013,-0.47118 0.10457,0.25915 0.10457,0.68322 0,0.94237 -0.10457,0.25916 -0.19013,0.0471 -0.19013,-0.47119 z m 28.34495,49.45259 c 0.60096,-1.38303 1.07766,-9.53527 0.58653,-10.03067 -0.35672,-0.35984 -5.56774,-0.94862 -8.50794,-0.9613 l -2.69941,-0.0116 -0.18506,2.16747 c -0.10178,1.19211 -0.46279,3.35486 -0.80223,4.80612 -1.15432,4.93517 -1.29515,4.70454 2.89932,4.74807 1.91774,0.0199 4.33494,0.24249 5.37155,0.49463 2.36684,0.5757 2.59639,0.49228 3.33724,-1.21268 z m -7.02608,-1.17695 c -2.16967,-1.39012 -2.58184,-2.67916 -1.60454,-5.01816 0.64839,-1.55183 2.68363,-2.69581 4.14399,-2.32929 2.69064,0.67531 4.20378,4.78863 2.37448,6.4548 -1.9122,1.74167 -3.21844,1.97896 -4.91393,0.89265 z m 3.53528,-0.98637 c 1.54236,-0.79759 2.01635,-2.15576 1.28801,-3.69064 -1.4138,-2.97934 -5.48209,-2.59325 -6.19967,0.58837 -0.63115,2.79846 2.1285,4.5415 4.91166,3.10227 z m 15.30153,3.68033 c 0.54943,-0.34938 0.38474,-9.55034 -0.19794,-11.05832 -0.36529,-0.94539 -0.45994,-0.97426 -2.20008,-0.67119 -1.00011,0.17418 -3.09723,0.41782 -4.66027,0.54141 l -2.84189,0.22472 -0.0808,3.65055 c -0.0748,3.38136 -0.23838,4.93693 -0.68816,6.54356 -0.12098,0.43214 0.096,0.68351 0.68781,0.79681 1.51478,0.28998 9.51666,0.26791 9.98129,-0.0276 z m -6.55784,-1.5761 c -2.15212,-1.31221 -2.29754,-4.56534 -0.28284,-6.32687 1.18783,-1.03855 1.89329,-1.06119 3.45197,-0.11081 2.22339,1.35569 2.08805,4.74444 -0.25283,6.3305 -1.51222,1.0246 -1.41739,1.02112 -2.9163,0.10718 z m 3.37806,-1.59526 c 1.02313,-1.18327 0.82977,-2.62394 -0.50995,-3.79953 -1.3005,-1.14117 -1.56417,-1.20367 -2.64272,-0.62645 -1.81321,0.9704 -1.84035,4.54165 -0.0395,5.19343 1.28817,0.46622 2.34516,0.2121 3.19215,-0.76745 z m -22.52587,0.69751 c 0.76316,-1.16473 1.68997,-4.77183 1.95186,-7.59659 l 0.20969,-2.2617 -2.39857,-1.23257 c -1.31922,-0.67792 -3.30212,-1.75336 -4.40646,-2.38988 -1.10434,-0.63651 -2.08733,-1.07786 -2.18442,-0.98077 -0.21221,0.21221 -1.79651,4.43225 -2.91216,7.75697 l -0.80529,2.39985 1.31622,1.11415 c 1.94873,1.64957 4.31208,2.96489 6.3206,3.51776 2.38944,0.65773 2.25312,0.67307 2.90853,-0.32722 z m -6.4428,-3.03548 c -1.59116,-1.59116 -1.74247,-3.57731 -0.42183,-5.537 1.75862,-2.60962 4.51429,-2.31583 5.94204,0.6335 1.21001,2.49954 0.5011,4.39083 -2.15941,5.76108 -1.31901,0.67933 -1.99686,0.50636 -3.3608,-0.85758 z m 3.82905,-0.13771 c 0.77972,-0.54146 1.67443,-2.1542 1.67443,-3.01819 0,-0.48247 -0.2588,-1.37768 -0.5751,-1.98935 -0.49216,-0.95172 -0.79367,-1.11213 -2.09037,-1.11213 -2.97109,0 -4.5407,3.4126 -2.54613,5.53572 0.81289,0.86528 2.68661,1.17462 3.53717,0.58395 z m 34.34137,2.10059 c 3.82838,-1.4377 3.90378,-1.52423 3.31923,-3.80938 -1.15107,-4.49978 -1.86644,-6.29422 -2.50954,-6.29493 -0.35058,-3.8e-4 -0.72654,0.1435 -0.83548,0.31976 -0.10893,0.17626 -1.36186,0.68777 -2.78429,1.13669 l -2.58623,0.81624 0.48916,2.35009 c 0.26904,1.29256 0.52036,3.24065 0.5585,4.32909 0.0663,1.892 0.11502,1.97899 1.10849,1.97899 0.57153,0 2.0296,-0.37195 3.24016,-0.82655 z m -3.18939,-1.51054 c -0.6453,-0.6453 -0.55949,-3.41599 0.13261,-4.28174 0.56091,-0.70165 0.57324,-0.693 0.30023,0.21067 -0.82782,2.74007 0.0305,4.25496 2.0163,3.55847 0.71405,-0.25045 1.20234,-0.79559 1.50642,-1.6818 0.40881,-1.19147 0.45185,-1.2212 0.47119,-0.32546 0.0329,1.5232 -1.31162,2.9722 -2.75783,2.9722 -0.66912,0 -1.42013,-0.20355 -1.66892,-0.45234 z m 3.3433,-4.22806 c -0.25204,-0.30369 -0.91231,-0.62163 -1.46728,-0.70653 -0.94138,-0.14402 -0.92999,-0.15816 0.16991,-0.21085 1.0752,-0.0515 2.40223,0.82293 1.9441,1.28106 -0.10366,0.10367 -0.39469,-0.06 -0.64673,-0.36368 z m -53.703704,35.71619 c 0.34695,-1.44426 0.52751,-1.58095 0.52751,-0.39937 0,0.54062 -0.17643,1.09199 -0.39206,1.22526 -0.25715,0.15893 -0.30376,-0.12526 -0.13545,-0.82589 z"
       id="path830"
       inkscape:connector-curvature="0" />
    <g
       id="g935">
      <path
         inkscape:connector-curvature="0"
         id="path838"
         d="m 168.63278,908.55814 c -0.65003,-0.89735 -1.28323,-2.45552 -1.63826,-4.03146 -0.31828,-1.41283 -0.89156,-3.59017 -1.27396,-4.83854 -0.81226,-2.65171 -0.88281,-4.30152 -0.22254,-5.20449 0.41377,-0.56586 0.66302,0.10488 1.99848,5.37816 1.55752,6.15009 1.89015,6.98474 2.52897,6.34592 0.23833,-0.23833 -0.0476,-2.01633 -0.85848,-5.33929 -1.50114,-6.15116 -2.14224,-9.37907 -3.04652,-15.33911 -0.9637,-6.35165 -2.19771,-9.74345 -4.89002,-13.4407 -0.66284,-0.91025 -1.20515,-1.76086 -1.20515,-1.89026 0,-0.12938 0.6314,-1.08994 1.4031,-2.13457 1.17889,-1.59579 1.63165,-1.93586 2.83321,-2.128 0.99354,-0.15887 1.49925,-0.4466 1.65667,-0.94258 0.25706,-0.80992 0.24058,-0.80682 2.05344,-0.38583 0.73661,0.17105 1.33929,0.19874 1.33929,0.0615 0,-0.52946 -2.38479,-2.52268 -3.64924,-3.05007 -0.73484,-0.30649 -2.36,-0.55381 -3.63913,-0.55381 -2.04125,0 -2.68508,0.19104 -5.51028,1.63507 -3.52219,1.80027 -7.12396,4.50827 -7.81647,5.87684 -0.24518,0.48452 -0.44815,1.87364 -0.45104,3.08693 -0.005,2.08835 -0.062,2.23428 -1.06873,2.73651 -0.5849,0.29178 -1.34829,0.45653 -1.69642,0.3661 -0.34814,-0.0904 -2.58529,0.13767 -4.97146,0.50689 -3.85778,0.59694 -4.44913,0.61334 -5.33715,0.14805 -0.64977,-0.34044 -2.93973,-0.63702 -6.55438,-0.84888 l -5.5557,-0.32563 -3.65267,-1.83715 c -2.48659,-1.25066 -4.3651,-2.50879 -5.88431,-3.94102 l -2.23165,-2.10387 0.86026,-1.4892 c 0.76408,-1.32269 0.8778,-2.03007 1.01703,-6.32611 0.14906,-4.59911 0.11316,-4.92391 -0.73014,-6.60714 -2.36018,-4.71093 -2.5881,-7.94698 -0.86675,-12.30596 1.0835,-2.74376 1.25092,-3.50338 0.79012,-3.58494 -0.18754,-0.0332 -1.07147,1.36252 -1.96429,3.10158 -1.52755,2.9754 -1.62331,3.33047 -1.62331,6.01907 0,2.42083 0.18621,3.32072 1.21942,5.89286 1.11051,2.76457 1.22215,3.37702 1.25,6.85707 0.0191,2.38662 -0.11977,3.97173 -0.36986,4.22186 -0.22675,0.22679 -1.85327,0.43297 -3.75,0.47536 -2.75535,0.0616 -3.65986,0.23129 -5.09866,0.95671 -1.82454,0.9199 -9.588664,6.97348 -14.059253,10.96181 -3.914568,3.49229 -3.818025,3.68775 -3.528737,-7.14407 0.132309,-4.95402 0.338905,-9.60598 0.459103,-10.33767 l 0.218542,-1.33037 0.973774,1.34426 c 1.12133,1.54795 2.528133,2.56647 3.544877,2.56647 0.388176,0 0.788908,0.13451 0.890517,0.29892 0.101609,0.1644 -0.159416,2.49211 -0.580054,5.17268 -0.666517,4.24745 -0.701393,5.7863 -0.117913,5.20282 0.0874,-0.0874 0.480358,-1.84186 0.873244,-3.89881 2.47314,-12.94807 3.112283,-15.92495 4.346056,-20.24218 0.755559,-2.64386 1.637626,-6.59995 1.96015,-8.79131 0.322524,-2.19136 0.813567,-4.4682 1.091208,-5.05964 0.481144,-1.02495 0.496935,-0.96655 0.336963,1.24609 -0.09231,1.27678 -0.276173,3.08482 -0.408584,4.01786 -0.367196,2.58745 0.565926,2.22526 1.584573,-0.61505 0.456824,-1.27377 1.249014,-2.67671 1.764584,-3.125 0.51457,-0.44744 1.78741,-1.65386 2.82853,-2.68094 l 1.89294,-1.86742 -0.0127,1.68885 c -0.007,0.92886 -0.24556,2.65313 -0.53013,3.8317 -0.59992,2.48454 -0.65612,3.39286 -0.2099,3.39286 0.33624,0 1.05919,-2.81323 2.01915,-7.85715 0.31777,-1.66964 0.94039,-3.84208 1.38361,-4.82764 1.15905,-2.57733 5.9473,-6.93551 10.2357,-9.31633 l 3.36429,-1.86779 0.44817,3.80945 c 0.76517,6.50409 3.37532,10.55049 8.30183,12.86991 2.57351,1.21162 6.83778,1.46393 9.87664,0.58437 4.83548,-1.39955 12.72716,-6.17006 19.15641,-11.58002 2.11996,-1.78386 3.98198,-3.24338 4.13783,-3.24338 0.67237,0 7.05891,7.15889 11.31074,12.67858 3.20872,4.16554 7.66756,9.31755 12.56316,14.51622 5.34362,5.67444 8.54687,9.70498 9.80233,12.33391 1.01327,2.12179 1.03194,2.25013 0.48201,3.31358 -0.31465,0.60846 -2.13381,2.75056 -4.04257,4.7602 -3.87524,4.08007 -7.39244,8.46645 -9.79769,12.21894 -1.68101,2.62257 -3.68205,7.31204 -7.74031,18.1395 -2.29325,6.11841 -6.17763,14.67779 -6.84943,15.09299 -0.16692,0.10316 -0.7803,-0.47063 -1.36306,-1.27511 z m -47.9288,-38.31774 c -0.0196,-0.6268 -0.15774,-1.54142 -0.30703,-2.0325 l -0.27142,-0.89285 -0.28923,-1.56759 c -0.266,0.65441 -0.37326,3.87395 -0.12844,4.76062 0.42103,1.52485 1.04686,1.35667 0.99612,-0.26768 z m -1.06342,-3.33891 c 0.22796,-0.50031 1.45619,-2.53213 1.45619,-2.81753 0,-0.82812 -0.96652,-0.59951 -1.20347,0.28466 -0.53337,1.99027 -1.01102,4.19708 -0.25272,2.53287 z m 23.30678,-4.40538 c 1.43753,-0.84507 3.62586,-2.23598 4.86295,-3.09092 1.23709,-0.85494 2.30618,-1.55443 2.37576,-1.55443 0.0696,0 -0.09,0.71922 -0.3545,1.59827 -0.62179,2.06604 -0.0915,2.3892 1.06099,0.64661 1.28373,-1.94097 1.82248,-3.62661 1.31977,-4.12931 -0.61818,-0.61819 -2.53816,0.19628 -7.06241,2.99592 -2.19041,1.35544 -5.00291,2.92234 -6.25,3.48199 -4.41318,1.98051 -4.31844,1.85636 -1.3097,1.71618 2.47622,-0.11537 2.99802,-0.27748 5.35714,-1.66431 z m 34.86239,-0.0206 c 0.0612,-0.52354 -0.27285,-1.46289 -0.7928,-2.22909 l -0.89867,-1.32426 h 3.02495 c 1.66372,0 3.02495,-0.14819 3.02495,-0.32931 0,-0.63292 -2.97046,-2.86434 -5.71109,-4.29017 -4.43169,-2.30562 -9.23508,-3.08679 -13.05933,-2.12384 -1.99733,0.50294 -2.02186,0.92674 -0.0689,1.18945 7.23367,0.97304 9.66405,1.4523 12.35845,2.43705 l 3.08798,1.12859 -1.60715,0.31362 c -2.30855,0.4505 -3.57143,0.97984 -3.57143,1.49698 0,0.2475 0.5625,0.87904 1.25,1.40342 0.6875,0.52438 1.25,1.25353 1.25,1.62032 0,1.85863 1.50559,2.48023 1.71299,0.70722 z"
         style="display:inline;opacity:0.98999999;fill:#ff8080;fill-opacity:1;fill-rule:nonzero;stroke:#ff8080;stroke-width:0.80000001;stroke-linecap:square;stroke-linejoin:round;stroke-miterlimit:4;stroke-dasharray:none;stroke-opacity:1;paint-order:markers fill stroke"
         transform="translate(-7.5,-1.78571)"
         sodipodi:nodetypes="cccccscscsccccscscccccccscsccccsccsssscccsscccscssssssssscccccscccccscssscscccscccccccsccscccsscccscsccccssscccccssscc" />
      <path
         inkscape:connector-curvature="0"
         id="path842"
         d="m 107.24116,1035.9187 c -3.20427,-0.5564 -10.757324,-2.4715 -13.92429,-3.5306 -2.064859,-0.6905 -7.048933,-2.8295 -11.075718,-4.7533 -4.026786,-1.9238 -7.763393,-3.6795 -8.303572,-3.9017 -0.540178,-0.2222 -0.982143,-0.573 -0.982143,-0.7797 0,-1.0393 5.919528,-23.15246 7.69526,-28.74664 2.791096,-8.79294 4.664217,-15.31372 5.187158,-18.05771 0.24102,-1.26469 1.308619,-6.15658 2.372441,-10.87086 1.063823,-4.71429 2.47498,-12.1875 3.135905,-16.60715 1.476154,-9.87112 2.936398,-16.77344 5.001275,-23.64016 1.330894,-4.42587 2.281516,-8.74837 2.010204,-9.14045 -0.03884,-0.0561 0.176201,-0.34885 0.477859,-0.65051 0.301659,-0.30166 0.54847,-0.81967 0.54847,-1.15115 0,-0.6287 6.469121,-20.32133 8.823471,-26.8595 l 1.3551,-3.7632 2.38474,1.46841 c 3.1936,1.96649 5.29219,2.58983 10.2403,3.04169 2.28837,0.20897 5.76782,0.62118 7.73211,0.91602 5.90906,0.88695 9.4338,1.11668 13.16413,0.85798 3.58299,-0.24848 3.62481,-0.26569 4.69301,-1.93127 0.19643,-0.30628 1.40179,-0.78655 2.67857,-1.06726 1.27679,-0.28072 2.67253,-0.62255 3.10166,-0.75962 0.67766,-0.21646 0.82843,-0.0685 1.14681,1.12561 1.4234,5.33848 1.93768,12.27943 2.54964,34.41056 0.26418,9.55368 0.58632,15.27593 1.05557,18.75 0.37145,2.75 0.76475,5.94021 0.874,7.08937 0.65558,6.89619 2.86852,17.97267 4.98712,24.9621 1.61347,5.32299 2.27842,8.9607 4.68447,25.6271 2.20978,15.30674 3.54292,23.55464 4.24882,26.28654 l 0.47086,1.8223 -4.32733,0.2207 c -7.03807,0.3589 -16.13096,2.1693 -27.18448,5.4123 -13.43469,3.9417 -16.71992,4.4888 -26.56411,4.4238 -4.05045,-0.027 -7.76624,-0.1184 -8.25731,-0.2037 z m 2.24781,-73.65388 c 0.48551,-0.57699 1.3615,-2.38503 1.94665,-4.01786 0.58515,-1.63282 1.1538,-3.20985 1.26367,-3.50449 0.13207,-0.35419 0.20932,-0.26343 0.22795,0.26786 0.0435,1.23948 1.02404,0.95574 1.39977,-0.40505 1.23799,-4.48362 1.60386,-6.6731 1.18507,-7.09188 -0.99485,-0.99485 -2.99376,1.77451 -5.30419,7.3486 -0.72893,1.75863 -1.38545,3.01717 -1.45892,2.79676 -0.18418,-0.55251 1.18194,-9.44526 2.478,-16.13057 3.51456,-18.12878 7.52476,-31.04403 14.39854,-46.37198 1.03005,-2.29692 1.23842,-3.07387 0.90997,-3.39286 -1.14647,-1.11345 -4.73999,5.26381 -7.81672,13.87198 -0.9829,2.75 -2.67733,7.16964 -3.7654,9.82143 -1.08807,2.65178 -2.3141,6.1875 -2.72452,7.85714 -0.41042,1.66964 -1.14905,4.32143 -1.64141,5.89286 -1.10413,3.52398 -3.48219,15.35421 -4.22409,21.01373 -0.30291,2.31078 -0.55076,5.77866 -0.55076,7.7064 0,3.0051 0.10557,3.63917 0.74021,4.44599 0.96189,1.22284 1.84361,1.19039 2.93618,-0.10806 z"
         style="display:inline;opacity:0.98999999;fill:#ff8080;fill-opacity:1;fill-rule:nonzero;stroke:#ff8080;stroke-width:0.85699999;stroke-linecap:square;stroke-linejoin:miter;stroke-miterlimit:4;stroke-dasharray:none;stroke-opacity:1;paint-order:stroke fill markers"
         transform="translate(-7.5,-1.78571)" />
    </g>
    <g
       id="g953">
      <path
         inkscape:connector-curvature="0"
         id="path850"
         d="m 139.48455,887.27267 c -0.018,-0.0834 -0.0536,-0.20161 -0.0793,-0.26273 -0.0386,-0.0919 0.0212,-0.079 0.34579,0.0745 0.79571,0.37632 1.18806,0.31344 2.17744,-0.34895 0.86095,-0.5764 1.12218,-0.80397 1.51414,-1.31906 0.40197,-0.52825 0.60214,-0.91521 0.80096,-1.54839 0.12403,-0.395 0.14743,-0.60055 0.14356,-1.2611 -0.004,-0.67734 -0.0284,-0.86076 -0.1722,-1.29426 -0.29298,-0.88296 -0.90603,-1.64102 -1.72162,-2.12885 -0.25233,-0.15093 -0.33257,-0.23162 -0.29964,-0.30132 0.0247,-0.0524 0.0559,-0.57114 0.0693,-1.15284 0.0279,-1.20944 -0.0693,-1.06005 0.77134,-1.1855 0.26043,-0.0389 0.52752,-0.086 0.59354,-0.10482 0.0926,-0.0264 0.11076,-0.01 0.0794,0.0718 -0.071,0.18513 0.12354,0.4423 0.84609,1.11825 l 0.70376,0.65836 0.0537,0.53387 c 0.22833,2.27234 0.24503,7.64715 0.0259,8.33756 -0.0476,0.15003 -0.47385,0.17889 -3.31907,0.22476 l -2.50041,0.0403 z"
         style="display:inline;opacity:0.98999999;fill:#ffb380;fill-opacity:1;fill-rule:nonzero;stroke:#ffb380;stroke-width:0.154;stroke-linecap:square;stroke-linejoin:miter;stroke-miterlimit:4;stroke-dasharray:none;stroke-opacity:1;paint-order:stroke fill markers"
         transform="translate(-7.5,-1.78571)" />
      <path
         inkscape:connector-curvature="0"
         id="path852"
         d="m 136.66781,887.29593 c -0.18005,-0.0221 -0.20599,-0.046 -0.17724,-0.16352 0.0185,-0.0757 0.0663,-0.38528 0.10608,-0.68797 0.0837,-0.63577 0.004,-2.5317 -0.17674,-4.23172 -0.1108,-1.03958 -0.16209,-4.84593 -0.0666,-4.9414 0.0236,-0.0235 0.86166,-0.11149 1.86247,-0.19546 1.00081,-0.084 2.298,-0.20912 2.88263,-0.27812 0.58464,-0.069 1.06982,-0.12545 1.07818,-0.12545 0.0261,0 -0.0285,1.72206 -0.0635,2.00388 l -0.0333,0.26768 -0.23488,-0.11983 c -0.38524,-0.19653 -0.95567,-0.33671 -1.36345,-0.33506 -0.73435,0.003 -1.39508,0.34845 -2.18737,1.1437 -0.56008,0.56217 -0.87651,1.07526 -1.15096,1.86633 -0.18591,0.53585 -0.19813,0.62615 -0.197,1.45519 10e-4,0.82184 0.0147,0.92207 0.19326,1.42796 0.33607,0.95204 0.96048,1.73548 1.76829,2.21865 0.34367,0.20556 0.43561,0.31284 0.21971,0.25638 -0.14804,-0.0387 -0.4324,0.10529 -0.63394,0.32102 -0.14896,0.15945 -0.17262,0.16357 -0.88388,0.15373 -0.40196,-0.006 -0.82574,-0.0217 -0.94175,-0.036 z"
         style="display:inline;opacity:0.98999999;fill:#ffb380;fill-opacity:1;fill-rule:nonzero;stroke:#ffb380;stroke-width:0.20999999;stroke-linecap:square;stroke-linejoin:miter;stroke-miterlimit:4;stroke-dasharray:none;stroke-opacity:1;paint-order:stroke fill markers"
         transform="translate(-7.5,-1.78571)" />
      <path
         inkscape:connector-curvature="0"
         id="path854"
         d="m 135.84408,887.21065 c -0.15238,-0.0299 -0.28507,-0.0624 -0.29488,-0.0723 -0.01,-0.01 0.0495,-0.2962 0.13172,-0.63644 0.25015,-1.03474 0.39746,-2.24661 0.51185,-4.21069 l 0.046,-0.78918 0.0802,0.91545 c 0.20557,2.34635 0.22185,3.87594 0.0499,4.68774 -0.0397,0.1874 -0.073,0.1941 -0.52475,0.10537 z"
         style="display:inline;opacity:0.98999999;fill:#ffb380;fill-opacity:1;fill-rule:nonzero;stroke:#ffb380;stroke-width:0.113;stroke-linecap:square;stroke-linejoin:miter;stroke-miterlimit:4;stroke-dasharray:none;stroke-opacity:1;paint-order:stroke fill markers"
         transform="translate(-7.5,-1.78571)" />
      <path
         inkscape:connector-curvature="0"
         id="path856"
         d=""
         style="display:inline;opacity:0.98999999;fill:#ffb380;fill-opacity:1;fill-rule:nonzero;stroke:#ffb380;stroke-width:0.0071342;stroke-linecap:square;stroke-linejoin:miter;stroke-miterlimit:4;stroke-dasharray:none;stroke-opacity:1;paint-order:stroke fill markers"
         transform="translate(-7.5,-1.78571)" />
      <path
         inkscape:connector-curvature="0"
         id="path858"
         d="m 139.18314,887.35409 c 0,-0.0281 0.0417,-0.10621 0.0927,-0.17362 0.0888,-0.11738 0.0928,-0.11523 0.0947,0.0511 0.001,0.11313 -0.031,0.17362 -0.0927,0.17362 -0.0521,0 -0.0947,-0.023 -0.0947,-0.0511 z"
         style="display:inline;opacity:0.98999999;fill:#ffb380;fill-opacity:1;fill-rule:nonzero;stroke:#ffb380;stroke-width:0.0071342;stroke-linecap:square;stroke-linejoin:miter;stroke-miterlimit:4;stroke-dasharray:none;stroke-opacity:1;paint-order:stroke fill markers"
         transform="translate(-7.5,-1.78571)" />
      <path
         inkscape:connector-curvature="0"
         id="path860"
         d=""
         style="display:inline;opacity:0.98999999;fill:#ffb380;fill-opacity:1;fill-rule:nonzero;stroke:#ffb380;stroke-width:0.0071342;stroke-linecap:square;stroke-linejoin:miter;stroke-miterlimit:4;stroke-dasharray:none;stroke-opacity:1;paint-order:stroke fill markers"
         transform="translate(-7.5,-1.78571)" />
      <path
         inkscape:connector-curvature="0"
         id="path862"
         d="m 138.64383,887.21787 c 0.24987,-0.19857 0.51324,-0.30176 0.58557,-0.22943 0.0222,0.0222 0.0132,0.11795 -0.02,0.21277 -0.0554,0.15817 -0.0913,0.17398 -0.43527,0.19171 l -0.37491,0.0193 z"
         style="display:inline;opacity:0.98999999;fill:#ffb380;fill-opacity:1;fill-rule:nonzero;stroke:#ffb380;stroke-width:0.0071342;stroke-linecap:square;stroke-linejoin:miter;stroke-miterlimit:4;stroke-dasharray:none;stroke-opacity:1;paint-order:stroke fill markers"
         transform="translate(-7.5,-1.78571)" />
      <path
         inkscape:connector-curvature="0"
         id="path866"
         d="m 144.53505,877.46496 c -0.61014,-0.5905 -0.83515,-0.91105 -0.72022,-1.02599 0.0209,-0.0209 0.25105,-0.0517 0.51138,-0.0684 l 0.47334,-0.0304 0.12907,0.30111 c 0.11872,0.27695 0.35296,1.40348 0.30235,1.45409 -0.012,0.012 -0.32521,-0.27164 -0.69592,-0.63042 z"
         style="display:inline;opacity:0.98999999;fill:#ffb380;fill-opacity:1;fill-rule:nonzero;stroke:#ffb380;stroke-width:0.107;stroke-linecap:square;stroke-linejoin:miter;stroke-miterlimit:4;stroke-dasharray:none;stroke-opacity:1;paint-order:stroke fill markers"
         transform="translate(-7.5,-1.78571)" />
      <path
         inkscape:connector-curvature="0"
         id="path868"
         d="m 147.55216,879.73432 c -0.0249,-0.1389 -0.17025,-0.87583 -0.32299,-1.63762 -0.15275,-0.76179 -0.26828,-1.39453 -0.25672,-1.40608 0.0115,-0.0116 0.68568,-0.23142 1.49806,-0.4886 0.81239,-0.25717 1.7014,-0.554 1.97558,-0.6596 0.27418,-0.10561 0.51883,-0.17946 0.54365,-0.16412 0.0248,0.0154 0.0595,0.20707 0.0771,0.42605 0.0394,0.49086 0.21443,0.8469 0.563,1.14526 0.3048,0.2609 0.30708,0.2592 -0.17721,0.13306 -0.53925,-0.14046 -1.55974,-0.12442 -1.89963,0.0299 -0.14758,0.067 -0.26832,0.15159 -0.26832,0.18801 0,0.0364 -0.0947,0.0662 -0.21045,0.0662 -0.15875,0 -0.26898,0.0582 -0.44868,0.23676 -0.52336,0.52011 -0.79601,1.07754 -0.94955,1.94138 l -0.0786,0.44195 z"
         style="display:inline;opacity:0.98999999;fill:#ffb380;fill-opacity:1;fill-rule:nonzero;stroke:#ffb380;stroke-width:0.107;stroke-linecap:square;stroke-linejoin:miter;stroke-miterlimit:4;stroke-dasharray:none;stroke-opacity:1;paint-order:stroke fill markers"
         transform="translate(-7.5,-1.78571)" />
      <path
         inkscape:connector-curvature="0"
         id="path870"
         d="m 149.23853,883.88876 -0.20398,-0.4122 0.17241,0.0385 c 0.0948,0.0212 0.4139,0.0564 0.70905,0.0783 1.15133,0.0854 2.19556,-0.43151 2.90103,-1.43606 0.3839,-0.54666 0.56412,-1.00936 0.63326,-1.62584 0.0772,-0.68869 -0.0101,-1.19786 -0.24089,-1.40515 -0.12783,-0.11478 -0.16806,-0.1928 -0.13023,-0.25253 0.19094,-0.3014 -0.0574,-0.90164 -0.51188,-1.23696 -0.48051,-0.35456 -1.14086,-0.98003 -1.24278,-1.17713 -0.0793,-0.15336 -0.2907,-1.12113 -0.25172,-1.15237 0.006,-0.005 0.19587,-0.10134 0.42157,-0.21423 0.22571,-0.11289 0.49069,-0.27251 0.58884,-0.35472 0.21324,-0.1786 0.36549,-0.18954 0.50422,-0.0362 0.1585,0.17514 0.57412,1.11003 0.81975,1.84394 0.54205,1.61958 1.37019,4.76423 1.37019,5.20295 0,0.4051 -0.20383,0.61194 -0.97073,0.98504 -1.01944,0.49597 -3.23274,1.29655 -4.26944,1.5443 -0.0634,0.0152 -0.16207,-0.1135 -0.29867,-0.38956 z"
         style="display:inline;opacity:0.98999999;fill:#ffb380;fill-opacity:1;fill-rule:nonzero;stroke:#ffb380;stroke-width:0.107;stroke-linecap:square;stroke-linejoin:miter;stroke-miterlimit:4;stroke-dasharray:none;stroke-opacity:1;paint-order:stroke fill markers"
         transform="translate(-7.5,-1.78571)" />
      <path
         inkscape:connector-curvature="0"
         id="path876"
         d="m 148.55881,884.1156 c -0.45317,-0.41772 -0.6631,-0.7818 -0.6631,-1.15002 v -0.31418 l 0.14205,0.21061 c 0.0807,0.11972 0.30428,0.29619 0.51791,0.40889 0.32353,0.17067 0.40612,0.25343 0.59317,0.5943 0.1767,0.322 0.20085,0.40643 0.12922,0.45179 -0.19795,0.12534 -0.43758,0.0583 -0.71925,-0.20139 z"
         style="display:inline;opacity:0.98999999;fill:#ffb380;fill-opacity:1;fill-rule:nonzero;stroke:#ffb380;stroke-width:0.107;stroke-linecap:square;stroke-linejoin:miter;stroke-miterlimit:4;stroke-dasharray:none;stroke-opacity:1;paint-order:stroke fill markers"
         transform="translate(-7.5,-1.78571)" />
      <path
         inkscape:connector-curvature="0"
         id="path878"
         d="m 147.99667,884.23265 c -0.0171,-0.11285 -0.0466,-0.34274 -0.0656,-0.51086 l -0.0345,-0.30568 0.23872,0.31771 c 0.13129,0.17474 0.34809,0.40463 0.48177,0.51086 l 0.24306,0.19316 h -0.4162 -0.41619 z"
         style="display:inline;opacity:0.98999999;fill:#ffb380;fill-opacity:1;fill-rule:nonzero;stroke:#ffb380;stroke-width:0.107;stroke-linecap:square;stroke-linejoin:miter;stroke-miterlimit:4;stroke-dasharray:none;stroke-opacity:1;paint-order:stroke fill markers"
         transform="translate(-7.5,-1.78571)" />
      <path
         inkscape:connector-curvature="0"
         id="path880"
         d="m 132.04894,887.17194 c -0.12154,-0.015 -0.52615,-0.0956 -0.89915,-0.17909 -1.31119,-0.29355 -2.28014,-0.41815 -4.46729,-0.57445 l -0.66291,-0.0474 0.44194,-0.0521 c 0.50359,-0.0593 0.83993,-0.15426 0.98113,-0.277 0.0813,-0.0706 0.14439,-0.0703 0.38425,0.002 1.11992,0.33705 2.23707,0.0629 3.46441,-0.8502 1.39218,-1.03572 1.8087,-1.78476 1.78946,-3.21803 -0.007,-0.5114 -0.0465,-0.78974 -0.17355,-1.21776 -0.18683,-0.62955 -0.5169,-1.3228 -0.842,-1.76848 l -0.22104,-0.30302 0.1642,0.0412 c 0.14152,0.0355 0.2089,-0.008 0.48769,-0.31273 0.17791,-0.19466 0.61886,-0.56565 0.97989,-0.82442 l 0.65641,-0.47047 -1.3e-4,1.30719 c -1.9e-4,2.51496 -0.30603,5.97015 -0.63796,7.20743 -0.13166,0.49078 -0.49549,1.24998 -0.67708,1.41287 -0.12253,0.1099 -0.45287,0.16344 -0.76829,0.12452 z"
         style="display:inline;opacity:0.98999999;fill:#ffb380;fill-opacity:1;fill-rule:nonzero;stroke:#ffb380;stroke-width:0.107;stroke-linecap:square;stroke-linejoin:miter;stroke-miterlimit:4;stroke-dasharray:none;stroke-opacity:1;paint-order:stroke fill markers"
         transform="translate(-7.5,-1.78571)" />
      <path
         inkscape:connector-curvature="0"
         id="path882"
         d="m 123.39951,886.33368 c -1.082,-0.0514 -1.22378,-0.11014 -1.25015,-0.51788 -0.0159,-0.24603 0.001,-0.30052 0.10458,-0.33334 0.26211,-0.0832 0.44752,-1.01334 0.44999,-2.25752 6.3e-4,-0.31657 0.0528,-0.77206 0.12296,-1.07328 0.35022,-1.50398 0.71771,-3.86915 0.84153,-5.41623 l 0.0783,-0.97859 1.42052,-0.0194 c 1.4584,-0.0199 2.90477,0.0448 4.73509,0.2118 1.76118,0.16071 3.90005,0.46752 4.08266,0.58565 0.0363,0.0235 0.0845,0.14337 0.1071,0.26641 0.041,0.22318 0.0396,0.22476 -0.57493,0.67067 -0.33881,0.24584 -0.78642,0.60684 -0.9947,0.80223 -0.23734,0.22265 -0.43388,0.35526 -0.52654,0.35526 -0.0956,0 -0.31871,-0.15799 -0.63143,-0.44716 -0.952,-0.88031 -2.09277,-1.26321 -3.14555,-1.0558 -1.01048,0.19907 -1.75272,0.59587 -2.51617,1.34512 -0.42775,0.4198 -0.56423,0.60635 -0.80832,1.10486 -0.45368,0.92659 -0.62741,1.59504 -0.63175,2.43068 -0.003,0.56418 0.0223,0.76508 0.1347,1.07081 0.35688,0.97114 1.27425,1.89558 2.58705,2.60699 0.37613,0.20382 0.44347,0.26274 0.37,0.32372 -0.12865,0.10677 -0.8406,0.24186 -1.68213,0.31919 -0.7646,0.0702 -0.90903,0.0706 -2.27284,0.006 z"
         style="display:inline;opacity:0.98999999;fill:#ffb380;fill-opacity:1;fill-rule:nonzero;stroke:#ffb380;stroke-width:0.107;stroke-linecap:square;stroke-linejoin:miter;stroke-miterlimit:4;stroke-dasharray:none;stroke-opacity:1;paint-order:stroke fill markers"
         transform="translate(-7.5,-1.78571)" />
      <path
         inkscape:connector-curvature="0"
         id="path884"
         d="m 112.02927,881.43065 c -0.0554,-0.0649 -0.24006,-0.35538 -0.41037,-0.64554 -0.38655,-0.65858 -0.69907,-0.95609 -1.00432,-0.95609 -0.12143,0 -0.22079,-0.0105 -0.22079,-0.0234 0,-0.0656 1.07391,-3.18299 1.54953,-4.49804 0.47891,-1.32418 1.45702,-3.87261 1.50458,-3.92018 0.0341,-0.0341 1.03728,0.47839 1.96509,1.00381 1.21071,0.68563 3.17584,1.74149 4.84557,2.6035 1.18651,0.61254 1.31005,0.69153 1.31005,0.83768 0,0.64057 -0.44951,4.27775 -0.53983,4.36808 -0.0678,0.0678 -0.38029,-0.23429 -0.59728,-0.57749 -0.1774,-0.28056 -0.26518,-0.50882 -0.31948,-0.83076 -0.20027,-1.18736 -0.78163,-2.3678 -1.5936,-3.23584 -1.91935,-2.05186 -4.69866,-1.41526 -6.1821,1.41599 -0.38121,0.72756 -0.55466,1.30987 -0.59818,2.00814 -0.0417,0.66901 0.0492,1.27934 0.27426,1.84257 0.0867,0.21687 0.1486,0.46883 0.1376,0.55991 -0.0192,0.15917 -0.0239,0.16102 -0.12073,0.0476 z"
         style="display:inline;opacity:0.98999999;fill:#ffb380;fill-opacity:1;fill-rule:nonzero;stroke:#ffb380;stroke-width:0.107;stroke-linecap:square;stroke-linejoin:miter;stroke-miterlimit:4;stroke-dasharray:none;stroke-opacity:1;paint-order:stroke fill markers"
         transform="translate(-7.5,-1.78571)" />
      <path
         inkscape:connector-curvature="0"
         id="path886"
         d="m 118.58825,885.41325 c -2.23253,-0.54131 -3.8006,-1.20921 -5.58921,-2.38064 -0.72104,-0.47224 -1.89561,-1.37676 -2.66171,-2.04974 l -0.27743,-0.24371 0.15002,-0.44507 0.15002,-0.44507 0.25368,0.0568 c 0.33563,0.0752 0.53242,0.27408 1.00017,1.01105 0.40803,0.64286 0.53745,0.76459 0.59182,0.55666 0.0262,-0.10015 0.0819,-0.0495 0.29202,0.26505 0.31938,0.47827 1.07677,1.25235 1.60691,1.64233 1.0198,0.75016 1.9882,0.74404 3.32875,-0.021 1.69407,-0.96685 2.49371,-1.98816 2.70555,-3.45556 l 0.0759,-0.52576 0.14011,0.24929 c 0.0771,0.13711 0.25632,0.35429 0.39836,0.48261 l 0.25826,0.23332 -0.17085,0.76856 c -0.39851,1.7926 -0.92953,3.29982 -1.41389,4.01306 -0.28482,0.41943 -0.28939,0.421 -0.83848,0.28786 z"
         style="display:inline;opacity:0.98999999;fill:#ffb380;fill-opacity:1;fill-rule:nonzero;stroke:#ffb380;stroke-width:0.107;stroke-linecap:square;stroke-linejoin:miter;stroke-miterlimit:4;stroke-dasharray:none;stroke-opacity:1;paint-order:stroke fill markers"
         transform="translate(-7.5,-1.78571)" />
    </g>
    <g
       id="g967">
      <path
         inkscape:connector-curvature="0"
         id="path890"
         d="m 115.12888,883.32663 c -0.41783,-0.15104 -0.82743,-0.44579 -1.40142,-1.00847 -0.65862,-0.64564 -1.07926,-1.28557 -1.29061,-1.96346 -0.14826,-0.47551 -0.16171,-0.5997 -0.134,-1.23738 0.0258,-0.59397 0.0636,-0.79762 0.2332,-1.25676 0.42554,-1.15198 1.32659,-2.22389 2.25518,-2.68282 0.47382,-0.23418 0.50965,-0.24165 1.1584,-0.24165 0.64536,0 0.68639,0.008 1.1397,0.23381 0.86039,0.4278 1.43677,1.06772 1.98192,2.20039 1.11699,2.32083 0.51751,4.11141 -1.83333,5.47586 -0.90577,0.52571 -1.5671,0.67638 -2.10904,0.48048 z m 2.05188,-1.14249 c 0.62829,-0.32956 1.39117,-1.38385 1.74454,-2.41094 0.23107,-0.67164 0.10578,-1.58648 -0.35063,-2.56002 -0.46184,-0.98513 -0.78735,-1.22248 -1.75573,-1.28026 -0.80368,-0.048 -1.39317,0.0616 -2.01974,0.37515 -1.27425,0.63779 -2.03172,2.04721 -1.82441,3.39468 0.19542,1.27015 1.04056,2.21718 2.28036,2.55528 0.5194,0.14165 1.59325,0.10044 1.92561,-0.0739 z"
         style="display:inline;opacity:0.98999999;fill:#000000;fill-opacity:1;fill-rule:nonzero;stroke:#000000;stroke-width:0.207;stroke-linecap:square;stroke-linejoin:miter;stroke-miterlimit:4;stroke-dasharray:none;stroke-opacity:1;paint-order:stroke fill markers"
         transform="translate(-7.5,-1.78571)" />
      <path
         inkscape:connector-curvature="0"
         id="path892"
         d="m 128.07146,885.54613 c -0.47703,-0.13429 -0.75875,-0.27525 -1.38644,-0.69375 -0.78058,-0.52044 -1.39327,-1.15477 -1.66066,-1.71934 -0.19261,-0.40666 -0.20418,-0.47123 -0.20171,-1.12588 0.003,-0.75421 0.11941,-1.25234 0.47921,-2.04778 0.59755,-1.32107 2.13112,-2.33546 3.53635,-2.33914 2.42621,-0.006 4.53412,3.64779 3.39373,5.88314 -0.24235,0.47503 -1.35399,1.42034 -2.09875,1.78472 -0.69226,0.33869 -1.4419,0.43251 -2.06173,0.25803 z m 1.48366,-1.17363 c 1.10139,-0.34023 2.02344,-1.06047 2.3007,-1.79713 0.28976,-0.76988 0.21579,-1.53512 -0.23046,-2.38434 -0.62546,-1.19025 -1.72379,-1.88413 -2.98569,-1.88621 -1.61499,-0.003 -2.8777,1.09794 -3.19732,2.78689 -0.30489,1.61107 0.61535,3.01773 2.21311,3.38294 0.50825,0.11618 1.3372,0.0716 1.89966,-0.10215 z"
         style="display:inline;opacity:0.98999999;fill:#000000;fill-opacity:1;fill-rule:nonzero;stroke:#000000;stroke-width:0.207;stroke-linecap:square;stroke-linejoin:miter;stroke-miterlimit:4;stroke-dasharray:none;stroke-opacity:1;paint-order:stroke fill markers"
         transform="translate(-7.5,-1.78571)" />
      <path
         inkscape:connector-curvature="0"
         id="path894"
         d="m 139.92602,886.55948 c -1.11235,-0.59012 -1.68129,-1.10157 -2.03771,-1.83182 -0.29817,-0.61089 -0.4098,-1.09485 -0.4098,-1.77665 0,-1.13908 0.39156,-2.11046 1.16799,-2.8975 1.10319,-1.11828 1.8487,-1.28041 3.06971,-0.6676 1.47968,0.74263 2.14052,1.73747 2.13795,3.21851 -0.002,1.44714 -0.68198,2.63907 -2.01525,3.53509 -1.06881,0.7183 -1.26808,0.76204 -1.91289,0.41997 z m 1.62153,-1.25977 c 0.50155,-0.22962 1.12351,-0.84427 1.37815,-1.36197 0.18813,-0.38248 0.20332,-0.46072 0.20291,-1.04573 -4e-4,-0.57 -0.0183,-0.66755 -0.18119,-0.98986 -0.23474,-0.46438 -0.57727,-0.87422 -1.13547,-1.35861 -1.00483,-0.87197 -1.37171,-0.96891 -2.19221,-0.57926 -0.80526,0.38241 -1.26803,0.97096 -1.51127,1.922 -0.29769,1.16396 -0.0396,2.39681 0.63967,3.05606 0.61214,0.59405 1.91823,0.76079 2.79941,0.35737 z"
         style="display:inline;opacity:0.98999999;fill:#000000;fill-opacity:1;fill-rule:nonzero;stroke:#000000;stroke-width:0.207;stroke-linecap:square;stroke-linejoin:miter;stroke-miterlimit:4;stroke-dasharray:none;stroke-opacity:1;paint-order:stroke fill markers"
         transform="translate(-7.5,-1.78571)" />
      <path
         inkscape:connector-curvature="0"
         id="path896"
         d="m 149.23052,882.9523 c -0.18604,-0.0515 -0.41775,-0.14068 -0.51491,-0.19807 -0.39612,-0.23399 -0.58645,-0.90584 -0.5783,-2.04133 0.009,-1.19406 0.24882,-2.03257 0.73261,-2.55695 0.27505,-0.29812 0.27508,-0.29502 0.007,0.69448 -0.20537,0.7576 -0.28018,1.80476 -0.16364,2.29057 0.097,0.40422 0.32838,0.7638 0.62003,0.96344 0.20205,0.1383 0.29279,0.15526 0.83099,0.15526 0.52087,0 0.6531,-0.0229 0.95899,-0.16637 0.77593,-0.36382 1.0623,-0.76133 1.59744,-2.21737 0.0607,-0.16516 0.13636,-0.28422 0.16813,-0.26459 0.0911,0.0563 0.0674,0.78558 -0.0389,1.19361 -0.22462,0.86237 -0.83687,1.63184 -1.59615,2.00601 -0.3783,0.18642 -0.47975,0.20771 -1.05178,0.22068 -0.40795,0.009 -0.75339,-0.019 -0.97135,-0.0794 z"
         style="display:inline;opacity:0.98999999;fill:#000000;fill-opacity:1;fill-rule:nonzero;stroke:#000000;stroke-width:0.207;stroke-linecap:square;stroke-linejoin:miter;stroke-miterlimit:4;stroke-dasharray:none;stroke-opacity:1;paint-order:stroke fill markers"
         transform="translate(-7.5,-1.78571)" />
      <path
         inkscape:connector-curvature="0"
         id="path900"
         d="m 152.27974,878.74112 c -0.0674,-0.0355 -0.2503,-0.18733 -0.40656,-0.33734 -0.37168,-0.3568 -0.98225,-0.63567 -1.60993,-0.73531 l -0.50508,-0.0802 0.47351,-0.0452 c 0.61567,-0.0588 1.06222,0.0235 1.62266,0.29871 0.50161,0.24635 0.71332,0.46191 0.71332,0.72626 0,0.1998 -0.11087,0.26643 -0.28792,0.17303 z"
         style="display:inline;opacity:0.98999999;fill:#000000;fill-opacity:1;fill-rule:nonzero;stroke:#000000;stroke-width:0.207;stroke-linecap:square;stroke-linejoin:miter;stroke-miterlimit:4;stroke-dasharray:none;stroke-opacity:1;paint-order:stroke fill markers"
         transform="translate(-7.5,-1.78571)" />
    </g>
    <path
       transform="translate(-7.5,-1.78571)"
       style="display:inline;opacity:0.98999999;fill:#000000;fill-opacity:1;fill-rule:nonzero;stroke:#ffb380;stroke-width:0.0011942;stroke-linecap:square;stroke-linejoin:miter;stroke-miterlimit:4;stroke-dasharray:none;stroke-opacity:1;paint-order:stroke fill markers"
       d="m 152.1951,879.72148 c -4.5e-4,-0.0602 -0.0434,-0.25447 -0.0838,-0.37912 -0.031,-0.0957 -0.0342,-0.11411 -0.0188,-0.10784 0.10721,0.0435 0.17056,0.0627 0.22609,0.0685 0.0363,0.004 0.066,0.009 0.066,0.0112 0,0.002 -0.0154,0.0349 -0.0343,0.0722 -0.0189,0.0373 -0.0614,0.1364 -0.0946,0.22011 -0.0461,0.11624 -0.0604,0.14338 -0.0606,0.11488 z"
       id="path902"
       inkscape:connector-curvature="0" />
    <path
       transform="translate(-7.5,-1.78571)"
       style="display:inline;opacity:0.98999999;fill:#000000;fill-opacity:1;fill-rule:nonzero;stroke:#ffb380;stroke-width:0.0011942;stroke-linecap:square;stroke-linejoin:miter;stroke-miterlimit:4;stroke-dasharray:none;stroke-opacity:1;paint-order:stroke fill markers"
       d="m 149.58368,878.25464 c 2.6e-4,-10e-4 0.01,-0.0402 0.0207,-0.0863 0.0224,-0.0924 0.0209,-0.0915 0.11024,-0.0635 l 0.0423,0.0133 -0.0868,0.0695 c -0.0478,0.0382 -0.0866,0.0684 -0.0864,0.067 z"
       id="path904"
       inkscape:connector-curvature="0" />
  </g>
</svg>
