<?xml version="1.0" encoding="UTF-8" standalone="no"?>
<svg
   xmlns:dc="http://purl.org/dc/elements/1.1/"
   xmlns:cc="http://creativecommons.org/ns#"
   xmlns:rdf="http://www.w3.org/1999/02/22-rdf-syntax-ns#"
   xmlns:svg="http://www.w3.org/2000/svg"
   xmlns="http://www.w3.org/2000/svg"
   xmlns:xlink="http://www.w3.org/1999/xlink"
   xmlns:sodipodi="http://sodipodi.sourceforge.net/DTD/sodipodi-0.dtd"
   xmlns:inkscape="http://www.inkscape.org/namespaces/inkscape"
   cursor="default"
   viewBox="0 0 256 256"
   version="1.1"
   id="svg66"
   sodipodi:docname="Archamada_Spellbook1.svg"
   inkscape:version="0.92.3 (2405546, 2018-03-11)">
  <metadata
     id="metadata70">
    <rdf:RDF>
      <cc:Work
         rdf:about="">
        <dc:format>image/svg+xml</dc:format>
        <dc:type
           rdf:resource="http://purl.org/dc/dcmitype/StillImage" />
        <dc:title></dc:title>
      </cc:Work>
    </rdf:RDF>
  </metadata>
  <sodipodi:namedview
     pagecolor="#ffffff"
     bordercolor="#666666"
     borderopacity="1"
     objecttolerance="10"
     gridtolerance="10"
     guidetolerance="10"
     inkscape:pageopacity="0"
     inkscape:pageshadow="2"
     inkscape:window-width="1920"
     inkscape:window-height="1001"
     id="namedview68"
     showgrid="false"
     inkscape:zoom="1.84375"
     inkscape:cx="2.8231558"
     inkscape:cy="107.35903"
     inkscape:window-x="-9"
     inkscape:window-y="-9"
     inkscape:window-maximized="1"
     inkscape:current-layer="g830" />
  <defs
     id="defs8">
    <linearGradient
       id="linearGradient1258">
      <stop
         offset="0"
         stop-color="#f95"
         id="stop2" />
      <stop
         offset="1"
         stop-color="#ffb380"
         id="stop4" />
    </linearGradient>
    <linearGradient
       id="linearGradient1260"
       x1="98.563"
       x2="91.66"
       y1="159.738"
       y2="154.368"
       gradientUnits="userSpaceOnUse"
       xlink:href="#linearGradient1258" />
  </defs>
  <g
     id="g830"
     transform="translate(-2.7118629,8.1355933)">
    <path
       style="fill:#800080;fill-opacity:1"
       d="M 117.38976,205.95139 C 117.77659,205.52919 97.301591,187.88542 71.889761,166.74301 46.477935,145.6006 25.23644,127.61026 24.68644,126.76447 c -0.55,-0.84579 -2.39059,-2.95596 -4.0902,-4.68927 C 11.789047,113.09338 10.247467,93.658446 16.993774,76.658363 L 18.68644,72.392998 73.993025,41.76704 129.29961,11.141081 l 3.19341,2.986246 c 13.67754,12.790214 95.9409,88.376553 98.53721,90.539293 3.22474,2.68623 3.28139,2.87217 2.7421,9 -0.30286,3.44141 -0.84368,8.2296 -1.20181,10.64043 -0.64193,4.32126 -0.57591,4.44966 4.66278,9.06839 l 5.31393,4.68507 -0.9304,4.21574 -0.93039,4.21575 -57.46638,29.92476 c -31.60652,16.45862 -57.70652,29.557 -58,29.10751 -0.54293,-0.83151 -1.58069,-0.74604 -6.03362,0.49692 -1.375,0.38381 -2.18351,0.3524 -1.79668,-0.0698 z m 4.26536,-2.47698 c 0.32269,-0.52213 -0.32575,-3.65794 -1.44098,-6.96846 -1.11524,-3.31052 -2.0277,-8.03509 -2.0277,-10.49905 0,-5.31332 4.60287,-20.58317 6.20449,-20.58317 0.61461,0 25.16065,-13.11166 54.54675,-29.13701 l 53.42928,-29.13702 -2.34026,-2.21474 c -1.28714,-1.2181 -23.04026,-21.252472 -48.34026,-44.52082 -25.3,-23.268348 -47.43688,-43.648503 -49.19307,-45.289233 l -3.19306,-2.983146 -54.89748,30.389311 c -53.743126,29.7503 -54.93117,30.473455 -56.499602,34.390983 -3.014236,7.528767 -4.040723,13.005406 -4.03006,21.501673 0.01197,9.536652 2.617952,18.055812 6.974185,22.799142 l 2.480443,2.70086 -0.46481,-2.5 c -0.255646,-1.375 -1.465276,-6.1 -2.688066,-10.5 -3.007316,-10.82131 -2.98875,-19.778092 0.05362,-25.869853 1.283245,-2.569448 2.739809,-4.536179 3.23681,-4.370512 0.497001,0.165667 22.22619,18.946368 48.287088,41.734895 46.422122,40.59306 47.353322,41.47966 45.898472,43.70004 -2.66226,4.06312 -3.85919,15.83668 -2.57262,25.30543 0.63522,4.675 1.24085,9.25446 1.34583,10.17658 0.10499,0.92212 0.51337,1.47728 0.90751,1.23369 0.39414,-0.24359 0.99927,0.0145 1.34473,0.57342 0.78922,1.27699 2.21117,1.30897 2.97876,0.067 z M 73.686441,119.33687 C 47.83644,96.204564 26.09547,76.703851 25.373173,76.00195 c -1.0726,-1.042314 3.325594,-3.811144 24.000001,-15.108912 13.922297,-7.608 37.405171,-20.483623 52.184166,-28.612497 25.73475,-14.154854 26.93978,-14.701926 28.5,-12.938726 0.89601,1.012574 21.4291,19.504754 45.6291,41.093733 24.2,21.588979 45.04151,40.244912 46.31447,41.457632 l 2.31446,2.20493 -50.31446,28.10396 c -27.67296,15.45717 -50.98947,28.3491 -51.81447,28.64874 -0.98511,0.35779 -17.63322,-13.89229 -48.499999,-41.51394 z M 175.87869,117.67875 205.07094,101.81457 171.49917,70.369147 C 153.03469,53.074167 135.58707,36.818325 132.72668,34.245054 l -5.2007,-4.678674 -39.568195,22.236101 -39.568195,22.236101 39.10106,35.161588 39.10106,35.16159 10.04736,-5.40941 c 5.52606,-2.97518 23.18388,-12.5483 39.23962,-21.2736 z m -63.49347,6.98267 c -8.90492,-7.46847 -16.04766,-13.72214 -15.872759,-13.89704 0.417469,-0.41747 62.837409,10.48945 63.431659,11.0837 0.25112,0.25112 -6.70398,4.04213 -15.45578,8.42448 l -15.91236,7.96789 z m 43.30122,-5.24216 c -1.65,-0.45324 -8.31266,-2.0375 -14.8059,-3.52057 -6.49325,-1.48307 -11.61612,-2.88627 -11.38416,-3.11823 0.31455,-0.31455 20.57749,-6.35673 21.31781,-6.35673 1.02989,0 8.27161,11.35383 7.76478,12.1739 -0.41444,0.67058 -0.25735,0.86059 0.38386,0.4643 0.59698,-0.36895 1.36807,-0.21348 1.71353,0.34549 0.72542,1.17375 -0.74742,1.17724 -4.98992,0.0118 z m 11.5,-3.04496 c 0,-0.6421 -0.69588,-11.74779 -1.54639,-24.679293 -0.85051,-12.931509 -1.36394,-23.69428 -1.14095,-23.917269 0.22299,-0.222989 7.67875,7.211632 16.56835,16.521381 l 16.16293,16.926811 -14.27197,7.7422 c -7.84958,4.25821 -14.60947,7.92927 -15.02197,8.15791 -0.4125,0.22865 -0.75,-0.10963 -0.75,-0.75174 z m -8.77226,-5.22531 -5.15507,-5.22526 2.94661,-5 c 3.72094,-6.313925 3.90423,-12.152083 0.61616,-19.625572 -4.22359,-9.599843 -4.22536,-9.532828 0.31211,-11.847674 2.85999,-1.459055 4.05349,-1.693602 4.05599,-0.79708 0.002,0.698678 0.6854,11.574364 1.5188,24.168191 0.83339,12.593825 1.36793,23.045195 1.18787,23.225265 -0.18007,0.18006 -2.64718,-2.02398 -5.48247,-4.89787 z m -55.22774,-2.64546 c -3.575,-0.95682 -7.09037,-1.93799 -7.81193,-2.18038 -0.721566,-0.24239 0.681381,-1.40914 3.11765,-2.59277 l 4.42959,-2.15206 4.34055,4.42271 c 2.38731,2.43248 3.90936,4.38208 3.38235,4.33243 -0.52702,-0.0496 -3.88321,-0.87311 -7.45821,-1.82993 z m 15.5,-0.9692 C 106.20716,104.15774 98.23983,95.937706 98.224851,86.423728 98.21275,78.76514 106.49806,69.893509 116.41207,66.949364 c 14.41367,-4.280401 30.71842,1.080758 36.19271,11.900515 3.03989,6.008228 3.20675,9.601022 0.702,15.115219 -2.1487,4.730344 -6.87483,8.999352 -12.95302,11.700162 -4.77712,2.12269 -16.87352,3.16615 -21.66732,1.86907 z m 20.80438,-14.232302 -7.96354,-7.804913 8.44575,-5.62053 c 5.91055,-3.933397 8.12985,-5.936414 7.39339,-6.672873 -0.73645,-0.736458 -3.69801,0.626953 -9.86616,4.542082 l -8.81382,5.594426 -7.5,-7.427709 c -5.81565,-5.75959 -7.83687,-7.208464 -9,-6.451467 -1.21337,0.789697 -0.0191,2.329902 6.25,8.060318 4.2625,3.896241 7.75,7.428136 7.75,7.848655 0,0.420518 -5.42178,3.154286 -12.04839,6.07504 -10.57335,4.660319 -11.86931,5.489541 -10.58563,6.773219 1.28367,1.283678 2.87842,0.676279 13.02611,-4.961325 l 11.56336,-6.424084 8.21372,7.690581 c 5.07219,4.749135 8.76545,7.478862 9.65624,7.137032 1.01,-0.38757 -0.94519,-2.893678 -6.52103,-8.358452 z M 72.936188,89.648669 c -9.212637,-8.098718 -16.667383,-15.174941 -16.5661,-15.724941 0.101284,-0.55 7.413897,-5.395 16.250252,-10.766667 l 16.066101,-9.766667 0.760566,18.766667 c 0.418311,10.321667 0.643311,21.79289 0.5,25.491608 l -0.260566,6.724941 z m 19.59075,9.62232 c 0.353166,-2.940993 0.646029,-6.449761 0.650811,-7.797261 0.01039,-2.929124 0.800532,-2.191074 4.439732,4.147035 l 2.696919,4.697037 -4.214789,2.15022 -4.21479,2.15023 z M 92.854383,70.351795 C 92.493608,65.716358 92.19573,60.416703 92.192435,58.574784 l -0.006,-3.348945 5.99854,5.196624 5.998535,5.196624 -1.95907,2.652321 c -1.0775,1.458776 -3.478955,4.41995 -5.336595,6.580387 l -3.377512,3.928068 z m 54.051687,-3.178067 c -2.58489,-1.7875 -4.70427,-3.602999 -4.70972,-4.034443 -0.01,-0.772994 8.28554,0.01463 12.81161,1.216438 l 2.32153,0.616434 -2.14411,2.725786 c -1.17925,1.499182 -2.46706,2.725785 -2.86179,2.725785 -0.39474,0 -2.83262,-1.4625 -5.41752,-3.25 z m -40.71963,-4.896985 c -1.925,-1.686137 -4.85,-3.916167 -6.499999,-4.955621 -1.650001,-1.039455 -2.638401,-1.8916 -2.19644,-1.893656 2.01557,-0.0094 32.130589,5.097082 32.553439,5.51993 0.26198,0.261983 0.22587,0.476332 -0.0803,0.476332 -0.30613,0 -4.93066,0.9 -10.27675,2 -5.34609,1.1 -9.78312,1.981712 -9.86008,1.959359 -0.077,-0.02235 -1.71492,-1.420207 -3.63992,-3.106344 z m 37,-1.349278 C 126.80318,57.904926 97.00698,51.577601 96.427401,50.998021 96.17703,50.747647 103.13644,46.955391 111.89276,42.570784 l 15.92058,-7.972012 13.43655,12.488089 c 18.23928,16.9518 17.65423,16.354512 15.90877,16.241794 -0.80972,-0.05229 -7.09722,-1.132826 -13.97222,-2.40119 z m 32.96222,106.354435 53.86766,-29.35817 0.55068,-4.5 c 0.30287,-2.475 0.84067,-6.91559 1.19512,-9.86798 l 0.64445,-5.36798 -17.87976,9.36798 c -9.83387,5.15239 -35.06792,18.36798 -56.07568,29.36798 -21.00776,11 -38.21139,20.5625 -38.23031,21.25 -0.0189,0.6875 0.19705,1.25 0.4799,1.25 0.28285,0 6.40567,-2.95218 13.60626,-6.5604 7.20059,-3.60823 13.25913,-6.39327 13.46341,-6.18898 0.20428,0.20428 -6.11738,3.49396 -14.04815,7.3104 l -14.41956,6.93898 -0.0581,4.30718 c -0.0616,4.56409 2.03412,14.41611 2.66437,12.52536 0.20463,-0.61391 24.61251,-14.32737 54.23973,-30.47437 z m -40.96222,14.75587 c 0,-0.23463 16.9875,-9.19072 37.75,-19.90243 45.89409,-23.67749 46.25,-23.85699 46.25,-23.32565 0,0.23463 -16.9875,9.19072 -37.75,19.90243 -45.89409,23.67749 -46.25,23.85699 -46.25,23.32565 z m 18,-13.89166 c 0,-0.25212 9.1125,-5.5394 20.25,-11.74952 11.1375,-6.21012 20.925,-11.83149 21.75,-12.49195 2.16064,-1.7297 31,-16.72661 31,-16.12047 0,0.27934 -6.8625,4.16795 -15.25,8.64136 -8.3875,4.47341 -21.55,11.74595 -29.25,16.16121 -19.51931,11.19256 -28.5,16.0955 -28.5,15.55937 z m 26.67265,-23.39807 52.17265,-27.44917 0.67663,-4.00495 c 0.37215,-2.20273 0.4311,-4.25049 0.13101,-4.55058 -0.30009,-0.3001 -25.0546,12.81453 -55.01001,29.14362 -43.76863,23.85885 -54.57927,30.14698 -55.04939,32.02011 -0.32176,1.28197 -0.87753,3.09314 -1.23504,4.02482 -0.7996,2.08371 -7.28863,5.33121 58.31415,-29.18385 z"
       id="path834"
       inkscape:connector-curvature="0" />
    <path
       style="fill:#333333;fill-opacity:1"
       d="M 117.38976,205.95139 C 117.77659,205.52919 97.301591,187.88542 71.889761,166.74301 46.477935,145.6006 25.23644,127.61026 24.68644,126.76447 c -0.55,-0.84579 -2.39059,-2.95596 -4.0902,-4.68927 C 11.789047,113.09338 10.247467,93.658446 16.993774,76.658363 L 18.68644,72.392998 73.993025,41.76704 129.29961,11.141081 l 3.19341,2.986246 c 13.67754,12.790214 95.9409,88.376553 98.53721,90.539293 3.22474,2.68623 3.28139,2.87217 2.7421,9 -0.30286,3.44141 -0.84368,8.2296 -1.20181,10.64043 -0.64193,4.32126 -0.57591,4.44966 4.66278,9.06839 l 5.31393,4.68507 -0.9304,4.21574 -0.93039,4.21575 -57.46638,29.92476 c -31.60652,16.45862 -57.70652,29.557 -58,29.10751 -0.54293,-0.83151 -1.58069,-0.74604 -6.03362,0.49692 -1.375,0.38381 -2.18351,0.3524 -1.79668,-0.0698 z m 4.26536,-2.47698 c 0.32269,-0.52213 -0.32575,-3.65794 -1.44098,-6.96846 -1.11524,-3.31052 -2.0277,-8.03509 -2.0277,-10.49905 0,-5.31332 4.60287,-20.58317 6.20449,-20.58317 0.61461,0 25.16065,-13.11166 54.54675,-29.13701 l 53.42928,-29.13702 -2.34026,-2.21474 c -1.28714,-1.2181 -23.04026,-21.252472 -48.34026,-44.52082 -25.3,-23.268348 -47.43688,-43.648503 -49.19307,-45.289233 l -3.19306,-2.983146 -54.89748,30.389311 c -53.743126,29.7503 -54.93117,30.473455 -56.499602,34.390983 -3.014236,7.528767 -4.040723,13.005406 -4.03006,21.501673 0.01197,9.536652 2.617952,18.055812 6.974185,22.799142 l 2.480443,2.70086 -0.46481,-2.5 c -0.255646,-1.375 -1.465276,-6.1 -2.688066,-10.5 -3.007316,-10.82131 -2.98875,-19.778092 0.05362,-25.869853 1.283245,-2.569448 2.739809,-4.536179 3.23681,-4.370512 0.497001,0.165667 22.22619,18.946368 48.287088,41.734895 46.422122,40.59306 47.353322,41.47966 45.898472,43.70004 -3.51646,5.36679 -4.14224,26.19605 -1.04568,34.80543 0.44808,1.24578 0.16056,1.06165 -0.76242,-0.48826 -3.33014,-5.59214 -2.90541,-28.4376 0.63407,-34.10519 0.75016,-1.2012 0.8153,-2.1802 0.18452,-2.7732 -6.54424,-6.15233 -92.956926,-81.133352 -93.503002,-81.133352 -1.185207,0 -3.666327,6.114856 -4.358416,10.741552 -0.630865,4.217405 1.215678,14.27322 5.124154,27.90485 l 1.762302,6.1464 45.750001,38.11384 c 25.162499,20.96261 45.750001,37.79423 45.750001,37.4036 0,-0.39063 0.54,-0.17024 1.2,0.48976 1.44613,1.44613 2.48081,1.52548 3.26868,0.25068 z M 73.686441,119.33687 C 47.83644,96.204564 26.09547,76.703851 25.373173,76.00195 c -1.0726,-1.042314 3.325594,-3.811144 24.000001,-15.108912 13.922297,-7.608 37.405171,-20.483623 52.184166,-28.612497 25.73475,-14.154854 26.93978,-14.701926 28.5,-12.938726 0.89601,1.012574 21.4291,19.504754 45.6291,41.093733 24.2,21.588979 45.04151,40.244912 46.31447,41.457632 l 2.31446,2.20493 -50.31446,28.10396 c -27.67296,15.45717 -50.98947,28.3491 -51.81447,28.64874 -0.98511,0.35779 -17.63322,-13.89229 -48.499999,-41.51394 z m 99.499999,12.36639 c 27.225,-15.18366 49.58978,-27.66033 49.69952,-27.72594 0.4077,-0.24377 -93.47167,-83.97764 -94.55906,-84.340106 -1.50368,-0.501226 -103.140498,55.09479 -102.296652,55.956949 0.360906,0.368739 21.806192,19.59991 47.656193,42.735937 30.834669,27.59736 47.515909,41.87879 48.499999,41.52265 0.825,-0.29857 23.775,-12.96584 51,-28.14949 z M 87.408005,110.12302 C 65.884567,90.763408 48.346366,74.473728 48.434224,73.923728 c 0.08786,-0.55 17.951183,-10.998238 39.696274,-23.218307 l 39.536532,-22.218307 3.5097,3.299381 c 1.93034,1.814659 17.90971,16.719474 35.50971,33.121812 17.6,16.402337 33.72451,31.484484 35.83225,33.515884 l 3.83225,3.693449 -39.33225,21.30553 c -21.63274,11.71804 -39.58986,21.43908 -39.90471,21.60233 -0.31485,0.16324 -18.18254,-15.54287 -39.705975,-34.90248 z m 88.470685,7.55573 29.19225,-15.86418 -33.57177,-31.445423 C 153.03469,53.074167 135.58707,36.818325 132.72668,34.245054 l -5.2007,-4.678674 -39.568195,22.236101 -39.568195,22.236101 39.10106,35.161588 39.10106,35.16159 10.04736,-5.40941 c 5.52606,-2.97518 23.18388,-12.5483 39.23962,-21.2736 z m -63.49347,6.98267 c -8.90492,-7.46847 -16.04766,-13.72214 -15.872759,-13.89704 0.417469,-0.41747 62.837409,10.48945 63.431659,11.0837 0.25112,0.25112 -6.70398,4.04213 -15.45578,8.42448 l -15.91236,7.96789 z m 44.80122,-2.27273 c 0,-0.31186 -4.6125,-1.3234 -10.25,-2.24785 -5.6375,-0.92446 -18.94963,-3.21009 -29.58251,-5.07917 l -19.332509,-3.39835 3.799099,3.13021 c 2.08951,1.72161 8.95348,7.47741 15.25326,12.79067 l 11.45415,9.66047 14.32926,-7.14449 c 7.88109,-3.92946 14.32925,-7.39964 14.32925,-7.71149 z m -1.5,-2.96943 c -1.65,-0.45324 -8.31266,-2.0375 -14.8059,-3.52057 -6.49325,-1.48307 -11.61612,-2.88627 -11.38416,-3.11823 0.23196,-0.23196 5.09461,-1.76468 10.8059,-3.40605 l 10.38416,-2.98429 2.2489,2.7668 c 5.34052,6.5704 8.30545,11.262 7.06324,11.17662 -0.72168,-0.0496 -2.66214,-0.46103 -4.31214,-0.91428 z m 2.79969,-1.31246 c -0.43983,-0.72431 -2.33204,-3.41536 -4.20491,-5.9801 -3.80187,-5.20633 -2.8067,-5.1249 -15.50878,-1.269 l -6.914,2.09884 13.414,3.12175 c 7.3777,1.71695 13.54886,3.17207 13.71369,3.23359 0.16483,0.0615 -0.0602,-0.48077 -0.5,-1.20508 z m 8.70031,-1.7325 c 0,-0.6421 -0.69588,-11.74779 -1.54639,-24.679293 -0.85051,-12.931509 -1.36394,-23.69428 -1.14095,-23.917269 0.22299,-0.222989 7.67875,7.211632 16.56835,16.521381 l 16.16293,16.926811 -14.27197,7.7422 c -7.84958,4.25821 -14.60947,7.92927 -15.02197,8.15791 -0.4125,0.22865 -0.75,-0.10963 -0.75,-0.75174 z m 15.46296,-8.18783 13.28884,-7.23727 -15.02522,-15.780082 c -8.26387,-8.679048 -15.17787,-15.627432 -15.36445,-15.440855 -0.18658,0.186577 0.32911,10.431883 1.14598,22.767348 0.81686,12.335469 1.48671,22.540619 1.48855,22.678119 0.01,0.74179 2.3483,-0.38766 14.4663,-6.98726 z m -24.23522,2.96252 -5.15507,-5.22526 2.94661,-5 c 3.72094,-6.313925 3.90423,-12.152083 0.61616,-19.625572 -4.22359,-9.599843 -4.22536,-9.532828 0.31211,-11.847674 2.85999,-1.459055 4.05349,-1.693602 4.05599,-0.79708 0.002,0.698678 0.6854,11.574364 1.5188,24.168191 0.83339,12.593825 1.36793,23.045195 1.18787,23.225265 -0.18007,0.18006 -2.64718,-2.02398 -5.48247,-4.89787 z m 3.2421,-19.166805 c -0.79285,-12.024924 -1.61476,-22.036712 -1.82647,-22.248418 -0.2117,-0.211706 -1.57453,0.157105 -3.02851,0.819581 -2.96393,1.350456 -2.92299,1.781426 1.02058,10.74481 3.28709,7.471269 3.10448,13.311052 -0.6137,19.625572 l -2.94415,5 4.14884,4.22903 c 2.28186,2.32597 4.26946,4.10841 4.41689,3.96098 0.14743,-0.14743 -0.38064,-10.10663 -1.17348,-22.131555 z m -58.46984,16.521345 c -3.575,-0.95682 -7.09037,-1.93799 -7.81193,-2.18038 -0.721566,-0.24239 0.681381,-1.40914 3.11765,-2.59277 l 4.42959,-2.15206 4.34055,4.42271 c 2.38731,2.43248 3.90936,4.38208 3.38235,4.33243 -0.52702,-0.0496 -3.88321,-0.87311 -7.45821,-1.82993 z m 2.54553,-3.03228 c -2.77975,-2.90143 -2.88239,-2.92424 -5.937089,-1.31932 l -3.10844,1.63315 4.499999,1.22115 c 7.05284,1.91391 7.65497,1.71058 4.54553,-1.53498 z m 12.95447,2.06308 C 106.20716,104.15774 98.23983,95.937706 98.224851,86.423728 98.21275,78.76514 106.49806,69.893509 116.41207,66.949364 c 14.41367,-4.280401 30.71842,1.080758 36.19271,11.900515 3.03989,6.008228 3.20675,9.601022 0.702,15.115219 -2.1487,4.730344 -6.87483,8.999352 -12.95302,11.700162 -4.77712,2.12269 -16.87352,3.16615 -21.66732,1.86907 z m 21.01004,-2.55035 c 8.66914,-3.6222 14.4139,-10.767233 14.468,-17.994528 0.0246,-3.286646 -3.63501,-11.565724 -5.11241,-11.565724 -0.52577,0 -4.36308,2.29911 -8.52736,5.109133 l -7.57141,5.109133 7.36657,7.640867 7.36657,7.640869 -7.97159,-7.500002 c -4.38437,-4.125 -8.10135,-7.541974 -8.25994,-7.593276 -0.1586,-0.0513 3.59339,-2.676529 8.33775,-5.833836 6.03678,-4.017398 8.31022,-6.056445 7.57376,-6.792904 -0.73645,-0.736458 -3.69801,0.626953 -9.86616,4.542082 l -8.81382,5.594426 -7.5,-7.427709 c -5.81565,-5.75959 -7.83687,-7.208464 -9,-6.451467 -1.21337,0.789697 -0.0191,2.329902 6.25,8.060318 4.2625,3.896241 7.75,7.428136 7.75,7.848655 0,0.420518 -5.42178,3.154286 -12.04839,6.07504 -10.57335,4.660319 -11.86931,5.489541 -10.58563,6.773219 1.28367,1.283678 2.89269,0.668351 13.14268,-5.026086 l 11.67992,-6.488844 3.65571,3.637214 c 2.01064,2.000467 5.68071,5.618908 8.15571,8.04098 2.475,2.42207 0.84039,1.172412 -3.63248,-2.777022 -4.47286,-3.949435 -8.4404,-7.18079 -8.81676,-7.18079 -1.20147,0 -21.51826,11.472956 -21.53484,12.160792 -0.021,0.87081 8.4045,4.92715 12.36676,5.95381 4.60572,1.19338 16.67652,0.30533 21.12736,-1.55435 z m -26.389,-14.14265 c 5.70843,-2.520318 10.73872,-4.927577 11.17842,-5.349463 0.43971,-0.421886 -2.73446,-3.952854 -7.05371,-7.846597 l -7.85317,-7.079531 -3.22401,2.523166 c -3.83127,2.998422 -7.168569,9.118374 -7.168569,13.145762 0,3.415019 1.865519,9.189061 2.968869,9.189061 0.42527,0 5.44375,-2.062079 11.15217,-4.582398 z m 25.37896,-14.821123 7,-4.48039 -5,-2.288574 c -3.94427,-1.80535 -6.79475,-2.292686 -13.5,-2.308045 -13.37457,-0.03064 -13.60105,0.316929 -5.51562,8.464792 5.28839,5.329227 7.21377,6.698728 8.43419,5.999141 0.86979,-0.498593 4.73143,-2.922709 8.58143,-5.386924 z M 72.936188,89.648669 c -9.212637,-8.098718 -16.667383,-15.174941 -16.5661,-15.724941 0.101284,-0.55 7.413897,-5.395 16.250252,-10.766667 l 16.066101,-9.766667 0.760566,18.766667 c 0.418311,10.321667 0.643311,21.79289 0.5,25.491608 l -0.260566,6.724941 z M 88.664993,78.425319 C 88.140537,61.968003 87.604113,55.43321 86.802871,55.740676 c -0.619,0.237532 -7.728289,4.462262 -15.798421,9.388288 l -14.672967,8.956411 16.121761,14.14156 c 8.866969,7.777858 16.30776,13.955565 16.535091,13.728235 0.22733,-0.22733 0.08183,-10.815766 -0.323342,-23.529851 z m 3.861945,20.84567 c 0.353166,-2.940993 0.646029,-6.449761 0.650811,-7.797261 0.01039,-2.929124 0.800532,-2.191074 4.439732,4.147035 l 2.696919,4.697037 -4.214789,2.15022 -4.21479,2.15023 z m 4.091563,2.001741 2.52618,-1.151 -2.229121,-3.97442 -2.229119,-3.974418 -0.631686,2.875418 c -0.796537,3.625819 -1.007706,7.37542 -0.415368,7.37542 0.249121,0 1.589724,-0.51795 2.979114,-1.151 z M 92.854383,70.351795 C 92.493608,65.716358 92.19573,60.416703 92.192435,58.574784 l -0.006,-3.348945 5.99854,5.196624 5.998535,5.196624 -1.95907,2.652321 c -1.0775,1.458776 -3.478955,4.41995 -5.336595,6.580387 l -3.377512,3.928068 z m 8.344937,-2.084011 1.98936,-2.655943 -5.001119,-4.187175 -5.00112,-4.187175 0.0071,2.843119 c 0.0039,1.563715 0.297183,5.914885 0.651716,9.669268 l 0.644607,6.826149 2.360038,-2.826149 c 1.29803,-1.554383 3.255258,-4.021325 4.349408,-5.482094 z m 45.70675,-1.094056 c -2.58489,-1.7875 -4.70427,-3.602999 -4.70972,-4.034443 -0.01,-0.772994 8.28554,0.01463 12.81161,1.216438 l 2.32153,0.616434 -2.14411,2.725786 c -1.17925,1.499182 -2.46706,2.725785 -2.86179,2.725785 -0.39474,0 -2.83262,-1.4625 -5.41752,-3.25 z m 7.66775,-0.317126 c 0.34415,-0.896822 -0.26651,-1.574697 -1.67268,-1.856805 -5.35628,-1.074589 -8.7147,-1.493536 -8.7147,-1.08712 0,0.241422 1.62848,1.545528 3.61884,2.898013 3.71079,2.521548 5.81308,2.535808 6.76854,0.04591 z m -48.38738,-4.579859 c -1.925,-1.686137 -4.85,-3.916167 -6.499999,-4.955621 -1.650001,-1.039455 -2.638401,-1.8916 -2.19644,-1.893656 2.01557,-0.0094 32.130589,5.097082 32.553439,5.51993 0.26198,0.261983 0.22587,0.476332 -0.0803,0.476332 -0.30613,0 -4.93066,0.9 -10.27675,2 -5.34609,1.1 -9.78312,1.981712 -9.86008,1.959359 -0.077,-0.02235 -1.71492,-1.420207 -3.63992,-3.106344 z m 14,0.0049 6.5,-1.285906 -10.5,-1.731963 c -15.08631,-2.48847 -15.25077,-2.462407 -10.5,1.663928 2.53058,2.197964 4.73471,3.320985 6,3.057046 1.1,-0.229459 4.925,-0.995857 8.5,-1.703105 z m 23,-1.354203 C 126.80318,57.904901 97.00698,51.577576 96.427401,50.997996 96.17703,50.747622 103.13644,46.955366 111.89276,42.570759 l 15.92058,-7.972012 13.43655,12.488089 c 18.23928,16.9518 17.65423,16.354512 15.90877,16.241794 -0.80972,-0.05226 -7.09722,-1.132801 -13.97222,-2.401165 z m 3.41401,-7.794939 c -5.45271,-5.110161 -11.921,-11.136069 -14.37399,-13.390907 l -4.45998,-4.099704 -14.29002,7.12492 c -7.85951,3.918731 -14.290019,7.383369 -14.290019,7.69922 0,0.603198 24.104389,5.772033 44.499999,9.542376 6.6,1.22008 12.1863,2.26265 12.41401,2.316824 0.22771,0.05417 -4.04729,-4.082543 -9.5,-9.192704 z m 40.08599,120.497069 c 29.15,-15.15386 53.13455,-27.64653 53.29899,-27.76149 0.16445,-0.11495 0.38945,-2.10011 0.5,-4.41147 0.1827,-3.81975 -0.18341,-4.52311 -4.02026,-7.72343 l -4.22127,-3.52098 -0.64531,4.03554 -0.64531,4.03554 -53.63342,29.24446 c -29.49838,16.08445 -53.75851,29.32864 -53.9114,29.43153 -0.58743,0.39534 1.95973,5.95876 3.03141,6.62109 0.62057,0.38353 2.50491,8.1e-4 4.18744,-0.85049 1.68252,-0.8513 26.90913,-13.94643 56.05913,-29.1003 z m -10.53778,-6.34767 53.86766,-29.35817 0.55068,-4.5 c 0.30287,-2.475 0.84067,-6.91559 1.19512,-9.86798 l 0.64445,-5.36798 -17.87976,9.36798 c -9.83387,5.15239 -35.06792,18.36798 -56.07568,29.36798 -21.00776,11 -38.21139,20.5625 -38.23031,21.25 -0.0189,0.6875 0.19705,1.25 0.4799,1.25 0.28285,0 6.40567,-2.95218 13.60626,-6.5604 7.20059,-3.60823 13.25913,-6.39327 13.46341,-6.18898 0.20428,0.20428 -6.11738,3.49396 -14.04815,7.3104 l -14.41956,6.93898 -0.0581,4.30718 c -0.0616,4.56409 2.03412,14.41611 2.66437,12.52536 0.20463,-0.61391 24.61251,-14.32737 54.23973,-30.47437 z m -40.96222,14.75587 c 0,-0.23463 16.9875,-9.19072 37.75,-19.90243 45.89409,-23.67749 46.25,-23.85699 46.25,-23.32565 0,0.23463 -16.9875,9.19072 -37.75,19.90243 -45.89409,23.67749 -46.25,23.85699 -46.25,23.32565 z m 18,-13.89166 c 0,-0.25212 9.1125,-5.5394 20.25,-11.74952 11.1375,-6.21012 20.925,-11.83149 21.75,-12.49195 2.16064,-1.7297 31,-16.72661 31,-16.12047 0,0.27934 -6.8625,4.16795 -15.25,8.64136 -8.3875,4.47341 -21.55,11.74595 -29.25,16.16121 -19.51931,11.19256 -28.5,16.0955 -28.5,15.55937 z m 26.67265,-23.39807 52.17265,-27.44917 0.67663,-4.00495 c 0.37215,-2.20273 0.4311,-4.25049 0.13101,-4.55058 -0.30009,-0.3001 -25.0546,12.81453 -55.01001,29.14362 -43.76863,23.85885 -54.57927,30.14698 -55.04939,32.02011 -0.32176,1.28197 -0.87753,3.09314 -1.23504,4.02482 -0.7996,2.08371 -7.28863,5.33121 58.31415,-29.18385 z"
       id="path832"
       inkscape:connector-curvature="0" />
    <path
       style="opacity:0.98999999;fill:#bca464;fill-opacity:1;fill-rule:nonzero;stroke:#bca464;stroke-width:0.48813558;stroke-miterlimit:4;stroke-dasharray:none;stroke-opacity:1;paint-order:stroke fill markers"
       d="M 85.542113,117.62345 C 64.406039,98.618001 47.01678,82.824021 46.899314,82.525716 46.698074,82.014663 123.53501,38.375804 124.69434,38.342719 c 0.56723,-0.01619 12.64897,11.134584 52.74576,48.68137 13.2,12.360528 23.99607,22.628701 23.99127,22.818171 -0.005,0.18946 -4.58108,2.81633 -10.16949,5.8375 -24.44185,13.21355 -61.92087,33.52341 -64.48836,34.9462 l -2.80218,1.55284 z m 71.112637,13.16771 c 0.57483,-0.43814 0.94093,-0.89299 0.81356,-1.01079 -0.66774,-0.61753 -62.590294,-11.37238 -63.579536,-11.04263 -0.703798,0.2346 5.232828,5.57326 19.956706,17.94657 l 11.9308,10.02613 14.91666,-7.56134 c 8.20416,-4.15873 15.38698,-7.91981 15.96181,-8.35794 z m -0.63351,-6.14223 c -4.03629,-5.81243 -6.42526,-8.99121 -7.30755,-9.72344 -0.67774,-0.56247 -2.63965,-0.14828 -11.06564,2.33613 -5.63301,1.6609 -10.45743,3.23392 -10.72093,3.49562 -0.27558,0.27369 0.76117,0.83274 2.44068,1.3161 2.61968,0.75395 24.0977,5.89908 26.78417,6.41624 2.37841,0.45785 2.35388,-0.26268 -0.13073,-3.84065 z m 23.32835,-6.68514 c 7.82436,-4.22431 14.52532,-7.94919 14.89103,-8.27751 0.50652,-0.45474 -3.21901,-4.56862 -15.63842,-17.268589 -8.96685,-9.1694 -16.54899,-16.671636 -16.84921,-16.671636 -0.34813,0 -0.42925,1.620845 -0.22396,4.474576 0.17705,2.461017 0.82851,13.383051 1.44771,24.271189 1.10904,19.50155 1.25323,21.15254 1.84735,21.15254 0.16467,0 6.70115,-3.45626 14.5255,-7.68057 z m -18.23721,-1.40418 c -0.46953,-10.41673 -1.90026,-33.779238 -2.29184,-37.423725 -0.36702,-3.415854 -1.10765,-3.61712 -5.17144,-1.405326 -2.35613,1.282365 -2.64967,1.643199 -2.64967,3.257085 0,0.998225 0.98712,4.186762 2.1936,7.085637 4.24374,10.196684 3.93344,14.000299 -1.99386,24.440659 l -1.0133,1.78483 5.25447,5.13042 c 2.88996,2.82173 5.42956,5.13042 5.64356,5.13042 0.21399,0 0.22681,-3.6 0.0285,-8 z m -52.96041,1.48071 c 0,-0.30425 -1.78569,-2.41569 -3.96821,-4.69207 l -3.96821,-4.13889 -3.896197,2.04739 c -2.142909,1.12607 -3.896197,2.35547 -3.896197,2.73201 0,0.41437 2.515614,1.36656 6.372881,2.41221 3.505083,0.95018 6.616953,1.81295 6.915253,1.91726 1.14297,0.39965 2.44068,0.25189 2.44068,-0.27791 z m 26.26448,-2.96386 c 10.2293,-2.72991 17.93891,-11.24869 17.93891,-19.821708 0,-3.028985 -0.30708,-4.18629 -2.04251,-7.697701 -4.43682,-8.977297 -13.87657,-13.964454 -26.43207,-13.964454 -9.60538,0 -16.1265,2.5326 -22.26609,8.64745 -4.672518,4.653703 -6.174,7.767916 -6.152201,12.760245 0.02111,4.835748 1.897236,8.980788 5.857251,12.940798 3.07291,3.07292 8.86126,6.38258 13.40782,7.66633 3.66121,1.03377 14.96822,0.72884 19.68889,-0.53096 z m -36.651751,-6.56599 c 0.425506,-0.33335 -5.972827,-10.527127 -6.607563,-10.527127 -0.482895,0 -0.883394,1.981803 -1.342686,6.644067 -0.948676,9.62999 -1.312903,8.98251 3.557858,6.32474 2.311865,-1.26149 4.288441,-2.36025 4.392391,-2.44168 z M 87.35664,95.031945 C 86.822003,71.322882 86.3563,61.64436 85.750126,61.64436 c -1.259009,0 -31.341324,18.829503 -32.135652,20.114754 -0.526309,0.851584 4.19848,5.402805 21.15389,20.376786 10.136236,8.95171 11.981707,10.37545 12.424102,9.58493 0.321089,-0.57375 0.383805,-6.94909 0.164174,-16.688885 z m 9.03517,-14.262388 c 3.89284,-4.732123 5.56687,-7.134604 5.16003,-7.4054 -0.0987,-0.06573 -2.809359,-2.398046 -6.023593,-5.182933 -3.214234,-2.784887 -6.004851,-4.902642 -6.201371,-4.706121 -0.386292,0.386292 0.872925,22.54841 1.324213,23.306049 0.325811,0.546983 0.466951,0.399183 5.740721,-6.011595 z m 58.07009,-7.697455 c -0.87276,-0.787892 -5.83399,-1.746551 -10.66305,-2.060423 -4.11841,-0.267683 -4.71722,-0.198143 -4.44318,0.515987 0.34412,0.896749 3.89728,3.614158 7.81819,5.979251 l 2.46963,1.489676 2.64892,-2.745845 c 1.45691,-1.510214 2.43318,-2.940605 2.16949,-3.178646 z m -36.54722,-1.393844 c 5.1722,-1.044068 9.48471,-1.898305 9.58336,-1.898305 0.0986,0 0.17935,-0.217609 0.17935,-0.483576 0,-0.812122 -32.335779,-6.425048 -33.004897,-5.729073 -0.193068,0.200818 0.255793,0.765562 0.997469,1.254988 0.741675,0.489425 3.548455,2.65524 6.237288,4.812922 2.68883,2.157681 5.27458,3.927173 5.74611,3.932203 0.47152,0.005 5.08912,-0.845091 10.26132,-1.889159 z m 37.42373,-0.473187 c 0,-0.821378 -29.51082,-28.543762 -30.38519,-28.543762 -0.87778,0 -30.38173,15.086446 -31.400121,16.056029 -0.562176,0.535233 1.002503,1.037105 8.487501,2.722376 13.05844,2.940149 48.66843,9.985002 52.89103,10.463623 0.22373,0.02536 0.40678,-0.28886 0.40678,-0.698266 z"
       id="path847"
       inkscape:connector-curvature="0"
       transform="translate(2.7118629,-8.1355933)" />
    <path
       style="opacity:0.98999999;fill:#bca464;fill-opacity:1;fill-rule:nonzero;stroke:#bca464;stroke-width:0.48813558;stroke-miterlimit:4;stroke-dasharray:none;stroke-opacity:1;paint-order:stroke fill markers"
       d="m 115.88073,211.18533 c -1.86594,-1.32256 -2.19665,-2.58698 -3.39248,-12.97044 -0.91593,-7.95303 0.28064,-19.00496 2.53095,-23.37689 0.70991,-1.37921 0.67797,-1.68567 -0.3488,-3.34703 -1.75467,-2.8391 -21.433669,-20.39763 -73.230295,-65.3395 -19.697817,-17.091007 -20.339816,-17.608268 -21.36596,-17.2145 -1.383024,0.530717 -4.162525,7.070677 -4.787251,11.26404 -0.774141,5.1963 0.02616,11.85142 2.570486,21.37555 2.676178,10.0177 2.523704,10.84013 -1.019934,5.50141 -3.437174,-5.17832 -4.816907,-10.34744 -5.10734,-19.13445 -0.324694,-9.823602 0.838853,-16.552785 4.036886,-23.346672 0.981574,-2.08525 5.744841,-5.444496 16.181588,-11.411888 6.061887,-3.465992 77.31735,-43.030862 91.2142,-50.647031 l 3.34979,-1.835854 1.26038,1.154512 c 41.47315,37.989546 100.84425,92.963863 100.76141,93.299433 -0.11583,0.46926 -44.34036,24.73281 -79.16205,43.43184 -10.88814,5.84686 -21.87119,11.75392 -24.40678,13.12681 l -4.61017,2.49615 -1.97395,5.91653 c -3.44541,10.32694 -3.79566,14.79367 -1.74958,22.3123 2.09237,7.68873 2.28742,8.83334 1.60222,9.40201 -0.4596,0.38144 -1.16788,0.1839 -2.35332,-0.65633 z m 27.45295,-54.9804 c 42.15868,-23.39037 77.35324,-43.11755 77.90304,-43.66603 0.67112,-0.66954 3.53455,1.97149 -43.41587,-40.04384 -21.16534,-18.94059 -41.37308,-37.083349 -44.90609,-40.317243 -5.60008,-5.125969 -6.60836,-5.838961 -7.8644,-5.561213 -2.26419,0.50068 -9.3306,4.246682 -49.249545,26.107883 -49.684586,27.209256 -53.343761,29.326826 -53.343761,30.870132 0,0.410083 11.532204,11.082061 25.627119,23.715501 55.587827,49.82406 69.326957,61.72407 71.263357,61.72407 0.47452,0 11.26829,-5.77316 23.98615,-12.82926 z"
       id="path849"
       inkscape:connector-curvature="0"
       transform="translate(2.7118629,-8.1355933)" />
    <path
       style="opacity:0.98999999;fill:#bca464;fill-opacity:1;fill-rule:nonzero;stroke:#bca464;stroke-width:0.48813558;stroke-miterlimit:4;stroke-dasharray:none;stroke-opacity:1;paint-order:stroke fill markers"
       d="m 138.49479,106.48737 c -1.92245,-1.58719 -5.62966,-4.90745 -8.23824,-7.378345 l -4.74288,-4.49254 -9.90612,5.462705 c -11.13602,6.14093 -13.19129,7.02946 -14.1175,6.10325 -1.0246,-1.0246 0.39634,-1.91731 10.39795,-6.532576 5.18701,-2.393559 10.03887,-4.750259 10.7819,-5.237111 l 1.35097,-0.885187 -7.39208,-7.40625 c -4.06564,-4.073438 -7.39207,-7.586143 -7.39207,-7.80601 0,-0.219868 0.47387,-0.39976 1.05305,-0.39976 0.60081,0 4.15291,2.907985 8.27118,6.771347 3.96998,3.724241 7.39459,6.775088 7.61026,6.779661 0.21567,0.0046 3.02245,-1.665869 6.23729,-3.712092 6.73316,-4.28561 10.02755,-6.042306 11.33135,-6.042306 1.61799,0 -0.61558,1.920901 -8.05703,6.929137 -3.80638,2.561759 -6.92068,4.855998 -6.92068,5.098308 0,0.242309 2.82853,3.180673 6.28562,6.529699 3.4571,3.34902 6.76863,6.76745 7.35897,7.5965 1.75619,2.46634 -0.008,1.8447 -3.91194,-1.37843 z"
       id="path851"
       inkscape:connector-curvature="0"
       transform="translate(2.7118629,-8.1355933)" />
  </g>
</svg>
