<?xml version="1.0" encoding="UTF-8" standalone="no"?>
<!-- Created with Inkscape (http://www.inkscape.org/) -->

<svg
   xmlns:dc="http://purl.org/dc/elements/1.1/"
   xmlns:cc="http://creativecommons.org/ns#"
   xmlns:rdf="http://www.w3.org/1999/02/22-rdf-syntax-ns#"
   xmlns:svg="http://www.w3.org/2000/svg"
   xmlns="http://www.w3.org/2000/svg"
   xmlns:sodipodi="http://sodipodi.sourceforge.net/DTD/sodipodi-0.dtd"
   xmlns:inkscape="http://www.inkscape.org/namespaces/inkscape"
   viewBox="0 0 256 256"
   id="svg4206"
   version="1.1"
   inkscape:version="0.92.3 (2405546, 2018-03-11)"
   sodipodi:docname="SheerSilkSleeves.svg">
  <style
     id="style3">
    svg { cursor: default; }
  </style>
  <defs
     id="defs4208" />
  <sodipodi:namedview
     id="base"
     pagecolor="#ffffff"
     bordercolor="#666666"
     borderopacity="1.0"
     inkscape:pageopacity="0.0"
     inkscape:pageshadow="2"
     inkscape:zoom="2.8"
     inkscape:cx="64.994574"
     inkscape:cy="176.94457"
     inkscape:document-units="px"
     inkscape:current-layer="layer4"
     showgrid="false"
     units="px"
     inkscape:window-width="1920"
     inkscape:window-height="1001"
     inkscape:window-x="-9"
     inkscape:window-y="-9"
     inkscape:window-maximized="1"
     showguides="false" />
  <metadata
     id="metadata4211">
    <rdf:RDF>
      <cc:Work
         rdf:about="">
        <dc:format>image/svg+xml</dc:format>
        <dc:type
           rdf:resource="http://purl.org/dc/dcmitype/StillImage" />
        <dc:title />
      </cc:Work>
    </rdf:RDF>
  </metadata>
  <g
     inkscape:groupmode="layer"
     id="layer4"
     inkscape:label="Layer 5">
    <path
       id="path1058"
       style="fill:#000000;stroke:#000000;stroke-width:1;stroke-miterlimit:4;stroke-dasharray:none;stroke-opacity:1"
       d="m 126.27197,20.333436 -6.25,0.220703 c -7.63552,2.431863 -7.37796,13.764297 -17.06641,16.732422 -9.726074,3.463063 -23.867639,3.667173 -29.996094,13.660156 -4.821438,8.69874 -3.543245,19.143463 -5.027344,28.705078 -1.848486,22.265745 -2.539778,44.620865 -4.916015,66.843755 -6.783134,19.83842 -9.785979,40.6618 -13.550782,61.21094 -5.552317,8.68323 5.250333,16.18011 13.011719,16.68554 5.806031,2.65225 12.964903,-5.67441 10.882813,3.47071 0.09319,12.33066 13.562422,7.95356 20.906254,6.95117 -1.867411,-19.13699 -6.49286,-38.62004 -4.982426,-57.68164 -0.336437,-2.23416 -0.572983,-5.4591 -0.566406,-6.90235 -0.538218,-13.52787 2.020128,-28.14518 2.111328,-42.05273 0.705022,-12.07044 0.341094,-24.29655 1.083984,-36.29102 5.1554,16.65407 6.29265,32.47275 0.574219,56.7754 -2.067555,7.79574 -3.689428,19.77206 -3.101563,24.04296 -0.04283,2.10861 0.313613,3.79108 0.398438,5.86719 6.254396,4.06696 17.051045,2.48872 25.414065,3.56055 15.28215,-0.31365 30.66269,0.74133 45.86328,-0.87695 3.91785,-1.54007 11.53138,-1.81577 9.64062,-7.39454 -0.18918,-5.01744 -0.21663,-9.62828 -1.96289,-14.5957 -2.685,-14.5807 -6.49585,-28.96786 -7.26339,-44.11161 1.12629,-9.1013 5.24367,-23.663197 7.82199,-24.624722 -3.2571,25.211432 0.99742,50.740882 1.62304,75.843752 -0.0825,3.94104 0.61658,8.25468 -0.0137,11.97071 3.07682,13.99814 -0.58099,28.52504 -2.99805,42.41601 -0.12776,2.18178 -2.43153,19.33965 9,13.92774 5.85384,0.66237 10.06519,-3.72855 11.49805,-7.77735 9.57995,-0.26275 25.4763,-3.22373 17.47266,-16.24219 -4.37114,-18.15474 -5.0669,-36.94326 -8.85938,-55.21289 -0.39343,-18.10223 -1.95373,-36.34372 -4.875,-54.38281 -1.67052,-16.448707 -1.9424,-33.381179 -7.21484,-49.169925 -5.49453,-10.708746 -20.95686,-10.485209 -28.50391,-13.554688 -14.78265,-6.171928 -12.06406,-9.863382 -16.02148,-16.080078 -6.98518,-2.551853 -7.66164,-1.632749 -14.13281,-1.933593 z m 0.70507,1.347656 c 7.58149,0.356872 13.42797,0.586279 15.37891,9.242187 5.27688,7.117987 14.45204,10.160448 23.19531,11.806641 8.09188,3.324835 15.32864,0.576011 19.73242,16.285156 -0.12642,-0.198482 -0.28562,-0.397839 -0.52929,-0.576172 0.3072,1.549076 0.68238,1.770505 0.77539,1.484375 0.76578,2.925925 1.44365,6.438659 2.01562,10.707032 2.38587,22.44396 5.12546,44.786609 7.06641,67.265629 2.44735,9.38288 -10.70747,9.29882 -17.4961,14.35156 -7.4522,6.57987 -6.12065,-17.226 -6.83203,-23.50586 -1.22175,-11.41289 0.0871,-25.25806 0.75391,-37.412111 1.54208,-22.57469 2.18134,-47.612596 -0.92383,-20.660156 -0.95352,5.322489 -1.6088,9.137048 -2.12109,12.22461 -13.48367,34.320117 -10.74282,35.701977 -4.93555,62.685547 2.21818,9.69846 4.88867,15.30721 5.97461,24.22657 2.25791,9.41389 -12.82446,10.21694 -19.46484,10.27148 -17.62807,-0.21877 -35.34095,-0.16813 -52.910159,-0.33008 -9.268713,-2.18076 -6.719316,-12.59683 -5.802734,-17.83789 1.143989,-7.87996 2.986469,-13.84835 4.951174,-19.57226 0.57248,-2.32266 3.29669,-13.65391 2.70703,-20.16797 0.15332,-13.52972 -2.30873,-11.69484 -5.837891,-52.880866 -0.91985,-42.293503 -3.111308,61.590276 -4.810547,80.750006 0.03673,-0.0171 0.06346,-0.0554 0.09766,-0.0781 -0.009,0.0671 -0.01826,0.16435 -0.02734,0.23438 -0.02713,-0.0559 -0.04131,-0.0986 -0.07031,-0.15625 -6.460861,0.74587 -18.475103,-1.58549 -22.962891,-4.78125 0.167149,-13.90989 1.554238,-27.79917 2.609375,-41.66992 1.175308,-16.336313 1.057197,-32.969665 4.798828,-48.98243 1.822351,-0.429014 1.804217,-6.529388 11.988282,-9.763672 7.660602,-3.183158 15.405184,-3.833176 23.226563,-7.751953 7.02698,-5.20322 6.51125,-15.807398 17.70117,-15.359375 z m 54.83203,32.386719 c -0.10605,0.971605 1.27905,1.220006 0,0 z m 1.34766,0.720703 c 0.47492,2.331053 2.58046,3.223477 0,0 z M 65.779779,148.18696 c 4.048792,0.19948 16.802044,4.52876 18.839843,4.73632 -0.581977,-0.11761 1.593928,0.93821 2.958985,0.70118 -0.148902,1.76016 -0.297258,3.92552 -0.433594,6.66015 1.351785,3.90376 -1.145607,5.74076 -1.59375,4.98633 -7.568585,-2.28079 -7.480222,57.5742 -3.69336,7.67578 0.63273,-2.92317 3.171854,-6.29948 3.59375,-4.49609 4.071855,1.93689 1.387602,13.47546 2.501954,18.9414 0.585264,9.06445 0.57097,18.3863 2.615234,27.12891 -1.261563,6.28692 7.565,18.32992 -3.126953,17.57031 -4.231847,1.41657 -14.022396,-0.51852 -12.361328,-8.875 1.17001,-8.14306 3.331297,-16.56482 4.011719,-25.02929 -3.803397,7.34294 0.04404,19.01479 -7.404297,23.08593 -7.331125,2.30454 -17.186985,-1.9475 -12.50586,-5.35547 1.858198,-9.0028 2.926498,-19.3033 4.396485,-28.40234 0.824734,-8.90845 4.628264,-17.79669 4.412109,-26.75781 -0.273671,-4.88872 -7.302389,-7.61416 -3.384766,-11.94727 -0.231453,-0.4953 0.239492,-0.66908 1.173829,-0.62304 z m 129.067281,-0.47959 c 1.02488,-3.48054 3.40204,6.92483 -1.05088,6.16978 -5.51844,0.99291 -17.50095,5.31975 -21.55937,6.59496 -0.0266,-1.38105 -0.67605,-2.48977 -0.66455,-3.79433 -2.74528,-1.04542 20.73695,-9.49605 23.2748,-8.97041 z m -131.92861,6.72959 c 0.982675,7.98681 -5.833633,40.12624 -9.189453,53.32812 -0.839557,4.3029 -6.132282,8.78746 -3.035156,2.26367 1.350375,-6.9153 2.669542,-20.5795 4.636719,-24.01757 -1.138051,-3.12865 1.450016,-3.72985 1.130859,-8.69141 2.033104,-4.17437 -0.231739,-3.25927 2.509766,-8.43555 0.60978,-3.79494 0.44253,-12.1981 3.947265,-14.44726 z m 127.79492,1.00976 c -3.0315,3.79899 -1.91166,21.72304 -2.1289,32.15434 -0.26584,4.96649 1.37556,18.46321 -0.46485,19.08789 -1.72328,-3.63703 -1.34096,-16.63026 -1.88281,-5.94922 -1.44056,6.11503 3.70365,13.26521 4.79101,4.23047 0.43351,1.61571 -0.42054,-10.8654 -0.51953,-15.1875 0.10703,-7.40429 -1.37504,-20.1169 0.11914,-22.73438 -0.25364,-2.04222 0.7484,-9.73918 0.0879,-5.39257 0.79739,4.05241 0.78729,14.05077 1.30274,14.40625 0.98622,-4.47312 1.57333,13.70105 1.33203,2.25 -0.6339,-5.99592 -1.62971,-18.10938 1.16016,-20.08008 5.83537,11.29527 5.45264,24.31676 7.36523,36.71289 0.54388,8.02779 4.40218,17.12419 4.61914,22.30469 -0.57188,5.11479 -10.18623,8.04344 -11.55796,7.16037 -10.72046,0.0846 -8.68888,5.47523 -14.31023,7.14811 -8.13335,2.85689 -11.0916,7.59641 -11.32035,-8.35441 0.90958,-10.30206 3.9567,-20.35743 3.89167,-30.7822 0.26555,-1.63142 0.49544,-3.21891 0.71093,-4.78515 0.0842,0.0312 0.15119,-0.12934 0.0742,-0.56055 0.39224,-2.89664 0.72868,-5.63654 1.06446,-8.25195 -1.08131,1.64249 -1.93378,2.68965 -2.25977,2.60937 0.0501,-5.80475 -0.29179,-12.08587 -0.47461,-17.98437 -0.0826,-1.92786 9.70711,-6.44819 18.4006,-8.0026 z m -15.66601,23.37696 c 3.80522,-5.78009 6.82935,-16.43859 6.49274,-17.40625 -0.81674,-1.62086 -6.11465,14.50165 -6.49316,17.40612 z M 65.588372,158.69282 c 0.178127,-1.40269 -2.912279,32.39285 -5.4375,45.88086 0.66842,4.75369 -7.722273,21.85403 -6.671875,9.51953 1.849588,-5.47439 2.823138,-8.50487 3.306641,-10.11914 0.0552,-0.10297 0.09736,-0.17348 0.169922,-0.31836 0.03168,-0.21144 0.04908,-0.37515 0.07813,-0.57813 0.147664,-0.56727 0.184882,-0.80797 0.08008,-0.59961 0.942498,-6.92194 0.418321,-9.00383 2.611328,-16.33984 2.227935,-12.51214 3.730879,-20.0748 4.679905,-24.00752 0.604385,-2.50454 0.984115,-3.53687 1.183376,-3.43779 z m 104.646488,6.42578 c -0.047,0.0108 0.0431,0.14522 0,0 z m 0.30859,1.98437 c -0.18372,0.22018 0.29151,0.0874 0,0 z m 2.58398,6.14258 c -0.45082,0.70838 0.56334,1.3212 0,0 z m -88.988277,0.0508 c -0.926828,12.25814 3.116857,24.36843 3.16211,36.71289 -0.03012,3.02161 2.400059,13.54463 0.974609,4.36133 -1.069121,-8.32054 -0.906267,-18.47104 -2.410156,-25.66992 -0.459661,-5.17281 -1.470959,-10.24307 -1.726563,-15.4043 z m 94.822267,7.23828 c -2.18267,7.63435 -1.15041,17.56404 1.87109,24.35157 -1.82934,-7.81713 -1.81669,-16.17797 -1.87109,-24.35157 z m 14.46679,2.85938 c -0.44226,1.03347 0.46782,1.59442 0,0 z m 0.0293,2.40625 c -0.70632,3.78653 0.80774,12.74835 0.40235,3.57226 -0.12166,-1.18924 -0.0799,-2.40925 -0.40235,-3.57226 z m -4.47265,6.6875 c 0.87847,0.44878 -0.28596,1.53815 0,0 z m 4.8125,3.28711 c -0.63079,4.88077 0.86126,4.9216 0,0 z m 0.41015,8.79687 c -0.26039,4.02746 0.12466,6.38261 0.043,1.12891 z m 0.13672,9.00982 c -0.27817,4.02119 -0.50987,12.38776 0.34961,3.47851 -0.1238,-1.15877 -0.23572,-2.31874 -0.34961,-3.47851 z"
       inkscape:connector-curvature="0"
       sodipodi:nodetypes="ccccccccccccccccccccccccccccccccccccccccccccccccccccccccccccccccccccccccccccccccccccccccccccccccccccccccccccccccccccccccccccccccccccccccccsccccccccccccccccccccccccccccccc" />
    <path
       style="fill:none;stroke:#000000;stroke-width:1px;stroke-linecap:butt;stroke-linejoin:miter;stroke-opacity:1"
       d="m 62.887704,152.91542 5.248328,1.76326 5.215957,1.80761 c 1.942702,0.53898 4.712347,1.4965 6.386578,1.95494 2.674274,0.73226 4.120858,0.92576 6.759235,1.64725 0.235981,0.0733 2.444752,0.90539 0.647984,0.19687"
       id="path5940"
       inkscape:connector-curvature="0"
       sodipodi:nodetypes="cccscc" />
    <path
       style="opacity:0.98999999;fill:#666666;fill-opacity:1;fill-rule:nonzero;stroke:#666666;stroke-width:1.5;stroke-linecap:square;stroke-linejoin:miter;stroke-miterlimit:4;stroke-dasharray:none;stroke-opacity:1;paint-order:stroke fill markers"
       d="m 113.19799,179.60765 -17.499999,-0.20424 -1.59251,-0.89285 c -1.013652,-0.56832 -1.983332,-1.52538 -2.667704,-2.63299 -0.962662,-1.558 -1.088824,-2.1 -1.205429,-5.17857 -0.207141,-5.46886 1.808591,-16.21839 4.763473,-25.40273 0.66357,-2.0625 1.60824,-5.75893 2.09926,-8.21428 2.21259,-11.0641 2.21896,-17.66045 0.0301,-31.10797 -1.92686,-11.837675 -4.442,-35.321746 -4.487967,-41.904485 -0.01381,-1.977083 -0.150741,-3.916125 -0.304299,-4.308983 l -0.279196,-0.714285 -0.212756,0.714285 c -0.411849,1.382704 -0.921838,12.511797 -2.39762,52.321438 -0.799336,21.56228 -1.327023,33.22697 -1.627761,35.98214 l -0.204664,1.875 h -2.974525 c -5.377366,0 -13.849055,-1.80926 -17.777649,-3.79669 l -1.696428,-0.8582 0.0017,-3.47613 c 0.0021,-4.3647 0.441273,-11.55672 1.771642,-29.01184 0.576388,-7.5625 1.223738,-17.125004 1.438555,-21.250004 0.52415,-10.064953 1.352988,-20.602785 1.980383,-25.178571 0.717587,-5.233578 2.017604,-11.785714 2.338418,-11.785714 0.147525,0 0.629671,-0.602679 1.071435,-1.339286 3.35351,-5.591717 6.590936,-7.38772 20.505052,-11.375438 3.73214,-1.069614 8.263339,-2.512509 10.069319,-3.206432 2.84583,-1.093467 3.53625,-1.534574 5.17857,-3.308537 1.04223,-1.125773 2.80821,-3.577283 3.92441,-5.447801 2.40567,-4.031415 4.64477,-5.55349 6.91726,-6.593176 1.45169,-0.66416 2.33869,-0.693104 6.54754,-0.661592 9.10607,0.06818 12.1821,0.82053 14.21428,5.503691 1.58139,3.644326 2.15188,4.458121 4.5484,6.488209 4.00554,3.393093 9.74515,5.961572 17.35022,7.764231 6.39093,1.514869 12.31835,3.298498 13.99587,4.211517 5.01174,2.691411 4.40944,4.000188 6.24567,6.88607 0.50555,0.600805 1.54417,4.61144 1.54417,5.093087 0,0.481643 0.23265,1.342371 0.517,1.912728 0.28435,0.570358 0.8428,2.885229 1.241,5.144157 0.76471,4.338079 4.16624,34.509861 6.26104,55.535721 0.68495,6.875 1.4339,14.28064 1.66433,16.45699 0.51454,4.85968 0.2879,5.20301 -1.34264,7.00782 -1.69972,1.88138 -3.89046,3.07312 -10.00173,4.78359 -2.82961,0.79198 -6.49734,2.27942 -7.22452,2.68812 -3.6931,2.07563 -4.39922,-1.02135 -5.04373,-14.36943 -0.20285,-4.20118 -0.52782,-10.35873 -0.72215,-13.68343 -0.38495,-6.58585 -0.12911,-14.28244 1.10497,-33.240809 0.864,-13.273314 1.32544,-31.964286 0.78912,-31.964286 -0.43318,0 -0.95005,2.558325 -1.69565,8.392857 -0.84324,6.59869 -2.57003,15.911425 -3.24488,17.5 -0.33379,0.785715 -1.60648,4.160714 -2.8282,7.5 -5.28288,14.439448 -6.81656,22.362098 -5.91114,30.535718 0.72126,6.51118 4.16086,22.06844 7.35797,33.28006 1.87276,6.56737 3.36493,13.55238 3.36493,15.75163 0,2.41348 -2.3586,4.95518 -5.71429,6.1579 -5.06491,1.81533 -12.63421,2.05997 -50.17857,1.62179 z"
       id="path6028"
       inkscape:connector-curvature="0"
       sodipodi:nodetypes="ccccsssccscssscscccsssssscsccsccsccssssscccsscscccsssscc" />
    <path
       style="opacity:0.98999999;fill:#ff8080;fill-opacity:1;fill-rule:nonzero;stroke:#ff8080;stroke-width:0.80000001;stroke-linecap:square;stroke-linejoin:miter;stroke-miterlimit:4;stroke-dasharray:none;stroke-opacity:1;paint-order:stroke fill markers"
       d="m 81.479339,158.16881 c -3.832578,-1.0035 -15.450131,-4.78053 -16.696428,-5.42825 -0.825572,-0.42905 -0.791048,-2.02722 0.06794,-3.14505 0.66693,-0.86789 0.710882,-0.87427 2.938488,-0.42644 1.243786,0.25005 6.038215,1.51659 10.654287,2.81454 l 8.392857,2.3599 -0.118593,2.44154 c -0.09721,2.00134 -0.225994,2.43891 -0.714285,2.42696 -0.327632,-0.008 -2.363551,-0.47746 -4.524266,-1.0432 z"
       id="path6030"
       inkscape:connector-curvature="0" />
    <path
       style="opacity:0.98999999;fill:#ff8080;fill-opacity:1;fill-rule:nonzero;stroke:#ff8080;stroke-width:0.80000001;stroke-linecap:square;stroke-linejoin:miter;stroke-miterlimit:4;stroke-dasharray:none;stroke-opacity:1;paint-order:stroke fill markers"
       d="m 172.53331,158.36627 c -0.13178,-0.70244 -0.14284,-1.52932 -0.0246,-1.83751 0.53638,-1.39779 15.74312,-7.11528 21.20064,-7.97111 l 1.8771,-0.29435 v 2.04506 c 0,1.21872 -0.18039,2.18084 -0.44643,2.38111 -0.24553,0.18483 -1.73214,0.62439 -3.30357,0.9768 -2.17843,0.48854 -15.92773,4.77789 -18.63893,5.81476 -0.25675,0.0982 -0.51938,-0.34257 -0.66424,-1.11476 z"
       id="path6032"
       inkscape:connector-curvature="0" />
    <path
       style="opacity:0.98999999;fill:#ff8080;fill-opacity:1;fill-rule:nonzero;stroke:#ff8080;stroke-width:0.80000001;stroke-linecap:square;stroke-linejoin:miter;stroke-miterlimit:4;stroke-dasharray:none;stroke-opacity:1;paint-order:stroke fill markers"
       d="m 171.58065,233.2671 c -0.9397,-1.03834 -1.41972,-3.86237 -1.44562,-8.5048 -0.0194,-3.4807 0.25744,-5.92926 1.47396,-13.03571 0.82384,-4.8125 1.66367,-10.83929 1.86629,-13.39286 0.20262,-2.55357 0.77301,-7.85714 1.26753,-11.78571 0.85055,-6.75703 0.97383,-7.28864 2.28218,-9.84177 2.62629,-5.12497 5.62249,-14.20385 5.11984,-15.51374 -0.27477,-0.71603 -0.9627,-0.67954 -1.65225,0.0876 -0.93363,1.03875 -3.97199,9.38706 -5.77758,15.87468 -0.92107,3.3095 -1.3443,2.97892 -1.29489,-1.01142 0.024,-1.93819 -0.0569,-5.63334 -0.17971,-8.21146 l -0.22335,-4.68749 1.19543,-0.89756 c 2.32731,-1.74741 7.30239,-3.84667 12.43825,-5.24837 1.46927,-0.401 2.69126,-0.72909 2.71554,-0.72909 0.0243,0 -0.17994,0.84375 -0.45382,1.875 -0.98502,3.70889 -1.28404,22.24515 -0.64095,39.73214 0.13003,3.53571 0.11643,6.30965 -0.0302,6.16431 -0.14666,-0.14535 -0.44238,-1.98019 -0.65715,-4.07742 -0.63389,-6.18984 -1.95909,-5.16092 -2.08771,1.62095 -0.0605,3.18851 0.0464,4.04799 0.67151,5.3993 2.06384,4.46159 4.97505,3.41068 5.39673,-1.94814 0.0934,-1.18745 -0.008,-6.90007 -0.22588,-12.69471 -0.5808,-15.46158 -1.03867,-29.30535 -0.71137,-25.39251 0.15746,1.88232 0.77911,9.16297 1.10802,9.68258 0.59374,0.938 1.20461,5.08963 1.03721,7.04921 -0.0838,0.98152 0.0198,1.16072 0.67142,1.16072 0.76821,0 0.76969,-0.0167 0.48331,-5.44643 -0.37842,-7.17483 -0.38206,-17.6705 -0.007,-19.01786 l 0.29858,-1.07143 0.56403,1.07143 c 2.18804,4.15633 3.69866,11.0785 5.1016,23.3773 1.83204,16.06052 1.81337,15.94808 4.12473,24.83699 1.82561,7.02085 2.00846,8.23739 1.4419,9.59335 -0.63633,1.52295 -2.37701,2.95332 -5.2161,4.28622 -1.96804,0.92396 -2.91021,1.12338 -6.28261,1.32977 -4.94852,0.30285 -6.50617,0.94519 -9.23033,3.80637 -2.2408,2.35352 -2.13411,2.28801 -7.11562,4.36862 -4.50295,1.88072 -5.26629,2.0317 -6.0263,1.19189 z m 23.33538,-12.63842 c 0.13316,-0.4765 0.25813,-2.19731 0.27771,-3.82401 0.0284,-2.35899 -0.076,-3.00045 -0.51552,-3.16912 -0.30311,-0.11632 -0.66472,-0.0982 -0.80357,0.0403 -0.32322,0.32243 -0.57,6.81627 -0.28705,7.55362 0.29694,0.77381 1.03795,0.43866 1.32843,-0.60083 z m -0.1168,-13.8128 c -0.0814,-1.85783 -0.22847,-2.41072 -0.64132,-2.41072 -0.41285,0 -0.55994,0.55289 -0.64132,2.41072 -0.0982,2.24139 -0.0531,2.41071 0.64132,2.41071 0.69446,0 0.7395,-0.16932 0.64132,-2.41071 z m -13.67418,-1.87962 c 0.12297,-0.19897 -0.0345,-1.98526 -0.35,-3.96953 -0.54436,-3.42399 -1.23306,-13.58427 -1.25147,-18.46276 -0.007,-1.94545 -0.0941,-2.24185 -0.62594,-2.13942 -0.9532,0.18357 -1.55623,3.41936 -1.61828,8.68347 -0.0301,2.55357 0.1576,5.84821 0.4171,7.32143 0.41288,2.34394 1.96391,7.90662 2.41486,8.66071 0.22733,0.38016 0.75071,0.33168 1.01373,-0.0939 z m 13.49312,-5.70828 c 0.10254,-0.3921 0.10012,-1.35638 -0.005,-2.14286 -0.14618,-1.08983 -0.35051,-1.42996 -0.85906,-1.42996 -0.57744,0 -0.66726,0.28844 -0.66726,2.14286 0,1.86053 0.0886,2.14286 0.67263,2.14286 0.37184,0 0.756,-0.3188 0.85906,-0.7129 z m -0.16969,-8.0408 c 0.16598,-3.69968 -0.1741,-5.53202 -1.02674,-5.53202 -0.63556,0 -0.692,0.27122 -0.68753,3.30357 0.006,3.93077 0.22924,4.98634 1.02345,4.83504 0.45455,-0.0866 0.60287,-0.64623 0.69082,-2.60659 z"
       id="path6034"
       inkscape:connector-curvature="0"
       sodipodi:nodetypes="cccscscccscccsscscccccccccsscccsscssccccccccccccscscccccscccccsssccssccs" />
    <path
       style="opacity:0.98999999;fill:#ff8080;fill-opacity:1;fill-rule:nonzero;stroke:#ff8080;stroke-width:0.80000001;stroke-linecap:square;stroke-linejoin:miter;stroke-miterlimit:4;stroke-dasharray:none;stroke-opacity:1;paint-order:stroke fill markers"
       d="m 80.440314,231.19069 c -3.039398,-1.17016 -4.853832,-3.40869 -4.853832,-5.98833 0,-0.68074 0.644322,-4.83502 1.431827,-9.23174 1.227566,-6.85362 2.0006,-11.70308 2.650428,-16.62688 0.106317,-0.80558 -0.01501,-1.19599 -0.419962,-1.35139 -1.181393,-0.45334 -2.091988,2.62048 -2.799051,9.44853 -0.656151,6.33639 -1.2922,9.02877 -2.573331,10.89285 -1.424999,2.07341 -3.190073,2.81716 -6.676206,2.81315 -3.245693,-0.004 -5.24451,-0.4787 -7.003719,-1.66423 -1.394119,-0.9395 -1.694784,-1.83362 -0.908684,-2.70225 0.683442,-0.7552 1.507098,-5.36969 3.795718,-21.26532 0.9868,-6.85383 2.428181,-15.37169 3.20307,-18.92857 1.923585,-8.82961 2.200222,-10.55832 2.258007,-14.11029 0.05307,-3.26255 -0.259905,-4.24075 -2.174303,-6.79566 -0.557765,-0.74437 -0.709776,-1.14484 -0.387639,-1.02123 3.136787,1.2037 13.179297,4.32836 16.476351,5.12651 4.18962,1.01422 4.194161,1.01647 4.414306,2.18994 0.121205,0.64608 0.120372,1.57312 -0.0019,2.06009 -0.192753,0.76799 -0.366273,0.8566 -1.308455,0.66816 -2.990597,-0.59812 -5.193455,5.3741 -6.391539,17.32826 -0.493468,4.92368 -0.48232,11.01172 0.02073,11.32263 1.206301,0.74553 1.86321,-2.72839 2.951199,-15.60677 0.419859,-4.96981 0.579595,-5.76938 1.448962,-7.25284 1.072008,-1.82924 1.411237,-1.88557 2.508122,-0.41649 0.683619,0.91558 0.75252,1.65131 0.96783,10.33462 0.127497,5.14188 0.309612,10.79529 0.4047,12.56315 0.09509,1.76786 1.092939,16.30357 1.013268,15.71429 -0.07967,-0.58929 -1.296074,-15.76786 -1.498938,-17.14286 -0.704964,-4.77823 -2.115124,-16.36162 -2.115124,-17.37419 0,-0.80227 -0.162096,-1.01867 -0.763032,-1.01867 -0.757576,0 -0.761592,0.0441 -0.561597,6.16072 0.133573,4.08521 0.569105,8.62725 1.292791,13.48214 0.600246,4.02678 1.258511,9.57143 1.462811,12.32143 0.702407,9.45479 1.383037,13.39285 2.314737,13.39285 0.798485,0 0.823961,-0.33531 0.325612,-4.28571 -0.260187,-2.0625 -0.465954,-4.55357 -0.45726,-5.53571 0.01315,-1.48581 0.128721,-1.1559 0.688103,1.96428 0.369763,2.0625 0.678042,4.54913 0.685065,5.52584 0.007,0.97671 0.503731,3.74873 1.103794,6.16005 1.309854,5.26356 1.304876,7.3884 -0.0196,8.3646 -1.265663,0.93286 -8.475356,1.2658 -10.503311,0.48504 z"
       id="path6036"
       inkscape:connector-curvature="0"
       sodipodi:nodetypes="cssccsscccsscccscccscsscsccsssssssscscsccc" />
    <path
       style="opacity:0.98999999;fill:#ff8080;fill-opacity:1;fill-rule:nonzero;stroke:#ff8080;stroke-width:0.80000001;stroke-linecap:square;stroke-linejoin:miter;stroke-miterlimit:4;stroke-dasharray:none;stroke-opacity:1;paint-order:stroke fill markers"
       d="m 54.137254,217.73522 c -0.05387,-0.0838 -0.118272,-0.8453 -0.143107,-1.69226 l -0.04516,-1.53994 1.141653,-3.44769 c 1.43431,-4.33149 2.287987,-6.98206 2.432111,-7.55144 0.127192,-0.50248 0.226174,-1.36486 0.746377,-6.50285 0.443929,-4.38464 0.609956,-5.40412 1.336628,-8.20749 0.306031,-1.18062 1.036788,-4.73194 1.623904,-7.89182 1.756479,-9.45345 2.937556,-15.38256 3.596845,-18.05648 0.207077,-0.83986 0.234903,-0.88986 0.245906,-0.44194 0.08569,3.48835 -3.437506,31.07161 -5.117666,40.06644 -0.17759,0.95074 -0.317694,2.02172 -0.311341,2.37996 0.04939,2.78518 -2.322498,9.27127 -4.409008,12.05673 -0.656163,0.87596 -0.932543,1.08474 -1.097147,0.82878 z"
       id="path6038"
       inkscape:connector-curvature="0" />
    <path
       style="opacity:0.98999999;fill:#ff8080;fill-opacity:1;fill-rule:nonzero;stroke:#ff8080;stroke-width:0.80000001;stroke-linecap:square;stroke-linejoin:miter;stroke-miterlimit:4;stroke-dasharray:none;stroke-opacity:1;paint-order:stroke fill markers"
       d="m 50.442464,212.18489 c 0.0019,-0.0868 0.174621,-0.55558 0.38387,-1.04172 0.487935,-1.13359 0.553325,-1.48382 1.768127,-9.47018 1.458619,-9.58927 2.141524,-12.98912 2.988976,-14.88067 0.301451,-0.67285 0.317616,-0.78812 0.18176,-1.29607 -0.248001,-0.92725 -0.176712,-1.41287 0.49426,-3.36687 0.568063,-1.65431 0.654938,-2.04646 0.742129,-3.34998 0.07874,-1.17709 0.180497,-1.70195 0.502038,-2.58935 0.309274,-0.85355 0.428119,-1.44229 0.509812,-2.52551 0.111547,-1.47907 0.353722,-2.31519 1.104413,-3.81301 0.431105,-0.86016 0.44853,-0.9584 0.794767,-4.4809 0.51544,-5.24388 1.107177,-7.73697 2.207899,-9.30224 l 0.34008,-0.48361 -0.07276,2.14658 c -0.270396,7.97772 -4.023878,28.60894 -8.740395,48.04206 -0.764042,3.14802 -1.208926,4.23988 -2.329425,5.71699 -0.623259,0.82162 -0.882763,1.02745 -0.875556,0.69448 z"
       id="path6040"
       inkscape:connector-curvature="0" />
    <path
       style="fill:#ff5555;fill-rule:evenodd;stroke:#000000;stroke-width:1.5;stroke-linecap:butt;stroke-linejoin:miter;stroke-miterlimit:4;stroke-dasharray:none;stroke-opacity:1"
       d="m 118.6834,21.372506 c 3.95549,-2.607138 18.69515,-2.215602 20.92772,0.59852 0.84933,4.91124 -21.54053,6.027725 -20.92772,-0.59852 z"
       id="path4387"
       inkscape:connector-curvature="0"
       sodipodi:nodetypes="ccc" />
    <path
       style="fill:#ffaaaa;fill-rule:evenodd;stroke:#000000;stroke-width:1.5;stroke-linecap:butt;stroke-linejoin:miter;stroke-miterlimit:4;stroke-dasharray:none;stroke-opacity:1"
       d="m 111.96662,30.122227 c 1.78939,-2.441098 3.22285,-6.099082 6.58852,-8.419395 3.26609,1.536978 12.00448,5.406329 21.22502,0.334725 2.31491,2.295108 2.05213,6.647394 4.36703,8.840312 -7.00055,4.155657 -12.26458,10.184302 -32.18057,-0.755642 z"
       id="path4385"
       inkscape:connector-curvature="0"
       sodipodi:nodetypes="ccccc" />
  </g>
  <g
     inkscape:groupmode="layer"
     id="layer3"
     inkscape:label="Layer 2"
     style="opacity:1" />
</svg>
