<?xml version="1.0" encoding="UTF-8" standalone="no"?>
<!-- Created with Inkscape (http://www.inkscape.org/) -->

<svg
   xmlns:dc="http://purl.org/dc/elements/1.1/"
   xmlns:cc="http://creativecommons.org/ns#"
   xmlns:rdf="http://www.w3.org/1999/02/22-rdf-syntax-ns#"
   xmlns:svg="http://www.w3.org/2000/svg"
   xmlns="http://www.w3.org/2000/svg"
   xmlns:sodipodi="http://sodipodi.sourceforge.net/DTD/sodipodi-0.dtd"
   xmlns:inkscape="http://www.inkscape.org/namespaces/inkscape"
   viewBox="0 0 256 256"
   id="svg4166"
   version="1.1"
   inkscape:version="0.92.3 (2405546, 2018-03-11)"
   sodipodi:docname="full_sleeved_womens_tshirt1.svg">
  <style
     id="style3">
    svg { cursor: default; }
  </style>
  <defs
     id="defs4168">
    <clipPath
       clipPathUnits="userSpaceOnUse"
       id="clipPath830">
      <g
         style="fill:#ff8080;fill-opacity:1"
         id="use832"
         inkscape:label="Clip">
        <path
           style="opacity:0.98999999;fill:#ff8080;fill-opacity:1;fill-rule:nonzero;stroke:#000000;stroke-width:0.60000002;stroke-linecap:square;stroke-linejoin:miter;stroke-miterlimit:4;stroke-dasharray:none;stroke-opacity:1;paint-order:stroke fill markers"
           d="m 139.30093,237.18013 c -1.18846,-1.34059 -1.29972,-6.26217 -0.35395,-15.65721 0.47689,-4.7373 0.5467,-10.00484 0.13595,-10.25869 -0.15364,-0.095 -0.28117,0.0548 -0.28341,0.33269 -0.002,0.27794 -0.20133,1.07102 -0.44243,1.7624 -0.24111,0.69138 -0.67613,2.32555 -0.96672,3.63149 l -0.70117,6.8188 0.33026,-7.09814 c 0.44008,-7.41875 2.94576,-17.46675 6.5586,-26.30059 2.14569,-5.24647 2.3379,-5.78853 2.12723,-5.99921 -0.52886,-0.52886 -1.57267,0.57847 -2.96294,3.14323 -3.22322,5.94617 -5.00205,7.92022 -7.54974,8.37834 -0.54902,0.0987 -3.42579,1.10682 -6.39282,2.24023 -13.92776,5.32042 -25.21527,8.40295 -32.752838,8.94456 l -2.391204,0.17181 -1.03078,-0.90503 c -0.780845,-0.6856 -1.030779,-1.11966 -1.030779,-1.79017 0,-1.22872 1.269387,-2.67323 3.300465,-3.75579 1.887817,-1.00308 3.78162,-1.50012 2.787548,-0.42503 -0.353868,1.99642 10.065388,0.11936 23.569948,-3.8402 5.27761,-1.54741 6.72391,-1.86202 3.70523,-0.53065 -0.30897,0.30898 -2.50533,1.25438 -4.88078,2.1009 -4.66621,1.66284 -6.99636,2.69846 -7.53682,3.34968 -0.28853,0.34766 -0.21614,0.41229 0.45998,0.41064 2.11433,-0.005 9.46856,-2.31312 14.68463,-4.60845 3.45184,-1.51897 7.32666,-3.56695 7.17668,-3.79312 -4.09675,2.03264 -0.31071,-0.19433 0.73005,-0.91012 l 0.83803,-0.74728 -0.78638,0.28159 c -1.14168,0.40882 -1.49466,0.34556 -0.87325,-0.1565 1.1094,-0.89631 -3.25567,-0.17424 -11.88863,1.96664 -10.01102,2.48262 -15.01539,3.46255 -18.85583,3.69225 -1.92811,0.11532 -3.00978,0.3126 -3.49181,0.63684 -1.303659,0.87692 -2.734286,1.4394 -3.923193,1.06169 -2.553785,0.22418 -3.708299,-1.97739 -3.710814,-4.72025 -0.0023,-2.42763 1.521367,-4.661 3.760478,-5.51231 0.596239,-0.22669 2.028583,-0.11579 4.781399,0.37019 1.33845,0.23629 0.82966,-0.2877 -0.76852,-0.79148 -4.591487,-1.44734 -9.005982,-4.5625 -9.617387,-6.79864 -0.601366,-2.19941 0.682957,-2.3679 7.662285,1.60182 7.028022,3.99742 23.724442,3.15777 13.865552,3.67195 -3.48142,0.18157 3.92841,-0.23976 3.37592,-0.55328 -0.57974,-0.32898 -10.54061,-2.80976 -13.88932,-3.45916 -3.732793,-0.72389 -8.010374,-4.00188 -9.699449,-7.43287 -1.172082,-2.38084 -1.377272,-4.95384 -0.525406,-6.5884 l 0.565527,-1.08513 -1.21403,-1.99992 c -4.512039,-7.43284 -7.329371,-15.15137 -11.622552,-31.84183 -0.94514,-3.6744 -2.409706,-8.82832 -3.254588,-11.45317 -3.500043,-10.87382 -3.775222,-15.82323 -1.12469,-20.22922 0.855531,-1.42215 2.914243,-3.584621 4.371014,-4.591316 1.006532,-0.695559 0.487302,-0.912035 -0.908757,-0.378876 -2.678592,1.022964 -5.221544,4.423672 -9.610994,12.852842 -2.189006,4.2036 -3.291964,6.00567 -4.379294,7.15511 -0.799355,0.84502 -2.641372,3.28789 -4.09338,5.4286 -1.452,2.14071 -3.400955,4.66492 -4.33103,5.60936 -3.658511,3.71498 -6.361643,4.0725 -12.83494,1.69749 C 29.781448,125.28008 21.06114,118.64705 16.564693,109.86179 l -1.572743,-3.0728 0.117364,-2.24745 c 0.09363,-1.7926 0.300978,-2.6398 1.024601,-4.18614 1.269301,-2.712441 2.578532,-4.348722 7.709082,-9.634773 4.846232,-4.993114 6.729614,-7.31142 8.025861,-9.879324 0.502191,-0.99481 2.038681,-2.963627 3.875445,-4.965808 1.673838,-1.824613 5.789839,-6.614741 9.146667,-10.644729 6.409942,-7.695431 10.574906,-12.355089 12.540728,-14.030343 2.067769,-1.762095 5.912319,-3.995332 8.835435,-5.132357 3.786446,-1.472837 8.344015,-2.566351 17.061496,-4.093615 3.980963,-0.697447 7.752129,-1.386803 8.380366,-1.531902 0.628233,-0.145104 1.219036,-0.266896 1.312884,-0.27065 0.281925,-0.01126 2.092967,4.165821 2.843219,6.557791 1.647608,5.252939 3.02174,12.776543 4.510662,24.696676 0.5452,4.364769 1.02365,7.96341 1.06323,7.996985 0.0396,0.03357 0.7922,0.267753 1.67248,0.520401 1.42671,0.409476 1.7073,0.414742 2.58384,0.0485 0.54082,-0.225971 1.40059,-0.729125 1.91059,-1.11812 2.95808,-2.256243 9.98887,-4.181464 16.58668,-4.541893 l 3.12743,-0.170845 3.15784,2.804725 c 10.54579,9.36654 14.63398,15.746865 14.89868,23.251921 0.06,1.70231 0.21034,2.68644 0.42102,2.75666 0.21949,0.0732 0.26428,-0.0904 0.13568,-0.49563 -0.23942,-0.75435 0.98797,-6.627085 2.28064,-10.912238 1.89017,-6.265846 3.97682,-10.468388 6.62052,-13.333851 0.81866,-0.887324 1.71057,-2.053285 1.98202,-2.591025 1.58513,-3.14007 4.46919,-5.031251 7.66175,-5.024091 2.60107,0.0058 4.65491,0.557769 10.38265,2.790151 2.75825,1.075028 5.19542,1.954398 5.41593,1.954595 0.13413,1.19e-4 0.30769,0.09777 0.45246,0.224795 0.0934,0.0819 0.17473,0.176006 0.22587,0.264059 0.26361,0.464544 0.30251,0.464041 0.78208,-0.01011 0.34058,-0.336723 0.40502,-0.563795 0.19818,-0.698364 -0.16856,-0.109674 -0.38256,-0.858814 -0.47555,-1.664754 -0.093,-0.805943 -0.92268,-4.199992 -1.84378,-7.542332 -2.01272,-7.303432 -2.599,-10.129068 -2.64617,-12.753658 l -0.0356,-1.97897 1.67608,-0.256403 c 3.93836,-0.602484 9.44328,0.880659 18.29713,4.929631 2.84234,1.299838 6.29445,2.790489 7.67136,3.312558 2.19659,0.832864 2.72734,1.176826 4.32985,2.806043 2.26054,2.298211 4.42002,5.716521 5.9033,9.344542 1.37828,3.371179 5.03862,15.97686 5.98941,20.6266 0.64034,3.131537 1.41237,5.030991 4.70631,11.579082 4.08404,8.11873 5.17253,11.5242 4.84346,15.15327 -0.33706,3.71716 -3.24083,7.82244 -7.56998,10.70224 -1.24796,0.83015 -5.41165,3.05275 -9.25265,4.93911 -3.841,1.88635 -7.07792,3.47763 -7.19315,3.53618 -0.32599,0.16563 -0.23833,-2.52213 0.21217,-6.50473 0.5129,-4.53429 0.51863,-7.57697 0.0187,-9.91677 -0.21338,-0.99866 -1.32895,-3.9531 -2.47903,-6.56542 -4.28323,-9.72901 -10.07684,-25.201684 -10.34387,-27.624803 -0.23684,-0.489902 -0.5509,-1.268422 -0.30089,-1.243295 -0.78879,-0.803941 -0.95481,1.590827 -0.2857,6.057028 0.77617,5.18081 2.24507,9.21854 6.9885,19.11747 3.41677,7.13037 4.12731,9.27193 4.46755,13.46514 0.41077,5.06248 -0.60298,9.818 -4.73549,22.21433 -1.45973,4.37874 -2.9743,9.46981 -3.36572,11.31349 -0.39142,1.84368 -0.90705,3.98067 -1.14585,4.74888 -0.64476,2.07419 -0.085,2.46317 2.00126,3.3992 2.4855,1.11517 2.68125,1.5972 1.34724,3.31764 -0.58082,0.74905 -1.51346,1.64844 -1.6671,1.89194 1.18027,0.54172 -16.70603,6.50764 -27.51554,9.92375 -2.0967,0.66262 1.76196,0.006 5.5283,-0.94102 6.49241,-1.63213 12.68311,-3.83416 19.12634,-6.80326 l 2.44666,-1.12745 -0.20775,0.75651 c -0.69149,2.51804 0.0821,4.90991 3.1411,9.7117 0.98441,1.54528 2.19976,3.68227 2.70077,4.74887 0.80027,1.70371 1.25749,2.32498 1.26399,4.40008 l -0.33828,2.26326 -1.11738,0.64175 c -3.3446,1.92091 -8.44627,2.30921 -14.38629,1.09495 -3.7892,-0.77459 -11.86004,-2.69595 -13.04505,-4.14824 0.33082,-0.53527 3.91171,0.10178 7.08433,1.04327 7.45433,2.2121 9.63925,2.69612 12.38566,2.74377 3.43708,0.0596 6.50619,-0.88923 5.2958,-1.6373 -0.16011,-0.099 -2.64279,-0.3567 -5.51708,-0.57277 -2.87427,-0.21608 -6.2316,-0.57634 -7.46072,-0.80057 -1.22912,-0.22424 -2.82956,-0.47401 -3.55653,-0.55504 -1.25713,-0.14014 -3.26168,-0.85704 -8.595,-3.07391 -3.91697,-1.62814 -5.07538,-1.24836 -3.44543,1.12958 1.87682,2.73811 5.82823,12.3451 5.29637,12.87696 -0.37759,0.37759 -1.5667,-1.46732 -4.51851,-7.01049 -4.22438,-7.93293 -5.98957,-10.50233 -6.95945,-10.13015 -1.00113,0.38417 -0.2994,1.7846 5.65566,11.28688 4.67087,7.45315 7.14894,12.70871 7.73801,16.41098 l 0.17779,1.11738 -0.73419,-0.83804 c -0.70044,-0.79952 -2.63113,-4.58849 -6.67367,-13.09712 -1.88021,-3.9574 -4.28857,-7.87418 -5.58909,-9.08971 -0.39853,-0.37247 -0.72459,-0.57159 -0.72459,-0.44247 0,0.34007 4.03245,14.9789 5.34862,19.41683 1.91069,6.44262 3.89008,12.2912 4.15981,12.2912 0.48458,0 0.60702,-1.38724 0.28542,-3.23396 -0.42039,-2.41409 -1.86638,-7.1523 -3.93624,-12.89826 -0.91761,-2.54733 -1.61744,-4.68245 -1.55516,-4.74473 0.26118,-0.26118 2.05242,2.78299 3.40198,5.78157 4.46939,9.93051 5.83667,15.86127 5.19867,22.54996 -0.33875,3.55147 -0.65252,4.96712 -1.29156,5.82724 -0.40183,0.54085 -0.41052,0.54074 -0.9616,-0.0129 -0.71936,-0.72269 -2.52262,-4.85432 -3.63685,-8.3327 -0.48152,-1.50321 -1.5014,-5.81587 -2.26639,-9.5837 -1.95493,-9.62864 -2.97082,-13.35545 -4.34663,-15.94566 -0.84957,-1.59947 -1.20143,-4.00798 -1.49511,-10.23394 -0.13665,-2.89684 -0.36396,-5.3825 -0.50514,-5.52368 -0.50031,-0.50031 -1.08768,0.83292 -1.49275,2.691 -0.87948,4.03429 -1.36651,4.64449 -0.58479,-0.16589 0.17034,-1.04817 -0.16128,-3.25389 0.0187,-2.29862 0.1587,0.84234 -0.8627,-0.97699 -1.72788,1.90445 -0.23067,0.7682 -0.74774,2.26178 -1.14906,3.31908 l -0.72966,1.92234 1.02952,-0.16707 c 0.81134,-0.46517 1.60923,-1.47657 2.08364,-1.78586 0.5196,-0.33875 0.52618,-0.27243 -0.0126,0.58643 -0.64528,1.0287 -0.79269,0.84758 -1.49022,1.48102 -0.22648,0.23302 -0.823,0.41558 -1.71323,0.56311 -0.0351,0.006 -0.0707,0.0116 -0.10675,0.0173 -1.58749,0.25168 -2.81153,-0.35635 -3.63994,-1.53245 -0.6759,-0.95959 -1.09064,-2.1823 -0.64728,-1.90829 -0.16984,0.67754 -0.50436,-2.30309 -0.28435,-3.37052 0.0249,-0.12059 0.58923,2.1998 0.58115,2.08379 -0.0323,-0.46302 -0.12346,-0.84091 -0.23019,-0.90686 -0.13345,-0.0825 -0.32091,-0.62415 -0.41656,-1.20371 -0.30483,-1.84689 -0.75939,-3.16828 -1.03196,-2.99982 -0.14534,0.0898 -0.26424,1.40553 -0.26424,2.9238 0,2.77724 -0.20336,3.41852 -0.84059,2.6507 -1.10009,-1.32552 -1.54251,0.49491 -2.51271,10.33887 -0.31799,3.22644 -0.7025,7.12331 -0.85446,8.65971 -0.15196,1.5364 -0.72107,4.93045 -1.26467,7.54233 -1.41822,6.8141 -2.07171,10.44453 -2.05756,11.43066 l 0.0124,0.86054 0.56142,-1.06391 c 0.89176,-1.68993 2.68364,-7.33758 3.30859,-10.42799 0.70668,-3.49456 1.51105,-8.77527 1.58547,-13.30183 0.12557,-7.63703 0.37344,-10.53974 0.64677,-0.90606 0.25062,8.83302 -1.67421,18.71035 -4.30444,24.78253 -0.72717,1.67876 -4.3192,8.09317 -5.37412,9.34146 -0.10045,0.11886 -0.45834,-0.39325 -0.69991,-0.66575 z m 3.00372,-15.85946 c 0.39967,-2.76552 0.97,-6.41098 1.26741,-8.10102 1.94702,-11.06415 2.59338,-16.51435 1.93238,-16.29401 -0.61718,0.20572 -1.59551,3.28829 -1.93632,6.10101 -0.17664,1.45787 -0.93549,5.47904 -1.68632,8.93594 -1.9996,9.20627 -2.05257,9.56003 -2.07065,13.82761 -0.0149,3.50996 0.33597,6.30899 0.91039,7.26298 0.0925,0.15364 0.32305,-1.29197 0.51232,-3.21247 0.18927,-1.9205 0.67113,-5.75452 1.07079,-8.52004 z M 103.2163,196.03313 c 5.39496,-0.4285 10.6326,-1.42846 20.29979,-3.87562 9.97918,-2.52612 12.99708,-3.52937 12.40322,-4.12322 -0.67783,-0.67784 -7.01457,0.43044 -12.16462,2.12756 -3.51327,1.15775 -7.0169,1.91118 -12.32697,2.65083 -7.47511,1.04123 -11.18067,1.75012 -14.242175,2.72458 -0.84961,0.27042 -0.902844,0.33728 -0.419019,0.52625 0.782187,0.30549 2.311786,0.29828 6.449774,-0.0304 z m 53.89318,-2.53493 c 0.3834,-1.20799 -0.14458,-3.00679 -1.26124,-4.29699 l -1.07756,-1.24503 0.15402,2.03652 c 0.0967,1.27792 0.036,2.25707 -0.16285,2.6286 -0.26715,0.49916 -0.21929,0.66043 0.30496,1.02763 0.88843,0.62229 1.81912,0.5536 2.04267,-0.15073 z m 41.59089,-0.98001 c 0.24302,-0.0933 0.44186,-0.30045 0.44186,-0.46043 0,-0.36089 -4.2692,-0.0737 -4.96903,0.33422 -0.34674,0.20214 0.14908,0.28111 1.80354,0.28727 1.25497,0.005 2.4806,-0.0678 2.72363,-0.16106 z m -87.41232,-1.09538 c 1.07548,-0.26845 2.05671,-0.57834 2.1805,-0.68867 0.30998,-0.27621 -1.9318,-0.50174 -7.22496,-0.72685 -7.524613,-0.32 -9.97304,0.38251 -5.36116,1.53824 2.78602,0.69818 7.33165,0.64457 10.40562,-0.12272 z m 84.78138,-1.77758 c 0,-0.13698 -0.2874,-0.32119 -0.63866,-0.40935 -1.38044,-0.34647 -6.00766,-0.7733 -7.46236,-0.68836 -1.48882,0.0869 -1.51478,0.10215 -0.83804,0.4912 0.96268,0.55344 8.93906,1.09463 8.93906,0.60651 z m -41.43626,-2.82013 c 0,-1.14239 0.61583,-1.73272 3.22195,-3.08857 1.22849,-0.63914 2.127,-1.26824 1.99667,-1.39802 -0.13032,-0.12977 -1.42041,-0.51582 -2.89074,-0.57747 -2.95067,-0.12373 -4.55792,0.58832 -1.81575,-0.70074 0.46092,-0.19757 1.11777,-0.36488 1.45965,-0.37181 0.54645,-0.0111 0.58951,-0.097 0.3561,-0.71096 -0.17072,-0.44904 -2.94454,-1.96231 0.007,-0.69837 0.60902,0.26081 0.18617,-0.51328 -0.63544,-0.6847 -2.57589,-0.53744 -3.10156,-0.49328 -4.45755,0.37444 -1.45753,0.93271 -3.46181,3.66097 -3.19681,4.35155 0.23415,0.61019 2.07831,0.54728 3.15217,-0.10753 l 0.87521,-0.53368 0.14912,0.88391 c 0.13099,0.77644 1.51352,4.09638 1.70587,4.09638 0.04,0 0.0726,-0.3755 0.0726,-0.83443 z m 27.04415,-0.86009 c 2.14777,-0.16254 4.78759,-0.47923 5.86626,-0.70375 2.32255,-0.48344 4.77886,-1.61283 5.19374,-2.38805 0.27332,-0.5107 0.2246,-0.54167 -0.63011,-0.40059 -0.50948,0.0841 -4.08659,0.59579 -7.94914,1.13709 -6.48605,0.90897 -10.07933,1.61735 -11.83301,2.33277 -0.9723,0.39666 4.24252,0.40921 9.35226,0.0225 z m -51.5688,-0.29467 c 3.97094,-0.38774 5.76194,-0.80751 5.76194,-1.35045 0,-0.64586 -1.98092,-0.92118 -4.05051,-0.56298 -2.8318,0.49013 -8.15535,0.36506 -11.42294,-0.26837 -3.53815,-0.68586 -6.14345,-1.47349 -13.43882,-4.06275 -3.14962,-1.11786 -6.15002,-2.12424 -6.66755,-2.2364 -1.837037,-0.39812 -0.755358,0.49003 3.1202,2.50442 4.1332,2.14831 5.71249,2.84638 3.44493,2.26493 -1.99805,-0.48023 -2.55826,-0.5261 -2.23893,-0.18329 0.43857,0.47082 3.66622,1.27953 11.28041,2.82639 7.15956,1.4545 8.91018,1.58612 14.21127,1.0685 z m 18.34146,-0.0917 c 1.09791,-0.45874 1.28129,-0.99265 0.34021,-0.99058 -0.78529,0.002 -2.56972,1.3699 -1.80677,1.3853 0.2738,0.006 0.93376,-0.1721 1.46656,-0.39472 z m 22.23924,-1.83829 c 6.31316,-0.6277 11.30778,-1.91502 14.76508,-3.80555 1.82703,-0.99907 4.31714,-2.8566 4.10876,-3.06499 -0.0616,-0.0616 -0.80485,0.19435 -1.65162,0.56883 -2.33528,1.03277 -5.72997,1.99379 -10.97718,3.10758 -4.58609,0.97346 -10.33406,2.67318 -10.88051,3.21745 -0.34784,0.34644 0.98396,0.33974 4.63547,-0.0233 z m -30.08182,-1.92783 c 0.0884,-0.14302 0.0514,-0.32757 -0.0821,-0.41011 -0.87584,-0.54129 -12.05751,-1.25457 -12.05751,-0.76915 0,0.38318 1.13502,0.61925 4.88855,1.01677 4.15389,0.43992 7.03963,0.50459 7.25105,0.16249 z m 7.20508,-2.432 c 1.19701,-0.18572 1.32195,-0.48371 0.41902,-0.99946 -0.47811,-0.27309 -3.00178,-0.36253 -10.54529,-0.37375 -9.59514,-0.0142 -10.04043,-0.0391 -13.72958,-0.76457 -7.2218,-1.42025 -14.37155,-3.94329 -22.0075,-7.76613 -2.386656,-1.19484 -4.382654,-2.12916 -4.435556,-2.07626 -0.210727,0.21073 3.449806,2.47208 6.974056,4.30835 4.56046,2.37616 10.47339,4.9116 14.76177,6.32978 3.12743,1.03425 3.38255,1.07151 9.63742,1.40758 6.07218,0.32625 16.63622,0.28967 18.92566,-0.0655 z m 19.62403,-0.97891 c 3.73071,-0.43519 13.05965,-2.34804 16.96779,-3.47917 4.17959,-1.20968 7.92204,-2.66853 7.81402,-3.04599 -0.10065,-0.35172 -1.66774,-0.22793 -3.80272,0.30037 -4.85012,1.48387 -1.34545,-0.0323 -0.0507,-0.66686 1.57116,-0.76607 2.50374,-1.44925 1.97831,-1.44925 -0.0947,0 -1.65306,0.68528 -3.46291,1.52284 -4.13145,1.91194 -5.99512,2.42688 -13.29822,3.67435 -3.22644,0.55113 -6.8719,1.31875 -8.10102,1.70582 -2.24587,0.70727 -4.32986,1.63344 -4.32986,1.92429 0,0.16444 2.09709,0.002 6.28528,-0.4864 z m -2.5372,-3.04266 c 4.75579,-0.9319 19.79862,-5.43453 23.04327,-6.89734 0.9087,-0.40967 0.94289,-0.46308 0.36181,-0.5652 -0.88375,-0.15532 -7.52998,1.16083 -10.85735,2.15007 -5.01636,1.49138 -4.25187,0.86967 7.35224,-5.97914 3.61962,-2.13632 5.83962,-3.72046 5.57903,-3.98105 -0.17697,-0.17697 -2.63121,1.19611 -10.51093,5.88056 -7.24581,4.30761 -13.32831,7.56097 -16.76987,8.96974 -2.37086,0.97049 -3.10944,1.41369 -1.94571,1.16754 0.38379,-0.0812 2.07017,-0.41651 3.74751,-0.74518 z m -63.24868,-0.96839 c -1.968058,-1.03034 -2.588301,-1.21152 -1.944921,-0.56814 0.594341,0.59434 2.551201,1.52399 3.201971,1.52117 0.31551,-0.002 -0.23165,-0.4162 -1.25705,-0.95303 z m 52.16008,0.0698 c -0.0785,-0.34569 -0.43194,-1.63417 -0.7855,-2.86329 -0.5681,-1.97493 -0.64379,-2.85187 -0.65097,-7.54233 -0.007,-4.86118 0.0582,-5.5895 0.78021,-8.65972 0.43358,-1.84368 1.54183,-5.55199 2.46277,-8.24069 2.82816,-8.25689 2.99604,-8.83671 3.31272,-11.44127 0.70891,-5.83043 -0.75062,-11.53762 -5.82528,-22.77856 -1.31784,-2.91916 -2.97141,-6.81475 -3.6746,-8.65686 -0.87921,-2.3032 -1.42964,-3.3784 -1.76232,-3.44247 -0.65632,-0.1264 -0.63659,0.92593 0.0836,4.46002 0.73059,3.58507 1.48201,5.53301 3.59341,9.31538 2.16512,3.87859 3.78877,8.01339 4.70616,11.98472 0.58357,2.52624 0.71742,3.82372 0.72325,7.01078 0.009,4.85197 -0.51597,7.18746 -2.88974,12.85902 -3.36174,8.0321 -4.32721,11.90433 -4.31598,17.3103 0.008,3.88379 0.37693,5.70207 1.69053,8.33348 0.37062,0.74242 0.67385,1.52095 0.67385,1.73008 0,0.43926 1.0579,1.24994 1.63112,1.24994 0.25989,0 0.34197,-0.20907 0.24676,-0.62853 z m 3.28624,-3.82912 c 0.0955,-0.30075 0.28039,-1.84064 0.41097,-3.42198 0.13058,-1.58135 0.56378,-3.98916 0.96266,-5.3507 0.77311,-2.63893 0.86521,-3.25106 0.48918,-3.25106 -1.35897,0 -3.52054,6.24129 -3.34853,9.66851 0.12082,2.40717 1.01789,3.82925 1.48572,2.35523 z m -35.33344,-3.62484 c -0.63607,-0.37011 -6.00293,-1.88684 -8.47154,-2.39413 -1.20244,-0.2471 -2.49582,-0.59033 -2.87418,-0.76272 -1.70512,-0.7769 0.22,-2.01884 3.83557,-2.47441 3.14003,-0.39564 4.61269,-0.83029 9.93566,-2.93238 5.75853,-2.27411 11.77033,-5.15458 17.96671,-8.6085 5.38528,-3.00181 5.9633,-3.40251 4.46953,-3.09848 -2.05228,0.41771 -6.5357,2.28 -13.26891,5.51152 -13.84471,6.64461 -17.24753,7.79202 -24.70526,8.3304 -3.78594,0.27332 -4.66864,0.62487 -3.90367,1.55472 0.87999,1.06965 6.09413,2.97036 11.72749,4.27501 3.42205,0.79252 6.15272,1.10179 5.2886,0.59897 z m 71.0192,-3.36249 c 0.69117,-0.62872 0.79487,-0.83183 0.42784,-0.83804 -0.26645,-0.005 -0.89498,0.36524 -1.39673,0.82166 -0.69118,0.62872 -0.79487,0.83183 -0.42784,0.83804 0.26645,0.004 0.89498,-0.36524 1.39673,-0.82166 z m -12.35663,-10.19863 c 0,-0.65234 -1.74523,-1.38853 -8.68293,-3.66272 -3.55984,-1.16693 -7.42145,-2.61278 -8.58134,-3.213 -1.1599,-0.60021 -2.14963,-1.0913 -2.19942,-1.0913 -0.38391,0 0.0616,1.03314 0.73665,1.70816 1.65055,1.65055 11.28406,5.75757 14.94338,6.37076 2.38025,0.39884 3.78366,0.35734 3.78366,-0.1119 z m -62.7534,-3.37026 c 2.36486,-0.59447 11.79692,-4.02352 12.39936,-4.50783 0.43849,-0.3525 0.38654,-0.37449 -0.48686,-0.2061 -2.67271,0.5153 -13.50083,4.33732 -13.83923,4.88486 -0.21356,0.34555 -0.0812,0.33381 1.92673,-0.17093 z m -24.494649,-4.80627 c -0.06886,-0.11523 -2.00678,-3.2893 -4.306489,-7.05348 -5.031673,-8.23589 -7.62019,-12.76028 -9.082695,-15.87541 -0.600911,-1.27993 -1.155723,-2.26399 -1.232919,-2.1868 -0.439237,0.43924 4.139243,9.70101 8.057535,16.29951 2.238806,3.7702 5.987821,9.02569 6.438506,9.02569 0.138194,0 0.19492,-0.0943 0.126062,-0.20951 z m 62.337659,-4.23724 c 0.12205,-1.28006 -0.71069,-3.04053 -1.67382,-3.53859 -0.71409,-0.36926 -0.83065,-0.35604 -1.33852,0.15183 -0.56774,0.56774 -0.77705,1.1789 -0.91294,2.66562 -0.0619,0.67757 0.0839,0.93074 0.76144,1.32222 0.49524,0.28614 1.29509,0.45754 1.95542,0.41902 1.0528,-0.0614 1.12264,-0.12036 1.20842,-1.0201 z m 58.13048,-9.22794 c 2.71112,-1.62944 5.22118,-3.62166 8.15119,-6.46956 3.0335,-2.94849 3.73215,-4.1827 2.14179,-3.78354 -1.43521,0.36021 -11.66768,7.3878 -11.66768,8.01327 0,0.13346 0.4714,0.0442 1.04755,-0.19847 1.54679,-0.65137 2.58394,-0.91781 2.58394,-0.66382 0,0.30726 -2.08852,2.19871 -3.70133,3.35207 -0.72979,0.52189 -1.32689,0.99044 -1.32689,1.04121 0,0.27955 0.70277,-0.0479 2.77143,-1.29116 z m -2.17763,-5.81172 c 2.58734,-2.44076 5.22954,-5.99686 6.92305,-9.3176 1.54757,-3.03459 3.25411,-8.03334 3.52146,-10.31498 0.17622,-1.50389 0.14717,-1.46362 -2.02311,2.80406 -3.36868,6.62424 -6.71391,12.249 -10.14295,17.05462 -0.7625,1.0686 -1.38635,2.00972 -1.38635,2.09139 0,0.35921 1.29074,-0.60328 3.1079,-2.31749 z m -56.72797,-0.0821 c 0.39032,-0.39031 0.51702,-0.7688 0.39744,-1.18722 -0.19088,-0.66793 -1.9044,-2.42998 -2.36304,-2.42998 -0.41693,0 -0.34182,1.13853 0.13548,2.05369 0.23232,0.44545 0.34136,1.09195 0.24734,1.46656 -0.13763,0.54835 -0.0613,0.66993 0.42083,0.66993 0.32394,0 0.84682,-0.25784 1.16195,-0.57298 z M 53.68402,123.84936 c 3.052918,-0.72135 4.668054,-1.35726 4.668054,-1.83789 0,-0.54405 -1.560228,-0.6259 -4.716939,-0.24745 -1.784437,0.21393 -5.19285,0.38148 -7.574277,0.37231 -3.739465,-0.0144 -4.746779,-0.12019 -7.387455,-0.77598 -5.412209,-1.34405 -11.085778,-3.9301 -16.738034,-7.62928 -1.515567,-0.99187 -2.80982,-1.74916 -2.876109,-1.68286 -0.24341,0.2434 3.477909,3.34637 6.270873,5.22885 5.578262,3.75985 11.940179,6.19616 19.194314,7.35054 1.794214,0.28552 6.265318,-0.0944 9.159573,-0.77824 z m -1.383146,-7.44027 c -0.16316,-0.16317 -2.922413,-0.96772 -6.131646,-1.78789 -5.757849,-1.4715 -9.334466,-2.61617 -12.378663,-3.96163 -5.336103,-2.35846 -9.810923,-6.79848 -10.54354,-10.46158 -0.182402,-0.911974 -0.651194,-1.388286 -0.651194,-0.66163 0,0.254291 0.20266,1.17307 0.450333,2.04174 1.727378,6.05858 6.947095,10.43699 16.084533,13.49205 3.851041,1.28759 5.520148,1.55128 10.128679,1.60018 2.355381,0.025 3.250845,-0.0519 3.041498,-0.26124 z m 84.547296,-1.09655 c 0,-0.56381 -8.39799,-4.22987 -13.12924,-5.73144 -2.82585,-0.89685 -7.6255,-3.36147 -14.28369,-7.33468 -6.90584,-4.120992 -12.254142,-6.962431 -12.254142,-6.510369 0,0.40718 5.971212,4.800559 9.533352,7.014259 8.42406,5.23516 24.87475,12.28061 29.92421,12.81585 0.11523,0.0122 0.20951,-0.10191 0.20951,-0.25362 z m 3.63149,-2.43368 c 0,-0.2611 -1.97986,-2.43859 -4.39969,-4.83885 -2.41983,-2.40026 -8.14936,-8.220206 -12.73229,-12.933218 -8.2045,-8.437379 -10.65504,-10.766423 -10.98302,-10.438451 -0.43044,0.430446 6.88056,8.52514 19.70776,21.820299 5.65589,5.86223 8.40724,7.95349 8.40724,6.39022 z m -81.575019,-0.72977 c -0.07345,-0.0668 -2.144864,-0.97248 -4.6031,-2.01261 -10.551323,-4.46445 -16.289422,-7.92701 -21.001121,-12.672777 -1.843803,-1.857137 -2.088505,-2.024683 -1.922998,-1.316799 0.51013,2.181826 5.370402,7.072416 10.353591,10.418126 4.326521,2.90485 9.180849,4.97264 12.544991,5.34379 2.355106,0.25983 4.789067,0.38617 4.628637,0.24027 z m 88.838009,-2.5876 c 0,-1.15783 -1.56634,-3.20814 -2.06778,-2.7067 -0.52244,0.52243 0.023,2.99227 0.76765,3.47636 0.40837,0.26546 1.30013,-0.26245 1.30013,-0.76966 z M 23.351249,107.26958 c -1.183655,-1.18369 -2.152135,-2.0455 -2.152135,-1.91513 0,0.35207 3.979747,4.39187 4.154444,4.21715 0.08244,-0.0824 -0.818616,-1.11833 -2.002309,-2.30202 z m 145.815281,-4.32159 c 1.6768,-1.37604 6.23133,-6.2264 6.23133,-6.636079 0,-0.858494 -2.26346,0.790894 -5.16789,3.765859 -3.53841,3.62433 -4.21821,5.45912 -1.06344,2.87022 z m -14.24121,-3.876388 c 2.7882,-1.024548 5.78035,-3.007585 10.33861,-6.851892 2.42404,-2.044362 5.12303,-4.253709 5.99777,-4.90966 1.74548,-1.30891 2.03775,-1.755877 0.85384,-1.305756 -0.4225,0.160637 -0.8001,0.282466 -0.83909,0.270728 -0.4242,-0.127681 -16.34675,11.113626 -18.63129,13.153676 -0.47674,0.425717 0.61518,0.25471 2.28016,-0.357096 z m 35.02355,-25.032989 c -0.95669,-5.878757 -1.4118,-9.595684 -1.42837,-11.665571 -0.01,-1.254288 -0.0508,-1.344371 -0.4002,-0.883339 -1.14807,1.515049 -1.24332,8.225504 -0.17462,12.302472 0.66375,2.532156 2.59329,6.719425 2.75242,5.973022 0.057,-0.26728 -0.28017,-2.844243 -0.74923,-5.726584 z"
           id="path835"
           inkscape:connector-curvature="0"
           sodipodi:nodetypes="sssccsccssscccccsccscscsccccccsscccccsssscscscssscssssccsccccsccccssccssccssscscccscscssscccssccssssssscsscscsccssssccsscscsccsccccscsccsccsccssssccscsssssccscccccscsssscccsscssccsscccscscccccssscccscscssccsccscsscccccscscccssccsccssccsccccssscccscsccccsccscscscscsccscsccscccccssscsccsscsssscccsscssscccccsscssccsccssscccsccsssccccssccsssscsssssccssscccssscsscscccccccscssccscccscsccsscscccccssscscscsssccssssccsccsccssscccccccsccsccccssssscsssscsscssccscccccsscscssccscaccccccscc" />
      </g>
    </clipPath>
  </defs>
  <sodipodi:namedview
     id="base"
     pagecolor="#ffffff"
     bordercolor="#666666"
     borderopacity="1.0"
     inkscape:pageopacity="0.0"
     inkscape:pageshadow="2"
     inkscape:zoom="1.979899"
     inkscape:cx="84.972418"
     inkscape:cy="95.200534"
     inkscape:document-units="px"
     inkscape:current-layer="layer1"
     showgrid="false"
     units="px"
     inkscape:window-width="1920"
     inkscape:window-height="1001"
     inkscape:window-x="-9"
     inkscape:window-y="-9"
     inkscape:window-maximized="1" />
  <metadata
     id="metadata4171">
    <rdf:RDF>
      <cc:Work
         rdf:about="">
        <dc:format>image/svg+xml</dc:format>
        <dc:type
           rdf:resource="http://purl.org/dc/dcmitype/StillImage" />
        <dc:title></dc:title>
      </cc:Work>
    </rdf:RDF>
  </metadata>
  <g
     inkscape:label="Layer 1"
     inkscape:groupmode="layer"
     id="layer1"
     transform="translate(0,-796.36216)"
     style="display:inline">
    <g
       id="g914">
      <path
         sodipodi:nodetypes="cccccccccsc"
         style="fill:#ffe680;fill-rule:evenodd;stroke:#000000;stroke-width:1.21000004"
         inkscape:connector-curvature="0"
         id="path11"
         d="m 112.91617,813.64943 c 1.02,-0.357 2.776,-0.586 2.776,-0.586 0.472,35.062 49.32501,45.641 62.55401,1.527 l 2.043,0.825 c -7.633,37.638 -60.91301,45.044 -67.37301,-1.766 z M 73.434174,1031.8145 c 45.726996,15.274 117.486006,8.777 135.790006,-0.841 l -0.0455,3.3433 c -12.724,8.906 -98.077,16.743 -136.510002,0.55 -1.496096,-4.5193 0.765496,-1.7542 0.765496,-3.0513 z" />
      <path
         sodipodi:nodetypes="cccccccsccc"
         style="fill:#ffe680;fill-rule:evenodd;stroke:#000000"
         inkscape:connector-curvature="0"
         id="path27"
         d="m 38.678496,979.52283 c 6.534327,4.64499 8.539687,5.11112 35.227797,6.79783 l -0.372627,-3.56876 c -12.489947,-1.34936 -24.053293,2.56826 -33.697822,-7.5682 -0.701539,-1.84449 -0.99102,3.60088 -1.157348,4.33913 z m 179.392604,7.55573 -0.111,3.73 c 1.74355,-1.29602 3.94128,-2.2565 6.49304,-2.66636 8.03236,-1.29015 13.28585,1.58731 21.77218,-3.87195 -0.19712,-2.72422 -1.26189,-4.30777 -1.36041,-3.84256 -9.212,7.341 -16.58781,-0.18413 -26.79381,6.65087 z" />
      <g
         id="g29"
         transform="translate(12.417681,803.70969)">
        <path
           id="path9"
           d="M 100.982,9.214 102.723,8.5 c 16.065,8.93 37.326,7.713 61.704,1.439 l 2.894,1.507 c -30.629,8.58 -59.162,6.527 -66.339,-2.232 z"
           inkscape:connector-curvature="0"
           style="fill:#ffdd55;fill-rule:evenodd;stroke:#000000" />
        <path
           sodipodi:nodetypes="ccccccccc"
           style="fill-rule:evenodd"
           inkscape:connector-curvature="0"
           id="path13"
           d="M 74.96,84.684 C 74.447171,77.559251 73.965142,69.777143 73.571,62.25 c -0.242945,8.792906 -1.076603,26.693499 0.398,22.566 z m 114.378,0.423 c 0.178,-0.355 0.42791,1.516184 0.60391,1.154184 -0.13034,-7.21066 -0.561,-17.11455 -1.21588,-23.985668 -0.179,7.293 -0.70791,14.646635 -0.81991,21.646635 -0.92873,0.281885 1.25188,0.830849 1.43188,1.184849 z" />
      </g>
    </g>
    <path
       d="M 39.964732,975.05757 C 55.217411,974.7114 61.895066,839.59333 74.154063,829.3953 c 3.804,-4.355 31.522007,-13.394 39.323007,-15.868 4.62384,39.76083 41.8938,38.73789 58.47749,19.89768 4.4203,-5.02176 12.09234,-22.05133 6.25651,-18.20768 6.46564,1.01655 21.75316,7.26346 32.148,11.053 18.18992,8.35531 21.72796,164.5053 35.10214,153.58782 -12.93,7.875 -14.42733,-0.0517 -27.21033,7.06532 -0.23064,-23.21378 -11.29397,-61.21475 -16.10581,-98.68814 -1.901,18.78 -12.928,25.506 -11.411,51.048 1.37,23.05 17.799,36.983 17.98,94.2441 -36.49556,17.4675 -111.219189,11.1427 -136.163007,1.122 4.669,-66.7801 24.056,-72.7951 25.525,-96.4811 1.206,-19.453 -10.752,-48.862 -10.752,-48.862 -0.3177,-0.002 -19.51086,85.58149 -13.56181,93.18301 0.69401,0.88679 -27.126655,2.02206 -33.797521,-7.43174 z"
       id="path6"
       inkscape:connector-curvature="0"
       style="fill:none;fill-rule:evenodd;stroke:#000000;stroke-width:1;stroke-miterlimit:4;stroke-dasharray:none"
       sodipodi:nodetypes="cccsccccccccccsc" />
    <path
       style="opacity:0.98999999;fill:#ff9955;fill-opacity:1;fill-rule:nonzero;stroke:none;stroke-width:0.50507629;stroke-linecap:butt;stroke-linejoin:miter;stroke-miterlimit:4;stroke-dasharray:none;stroke-opacity:1;paint-order:stroke fill markers"
       d="m 138.7131,45.6791 c -6.96324,-1.764232 -13.9629,-6.812561 -17.41417,-12.559531 -1.88432,-3.13771 -3.80154,-8.115243 -4.2524,-11.04015 -0.27495,-1.783676 -0.23176,-1.8626 0.7358,-1.344775 4.83376,2.58695 13.6741,4.059675 24.41549,4.067415 9.78285,0.007 16.24273,-0.642046 26.20879,-2.633486 4.13668,-0.8266 7.63785,-1.386299 7.78037,-1.243775 0.45201,0.452011 -2.82064,7.299014 -5.1978,10.874768 -4.08558,6.145588 -9.62642,10.554739 -16.35686,13.016043 -4.28885,1.568421 -11.57669,1.963729 -15.91922,0.863491 z"
       id="path952"
       inkscape:connector-curvature="0"
       transform="translate(0,796.36216)" />
  </g>
  <g
     inkscape:groupmode="layer"
     id="layer2"
     inkscape:label="patternLayer">
    <path
       style="opacity:0.98999999;fill:#ff8080;fill-opacity:1;fill-rule:nonzero;stroke:none;stroke-width:0.50507629;stroke-linecap:butt;stroke-linejoin:miter;stroke-miterlimit:4;stroke-dasharray:none;stroke-opacity:1;paint-order:stroke fill markers"
       d="m 130.70595,243.55964 c -18.29251,-0.58016 -38.358132,-3.41443 -51.644052,-7.29473 -4.703416,-1.37368 -5.42957,-1.72941 -5.42957,-2.65983 0,-1.4539 1.371588,-13.35529 2.043934,-17.73539 1.626132,-10.5937 4.091639,-21.17623 6.872447,-29.49815 2.195272,-6.56963 3.195459,-8.97599 8.524529,-20.50929 7.810464,-16.90358 8.880458,-22.39001 7.061582,-36.20847 -1.21839,-9.25641 -5.198725,-24.26551 -8.932267,-33.681901 -1.557412,-3.927963 -1.635445,-4.578602 -3.005366,-25.059081 -0.176674,-2.641293 -0.832702,7.827156 -0.891572,14.227094 -0.05863,6.373664 0.177017,7.971154 1.092376,7.405428 0.339644,-0.209909 0.416523,-0.01596 0.208529,0.526052 -0.568111,1.480475 -4.732979,20.769408 -7.102637,32.894738 -5.117714,26.18691 -7.532348,43.81293 -7.291202,53.22334 l 0.156956,6.12503 -7.669393,-9.5e-4 c -10.305235,-10e-4 -17.77845,-1.64419 -21.625031,-4.75403 l -1.515228,-1.22501 1.334682,-1.43038 c 5.179857,-5.55124 9.346531,-23.08813 15.580292,-65.57506 8.066914,-54.980996 10.647854,-68.609957 14.391998,-75.998671 1.792408,-3.537148 4.796603,-5.377573 15.917659,-9.751452 6.725403,-2.645081 22.025474,-7.941523 22.941034,-7.941523 0.36876,0 0.87298,1.356997 1.23572,3.325651 2.34641,12.734413 10.48011,22.955211 21.56691,27.100929 2.59052,0.968679 3.98779,1.119901 10.3198,1.116877 7.02656,-0.0033 7.49774,-0.06968 11.61676,-1.635105 7.92453,-3.011712 15.21271,-8.884502 19.09639,-15.387817 2.21558,-3.710026 5.13338,-10.446151 5.1411,-11.868885 0.003,-0.625032 0.0985,-1.136421 0.21133,-1.136421 0.11285,0 3.80622,1.245832 8.20749,2.768516 14.39935,4.981657 21.08199,7.670487 22.50316,9.054378 5.92254,5.76718 10.40485,27.151591 17.58371,83.889063 5.95059,47.03 8.22045,59.71988 11.85658,66.28543 0.65207,1.17742 0.98832,2.26267 0.74723,2.41167 -1.89289,1.16987 -5.50979,1.85835 -10.59571,2.0169 -4.20129,0.13097 -6.63484,0.47035 -8.79543,1.2266 -1.64289,0.57504 -3.08204,0.95055 -3.19813,0.83447 -0.11608,-0.11609 -0.41483,-2.55998 -0.66387,-5.43088 -0.87454,-10.0812 -2.35611,-18.74457 -8.79607,-51.43429 -2.79824,-14.20409 -4.91917,-26.34127 -6.79603,-38.890875 -0.27004,-1.805647 -0.6387,-6.77878 -0.81925,-11.051402 -0.18054,-4.272622 -0.50572,-8.818308 -0.72262,-10.101525 l -0.39436,-2.333119 -0.0881,2.020305 c -0.0484,1.111168 -0.27638,6.105443 -0.50651,11.098394 -0.34397,7.46276 -0.29526,9.170322 0.27375,9.596449 1.12099,0.839513 -0.73089,8.443183 -4.25398,17.466433 -5.52478,14.14995 -7.09949,21.97113 -6.47662,32.16778 0.46235,7.56886 1.42201,11.57452 6.20218,25.88797 4.75879,14.24943 7.21651,23.24188 8.72236,31.91384 1.4837,8.54433 2.54705,19.43759 2.69521,27.61021 l 0.13141,7.24865 -2.52538,1.01323 c -9.64432,3.86948 -29.27178,6.88651 -51.77032,7.95787 -10.29183,0.49009 -12.44167,0.5072 -22.72843,0.18094 z"
       id="path950"
       inkscape:connector-curvature="0" />
  </g>
</svg>
