<?xml version="1.0" encoding="UTF-8" standalone="no"?>
<svg
   xmlns:dc="http://purl.org/dc/elements/1.1/"
   xmlns:cc="http://creativecommons.org/ns#"
   xmlns:rdf="http://www.w3.org/1999/02/22-rdf-syntax-ns#"
   xmlns:svg="http://www.w3.org/2000/svg"
   xmlns="http://www.w3.org/2000/svg"
   xmlns:xlink="http://www.w3.org/1999/xlink"
   xmlns:sodipodi="http://sodipodi.sourceforge.net/DTD/sodipodi-0.dtd"
   xmlns:inkscape="http://www.inkscape.org/namespaces/inkscape"
   cursor="default"
   viewBox="0 0 256 256"
   version="1.1"
   id="svg57"
   sodipodi:docname="leather_boots_strap.svg"
   inkscape:version="0.92.3 (2405546, 2018-03-11)">
  <metadata
     id="metadata61">
    <rdf:RDF>
      <cc:Work
         rdf:about="">
        <dc:format>image/svg+xml</dc:format>
        <dc:type
           rdf:resource="http://purl.org/dc/dcmitype/StillImage" />
        <dc:title></dc:title>
      </cc:Work>
    </rdf:RDF>
  </metadata>
  <sodipodi:namedview
     pagecolor="#ffffff"
     bordercolor="#666666"
     borderopacity="1"
     objecttolerance="10"
     gridtolerance="10"
     guidetolerance="10"
     inkscape:pageopacity="0"
     inkscape:pageshadow="2"
     inkscape:window-width="1920"
     inkscape:window-height="1001"
     id="namedview59"
     showgrid="false"
     inkscape:zoom="1.84375"
     inkscape:cx="181.20159"
     inkscape:cy="143.11489"
     inkscape:window-x="-9"
     inkscape:window-y="-9"
     inkscape:window-maximized="1"
     inkscape:current-layer="svg57" />
  <defs
     id="defs21">
    <linearGradient
       id="innoGrad2">
      <stop
         offset="0"
         stop-color="#faa"
         id="stop2" />
      <stop
         offset="1"
         stop-color="#ff8080"
         id="stop4" />
    </linearGradient>
    <linearGradient
       id="linearGradient4343">
      <stop
         offset="0"
         stop-opacity=".251"
         id="stop7" />
      <stop
         offset="1"
         stop-color="#ff2a2a"
         stop-opacity="0"
         id="stop9" />
    </linearGradient>
    <linearGradient
       id="innoGrad1">
      <stop
         offset="0"
         stop-color="#faa"
         id="stop12" />
      <stop
         offset="1"
         stop-color="#ff8080"
         id="stop14" />
    </linearGradient>
    <linearGradient
       id="linearGradient4322"
       x1="342.189"
       x2="331.341"
       y1="43.11"
       y2="52.593"
       gradientTransform="matrix(2.23063 0 0 2.23063 -625.567 53.562)"
       gradientUnits="userSpaceOnUse"
       xlink:href="#innoGrad1" />
    <linearGradient
       id="linearGradient4350"
       x1="295.28"
       x2="295.501"
       y1="10.091"
       y2="8.008"
       gradientTransform="matrix(2.23063 0 0 2.23063 -625.567 53.562)"
       gradientUnits="userSpaceOnUse"
       xlink:href="#linearGradient4343" />
    <linearGradient
       id="linearGradient4421"
       x1="295.28"
       x2="295.501"
       y1="10.091"
       y2="8.008"
       gradientTransform="matrix(2.23138 0 0 1.98394 -559.834 51.275)"
       gradientUnits="userSpaceOnUse"
       xlink:href="#linearGradient4343" />
    <linearGradient
       id="linearGradient4467"
       x1="371.429"
       x2="357.321"
       y1="36"
       y2="47.964"
       gradientTransform="matrix(2.23063 0 0 2.23063 -625.567 53.562)"
       gradientUnits="userSpaceOnUse"
       xlink:href="#innoGrad2" />
  </defs>
  <path
     style="fill:#000000"
     d="m 15.139836,216.59066 c -5.3945504,-3.28959 -6.9286804,-8.01328 -6.8573504,-21.11432 0.0703,-12.91868 1.38649,-17.53061 8.2965204,-29.07158 3.17284,-5.29922 3.96457,-7.71205 4.50724,-13.736 0.41177,-4.57101 1.54139,-9.06482 3.016452,-12 3.786663,-7.53495 3.996343,-8.86 1.505127,-9.51147 -1.847973,-0.48325 -2.085479,-1.07631 -1.608403,-4.01619 0.371871,-2.29157 0.03131,-4.20364 -1.014723,-5.69705 -2.739593,-3.91132 -0.316523,-68.370624 2.829668,-75.275754 1.122769,-2.464209 3.386261,-4.000647 7.655505,-5.196488 1.97584,-0.553445 2.25,-0.262183 2.25,2.390355 0,2.640606 0.597545,3.28612 4.75,5.131319 13.390709,5.95034 37.663006,7.396851 47.663125,2.840492 2.445187,-1.114102 2.560727,-1.518763 2.329825,-8.15986 0,0 1.57434,-0.742067 4.304799,-0.697769 1.126262,0 3.200139,1.2375 4.608629,2.75 2.4011,2.578429 2.5213,3.186725 1.92638,9.75 -0.84194,9.288692 -14.977722,66.173955 -16.998998,68.407445 -0.871068,0.96252 -1.58376,2.4121 -1.58376,3.22129 0,0.80919 -0.5625,2.03376 -1.25,2.72125 -0.861184,0.86118 -1.26652,5.15976 -1.303109,13.81945 -0.04355,10.30697 -0.34008,12.77929 -1.647406,13.73523 -1.044165,0.76351 -1.842786,3.56906 -2.314427,8.13055 -0.759583,7.34633 -2.05565,9.67424 -6.732697,12.09284 -2.434303,1.25883 -2.752361,1.98881 -2.752361,6.31703 0,4.48016 -0.425021,5.35878 -5.029166,10.39644 -2.766042,3.02649 -7.603358,7.22526 -10.749592,9.33059 -7.731934,5.1739 -28.026276,15.32878 -30.625028,15.32414 -1.15292,-0.002 -3.48223,-0.84893 -5.17625,-1.88194 z m 15.625094,-5.63695 c 12.539359,-6.29764 22.09446,-12.60278 28.497729,-18.80484 5.22679,-5.06254 5.457213,-5.50441 5.457213,-10.46494 0,-4.93457 0.188942,-5.30425 4,-7.82629 3.767254,-2.49305 4,-2.93376 4,-7.57405 0,-4.56123 -0.383075,-5.33202 -5.160541,-10.38348 -3.218596,-3.40319 -7.634713,-6.67335 -11.735427,-8.69014 -5.641674,-2.77466 -7.641474,-3.23363 -14.089459,-3.23363 -4.813153,0 -9.173842,0.64039 -12.130182,1.78138 l -4.615609,1.78139 -0.49937,6.2211 c -0.412663,5.14091 -1.380353,7.75755 -5.573168,15.06989 -2.79059,4.86682 -5.88801,11.39071 -6.88314,14.49751 -2.1083504,6.58225 -2.3456304,17.95211 -0.486481,23.31095 1.521161,4.3846 5.718341,8.83778 8.329721,8.83778 1.03599,0 5.935912,-2.03518 10.888714,-4.52263 z m 15.471737,-38.4502 c -1.364831,-2.20834 -8.097774,-3.05761 -12.86532,-1.62279 -3.891614,1.1712 -4.651475,1.17851 -4.651475,0.0448 0,-1.5103 5.877417,-3.43499 10.515602,-3.44356 3.295782,-0.006 9.648224,2.9859 10.264439,4.83454 0.466711,1.40014 -2.411554,1.56512 -3.263246,0.18705 z M 22.719876,167.5323 c 0,-1.66068 5.956044,-3.91579 12.316513,-4.66334 5.546963,-0.65194 20.683483,1.91595 20.683483,3.50892 0,1.6976 -1.35777,1.88398 -4.840409,0.66444 -8.062906,-2.82345 -18.603844,-2.46642 -26.409591,0.8945 -1.092983,0.47061 -1.749996,0.31873 -1.749996,-0.40452 z M 71.419578,151.79973 C 68.111051,146.5683 63.00537,141.7063 58.219872,139.23 c -8.008573,-4.1441 -26.605151,-2.98427 -30.619176,1.90966 -1.244341,1.51711 -1.133719,1.61348 1.119176,0.97505 1.375,-0.38966 5.126309,-1.15877 8.336241,-1.70915 10.545819,-1.80817 22.407481,2.74879 31.602799,12.14103 5.15453,5.26491 6.356979,4.93961 2.760666,-0.74686 z m 5.300294,-13.43038 c 0,-8.30792 -0.153548,-9.0376 -1.75,-8.31616 -0.9625,0.43496 -4.164895,0.97779 -7.116433,1.20629 -4.071145,0.31518 -5.262703,0.10427 -4.936673,-0.87382 0.239049,-0.71715 2.221759,-1.38139 4.46796,-1.49684 4.355867,-0.22389 8.250088,-1.9642 12.55289,-5.60982 2.303063,-1.95131 3.409644,-4.97285 7.252338,-19.80266 2.494026,-9.624996 5.891809,-22.449995 7.550628,-28.499995 3.911398,-14.265546 4.929628,-25.406808 2.540354,-27.796079 -0.937157,-0.937157 -2.121778,-1.703921 -2.632493,-1.703921 -1.374264,0 -1.126854,1.761196 0.321429,2.288097 2.067092,0.752031 -0.435126,3.986962 -4.737556,6.124833 -12.744878,6.33291 -43.137412,3.381005 -56.240934,-5.462456 -3.840428,-2.591873 -4.330119,-2.702603 -5.121864,-1.158174 -1.609091,3.138799 -2.121645,9.727759 -3.165151,40.688529 l -1.036802,30.761806 2.566802,3.36525 c 1.41174,1.85089 3.51805,3.87435 4.680687,4.49657 1.656025,0.88628 10.149413,1.72529 19.054818,1.88232 0.4125,0.007 0.75,0.46322 0.75,1.01322 0,0.6 -4,1 -10,1 -5.5,0 -10,0.4132 -10,0.91821 0,0.50502 -0.245343,1.55757 -0.545207,2.339 -0.470585,1.22633 0.384841,1.22922 6.25,0.0212 11.986814,-2.46895 23.001801,0.77126 31.273545,9.19956 2.440943,2.48714 5.244384,4.52207 6.22987,4.52207 1.591223,0 1.791792,-1.01941 1.791792,-9.10699 z m -4,-19.72791 c 0,-2.12881 9.978138,-56.476567 10.45688,-56.955308 1.998765,-1.998765 1.383161,4.001303 -2.829116,27.574362 -2.625626,14.693716 -4.996317,27.503346 -5.268202,28.465846 -0.496163,1.75647 -2.359562,2.47914 -2.359562,0.9151 z M 37.183634,87.226344 c 0.402865,-15.537499 0.913327,-28.437499 1.13436,-28.666666 0.221033,-0.229166 0.605107,-0.213438 0.853497,0.03495 0.935387,0.93539 -0.780247,56.881712 -1.744318,56.881712 -0.628947,0 -0.715549,-10.04573 -0.243539,-28.249996 z M 214.21988,205.09812 c -14.72129,-4.81331 -24.02472,-11.96571 -26.55664,-20.4165 -1.06079,-3.5406 -1.61823,-4.05758 -4.94953,-4.59028 -5.11182,-0.81741 -7.52549,-3.12639 -10.05093,-9.615 -1.82765,-4.69575 -2.14982,-7.65355 -2.20326,-20.22738 -0.0599,-14.10514 -0.16139,-14.82021 -2.40111,-16.92432 -2.60176,-2.44422 -2.88337,-4.003 -1.20788,-6.68589 0.91368,-1.46304 0.63135,-2.56493 -1.47135,-5.74232 -2.20964,-3.339 -2.90288,-6.34357 -4.59747,-19.92598 -5.72849,-45.914654 -5.54321,-51.545486 1.90225,-57.810429 1.66976,-1.405006 3.22768,-0.722075 4.4741,-0.826082 2.24305,0.470149 2.20292,2.350825 2.33921,3.177689 0.70256,3.509295 1.81316,6.711666 2.468,7.116379 4.19779,2.594377 35.31848,2.148978 44.50461,-0.636948 l 5.25,-1.592195 v -4.46126 c 0,-2.453692 0.34747,-4.461259 0.77216,-4.461259 0.42467,0 2.44967,1.382762 4.49999,3.072804 l 3.72784,3.072804 v 37.224252 37.224245 l -3.95984,3.86667 -3.95982,3.86668 3.03735,3.45936 c 4.73029,5.3875 5.46994,7.66741 3.47514,10.71185 -1.64514,2.51079 -1.58883,2.76951 2.08192,9.56564 2.07503,3.84178 5.9143,9.78645 8.5317,13.21037 5.66792,7.41443 7.79355,13.67084 7.79355,22.93894 0,13.55767 -4.34779,17.81514 -18.11803,17.74164 -5.93014,-0.0317 -10.42955,-0.71423 -15.38196,-2.33348 z m 24.83635,-5.54257 c 5.70488,-2.76168 7.0585,-5.48595 6.3372,-12.75414 -0.6341,-6.38953 -3.11951,-11.63749 -10.09948,-21.32507 -4.76022,-6.60677 -9.11826,-14.73948 -12.39749,-23.13546 -0.95543,-2.44625 -1.37564,-2.60176 -5.85295,-2.16597 -15.3641,1.4954 -29.52363,11.02438 -29.52363,19.8686 0,1.89112 -0.41234,3.69324 -0.91631,4.00471 -0.50397,0.31148 -0.68075,0.94746 -0.39285,1.4133 0.28791,0.46584 0.0669,2.04783 -0.49111,3.51552 -0.89887,2.36421 -0.39836,3.60422 4.38895,10.87368 7.35924,11.1749 11.50898,14.68181 21.69151,18.33133 4.63089,1.65976 9.09481,3.29347 9.91981,3.63046 3.10074,1.26659 12.61683,0.0277 17.33635,-2.25696 z m -39.33635,-27.09331 c 0,-1.63567 6.12292,-6.85019 11.1129,-9.46418 5.47959,-2.87048 13.84708,-4.2205 16.52277,-2.66579 1.52084,0.88367 0.94312,1.089 -3.13568,1.11445 -6.05585,0.0378 -15.61891,4.30871 -19.93708,8.90402 -3.00174,3.1944 -4.56291,3.91683 -4.56291,2.1115 z m 14.52028,-3.95308 c -0.32121,-0.51973 0.63243,-1.742 2.11919,-2.71616 2.81386,-1.84371 7.86611,-2.23803 12.65142,-0.98741 4.64423,1.21374 2.05142,2.56157 -3.77158,1.96059 -4.0836,-0.42147 -6.07686,-0.15454 -7.93434,1.06253 -1.42693,0.93496 -2.72875,1.224 -3.06469,0.68045 z m -31.52028,6.46718 c -2.69802,-2.87191 -7.23504,-3.69306 -4.90716,-0.88814 1.28898,1.55314 4.4121,3.19313 6.33147,3.32475 0.50838,0.0349 -0.13256,-1.06161 -1.42431,-2.43661 z m -0.44113,-7.01534 c 1.85921,-1.45139 1.8338,-1.4912 -0.60215,-0.94347 -1.7334,0.38976 -3.40521,-0.10613 -5.25,-1.55725 -2.81127,-2.21134 -3.63047,-1.53094 -1.45672,1.2099 1.09399,1.37939 3.02668,2.47546 4.80887,2.72721 0.30738,0.0434 1.43238,-0.60295 2.5,-1.43639 z m 0.2076,-8.40268 c -1.24656,-1.42009 -2.37897,-2.76948 -2.51647,-2.99865 -0.1375,-0.22916 -0.25,1.44869 -0.25,3.72856 0,4.0659 0.0482,4.12329 2.51647,2.99865 l 2.51647,-1.14658 z m 9.84911,-13.24238 c 5.92852,-5.46806 18.17427,-9.8396 27.56313,-9.8396 6.02774,0 5.68453,-2.08685 -0.62055,-3.7732 -5.22103,-1.39641 -11.61066,0.13898 -20.78136,4.99362 -5.96062,3.15534 -15.7768,12.57403 -15.7768,15.13793 0,4.46204 1.27979,4.59343 3.97904,0.40852 1.51366,-2.34678 4.0501,-5.46405 5.63654,-6.92727 z m 8.99279,-13.86818 c 3.2404,-1.25304 8.69458,-2.48604 12.12041,-2.73998 5.83248,-0.43235 6.48461,-0.73928 10.24999,-4.82424 l 4.02122,-4.36251 V 84.557705 c 0,-19.84538 -0.39758,-36.209041 -0.8871,-36.511581 -0.4879,-0.30154 -0.8254,0.195633 -0.75,1.10483 0.39518,4.765023 -13.99915,8.289934 -33.86289,8.292406 -18.64638,0.0023 -30.20061,-2.666408 -26.7,-6.167015 1.71647,-1.716472 1.51524,-5.8 -0.28581,-5.8 -0.8172,0 -2.67093,1.790828 -4.1194,3.979617 -2.94695,4.453149 -2.94791,4.257457 0.16186,33.020383 2.93195,27.118275 4.00077,32.635205 7.3267,37.818215 5.79226,9.02646 6.85496,9.59554 18.14859,9.71879 5.47083,0.0597 10.21525,0.37685 10.54316,0.70476 0.32791,0.3279 -0.42739,1.144 -1.67844,1.81354 -3.66004,1.95879 -19.66271,0.47999 -23.22527,-2.14624 -3.90689,-2.88007 -4.64157,-1.53115 -1.15062,2.11261 2.09968,2.19159 2.84864,3.92977 2.77732,6.44561 -0.0725,2.5593 0.71201,4.32042 3.05213,6.85122 l 3.14978,3.40643 7.60837,-7.23763 c 5.53156,-5.26202 9.21658,-7.85951 13.5,-9.51589 z m -20.96889,-10.66527 c -1.49231,-1.49231 -0.0154,-56.306145 1.51708,-56.306145 1.11366,0 1.09679,55.725385 -0.0171,56.413795 -0.47329,0.29251 -1.14829,0.24406 -1.5,-0.10765 z m 37.98967,-29.851666 c 0.99546,-26.929763 1.51096,-32.987844 2.66942,-31.371146 0.22159,0.30924 -1.67576,52.193872 -2.2185,60.666662 -0.044,0.6875 -0.41757,1.25014 -0.83007,1.2503 -0.4125,1.6e-4 -0.24188,-13.74545 0.37915,-30.545816 z m 9.37084,49.104536 c 0,-0.24254 -0.45,-0.7191 -1,-1.05902 -0.55,-0.33992 -1,-0.14148 -1,0.44098 0,0.58246 0.45,1.05902 1,1.05902 0.55,0 1,-0.19844 1,-0.44098 z"
     id="path990"
     inkscape:connector-curvature="0"
     sodipodi:nodetypes="scccscscsssssccccsscscssssscsssssssssccsccssscssccccsssscssssccssscsccssssssssssccccsssccssssscssssccssssccccccscccsscsscccccccscsscscssccscccssccsccccscscccccccccscsccscsccscssssccccscsccccssssscscscscsccscccsccsssssss" />
  <path
     style="fill:none;stroke:#000000;stroke-width:3.0999999;stroke-linecap:butt;stroke-linejoin:miter;stroke-miterlimit:4;stroke-dasharray:none;stroke-opacity:1"
     d="m 33.34699,42.637362 c 15.392342,-2.160691 36.217975,-6.800001 59.285324,1.350311"
     id="path992"
     inkscape:connector-curvature="0"
     sodipodi:nodetypes="cc" />
  <path
     style="fill:none;stroke:#000000;stroke-width:3.29999995;stroke-linecap:butt;stroke-linejoin:miter;stroke-miterlimit:4;stroke-dasharray:none;stroke-opacity:1"
     d="m 166.22835,43.722108 c 19.35216,-5.389744 38.45416,-6.651856 57.08475,-0.135593"
     id="path994"
     inkscape:connector-curvature="0"
     sodipodi:nodetypes="cc" />
  <path
     style="opacity:0.98999999;fill:#ff8080;fill-opacity:1;fill-rule:nonzero;stroke:#000000;stroke-width:0.74699998;stroke-linecap:butt;stroke-linejoin:miter;stroke-miterlimit:4;stroke-dasharray:none;stroke-opacity:1;paint-order:stroke fill markers"
     d="m 73.976262,147.06492 c -1.268575,-0.64174 -2.922798,-1.96482 -5.355932,-4.28379 -3.464694,-3.30213 -5.915086,-5.04568 -9.525617,-6.77786 -3.027122,-1.45228 -6.240589,-2.38316 -9.864213,-2.85748 -1.329179,-0.17398 -2.39713,-0.20686 -4.949153,-0.15234 -3.427093,0.0732 -3.982301,0.13904 -8.271186,0.98066 -1.519543,0.29819 -3.02121,0.51192 -3.661017,0.52106 -1.017436,0.0145 -1.087361,-0.003 -1.126889,-0.28053 -0.02318,-0.16281 0.0836,-0.70314 0.237288,-1.20072 0.153687,-0.49758 0.279431,-1.07658 0.279431,-1.28667 0,-0.31293 0.07966,-0.40633 0.440678,-0.51668 1.254396,-0.3834 3.817657,-0.56001 10.201387,-0.70289 5.685885,-0.12726 8.207202,-0.32598 8.987,-0.70832 0.2904,-0.14238 0.36468,-0.26674 0.342127,-0.5728 -0.05717,-0.77584 -0.171906,-0.80553 -3.533875,-0.91443 -6.851062,-0.22193 -13.358851,-0.87247 -15.555961,-1.55502 -1.506974,-0.46815 -3.614956,-2.47716 -6.37631,-6.07694 l -1.560182,-2.0339 0.06667,-0.88136 c 0.03667,-0.48474 0.10014,-2.01017 0.141054,-3.38983 0.134964,-4.55106 1.010065,-30.46872 1.220106,-36.135588 0.831077,-22.422335 1.412076,-28.517678 2.971975,-31.179444 0.649016,-1.107463 1.112292,-1.005293 4.046531,0.892414 3.81316,2.466146 6.448624,3.726157 10.879992,5.201709 6.432817,2.141992 13.617375,3.48273 21.491525,4.010617 3.064197,0.205425 10.385267,0.09021 12.881356,-0.202718 6.270675,-0.735896 10.459233,-1.98778 13.762712,-4.113425 1.384206,-0.890677 2.42245,-1.835966 3.052046,-2.778794 0.45841,-0.686473 0.547298,-0.925061 0.513837,-1.379207 -0.03397,-0.461142 -0.114469,-0.592896 -0.502295,-0.822181 -1.309522,-0.774193 -1.753461,-1.70958 -1.034845,-2.180435 0.46101,-0.302065 0.981344,-0.111026 2.175281,0.79865 1.647355,1.255141 2.103078,2.669081 2.098381,6.510504 -0.0071,5.807478 -1.289071,12.86087 -4.452311,24.496547 -1.360074,5.002903 -3.503518,13.089295 -5.984251,22.576271 -4.297935,16.43644 -5.368888,19.78657 -7.020893,21.96259 -0.964522,1.27046 -4.152218,3.68344 -6.28487,4.75742 -2.420178,1.21879 -4.16648,1.71054 -7.205467,2.02903 -2.864148,0.30017 -4.462388,0.85695 -4.654251,1.62139 -0.208816,0.83199 0.656461,1.08382 3.333536,0.97018 3.200407,-0.13586 7.459832,-0.74954 8.64795,-1.24597 0.258453,-0.10798 0.635719,-0.19634 0.83837,-0.19634 0.855713,0 0.992709,1.36879 0.920525,9.19732 -0.0466,5.05357 -0.09562,6.32599 -0.266553,6.91824 -0.392002,1.35823 -1.051991,1.6345 -2.343682,0.98106 z m 0.05307,-27.75356 c 0.450559,-0.26615 0.935743,-0.95575 1.100621,-1.56434 0.306547,-1.13149 3.368819,-17.71204 5.681412,-30.761766 3.583723,-20.222587 4.252363,-26.444958 2.75563,-25.64393 -0.141409,0.07568 -0.323141,0.217202 -0.403848,0.314493 -0.548078,0.660705 -10.475024,54.564883 -10.475024,56.880283 0,0.94946 0.528839,1.25514 1.341209,0.77526 z m -36.413777,-4.15662 c 0.32337,-1.30712 0.831202,-10.08022 1.238154,-21.389826 0.422968,-11.754755 0.528598,-16.808936 0.537275,-25.707639 0.0098,-10.016373 0.03,-9.744004 -0.717317,-9.655147 -0.253521,0.03014 -0.368506,0.146655 -0.44167,0.447533 -0.133778,0.550143 -0.348769,4.78782 -0.595041,11.728814 -0.809297,22.809479 -0.998229,43.788255 -0.403025,44.751315 0.136405,0.22071 0.302573,0.14449 0.381624,-0.17505 z"
     id="path1004"
     inkscape:connector-curvature="0" />
  <path
     style="opacity:0.98999999;fill:#ff8080;fill-opacity:1;fill-rule:nonzero;stroke:#000000;stroke-width:0.301;stroke-linecap:butt;stroke-linejoin:miter;stroke-miterlimit:4;stroke-dasharray:none;stroke-opacity:1;paint-order:stroke fill markers"
     d="m 18.691726,215.13715 c -2.664903,-1.0758 -5.911821,-5.06157 -7.137825,-8.76207 -1.8142438,-5.47601 -1.492433,-16.95533 0.65328,-23.30319 1.077295,-3.18706 3.989245,-9.25354 7.135928,-14.8663 3.225191,-5.7528 4.296238,-8.30524 4.86015,-11.58232 0.114464,-0.66519 0.336198,-2.8618 0.492743,-4.88136 0.156544,-2.01955 0.332978,-3.7948 0.392075,-3.945 0.07927,-0.20147 0.791722,-0.53487 2.716673,-1.27131 3.04681,-1.16564 4.306817,-1.53156 6.558924,-1.90475 2.396336,-0.39708 4.528055,-0.54787 7.767714,-0.54945 5.966628,-0.003 8.054084,0.4766 13.268603,3.04796 5.009972,2.4705 9.165717,5.6089 13.088792,9.88461 3.583984,3.90613 4.004164,4.75892 4.149612,8.42196 0.09468,2.38456 -0.08429,4.24104 -0.502581,5.21339 -0.375478,0.87282 -1.205657,1.6356 -3.389423,3.11422 -3.777226,2.55755 -4.057131,3.06259 -4.059376,7.32441 -0.0019,3.61674 -0.283374,5.08946 -1.237837,6.47672 -0.995911,1.44751 -4.771623,5.18903 -7.778,7.70757 -3.465553,2.90321 -8.195381,6.19586 -13.288136,9.25048 -8.408125,5.04317 -19.937781,10.62375 -22.366916,10.82603 -0.469621,0.0391 -0.884623,-0.0241 -1.3244,-0.2016 z m 30.400928,-41.8178 c 1.671056,-0.84549 -0.987173,-3.22309 -5.489273,-4.90975 -2.075242,-0.77747 -3.648689,-1.06253 -5.288136,-0.95805 -3.427625,0.21844 -7.121634,1.21708 -8.81719,2.38366 -0.679013,0.46717 -0.925075,0.91417 -0.792968,1.44052 0.189836,0.75637 0.8765,0.72101 4.346168,-0.22382 2.448899,-0.66686 4.212918,-0.8748 6.484329,-0.76434 3.213104,0.15625 5.339335,0.84729 6.525416,2.12081 0.363563,0.39037 0.844076,0.79188 1.067805,0.89225 0.51508,0.23107 1.525136,0.2407 1.963849,0.0187 z m -23.990199,-5.57464 c 6.765661,-2.72326 15.729199,-3.27512 23.111095,-1.42287 0.596611,0.1497 1.81695,0.50846 2.711865,0.79725 2.876978,0.92841 4.079768,0.98905 4.609749,0.23239 0.325786,-0.46512 0.259356,-1.11641 -0.146426,-1.4356 -1.967163,-1.54737 -14.627864,-3.5504 -19.774887,-3.12855 -5.424066,0.44455 -11.923498,2.58759 -12.761312,4.20774 -0.645405,1.24808 0.261175,1.55014 2.249916,0.74964 z"
     id="path1008"
     inkscape:connector-curvature="0" />
  <path
     style="opacity:0.98999999;fill:#ff8080;fill-opacity:1;fill-rule:nonzero;stroke:#000000;stroke-width:0.241;stroke-linecap:butt;stroke-linejoin:miter;stroke-miterlimit:4;stroke-dasharray:none;stroke-opacity:1;paint-order:stroke fill markers"
     d="m 178.23134,146.93016 c -2.31138,-2.52555 -2.75425,-3.08991 -3.34844,-4.267 -0.55349,-1.09644 -0.81485,-2.33215 -0.82038,-3.8786 -0.009,-2.65021 -0.58865,-3.89277 -3.16896,-6.79852 -1.08923,-1.2266 -1.84478,-2.3698 -1.84706,-2.7947 -9.4e-4,-0.17423 0.10826,-0.23729 0.41091,-0.23729 0.4947,0 1.21698,0.35414 2.53686,1.24384 2.04434,1.37805 5.0409,2.19672 10.67807,2.91729 2.69271,0.34419 9.83757,0.35075 11.30556,0.0104 1.26749,-0.29388 2.09983,-0.69675 2.83004,-1.3698 0.64549,-0.59496 0.7329,-0.98615 0.2605,-1.16576 -0.62608,-0.23803 -3.23057,-0.41683 -8.02322,-0.5508 -8.47996,-0.23703 -10.39392,-0.41591 -12.35717,-1.15487 -2.4961,-0.93953 -4.56539,-3.13956 -7.77966,-8.27122 -1.78716,-2.85326 -2.53748,-4.6325 -3.37566,-8.00474 -1.31758,-5.30099 -2.32082,-12.73749 -4.682,-34.705151 -2.19571,-20.428256 -2.30524,-23.378459 -0.97214,-26.185588 0.73786,-1.55373 2.04801,-3.383823 3.40313,-4.753708 1.60712,-1.624629 2.28947,-1.800128 2.93875,-0.755846 0.27846,0.447874 0.31519,0.670836 0.3072,1.864634 -0.0101,1.503428 -0.23644,2.215311 -0.97462,3.064804 -1.06591,1.226647 -0.92814,2.029516 0.50748,2.957403 2.32143,1.500413 7.92944,2.570249 16.54402,3.156091 3.38526,0.230217 15.57395,0.22972 18.77966,-7.73e-4 7.36164,-0.529294 12.72439,-1.332765 16.94915,-2.539398 5.2609,-1.502563 7.79161,-3.28602 7.79534,-5.493573 8.1e-4,-0.460867 0.0803,-0.856017 0.20466,-1.016949 0.19275,-0.249438 0.21305,-0.250773 0.38811,-0.02553 0.63663,0.81913 0.89779,14.621659 0.89906,47.517048 l 9.7e-4,24.839456 -2.48553,2.68596 c -5.24175,5.66446 -5.57534,5.86161 -10.73481,6.34421 -7.72789,0.72284 -13.832,2.56712 -18.37195,5.55087 -2.88686,1.89731 -5.07805,3.78146 -11.39359,9.79712 l -4.40961,4.20022 z m 39.96035,-24.43322 c 0.52797,-0.2026 0.63983,-0.80226 0.82932,-4.44562 0.45855,-8.81702 1.54743,-37.631385 1.96984,-52.126627 0.13998,-4.803503 0.13423,-5.355671 -0.0578,-5.547673 -1.16434,-1.164342 -1.75626,6.242065 -2.7336,34.204154 -0.52954,15.150316 -0.65172,27.999996 -0.26625,27.999996 0.0214,0 0.13774,-0.0379 0.25846,-0.0842 z m -36.41452,-0.55984 c 0.23988,-0.19803 0.30957,-0.47279 0.42136,-1.66101 0.62701,-6.665 0.72024,-42.448174 0.13477,-51.728813 -0.15701,-2.488827 -0.24366,-3.050847 -0.47034,-3.050847 -0.37351,0 -0.71593,2.486629 -1.08295,7.864407 -1.01486,14.870127 -1.4418,43.331443 -0.71287,47.522143 0.137,0.78762 0.22124,0.97444 0.50351,1.11664 0.47053,0.23705 0.86867,0.21642 1.20652,-0.0625 z"
     id="path1010"
     inkscape:connector-curvature="0" />
  <path
     style="opacity:0.98999999;fill:#ff8080;fill-opacity:1;fill-rule:nonzero;stroke:#000000;stroke-width:0.333;stroke-linecap:butt;stroke-linejoin:miter;stroke-miterlimit:4;stroke-dasharray:none;stroke-opacity:1;paint-order:stroke fill markers"
     d="m 223.82489,202.17334 c -0.6339,-0.0594 -1.57967,-0.26126 -2.1017,-0.44859 -3.14078,-1.12703 -10.80622,-3.94383 -12.0678,-4.43452 -8.15081,-3.17029 -12.35498,-6.85879 -18.84572,-16.53415 -3.9305,-5.85895 -5.21494,-8.21319 -5.32571,-9.76145 -0.0538,-0.75188 0.006,-1.11201 0.37583,-2.24762 0.45036,-1.38444 0.57509,-2.71277 0.34525,-3.67687 -0.0885,-0.37132 -0.0392,-0.49245 0.38235,-0.93939 0.59138,-0.62697 0.84072,-1.62956 1.02611,-4.12585 0.0756,-1.01855 0.24303,-2.07368 0.41945,-2.64407 2.05239,-6.63546 11.37693,-13.25035 22.5461,-15.99435 3.35668,-0.82466 7.54525,-1.37849 9.62941,-1.27324 1.57923,0.0797 1.8795,0.39429 2.95752,3.0981 1.14748,2.87806 2.7527,6.38664 4.3735,9.55932 2.66827,5.2231 4.5076,8.22671 8.64335,14.11448 7.13252,10.15408 9.25355,15.40203 9.2563,22.90247 0.001,3.68215 -0.50726,5.16724 -2.4148,7.05085 -2.12385,2.09721 -5.55818,3.65016 -10.1825,4.60435 -3.16266,0.65259 -6.81642,0.95672 -9.01694,0.75053 z m -22.15051,-29.3319 c 0.43701,-0.32296 1.50106,-1.29173 2.36455,-2.15283 2.51035,-2.5034 5.05393,-4.25804 8.69623,-5.99896 4.51163,-2.15642 7.7868,-3.01121 12.24227,-3.19512 1.49152,-0.0616 2.82164,-0.15501 2.95581,-0.20767 0.60804,-0.23864 -0.21145,-0.98308 -1.52356,-1.38404 -1.01736,-0.31088 -4.29787,-0.30211 -6.17801,0.0165 -5.88456,0.99725 -10.65697,3.17414 -15.68298,7.15364 -1.79177,1.41869 -4.19832,3.81612 -4.57096,4.55364 -0.8479,1.67816 0.12603,2.3755 1.69665,1.21482 z m 15.58838,-4.91436 c 2.28275,-1.19133 3.12224,-1.35792 6.01975,-1.19463 3.38206,0.1906 6.88437,0.1416 7.52543,-0.10528 0.7139,-0.27494 0.7427,-0.71375 0.0763,-1.16283 -1.50413,-1.01364 -7.0036,-1.70391 -10.06619,-1.26347 -1.43737,0.20671 -3.34003,0.83801 -4.30786,1.42933 -0.93722,0.57262 -2.01834,1.62407 -2.26297,2.20085 -0.22894,0.5398 -0.22979,0.51653 0.028,0.77433 0.43445,0.43446 1.17937,0.26533 2.98751,-0.6783 z"
     id="path1012"
     inkscape:connector-curvature="0" />
  <path
     style="opacity:0.98999999;fill:#000000;fill-opacity:1;fill-rule:nonzero;stroke:#000000;stroke-width:0.31299999;stroke-linecap:butt;stroke-linejoin:miter;stroke-miterlimit:4;stroke-dasharray:none;stroke-opacity:1;paint-order:stroke fill markers"
     d="m 183.43956,177.24855 c -1.19837,-0.24746 -2.99614,-1.08351 -4.21443,-1.95991 -1.02366,-0.73638 -1.97637,-1.88496 -1.97637,-2.3827 0,-0.35886 0.16962,-0.4798 0.67293,-0.4798 1.31598,0 3.30375,1.09782 4.78901,2.6449 0.75279,0.78412 1.53722,1.861 1.53722,2.11031 0,0.20192 -0.1112,0.21116 -0.80836,0.0672 z"
     id="path1018"
     inkscape:connector-curvature="0" />
  <path
     style="opacity:0.98999999;fill:#ff8080;fill-opacity:1;fill-rule:nonzero;stroke:#000000;stroke-width:0.20299999;stroke-linecap:butt;stroke-linejoin:miter;stroke-miterlimit:4;stroke-dasharray:none;stroke-opacity:1;paint-order:stroke fill markers"
     d="m 179.08411,169.20721 c -1.95643,-0.52629 -3.57248,-1.71528 -4.72524,-3.47654 -0.62062,-0.94823 -0.72756,-1.55011 -0.27542,-1.55011 0.29061,0 1.32805,0.58722 2.25446,1.27609 2.13607,1.58836 3.68367,1.98973 5.80068,1.50439 0.87652,-0.20094 1.3423,-0.2397 1.3423,-0.11169 0,0.0911 -1.45874,1.27606 -2.10933,1.71343 -0.59991,0.40329 -1.39867,0.79646 -1.60279,0.78893 -0.094,-0.003 -0.40213,-0.0685 -0.68466,-0.1445 z"
     id="path1022"
     inkscape:connector-curvature="0" />
  <path
     style="opacity:0.98999999;fill:#ff5555;fill-opacity:1;fill-rule:nonzero;stroke:#000000;stroke-width:0.121;stroke-linecap:butt;stroke-linejoin:miter;stroke-miterlimit:4;stroke-dasharray:none;stroke-opacity:1;paint-order:stroke fill markers"
     d="m 68.913699,53.949489 c -11.478364,-0.278634 -23.180732,-2.74392 -30.262468,-6.37526 -1.198554,-0.614589 -1.929087,-1.143602 -2.276457,-1.648487 -0.30724,-0.446558 -0.58723,-1.27595 -0.58723,-1.739505 v -0.297079 l 4.33852,-0.648199 c 7.447645,-1.11272 11.376291,-1.59837 15.604289,-1.928965 11.344615,-0.887056 21.457523,-0.08448 30.777122,2.442532 1.678834,0.455215 3.834924,1.114804 3.918416,1.198716 0.109863,0.110417 0.04398,3.337917 -0.08017,3.927368 -0.252019,1.196564 -0.677553,1.660343 -2.160023,2.354151 -2.885629,1.350497 -7.238583,2.249476 -12.464598,2.574209 -1.786806,0.111027 -5.156692,0.180589 -6.807401,0.140519 z"
     id="path1030"
     inkscape:connector-curvature="0" />
  <path
     style="opacity:0.98999999;fill:#ff5555;fill-opacity:1;fill-rule:nonzero;stroke:#000000;stroke-width:0.206;stroke-linecap:butt;stroke-linejoin:miter;stroke-miterlimit:4;stroke-dasharray:none;stroke-opacity:1;paint-order:stroke fill markers"
     d="m 185.02093,54.269969 c -7.54448,-0.220499 -12.39366,-0.896634 -13.22552,-1.844073 -0.5747,-0.654544 -1.53294,-3.462194 -2.13849,-6.265776 -0.12049,-0.557868 -0.27981,-1.527713 -0.25496,-1.5521 0.0202,-0.01981 2.64373,-0.663051 3.58455,-0.878861 10.6957,-2.453412 20.48849,-3.3291 29.79437,-2.664263 5.40242,0.385964 10.7201,1.320631 15.8138,2.779531 1.00408,0.287581 3.05372,0.922803 3.08933,0.957446 0.0221,0.02149 0.009,5.553183 -0.0128,5.575376 -0.0305,0.03053 -5.32152,1.62867 -5.8987,1.781702 -3.83298,1.016265 -10.7248,1.734139 -19.84693,2.067317 -1.77074,0.06467 -9.17211,0.09434 -10.90461,0.0437 z"
     id="path1032"
     inkscape:connector-curvature="0" />
  <path
     style="opacity:0.98999999;fill:#ff9955;fill-opacity:1;fill-rule:nonzero;stroke:#000000;stroke-width:0.12;stroke-linecap:butt;stroke-linejoin:miter;stroke-miterlimit:4;stroke-dasharray:none;stroke-opacity:1;paint-order:stroke fill markers"
     d="m 72.700312,156.02969 c -0.618801,-0.33209 -1.519569,-1.11475 -3.480658,-3.02429 -1.123361,-1.09383 -2.52559,-2.41341 -3.116064,-2.93238 -6.226987,-5.47301 -13.295009,-8.86152 -20.537003,-9.84572 -1.601649,-0.21767 -4.600145,-0.29082 -6.184188,-0.15087 -2.131449,0.18831 -7.580499,1.20896 -10.762208,2.01585 -0.830442,0.2106 -1.573635,0.35845 -1.651539,0.32855 -0.124806,-0.0479 -0.124864,-0.0868 -4.93e-4,-0.32731 0.07763,-0.15012 0.353084,-0.52762 0.612113,-0.83887 1.801393,-2.1646 6.160917,-3.67619 12.40607,-4.30161 2.033587,-0.20365 6.696128,-0.22759 8.60043,-0.0442 4.069462,0.392 7.017485,1.11177 9.44407,2.30581 3.730829,1.83581 8.03745,5.54146 11.31749,9.73818 1.775073,2.27115 3.919654,5.89503 4.04275,6.83137 0.05009,0.38104 0.03875,0.40723 -0.174782,0.40364 -0.125594,-0.002 -0.357788,-0.0733 -0.515988,-0.1582 z"
     id="path1036"
     inkscape:connector-curvature="0" />
  <path
     style="opacity:0.98999999;fill:#ff9955;fill-opacity:1;fill-rule:nonzero;stroke:#000000;stroke-width:0.212;stroke-linecap:butt;stroke-linejoin:miter;stroke-miterlimit:4;stroke-dasharray:none;stroke-opacity:1;paint-order:stroke fill markers"
     d="m 183.35566,156.01462 c -0.34394,-0.37056 -0.53375,-1.24957 -0.54347,-2.51682 -0.009,-1.11487 6.4e-4,-1.16864 0.29634,-1.73429 1.45208,-2.77767 7.45514,-8.66408 12.31774,-12.07838 1.60473,-1.12677 2.87116,-1.85967 5.21057,-3.01541 8.10277,-4.00303 13.69693,-5.18298 18.60051,-3.92332 2.14597,0.55127 4.01092,1.36524 4.58573,2.00149 0.43425,0.48067 0.44206,0.69419 0.0367,1.00339 -0.51221,0.39068 -1.29284,0.5376 -3.376,0.63541 -4.49843,0.2112 -6.3437,0.42835 -9.3556,1.10099 -6.77767,1.51364 -13.18975,4.33029 -17.53842,7.70414 -2.0531,1.59286 -4.70446,4.67361 -7.06582,8.2101 -0.93264,1.39679 -1.59438,2.18601 -2.14035,2.55269 -0.49421,0.33191 -0.76109,0.34749 -1.02792,0.06 z"
     id="path1038"
     inkscape:connector-curvature="0" />
  <path
     style="opacity:0.98999999;fill:#ff7f2a;fill-opacity:1;fill-rule:nonzero;stroke:#000000;stroke-width:0.31999999;stroke-linecap:butt;stroke-linejoin:miter;stroke-miterlimit:4;stroke-dasharray:none;stroke-opacity:1;paint-order:stroke fill markers"
     d="m 226.41754,141.37415 c -0.57686,-0.24196 -0.84891,-1.24372 -0.39404,-1.45097 0.30059,-0.13696 0.6396,0.007 1.17106,0.49671 0.45729,0.42152 0.54174,0.6921 0.26264,0.84147 -0.27174,0.14543 -0.82004,0.20491 -1.03966,0.11279 z"
     id="path1040"
     inkscape:connector-curvature="0" />
  <path
     style="opacity:0.98999999;fill:#ff9955;fill-opacity:1;fill-rule:nonzero;stroke:#000000;stroke-width:0.23100001;stroke-linecap:butt;stroke-linejoin:miter;stroke-miterlimit:4;stroke-dasharray:none;stroke-opacity:1;paint-order:stroke fill markers"
     d="m 180.19865,163.75914 c -0.3296,-0.23133 -0.41546,-0.92336 -0.41546,-3.34831 0,-2.29992 0.0742,-3.72802 0.19125,-3.68032 0.0367,0.0149 0.39213,0.41641 0.78989,0.89215 0.39775,0.47573 1.43962,1.68381 2.31525,2.68461 l 1.59205,1.81963 -0.69443,0.31831 c -1.72087,0.7888 -3.01857,1.34141 -3.28316,1.39811 -0.18888,0.0405 -0.35897,0.0116 -0.49539,-0.0842 z"
     id="path1042"
     inkscape:connector-curvature="0" />
</svg>
