<?xml version="1.0" encoding="UTF-8" standalone="no"?>
<svg
   xmlns:dc="http://purl.org/dc/elements/1.1/"
   xmlns:cc="http://creativecommons.org/ns#"
   xmlns:rdf="http://www.w3.org/1999/02/22-rdf-syntax-ns#"
   xmlns:svg="http://www.w3.org/2000/svg"
   xmlns="http://www.w3.org/2000/svg"
   xmlns:sodipodi="http://sodipodi.sourceforge.net/DTD/sodipodi-0.dtd"
   xmlns:inkscape="http://www.inkscape.org/namespaces/inkscape"
   cursor="default"
   viewBox="0 0 256 256"
   version="1.1"
   id="svg30"
   sodipodi:docname="PearlNecklace.svg"
   inkscape:version="0.92.3 (2405546, 2018-03-11)">
  <metadata
     id="metadata36">
    <rdf:RDF>
      <cc:Work
         rdf:about="">
        <dc:format>image/svg+xml</dc:format>
        <dc:type
           rdf:resource="http://purl.org/dc/dcmitype/StillImage" />
        <dc:title></dc:title>
      </cc:Work>
    </rdf:RDF>
  </metadata>
  <defs
     id="defs34" />
  <sodipodi:namedview
     pagecolor="#ffffff"
     bordercolor="#666666"
     borderopacity="1"
     objecttolerance="10"
     gridtolerance="10"
     guidetolerance="10"
     inkscape:pageopacity="0"
     inkscape:pageshadow="2"
     inkscape:window-width="1920"
     inkscape:window-height="1001"
     id="namedview32"
     showgrid="false"
     inkscape:zoom="1.84375"
     inkscape:cx="141.31167"
     inkscape:cy="172.79475"
     inkscape:window-x="-9"
     inkscape:window-y="-9"
     inkscape:window-maximized="1"
     inkscape:current-layer="svg30" />
  <g
     id="g41040"
     transform="matrix(1.3060224,0,0,1.3060224,-195.07778,-1564.0589)">
    <title
       id="title41042">Layer 1</title>
  </g>
  <path
     id="path3243"
     d="m 40.809197,136.66136 c 0,6.33433 -5.135149,11.46948 -11.46962,11.46948 -6.33447,0 -11.46962,-5.13515 -11.46962,-11.46948 0,-6.33435 5.13515,-11.4695 11.46962,-11.4695 6.334471,0 11.46962,5.13515 11.46962,11.4695 z"
     stroke-miterlimit="4"
     style="fill:#ff8080;fill-opacity:1;fill-rule:nonzero;stroke:#000000;stroke-width:1.30602241;stroke-linecap:round;stroke-linejoin:round;stroke-miterlimit:4;stroke-dasharray:none;stroke-opacity:1"
     inkscape:connector-curvature="0" />
  <path
     id="path3247"
     d="m 27.122082,131.65928 c -1.250582,0.04 -0.649302,-5.04503 2.616877,-4.18697 8.35554,2.1949 8.736898,9.5516 3.1402,13.21564 1.676541,-3.34499 1.247278,-9.25251 -5.757077,-9.02827 z"
     style="fill:#000000;fill-opacity:1;fill-rule:evenodd;stroke:none;stroke-width:1.30602241"
     inkscape:connector-curvature="0" />
  <path
     id="path3291"
     d="m 138.22541,73.005817 c 0,6.33434 -5.13515,11.469489 -11.46962,11.469489 -6.33447,0 -11.46962,-5.135149 -11.46962,-11.469489 0,-6.334339 5.13515,-11.469488 11.46962,-11.469488 6.33447,0 11.46962,5.135149 11.46962,11.469488 z"
     stroke-miterlimit="4"
     style="fill:#ff8080;fill-opacity:1;fill-rule:nonzero;stroke:#000000;stroke-width:1.30602241;stroke-linecap:round;stroke-linejoin:round;stroke-miterlimit:4;stroke-dasharray:none;stroke-opacity:1"
     inkscape:connector-curvature="0" />
  <path
     id="path3293"
     d="m 124.52524,68.003752 c -1.25059,0.03996 -0.64931,-5.045034 2.61687,-4.186978 8.35554,2.194902 8.73689,9.551595 3.1402,13.215642 1.67654,-3.344985 1.24728,-9.252516 -5.75707,-9.028273 z"
     style="fill:#000000;fill-opacity:1;fill-rule:evenodd;stroke:none;stroke-width:1.30602241"
     inkscape:connector-curvature="0" />
  <path
     id="path3357"
     d="m 138.34295,189.79034 c 0,6.33434 -5.13515,11.4695 -11.46962,11.4695 -6.33447,0 -11.46962,-5.13516 -11.46962,-11.4695 0,-6.33434 5.13515,-11.46949 11.46962,-11.46949 6.33447,0 11.46962,5.13515 11.46962,11.46949 z"
     stroke-miterlimit="4"
     style="fill:#ff8080;fill-opacity:1;fill-rule:nonzero;stroke:#000000;stroke-width:1.30602241;stroke-linecap:round;stroke-linejoin:round;stroke-miterlimit:4;stroke-dasharray:none;stroke-opacity:1"
     inkscape:connector-curvature="0" />
  <path
     id="path3359"
     d="m 124.64278,184.80134 c -1.25059,0.04 -0.64931,-5.04504 2.61687,-4.18698 8.35554,2.19491 8.7369,9.55159 3.1402,13.21564 1.67654,-3.34498 1.24728,-9.25252 -5.75707,-9.02827 z"
     style="fill:#000000;fill-opacity:1;fill-rule:evenodd;stroke:none;stroke-width:1.30602241"
     inkscape:connector-curvature="0" />
  <path
     id="path3363"
     d="m 90.359687,182.88149 c 0,6.33434 -5.13515,11.46948 -11.46962,11.46948 -6.334469,0 -11.469619,-5.13514 -11.469619,-11.46948 0,-6.33435 5.13515,-11.4695 11.469619,-11.4695 6.33447,0 11.46962,5.13515 11.46962,11.4695 z"
     stroke-miterlimit="4"
     style="fill:#ff8080;fill-opacity:1;fill-rule:nonzero;stroke:#000000;stroke-width:1.30602241;stroke-linecap:round;stroke-linejoin:round;stroke-miterlimit:4;stroke-dasharray:none;stroke-opacity:1"
     inkscape:connector-curvature="0" />
  <path
     id="path3365"
     d="m 76.659512,177.87942 c -1.250582,0.04 -0.649302,-5.04503 2.616877,-4.18698 8.355539,2.1949 8.736898,9.5516 3.1402,13.21564 1.676541,-3.34499 1.247277,-9.25251 -5.757077,-9.02827 z"
     style="fill:#000000;fill-opacity:1;fill-rule:evenodd;stroke:none;stroke-width:1.30602241"
     inkscape:connector-curvature="0" />
  <path
     id="path3369"
     d="m 69.528629,171.12728 c 0,6.33434 -5.13515,11.46949 -11.469619,11.46949 -6.33447,0 -11.469619,-5.13515 -11.469619,-11.46949 0,-6.33434 5.135149,-11.46949 11.469619,-11.46949 6.334469,0 11.469619,5.13515 11.469619,11.46949 z"
     stroke-miterlimit="4"
     style="fill:#ff8080;fill-opacity:1;fill-rule:nonzero;stroke:#000000;stroke-width:1.30602241;stroke-linecap:round;stroke-linejoin:round;stroke-miterlimit:4;stroke-dasharray:none;stroke-opacity:1"
     inkscape:connector-curvature="0" />
  <path
     id="path3371"
     d="m 55.841514,166.12522 c -1.250581,0.04 -0.649302,-5.04503 2.616877,-4.18698 8.35554,2.1949 8.736898,9.55159 3.140201,13.21564 1.676541,-3.34498 1.247277,-9.25252 -5.757078,-9.02828 z"
     style="fill:#000000;fill-opacity:1;fill-rule:evenodd;stroke:none;stroke-width:1.30602241"
     inkscape:connector-curvature="0" />
  <path
     id="path3261"
     d="m 41.736473,90.480397 c 0,6.334343 -5.13515,11.469493 -11.46962,11.469493 -6.33447,0 -11.469619,-5.13515 -11.469619,-11.469493 0,-6.334339 5.135149,-11.469488 11.469619,-11.469488 6.33447,0 11.46962,5.135149 11.46962,11.469488 z"
     stroke-miterlimit="4"
     style="fill:#ff8080;fill-opacity:1;fill-rule:nonzero;stroke:#000000;stroke-width:1.30602241;stroke-linecap:round;stroke-linejoin:round;stroke-miterlimit:4;stroke-dasharray:none;stroke-opacity:1"
     inkscape:connector-curvature="0" />
  <path
     id="path3263"
     d="m 28.036297,85.478332 c -1.250581,0.03997 -0.649302,-5.045034 2.616877,-4.186978 8.355541,2.194902 8.736899,9.551595 3.140201,13.215641 1.676541,-3.344985 1.247277,-9.252516 -5.757078,-9.028272 z"
     style="fill:#000000;fill-opacity:1;fill-rule:evenodd;stroke:none;stroke-width:1.30602241"
     inkscape:connector-curvature="0" />
  <path
     id="path3267"
     d="m 54.43101,70.79864 c 0,6.334339 -5.135149,11.469489 -11.469619,11.469489 -6.33447,0 -11.469619,-5.13515 -11.469619,-11.469489 0,-6.334339 5.135149,-11.469489 11.469619,-11.469489 6.33447,0 11.469619,5.13515 11.469619,11.469489 z"
     stroke-miterlimit="4"
     style="fill:#ff8080;fill-opacity:1;fill-rule:nonzero;stroke:#000000;stroke-width:1.30602241;stroke-linecap:round;stroke-linejoin:round;stroke-miterlimit:4;stroke-dasharray:none;stroke-opacity:1"
     inkscape:connector-curvature="0" />
  <path
     id="path3269"
     d="m 40.743896,65.796574 c -1.250582,0.03997 -0.649302,-5.045034 2.616877,-4.186977 8.35554,2.194901 8.736898,9.551595 3.1402,13.21564 1.676541,-3.344984 1.247277,-9.252515 -5.757077,-9.028271 z"
     style="fill:#000000;fill-opacity:1;fill-rule:evenodd;stroke:none;stroke-width:1.30602241"
     inkscape:connector-curvature="0" />
  <path
     id="path3273"
     d="m 70.873833,54.277456 c 0,6.33434 -5.13515,11.469489 -11.46962,11.469489 -6.334469,0 -11.469619,-5.135149 -11.469619,-11.469489 0,-6.334339 5.13515,-11.469488 11.469619,-11.469488 6.33447,0 11.46962,5.135149 11.46962,11.469488 z"
     stroke-miterlimit="4"
     style="fill:#ff8080;fill-opacity:1;fill-rule:nonzero;stroke:#000000;stroke-width:1.30602241;stroke-linecap:round;stroke-linejoin:round;stroke-miterlimit:4;stroke-dasharray:none;stroke-opacity:1"
     inkscape:connector-curvature="0" />
  <path
     id="path3275"
     d="m 57.186718,49.275391 c -1.250582,0.03997 -0.649303,-5.045034 2.616876,-4.186977 8.35554,2.1949 8.736899,9.551594 3.140201,13.21564 1.676541,-3.344984 1.247277,-9.252515 -5.757077,-9.028272 z"
     style="fill:#000000;fill-opacity:1;fill-rule:evenodd;stroke:none;stroke-width:1.30602241"
     inkscape:connector-curvature="0" />
  <path
     id="path3279"
     d="m 92.932551,62.466217 c 0,6.334339 -5.13515,11.469488 -11.46962,11.469488 -6.33447,0 -11.469619,-5.135149 -11.469619,-11.469488 0,-6.33434 5.135149,-11.469489 11.469619,-11.469489 6.33447,0 11.46962,5.135149 11.46962,11.469489 z"
     stroke-miterlimit="4"
     style="fill:#ff8080;fill-opacity:1;fill-rule:nonzero;stroke:#000000;stroke-width:1.30602241;stroke-linecap:round;stroke-linejoin:round;stroke-miterlimit:4;stroke-dasharray:none;stroke-opacity:1"
     inkscape:connector-curvature="0" />
  <path
     id="path3281"
     d="m 79.245436,57.464151 c -1.250582,0.03997 -0.649303,-5.045034 2.616877,-4.186977 8.35554,2.194901 8.736898,9.551594 3.1402,13.215641 1.676541,-3.344985 1.247278,-9.252516 -5.757077,-9.028272 z"
     style="fill:#000000;fill-opacity:1;fill-rule:evenodd;stroke:none;stroke-width:1.30602241"
     inkscape:connector-curvature="0" />
  <path
     id="path3285"
     d="m 115.06963,69.714641 c 0,6.334339 -5.13515,11.469489 -11.46961,11.469489 -6.334479,0 -11.469628,-5.13515 -11.469628,-11.469489 0,-6.334339 5.135149,-11.469489 11.469628,-11.469489 6.33446,0 11.46961,5.13515 11.46961,11.469489 z"
     stroke-miterlimit="4"
     style="fill:#ff8080;fill-opacity:1;fill-rule:nonzero;stroke:#000000;stroke-width:1.30602241;stroke-linecap:round;stroke-linejoin:round;stroke-miterlimit:4;stroke-dasharray:none;stroke-opacity:1"
     inkscape:connector-curvature="0" />
  <path
     id="path3287"
     d="m 101.38252,64.712575 c -1.25059,0.03997 -0.64931,-5.045033 2.61688,-4.186977 8.35553,2.194901 8.73689,9.551595 3.1402,13.215641 1.67653,-3.344985 1.24727,-9.252516 -5.75708,-9.028272 z"
     style="fill:#000000;fill-opacity:1;fill-rule:evenodd;stroke:none;stroke-width:1.30602241"
     inkscape:connector-curvature="0" />
  <path
     id="path3375"
     d="m 49.912173,158.1846 c 0,6.33434 -5.13515,11.46949 -11.469619,11.46949 -6.334471,0 -11.46962,-5.13515 -11.46962,-11.46949 0,-6.33434 5.135149,-11.46949 11.46962,-11.46949 6.334469,0 11.469619,5.13515 11.469619,11.46949 z"
     stroke-miterlimit="4"
     style="fill:#ff8080;fill-opacity:1;fill-rule:nonzero;stroke:#000000;stroke-width:1.30602241;stroke-linecap:round;stroke-linejoin:round;stroke-miterlimit:4;stroke-dasharray:none;stroke-opacity:1"
     inkscape:connector-curvature="0" />
  <path
     id="path3377"
     d="m 36.225058,153.18254 c -1.250582,0.04 -0.649302,-5.04504 2.616877,-4.18699 8.35554,2.19491 8.736898,9.5516 3.140201,13.21565 1.676541,-3.34498 1.247277,-9.25252 -5.757078,-9.02828 z"
     style="fill:#000000;fill-opacity:1;fill-rule:evenodd;stroke:none;stroke-width:1.30602241"
     inkscape:connector-curvature="0" />
  <path
     id="path3381"
     d="m 37.087033,113.29661 c 0,6.33434 -5.13515,11.46949 -11.46962,11.46949 -6.33447,0 -11.469619,-5.13515 -11.469619,-11.46949 0,-6.33433 5.135149,-11.46948 11.469619,-11.46948 6.33447,0 11.46962,5.13515 11.46962,11.46948 z"
     stroke-miterlimit="4"
     style="fill:#ff8080;fill-opacity:1;fill-rule:nonzero;stroke:#000000;stroke-width:1.30602241;stroke-linecap:round;stroke-linejoin:round;stroke-miterlimit:4;stroke-dasharray:none;stroke-opacity:1"
     inkscape:connector-curvature="0" />
  <path
     id="path3383"
     d="m 23.399918,108.29454 c -1.250582,0.04 -0.649303,-5.04503 2.616878,-4.18697 8.355539,2.1949 8.736897,9.55159 3.140199,13.21564 1.676541,-3.34498 1.247278,-9.25252 -5.757077,-9.02827 z"
     style="fill:#000000;fill-opacity:1;fill-rule:evenodd;stroke:none;stroke-width:1.30602241"
     inkscape:connector-curvature="0" />
  <path
     id="path3387"
     d="m 114.3252,186.66895 c 0,6.33434 -5.13515,11.46949 -11.46962,11.46949 -6.334472,0 -11.469621,-5.13515 -11.469621,-11.46949 0,-6.33434 5.135149,-11.46949 11.469621,-11.46949 6.33447,0 11.46962,5.13515 11.46962,11.46949 z"
     stroke-miterlimit="4"
     style="fill:#ff8080;fill-opacity:1;fill-rule:nonzero;stroke:#000000;stroke-width:1.30602241;stroke-linecap:round;stroke-linejoin:round;stroke-miterlimit:4;stroke-dasharray:none;stroke-opacity:1"
     inkscape:connector-curvature="0" />
  <path
     id="path3389"
     d="m 100.63808,181.66688 c -1.250579,0.04 -0.6493,-5.04503 2.61688,-4.18697 8.35554,2.1949 8.7369,9.55159 3.1402,13.21564 1.67654,-3.34499 1.24728,-9.25252 -5.75708,-9.02827 z"
     style="fill:#000000;fill-opacity:1;fill-rule:evenodd;stroke:none;stroke-width:1.30602241"
     inkscape:connector-curvature="0" />
  <path
     id="path3399"
     d="m 138.73476,96.749309 c 0,6.334331 -5.13516,11.469481 -11.46962,11.469481 -6.33447,0 -11.46963,-5.13515 -11.46963,-11.469481 0,-6.334343 5.13516,-11.469493 11.46963,-11.469493 6.33446,0 11.46962,5.13515 11.46962,11.469493 z"
     stroke-miterlimit="4"
     style="fill:#ffaaaa;fill-rule:nonzero;stroke:#000000;stroke-width:1.30602241;stroke-linecap:round;stroke-linejoin:round;stroke-miterlimit:4;stroke-dasharray:none;stroke-opacity:1"
     inkscape:connector-curvature="0" />
  <path
     id="path3401"
     d="m 125.04764,91.747239 c -1.25058,0.03997 -0.6493,-5.045034 2.61688,-4.186977 8.35554,2.194901 8.7369,9.551599 3.1402,13.215648 1.67654,-3.344988 1.24728,-9.252523 -5.75708,-9.028279 z"
     style="fill:#000000;fill-opacity:1;fill-rule:evenodd;stroke:none;stroke-width:1.30602241"
     inkscape:connector-curvature="0" />
  <path
     id="path3243-2"
     d="m 213.03438,137.1707 c 0,6.33433 5.13515,11.46949 11.46962,11.46949 6.33447,0 11.46962,-5.13516 11.46962,-11.46949 0,-6.33434 -5.13515,-11.46949 -11.46962,-11.46949 -6.33447,0 -11.46962,5.13515 -11.46962,11.46949 z"
     stroke-miterlimit="4"
     style="fill:#ff8080;fill-opacity:1;fill-rule:nonzero;stroke:#000000;stroke-width:1.30602241;stroke-linecap:round;stroke-linejoin:round;stroke-miterlimit:4;stroke-dasharray:none;stroke-opacity:1"
     inkscape:connector-curvature="0" />
  <path
     id="path3247-2"
     d="m 226.72149,132.16864 c 1.25059,0.0399 0.6493,-5.04504 -2.61687,-4.18699 -8.35554,2.19491 -8.73691,9.5516 -3.14021,13.21565 -1.67654,-3.34499 -1.24727,-9.25252 5.75708,-9.02828 z"
     style="fill:#000000;fill-opacity:1;fill-rule:evenodd;stroke:none;stroke-width:1.30602241"
     inkscape:connector-curvature="0" />
  <path
     id="path3363-6"
     d="m 163.48389,183.39083 c 0,6.33434 5.13515,11.46949 11.46962,11.46949 6.33447,0 11.46962,-5.13515 11.46962,-11.46949 0,-6.33434 -5.13515,-11.46948 -11.46962,-11.46948 -6.33447,0 -11.46962,5.13514 -11.46962,11.46948 z"
     stroke-miterlimit="4"
     style="fill:#ff8080;fill-opacity:1;fill-rule:nonzero;stroke:#000000;stroke-width:1.30602241;stroke-linecap:round;stroke-linejoin:round;stroke-miterlimit:4;stroke-dasharray:none;stroke-opacity:1"
     inkscape:connector-curvature="0" />
  <path
     id="path3365-4"
     d="m 177.171,178.38877 c 1.25058,0.04 0.64931,-5.04503 -2.61688,-4.18698 -8.35553,2.1949 -8.73689,9.55159 -3.14019,13.21564 -1.67654,-3.34498 -1.24729,-9.25252 5.75707,-9.02827 z"
     style="fill:#000000;fill-opacity:1;fill-rule:evenodd;stroke:none;stroke-width:1.30602241"
     inkscape:connector-curvature="0" />
  <path
     id="path3369-5"
     d="m 184.30189,171.63663 c 0,6.33434 5.13515,11.46949 11.46961,11.46949 6.33448,0 11.46963,-5.13515 11.46963,-11.46949 0,-6.33433 -5.13515,-11.46948 -11.46963,-11.46948 -6.33446,0 -11.46961,5.13515 -11.46961,11.46948 z"
     stroke-miterlimit="4"
     style="fill:#ff8080;fill-opacity:1;fill-rule:nonzero;stroke:#000000;stroke-width:1.30602241;stroke-linecap:round;stroke-linejoin:round;stroke-miterlimit:4;stroke-dasharray:none;stroke-opacity:1"
     inkscape:connector-curvature="0" />
  <path
     id="path3371-3"
     d="m 198.00206,166.64762 c 1.25059,0.04 0.6493,-5.04503 -2.61688,-4.18697 -8.35553,2.1949 -8.7369,9.5516 -3.1402,13.21564 -1.67654,-3.34499 -1.24727,-9.25251 5.75708,-9.02827 z"
     style="fill:#000000;fill-opacity:1;fill-rule:evenodd;stroke:none;stroke-width:1.30602241"
     inkscape:connector-curvature="0" />
  <path
     id="path3261-5"
     d="m 212.1071,90.989746 c 0,6.334343 5.13515,11.469494 11.46963,11.469494 6.33446,0 11.46961,-5.135151 11.46961,-11.469494 0,-6.334339 -5.13515,-11.469488 -11.46961,-11.469488 -6.33448,0 -11.46963,5.135149 -11.46963,11.469488 z"
     stroke-miterlimit="4"
     style="fill:#ff8080;fill-opacity:1;fill-rule:nonzero;stroke:#000000;stroke-width:1.30602241;stroke-linecap:round;stroke-linejoin:round;stroke-miterlimit:4;stroke-dasharray:none;stroke-opacity:1"
     inkscape:connector-curvature="0" />
  <path
     id="path3263-3"
     d="m 225.79421,85.987681 c 1.25059,0.03997 0.64931,-5.045035 -2.61687,-4.186978 -8.35554,2.194901 -8.7369,9.551595 -3.1402,13.215641 -1.67654,-3.344985 -1.24728,-9.252516 5.75707,-9.028272 z"
     style="fill:#000000;fill-opacity:1;fill-rule:evenodd;stroke:none;stroke-width:1.30602241"
     inkscape:connector-curvature="0" />
  <path
     id="path3267-6"
     d="m 199.41256,71.307989 c 0,6.334339 5.13515,11.469489 11.46962,11.469489 6.33447,0 11.46962,-5.13515 11.46962,-11.469489 0,-6.334339 -5.13515,-11.469489 -11.46962,-11.469489 -6.33447,0 -11.46962,5.13515 -11.46962,11.469489 z"
     stroke-miterlimit="4"
     style="fill:#ff8080;fill-opacity:1;fill-rule:nonzero;stroke:#000000;stroke-width:1.30602241;stroke-linecap:round;stroke-linejoin:round;stroke-miterlimit:4;stroke-dasharray:none;stroke-opacity:1"
     inkscape:connector-curvature="0" />
  <path
     id="path3269-6"
     d="m 213.09968,66.305923 c 1.25058,0.03997 0.6493,-5.045034 -2.61687,-4.186977 -8.35555,2.194901 -8.73691,9.551595 -3.14021,13.21564 -1.67654,-3.344984 -1.24727,-9.252516 5.75708,-9.028271 z"
     style="fill:#000000;fill-opacity:1;fill-rule:evenodd;stroke:none;stroke-width:1.30602241"
     inkscape:connector-curvature="0" />
  <path
     id="path3273-3"
     d="m 182.96974,54.786806 c 0,6.334339 5.13515,11.469488 11.46963,11.469488 6.33446,0 11.46961,-5.135149 11.46961,-11.469488 0,-6.33434 -5.13515,-11.469489 -11.46961,-11.469489 -6.33448,0 -11.46963,5.135149 -11.46963,11.469489 z"
     stroke-miterlimit="4"
     style="fill:#ff8080;fill-opacity:1;fill-rule:nonzero;stroke:#000000;stroke-width:1.30602241;stroke-linecap:round;stroke-linejoin:round;stroke-miterlimit:4;stroke-dasharray:none;stroke-opacity:1"
     inkscape:connector-curvature="0" />
  <path
     id="path3275-7"
     d="m 196.65685,49.78474 c 1.25059,0.03997 0.64931,-5.045035 -2.61687,-4.186977 -8.35554,2.1949 -8.7369,9.551594 -3.1402,13.21564 -1.67654,-3.344984 -1.24728,-9.252516 5.75707,-9.028272 z"
     style="fill:#000000;fill-opacity:1;fill-rule:evenodd;stroke:none;stroke-width:1.30602241"
     inkscape:connector-curvature="0" />
  <path
     id="path3279-6"
     d="m 160.91102,62.975566 c 0,6.334339 5.13515,11.469488 11.46962,11.469488 6.33447,0 11.46962,-5.135149 11.46962,-11.469488 0,-6.33434 -5.13515,-11.469489 -11.46962,-11.469489 -6.33447,0 -11.46962,5.135149 -11.46962,11.469489 z"
     stroke-miterlimit="4"
     style="fill:#ff8080;fill-opacity:1;fill-rule:nonzero;stroke:#000000;stroke-width:1.30602241;stroke-linecap:round;stroke-linejoin:round;stroke-miterlimit:4;stroke-dasharray:none;stroke-opacity:1"
     inkscape:connector-curvature="0" />
  <path
     id="path3281-7"
     d="m 174.59814,57.9735 c 1.25058,0.03996 0.6493,-5.045034 -2.61688,-4.186977 -8.35554,2.1949 -8.7369,9.551594 -3.1402,13.21564 -1.67654,-3.344984 -1.24727,-9.252515 5.75708,-9.028271 z"
     style="fill:#000000;fill-opacity:1;fill-rule:evenodd;stroke:none;stroke-width:1.30602241"
     inkscape:connector-curvature="0" />
  <path
     id="path3285-5"
     d="m 138.76088,70.22399 c 0,6.33434 5.13515,11.469489 11.46962,11.469489 6.33447,0 11.46962,-5.135149 11.46962,-11.469489 0,-6.334339 -5.13515,-11.469489 -11.46962,-11.469489 -6.33447,0 -11.46962,5.13515 -11.46962,11.469489 z"
     stroke-miterlimit="4"
     style="fill:#ff8080;fill-opacity:1;fill-rule:nonzero;stroke:#000000;stroke-width:1.30602241;stroke-linecap:round;stroke-linejoin:round;stroke-miterlimit:4;stroke-dasharray:none;stroke-opacity:1"
     inkscape:connector-curvature="0" />
  <path
     id="path3287-1"
     d="m 152.46106,65.221924 c 1.25058,0.03997 0.6493,-5.045034 -2.61688,-4.186977 -8.35554,2.194901 -8.7369,9.551595 -3.1402,13.215641 -1.67654,-3.344985 -1.24728,-9.252517 5.75708,-9.028272 z"
     style="fill:#000000;fill-opacity:1;fill-rule:evenodd;stroke:none;stroke-width:1.30602241"
     inkscape:connector-curvature="0" />
  <path
     id="path3375-5"
     d="m 203.9314,158.69395 c 0,6.33434 5.13515,11.46949 11.46962,11.46949 6.33447,0 11.46962,-5.13515 11.46962,-11.46949 0,-6.33434 -5.13515,-11.46949 -11.46962,-11.46949 -6.33447,0 -11.46962,5.13515 -11.46962,11.46949 z"
     stroke-miterlimit="4"
     style="fill:#ff8080;fill-opacity:1;fill-rule:nonzero;stroke:#000000;stroke-width:1.30602241;stroke-linecap:round;stroke-linejoin:round;stroke-miterlimit:4;stroke-dasharray:none;stroke-opacity:1"
     inkscape:connector-curvature="0" />
  <path
     id="path3377-9"
     d="m 217.61852,153.69188 c 1.25058,0.04 0.6493,-5.04503 -2.61688,-4.18697 -8.35554,2.1949 -8.7369,9.55159 -3.1402,13.21564 -1.67654,-3.34499 -1.24728,-9.25252 5.75708,-9.02827 z"
     style="fill:#000000;fill-opacity:1;fill-rule:evenodd;stroke:none;stroke-width:1.30602241"
     inkscape:connector-curvature="0" />
  <path
     id="path3381-7"
     d="m 216.74348,113.80595 c 0,6.33435 5.13515,11.4695 11.46962,11.4695 6.33447,0 11.46962,-5.13515 11.46962,-11.4695 0,-6.33433 -5.13515,-11.46948 -11.46962,-11.46948 -6.33447,0 -11.46962,5.13515 -11.46962,11.46948 z"
     stroke-miterlimit="4"
     style="fill:#ff8080;fill-opacity:1;fill-rule:nonzero;stroke:#000000;stroke-width:1.30602241;stroke-linecap:round;stroke-linejoin:round;stroke-miterlimit:4;stroke-dasharray:none;stroke-opacity:1"
     inkscape:connector-curvature="0" />
  <path
     id="path3383-5"
     d="m 230.44366,108.80389 c 1.25058,0.04 0.64929,-5.04503 -2.61688,-4.18697 -8.35554,2.1949 -8.7369,9.55159 -3.1402,13.21564 -1.67655,-3.34499 -1.24728,-9.25252 5.75708,-9.02827 z"
     style="fill:#000000;fill-opacity:1;fill-rule:evenodd;stroke:none;stroke-width:1.30602241"
     inkscape:connector-curvature="0" />
  <path
     id="path3387-9"
     d="m 140.01466,187.1783 c 0,6.33433 5.13516,11.46948 11.46962,11.46948 6.33448,0 11.46963,-5.13515 11.46963,-11.46948 0,-6.33434 -5.13515,-11.46949 -11.46963,-11.46949 -6.33446,0 -11.46962,5.13515 -11.46962,11.46949 z"
     stroke-miterlimit="4"
     style="fill:#ff8080;fill-opacity:1;fill-rule:nonzero;stroke:#000000;stroke-width:1.30602241;stroke-linecap:round;stroke-linejoin:round;stroke-miterlimit:4;stroke-dasharray:none;stroke-opacity:1"
     inkscape:connector-curvature="0" />
  <path
     id="path3389-0"
     d="m 153.71484,182.17623 c 1.25059,0.04 0.6493,-5.04503 -2.61688,-4.18698 -8.35554,2.19491 -8.7369,9.5516 -3.1402,13.21565 -1.67654,-3.34499 -1.24727,-9.25252 5.75708,-9.02828 z"
     style="fill:#000000;fill-opacity:1;fill-rule:evenodd;stroke:none;stroke-width:1.30602241"
     inkscape:connector-curvature="0" />
</svg>
