<?xml version="1.0" encoding="UTF-8" standalone="no"?>
<!-- Created with Inkscape (http://www.inkscape.org/) -->

<svg
   xmlns:dc="http://purl.org/dc/elements/1.1/"
   xmlns:cc="http://creativecommons.org/ns#"
   xmlns:rdf="http://www.w3.org/1999/02/22-rdf-syntax-ns#"
   xmlns:svg="http://www.w3.org/2000/svg"
   xmlns="http://www.w3.org/2000/svg"
   xmlns:xlink="http://www.w3.org/1999/xlink"
   xmlns:sodipodi="http://sodipodi.sourceforge.net/DTD/sodipodi-0.dtd"
   xmlns:inkscape="http://www.inkscape.org/namespaces/inkscape"
   viewBox="0 0 256 256"
   id="svg4166"
   version="1.1"
   inkscape:version="0.92.3 (2405546, 2018-03-11)"
   sodipodi:docname="tied_shirt.svg">
  <style
     id="style3">
    svg { cursor: default; }
  </style>
  <defs
     id="defs4168">
    <clipPath
       clipPathUnits="userSpaceOnUse"
       id="clipPath830">
      <use
         x="0"
         y="0"
         xlink:href="#g826"
         id="use832"
         width="100%"
         height="100%" />
    </clipPath>
  </defs>
  <sodipodi:namedview
     id="base"
     pagecolor="#ffffff"
     bordercolor="#666666"
     borderopacity="1.0"
     inkscape:pageopacity="0.0"
     inkscape:pageshadow="2"
     inkscape:zoom="1.979899"
     inkscape:cx="-78.244345"
     inkscape:cy="149.05797"
     inkscape:document-units="px"
     inkscape:current-layer="g828"
     showgrid="false"
     units="px"
     inkscape:window-width="1920"
     inkscape:window-height="1001"
     inkscape:window-x="-9"
     inkscape:window-y="-9"
     inkscape:window-maximized="1" />
  <metadata
     id="metadata4171">
    <rdf:RDF>
      <cc:Work
         rdf:about="">
        <dc:format>image/svg+xml</dc:format>
        <dc:type
           rdf:resource="http://purl.org/dc/dcmitype/StillImage" />
        <dc:title />
      </cc:Work>
    </rdf:RDF>
  </metadata>
  <g
     inkscape:label="Layer 1"
     inkscape:groupmode="layer"
     id="layer1"
     transform="translate(0,-796.36216)"
     style="display:inline">
    <path
       style="fill:#000000;stroke-width:0.39108378"
       d="m 137.16169,1040.2777 c -1.07441,-12.2646 -4.09234,-24.6696 -0.7103,-36.8546 2.56921,-5.49072 2.33437,-14.60652 -5.16247,-7.43822 -11.10264,4.88642 -23.16118,7.28942 -34.79764,10.14552 -15.399369,-2.745 1.32503,-21.42372 -7.118924,-29.59462 3.21508,-10.58922 -4.745462,-19.20237 -7.120737,-28.90371 -4.108139,-13.02062 -6.363934,-26.60465 -11.450628,-39.31744 -6.627184,7.66945 -11.577515,22.69481 -23.525223,21.3948 -10.60373,-3.26458 -22.02013,-7.80896 -28.788969,-17.05454 -8.5311802,-9.49211 -5.096487,-20.14791 4.247013,-27.0025 8.028911,-12.17116 18.893181,-21.98863 27.60645,-33.66632 8.199736,-11.04988 21.907176,-14.12948 34.615655,-16.07234 4.059442,-0.42512 18.115363,-4.84144 33.007183,-7.72162 4.03606,-0.78059 14.58168,-2.29319 19.35624,-2.91614 3.04993,-0.39792 4.24831,-0.13079 4.24831,-0.13079 -0.19866,0.15704 5.50233,1.58699 -3.99208,0.73372 -0.31131,-0.028 2.81404,-0.0584 2.46163,-0.0914 -0.37841,-0.0354 -0.82672,0.0997 -1.47365,0.21732 -0.72586,0.13198 -1.66339,0.25469 -2.27958,0.34067 -2.34065,0.3266 -4.42962,0.60938 -6.77668,1.12227 -5.75178,1.25692 -11.32112,2.44488 -10.80041,2.43757 1.13796,-0.016 -8.08281,2.82073 -7.14687,3.0093 1.8719,13.41018 7.40459,28.84576 18.32461,37.37763 6.5702,4.09435 11.32888,14.01616 16.502,16.93321 2.48444,-13.67751 19.45924,-21.67845 15.20837,-36.80432 -0.4209,-2.44117 -1.67828,-7.61612 -4.14877,-11.27296 -1.45562,-2.1546 -3.69592,-7.17233 -7.54894,-9.81692 -2.78106,-1.90883 -8.76389,-3.37355 -10.03906,-4.01548 -0.28544,-0.1437 0.81261,-0.24841 1.73098,-0.18761 3.56246,0.23581 14.14353,3.59677 16.21796,3.49018 9.95345,3.82424 14.433,12.12194 23.62407,15.73438 10.56722,2.95089 21.75026,6.02131 30.45301,13.06971 6.53497,8.91022 7.94424,20.43359 11.58598,30.6942 -2.70916,-4.92676 3.94775,12.82444 5.57063,15.88969 7.95922,8.66772 2.66004,21.48523 -7.45656,25.27208 -11.69598,3.00333 -22.05571,10.98753 -22.76404,24.09036 1.15788,7.01268 4.19894,16.42501 0.3982,21.5149 7.49062,5.0607 10.38096,23.0493 -2.97994,20.587 -7.66572,0.981 -25.82579,-9.7023 -17.93355,4.75252 0.98244,10.7996 5.12279,26.9791 -3.57214,34.5283 -8.61648,-11.1096 -7.63436,-27.669 -12.97856,-40.74612 -2.76064,-3.9573 -13.97258,1.96 -10.03631,9.01942 -0.42723,13.532 -5.13024,26.8049 -12.5412,37.8694 l -0.88175,0.016 z m 5.72587,-10.6375 c 6.7831,-9.1878 7.75483,-29.4604 6.4469,-35.65662 -0.55986,10.63912 -0.97654,21.86152 -5.69066,31.56662 0.14925,-5.4632 3.37068,-14.522 3.50352,-21.5503 0.91289,-4.63075 1.1818,-19.75762 3.08892,-16.92852 2.35086,2.8842 -0.0759,-11.7841 2.11743,-2.6504 -1.45194,9.6139 9.52206,9.1867 9.22927,0.3691 2.90019,-7.3114 0.44664,11.7353 3.5689,14.73737 4.09422,9.97795 3.68008,21.11915 8.55154,30.90055 3.73377,10.0369 4.9528,-9.034 3.21034,-13.3874 -0.95437,-5.0038 -7.20806,-20.18102 -8.40936,-18.42372 2.08866,5.78582 7.39634,19.42862 5.46607,20.95522 -3.70667,-10.4658 -6.53588,-21.37152 -9.42879,-31.92692 6.24354,5.9925 10.36327,22.16832 13.97911,23.88122 -1.72375,-10.3763 -9.43502,-18.85422 -14.24396,-28.15132 0.45663,-4.8977 7.85323,10.7222 9.88014,14.3669 5.4765,7.83732 -0.97963,-8.488 -3.3111,-11.2149 -3.48835,-5.882 9.56255,3.5219 13.86482,2.2897 2.52741,1.7478 20.39619,0.9068 13.1636,2.8521 -6.76058,2.7487 -21.10108,-5.9068 -23.04699,-2.7392 8.60245,2.8414 20.87898,7.6603 28.59702,1.8664 1.71572,-10.9781 -13.68445,-15.8964 -3.76766,-25.99118 -1.15022,-2.82018 -4.04561,-1.71138 -4.46188,-3.50055 -0.16617,-0.71431 0.0628,-1.89054 0.95577,-3.9632 2.09539,-14.88338 12.55841,-28.35882 7.10412,-43.63041 -4.60114,-9.99915 -11.15844,-20.45271 -10.28402,-31.77693 3.15679,10.75285 7.48534,21.53503 12.09775,31.95157 3.60833,6.49881 0.56108,15.19431 0.87223,20.85172 8.69344,-5.60753 22.71086,-7.85575 24.68126,-19.81863 0.0581,-10.40845 -8.97107,-18.17914 -10.04307,-28.67008 -3.3618,-10.34006 -4.62953,-23.00023 -13.78657,-30.03729 -9.54537,-2.98852 -20.46613,-11.15187 -29.95488,-8.70527 -1.11743,6.14216 6.10375,23.27756 4.47692,24.4019 1.72135,-1.23477 -5.14726,2.08363 -2.3636,-7.39586 -3.07119,-9.25557 -2.05555,-21.43123 -10.91214,-27.46369 -10.23135,-8.42985 -13.92779,-8.3487 -14.44436,-5.91684 4.94404,3.25621 9.70941,17.17407 9.73002,26.05602 1.04541,4.91109 -9.03472,12.41513 -0.39077,7.31806 7.08257,-2.11122 12.85606,5.66765 18.38085,7.40231 -8.07544,-1.86257 -19.85594,-11.29672 -25.29353,1.37846 -7.04728,5.37923 -9.91538,22.50589 -10.36941,24.97104 0.20894,-12.35251 -9.79108,-20.48119 -18.22978,-27.7992 -10.14297,-7.80013 -15.29277,-19.59803 -16.712,-31.98756 -5.55942,-6.88589 -18.78773,-6.60093 -12.90365,8.37622 1.96654,5.21076 6.15053,24.66963 3.66216,28.86373 -1.38238,-11.32082 -3.32699,-31.68512 -8.350017,-39.35882 -13.228331,3.15921 -28.859078,2.77149 -38.547525,13.84394 -7.720385,8.00179 -13.988324,17.3346 -21.970268,25.0671 -3.764377,10.65394 -19.911678,17.08618 -17.492786,28.27523 5.163362,13.30874 18.578904,20.07599 31.395347,24.33497 10.385856,3.54815 14.213072,-11.47788 19.673372,-15.27522 3.348718,-6.19493 8.773281,-19.22748 13.904257,-18.84096 -12.660106,8.19393 -4.391284,21.54553 -1.688528,32.66521 3.342425,13.09202 6.394682,26.61787 13.912016,38.03689 -3.889277,4.96797 2.333159,14.37562 10.725132,15.32052 4.00286,1.3154 21.32457,4.2657 8.65865,3.4735 -7.36268,2.1557 -17.760843,-8.3662 -20.968391,-6.2385 -0.04271,7.565 20.667281,10.1558 6.589321,8.066 -8.30488,2.5231 -4.436475,15.58872 4.10393,9.1432 10.17859,0.4116 30.19184,-7.0574 33.61096,-6.1219 -6.80439,3.0143 -5.40147,0.2788 1.20006,0.2854 -0.76523,0.7705 -6.58401,3.7358 -1.11408,1.3254 -6.31032,4.02 -18.34133,8.4156 -22.76658,8.488 2.94634,-2.9592 14.59871,-4.6925 13.0126,-6.649 -7.74744,2.4751 -25.5071,7.65047 -27.70642,5.4335 2.53243,-3.3564 -12.244252,3.19412 -3.454362,6.87062 13.921922,-1.1507 27.406812,-6.30502 40.365232,-11.41642 6.53714,0.3535 8.91633,-13.7009 11.2591,-11.3629 -5.73039,12.6637 -9.78027,26.30952 -9.14047,40.31032 -0.49703,-4.4299 3.35967,-20.5376 2.53891,-7.9458 -0.40438,6.029 -2.59426,20.3513 0.78334,20.7673 0.8634,-1.5814 1.78953,-3.1351 2.88672,-4.5678 z m -2.09782,-0.1787 c -3.23668,-10.7367 2.50084,-21.5587 3.14343,-32.31762 3.76235,-11.907 0.34464,8.32332 -0.42058,11.82512 -1.12651,6.7987 -2.16311,13.6204 -2.72285,20.4925 z M 96.23766,992.38198 c 8.61657,-3.173 18.94735,-2.5759 27.9432,-5.8248 4.68338,-2.0217 18.99065,-3.8375 7.07218,-0.1377 -11.39702,2.8404 -23.18284,6.6453 -35.01538,5.9625 z m 58.43942,-2.8908 c 0.47807,-0.894 0.52324,-1.8159 0.4725,-2.7301 -0.28402,-5.1165 -6.7492,-9.9916 2.74061,-8.3827 7.28694,0.694 -8.92907,1.6413 -1.43077,8.0096 0.80583,1.5094 1.43614,5.9595 -1.78234,3.1032 z m 2.74032,0.8158 c 2.14483,-4.328 3.47486,-13.2104 3.37083,-3.2606 -0.32812,1.5552 -1.44623,3.6074 -3.37083,3.2606 z m 36.30577,-1.3997 c 7.74428,-1.6564 6.71428,0.6461 0,0 z m -91.49925,-0.8366 c -13.834268,-2.7888 16.3827,-1.2667 10.48048,-0.8602 -3.4257,1.0753 -6.94566,1.5714 -10.48048,0.8602 z m 85.86385,-2.3982 c -6.92181,-2.1527 17.0211,0.976 4.20286,0.2664 l -2.10411,-0.093 z m -16.2732,-3.0329 c 3.90753,-1.7863 13.22881,-2.5983 21.02026,-3.7638 -2.35738,3.8325 -14.69139,3.4097 -21.02026,3.7638 z m -25.02514,-0.3723 c 2.31021,-2.4461 4.53445,-0.8148 0,0 z m -24.43904,-0.2525 c -4.76686,-0.711 -19.6609,-3.7035 -17.51625,-4.0963 12.02286,3.5548 -14.534595,-7.46202 -1.80795,-3.4233 9.88828,3.5623 19.70212,7.9331 30.46533,5.45 9.31945,1.2989 -10.19413,2.8605 -11.14113,2.0696 z m 43.4604,-1.6696 c 7.53528,-3.6073 16.37076,-3.2567 23.80819,-7.1773 -6.04517,5.8187 -15.80392,6.72 -23.80819,7.1773 z m -17.25779,-0.5975 c 2.2759,-5.3891 7.4656,-6.9777 8.49159,-2.6921 -3.23129,-0.8542 -4.83544,4.3472 -8.49159,2.6921 z m -14.76341,-1.8407 c -4.76388,-0.1981 -8.09874,-1.497 -1.3912,-0.7945 8.80059,-0.1306 12.60085,2.0374 1.3912,0.7945 z m 34.74754,0.2743 c 8.80429,-2.2938 26.90298,-9.3391 29.32824,-10.09354 -9.12597,4.83084 -19.23632,8.30924 -29.32824,10.09354 z m -45.27536,-2.7498 c -8.56341,-1.9899 -22.29919,-8.79411 -25.90143,-11.80268 10.29816,5.66852 21.87116,10.29918 33.70514,10.97358 5.54522,0.2617 18.02914,-0.9908 17.63306,0.8628 -8.3962,1.2648 -16.99168,0.1122 -25.43677,-0.034 z m 33.01514,-0.078 c 1.88343,-0.9707 0.64685,0.8093 0,0 z m 4.94663,-0.1963 c 8.3547,-4.41348 18.6445,-2.55576 26.87186,-7.74552 8.63802,-3.2752 -9.1805,4.10873 0.80446,1.08984 11.19821,-2.07705 -8.1407,4.18757 -11.81392,4.39758 -5.21028,1.1888 -10.50746,2.1315 -15.8624,2.2581 z m -0.54694,-2.77437 c 9.91668,-3.35589 24.09915,-13.37069 29.69099,-15.87824 -3.53665,3.52629 -18.37404,10.08875 -15.55043,10.88551 3.76272,-1.68651 21.62666,-5.13333 9.77169,-1.49586 -7.85948,2.52718 -15.70491,5.31706 -23.91225,6.48859 z m -8.42247,-2.34326 c -5.6084,-8.65715 -1.40947,-20.33151 2.60407,-29.10845 4.45771,-10.52886 1.54383,-21.94157 -4.13154,-31.37562 -3.41692,-4.95868 -5.07982,-20.196 -0.93407,-7.46369 4.55011,11.32448 12.49815,22.99942 7.66993,35.65579 -3.95603,10.87149 -8.02739,21.92512 -3.56232,33.29843 0.17998,1.37145 -2.84963,-1.25491 -1.64607,-1.00646 z m -51.37258,0.84416 c -5.434553,-3.39512 7.16625,3.12777 0,0 z m 55.00086,-4.50196 c -1.96632,-5.42899 6.16529,-18.43196 1.91519,-6.41605 -0.5949,0.59789 -0.0854,10.52372 -1.91519,6.41605 z m -38.20827,-3.50228 c -4.26864,-0.63778 -21.33258,-5.85116 -8.18522,-5.81815 13.90056,-0.95694 24.96816,-10.61626 38.1075,-14.15031 -9.69067,5.8212 -20.02245,10.99286 -30.75958,14.45199 -5.80495,0.0344 -11.81408,2.63156 -2.40346,3.95828 3.91885,0.90567 12.63746,3.65026 3.24076,1.55819 z m 73.31145,-1.9964 c 3.21834,-3.18589 3.1939,-1.10958 0,0 z m -15.25226,-11.26975 c -4.29685,-1.03809 -16.2045,-5.82261 -14.5603,-7.64497 4.62556,3.51294 20.67699,6.44631 19.08266,8.11854 -1.51273,-0.0829 -3.04555,-0.0786 -4.52236,-0.47357 z m -60.03136,-2.89355 c 3.81812,-2.20211 23.24792,-7.95783 10.35862,-3.2393 -3.43018,1.1402 -6.75724,2.69592 -10.35862,3.2393 z m -22.752774,-5.03339 c -5.762166,-6.35827 -14.18096,-23.20867 -14.321629,-25.25499 3.254392,7.96389 12.455506,21.74243 14.572994,25.49132 z m 58.681514,-4.15984 c 0.44841,-10.57613 8.55517,4.67867 0,0 z m 2.77479,-0.60521 c 0.44033,-5.8843 -4.16743,2.97543 0,0 z m 56.51425,-7.43829 c 3.71455,-2.3989 8.87009,-6.89285 1.30759,-3.45366 4.68166,-4.13732 18.14906,-12.90009 9.88108,-4.82101 -3.27736,3.27967 -6.9142,6.38223 -11.18867,8.27467 z m -2.53094,-4.72035 c 5.37807,-7.36064 9.98121,-15.32156 13.70041,-23.49015 -1.29488,8.90785 -6.31092,18.31789 -13.70041,23.49015 z m -54.77322,-2.98529 c -4.07311,-6.90174 5.25541,0.57265 -0.50076,1.01861 l -0.0228,-0.32911 z M 44.915812,920.85507 c -9.69708,-1.19078 -19.129122,-5.63185 -25.995614,-12.61 9.64921,6.87067 21.065182,12.26195 33.233598,10.12266 5.438763,-0.82885 9.784587,-0.24674 1.883537,1.64489 -2.961599,0.74311 -6.06743,1.28484 -9.121521,0.84245 z M 42.94518,912.4624 c -8.489961,-2.14197 -19.521261,-6.95972 -20.139252,-16.99603 2.306925,13.71358 26.721231,15.60643 29.541767,17.40178 -3.13,0.19084 -6.305405,0.10701 -9.402515,-0.40575 z M 22.891184,896.14957 c -0.919907,-0.22011 0.843842,2.16512 0,0 z m 109.778196,14.73625 c -12.68425,-4.47426 -25.23568,-10.10052 -35.57493,-18.86863 9.32646,3.92613 17.37019,11.06907 27.21039,14.30279 2.49222,0.66991 20.466,7.82576 8.36454,4.56584 z m 4.81834,-2.65887 c -34.1578,-34.93409 -31.69728,-35.72042 -3.60091,-5.59947 1.49482,1.04689 11.20001,10.34913 3.60091,5.59947 z m 2.85252,1.54895 -1.51125,-1.35099 z m -83.496372,-1.46543 c -10.141428,0.73054 -25.922951,-13.0261 -25.443052,-16.38284 6.643185,8.60319 20.226776,13.57484 27.405197,16.62773 z m 89.362632,-1.86372 c -1.53303,-3.22398 -0.15377,-4.8621 1.39758,-0.8304 0.11191,0.68489 -0.87585,1.46155 -1.39758,0.8304 z M 23.578475,904.33789 c -7.864343,-8.73866 6.81792,6.72261 0,0 z M 167.14003,900.542 c 2.23794,-4.64981 13.72009,-13.05562 4.94738,-4.27555 -1.46451,1.57563 -3.02704,3.24679 -4.94738,4.27555 z m -14.54383,-4.5381 c 5.76084,-4.14692 17.37819,-13.45649 20.18768,-13.72979 -6.43116,4.58864 -12.63054,12.18472 -20.18768,13.72979 z m 18.44405,-12.68677 c 1.86717,-2.7895 -2.97808,3.06469 0,0 z m -69.57221,-7.60671 c 9.12097,-1.58223 17.40209,-10.04369 25.95349,-5.25239 -2.14657,-0.40117 -16.08251,0.8995 -20.59347,5.23994 -2.88414,1.4358 -2.16032,0.7295 -5.36002,0.0124 z m 89.31594,0.73016 c -3.4677,-5.1432 -4.65799,-13.91998 -2.4456,-19.03866 0.077,6.41877 1.521,12.71458 2.4456,19.03866 z m -51.74905,131.14332 c -0.80927,0.6469 0.97071,1.8834 0,0 z m 13.70904,-22.09462 c -0.68042,1.4802 0.87359,4.363 0,0 z m -7.05247,-86.99172 c -0.91986,-0.22011 0.8438,2.16513 0,0 z M 14.997901,895.44222 c 1.86723,-2.78951 -2.978103,3.06468 0,0 z M 145.6915,894.97781 c -0.91986,-0.22011 0.8438,2.16513 0,0 z M 18.908739,891.92246 c 1.86723,-2.7895 -2.978103,3.06468 0,0 z m 174.486821,-9.48378 c -0.80923,0.64685 0.97071,1.88344 0,0 z M 42.228128,863.8622 c 1.025852,-1.75635 -2.267582,2.40291 0,0 z m 123.246702,0.42787 c -2.09294,-0.51817 -0.86677,0.67697 0,0 z m 44.78336,-8.33976 c -3.42018,-3.94803 1.13164,2.59469 0,0 z M 51.564237,852.22746 c 2.632424,-3.45381 -3.76164,3.73923 0,0 z m 9.044821,-7.91946 c 1.025887,-1.75635 -2.267574,2.4029 0,0 z"
       id="path36330"
       inkscape:connector-curvature="0"
       sodipodi:nodetypes="ccccccccccccsssssssssccccssssccccccccccccccccccccccccccccccccccccccsccccccccccccccccccccccccccccccccccccccccccccccccccccccccccsccccccccccccccccccccccccccccccccccccccccccccccccccccccccccccccccccccccccccccccccccccccccccccccccccccccccccccccccccccccccccccccccccccccccccccccccccccccccccccccccccccccccccc" />
    <g
       id="g36431"
       transform="matrix(0.39108379,0,0,0.39108379,449.95495,585.09621)"
       style="fill:#ffccaa">
      <path
         sodipodi:nodetypes="cssssccscsscsssc"
         transform="translate(0,796.36216)"
         inkscape:connector-curvature="0"
         id="path36417"
         d="m -781.71056,-28.601971 c -2.23838,-2.045764 -7.94061,-8.504579 -12.6716,-14.352922 -11.45692,-14.1628 -14.65698,-17.582342 -20.73956,-22.162 -7.4659,-5.621171 -12.15155,-10.001442 -16.85059,-15.752371 -11.5989,-14.195321 -20.93835,-32.742776 -26.87731,-53.376326 -3.02718,-10.51724 -6.39677,-27.71893 -5.5874,-28.52354 0.33533,-0.33336 4.46684,-2.1118 9.18113,-3.95208 14.3494,-5.60149 50.45864,-13.1612 62.8649,-13.1612 4.60439,0 6.60249,0.43753 12.98933,2.84431 4.15135,1.56438 8.91739,3.64689 10.59119,4.6278 6.03783,3.5384 14.30357,14.35338 22.84112,29.88555 5.35263,9.73793 9.79763,26.70922 9.76545,37.28519 -0.0329,10.83301 -4.45598,21.686689 -14.41819,35.380903 -17.34676,23.845157 -21.22771,30.158349 -24.026,39.083386 -1.01618,3.241071 -0.58676,9.119629 -2.42014,5.892857 -0.15556,-0.273792 -2.40394,-1.6738 -4.64233,-3.719557 z"
         style="opacity:0.98999999;fill:#ffccaa;fill-opacity:1;fill-rule:nonzero;stroke:#000000;stroke-width:1.36602926;stroke-linecap:square;stroke-linejoin:miter;stroke-miterlimit:4;stroke-dasharray:none;stroke-opacity:1;paint-order:stroke fill markers" />
    </g>
    <path
       style="opacity:0.98999999;fill:#000000;fill-opacity:1;fill-rule:nonzero;stroke:#000000;stroke-width:0.18887949;stroke-linecap:square;stroke-linejoin:miter;stroke-miterlimit:4;stroke-dasharray:none;stroke-opacity:1;paint-order:stroke fill markers"
       d="m 152.71707,937.22013 c -0.12479,-0.49724 0.45795,-1.79683 0.97662,-2.17799 l 0.27978,-0.2056 0.18935,0.23316 c 0.1524,0.18766 0.18935,0.39177 0.18935,1.04601 v 0.81285 l -0.48249,0.26261 c -0.62386,0.33954 -1.07183,0.3508 -1.15261,0.0289 z"
       id="path36419"
       inkscape:connector-curvature="0" />
    <path
       style="opacity:0.98999999;fill:#000000;fill-opacity:1;fill-rule:nonzero;stroke:#000000;stroke-width:0.09987962;stroke-linecap:square;stroke-linejoin:miter;stroke-miterlimit:4;stroke-dasharray:none;stroke-opacity:1;paint-order:stroke fill markers"
       d="m 181.18555,872.28764 c -0.0442,-0.0748 -0.11668,-0.19728 -0.16103,-0.27226 l -0.0806,-0.13632 0.16809,0.0278 c 0.15044,0.0249 0.14448,0.0177 -0.0568,-0.0684 -0.22142,-0.0947 -0.66686,-0.39573 -0.63576,-0.42971 0.009,-0.01 0.26836,1.7e-4 0.57688,0.0216 l 0.65856,0.0117 -0.19872,0.2435 c -0.0556,0.11893 -0.10112,0.22436 -0.10112,0.2343 0,0.01 0.0787,-0.0505 0.17491,-0.13434 0.16382,-0.14277 0.23683,-0.34346 0.12493,-0.34346 -0.0275,0 -0.05,-0.0528 -0.05,-0.11735 0,-0.0959 0.0274,-0.0761 0.14992,0.10869 0.0825,0.12432 0.14992,0.24214 0.14992,0.26182 0,0.0671 -0.35204,0.50526 -0.49564,0.61694 l -0.14314,0.11132 z"
       id="path36421"
       inkscape:connector-curvature="0"
       sodipodi:nodetypes="cccccccccscsscsccc" />
    <g
       style="display:inline"
       id="g36428"
       transform="matrix(0.39108379,0,0,0.39108379,449.95495,585.09621)">
      <path
         sodipodi:nodetypes="cssscsssscsscc"
         transform="translate(0,796.36216)"
         inkscape:connector-curvature="0"
         id="path36413"
         d="m -889.51631,-57.203843 c 0.21963,-1.669642 0.54262,-3.948621 0.71775,-5.064392 0.46438,-2.958593 -0.93693,-18.073258 -2.59328,-27.971322 -2.12384,-12.691673 -5.45309,-26.772123 -8.57207,-36.254013 -4.47715,-13.61077 -4.95454,-19.74019 -1.99719,-25.64275 2.57423,-5.13792 7.44466,-7.42605 14.58652,-6.85277 5.01393,0.40247 10.66568,2.74124 14.92503,6.17619 4.0533,3.26878 4.44378,4.05644 5.71676,11.53174 4.59842,27.00312 14.72911,48.23285 31.05682,65.082232 3.79286,3.914035 10.26043,8.4268 9.46166,8.173207 -0.79876,-0.253593 -8.09261,-2.150914 -11.29782,-2.361107 -7.38415,-0.484243 -14.34761,1.394914 -28.51517,7.6951 -10.72809,4.770685 -20.61086,8.486893 -22.62989,8.509507 -2.42275,0.919631 -1.1981,-0.444629 -0.85912,-3.021622 z"
         style="opacity:0.98999999;fill:#ff5555;fill-opacity:1;fill-rule:nonzero;stroke:#000000;stroke-width:1.36602926;stroke-linecap:square;stroke-linejoin:miter;stroke-miterlimit:4;stroke-dasharray:none;stroke-opacity:1;paint-order:stroke fill markers" />
      <path
         sodipodi:nodetypes="ccccsssscssssscc"
         transform="translate(0,796.36216)"
         inkscape:connector-curvature="0"
         id="path36415"
         d="m -702.75589,-72.466507 c -10.39867,-6.862614 -13.82886,-8.593428 -19.75418,-9.967607 -3.53497,-0.0428 -8.50402,-0.487692 -14.72285,2.019036 -2.26593,1.195621 -5.18823,2.712657 -5.40271,2.498171 -0.21448,-0.214478 2.01357,-3.306957 3.85995,-5.999164 5.04811,-7.360643 6.01979,-10.111993 6.01979,-17.045309 0,-20.82111 -9.99773,-50.91642 -20.89286,-62.89201 -1.86607,-2.05113 -3.39286,-4.07473 -3.39286,-4.4969 0,-1.41957 2.97935,-2.40945 5.86376,-1.94822 5.65385,0.90409 14.5665,6.24342 27.995,16.77107 15.04913,11.79818 18.81828,19.28288 24.67855,49.00613 1.62615,8.247825 3.44292,16.669932 4.03727,18.715803 0.89699,3.087622 0.93634,4.453193 0.23155,8.035586 -0.467,2.373714 -0.68605,5.762321 -0.48678,7.530243 0.19927,1.767921 2.19644,4.638435 2.14648,4.632878 -0.0499,-0.0056 -5.66226,-3.878135 -10.18011,-6.859707 z"
         style="opacity:0.98999999;fill:#ff5555;fill-opacity:1;fill-rule:nonzero;stroke:#000000;stroke-width:1.36602926;stroke-linecap:square;stroke-linejoin:miter;stroke-miterlimit:4;stroke-dasharray:none;stroke-opacity:1;paint-order:stroke fill markers" />
    </g>
  </g>
  <g
     inkscape:groupmode="layer"
     id="layer2"
     inkscape:label="patternLayer">
    <g
       id="g828"
       clip-path="url(#clipPath830)">
      <g
         inkscape:label="Clip"
         id="g826"
         style="fill:#ff8080;fill-opacity:1">
        <path
           sodipodi:nodetypes="sssccsccssscccccsccscscsccccccsscccccsssscscscssscssssccsccccsccccssccssccssscscccscscssscccssccssssssscsscscsccssssccsscscsccsccccscsccsccsccssssccscsssssccscccccscsssscccsscssccsscccscscccccssscccscscssccsccscsscccccscscccssccsccssccsccccssscccscsccccsccscscscscsccscsccscccccssscsccsscsssscccsscssscccccsscssccsccssscccsccsssccccssccsssscsssssccssscccssscsscscccccccscssccscccscsccsscscccccssscscscsssccssssccsccsccssscccccccsccsccccssssscsssscsscssccscccccsscscssccscaccccccscc"
           inkscape:connector-curvature="0"
           id="path36409"
           d="m 139.30093,237.18013 c -1.18846,-1.34059 -1.29972,-6.26217 -0.35395,-15.65721 0.47689,-4.7373 0.5467,-10.00484 0.13595,-10.25869 -0.15364,-0.095 -0.28117,0.0548 -0.28341,0.33269 -0.002,0.27794 -0.20133,1.07102 -0.44243,1.7624 -0.24111,0.69138 -0.67613,2.32555 -0.96672,3.63149 l -0.70117,6.8188 0.33026,-7.09814 c 0.44008,-7.41875 2.94576,-17.46675 6.5586,-26.30059 2.14569,-5.24647 2.3379,-5.78853 2.12723,-5.99921 -0.52886,-0.52886 -1.57267,0.57847 -2.96294,3.14323 -3.22322,5.94617 -5.00205,7.92022 -7.54974,8.37834 -0.54902,0.0987 -3.42579,1.10682 -6.39282,2.24023 -13.92776,5.32042 -25.21527,8.40295 -32.752838,8.94456 l -2.391204,0.17181 -1.03078,-0.90503 c -0.780845,-0.6856 -1.030779,-1.11966 -1.030779,-1.79017 0,-1.22872 1.269387,-2.67323 3.300465,-3.75579 1.887817,-1.00308 3.78162,-1.50012 2.787548,-0.42503 -0.353868,1.99642 10.065388,0.11936 23.569948,-3.8402 5.27761,-1.54741 6.72391,-1.86202 3.70523,-0.53065 -0.30897,0.30898 -2.50533,1.25438 -4.88078,2.1009 -4.66621,1.66284 -6.99636,2.69846 -7.53682,3.34968 -0.28853,0.34766 -0.21614,0.41229 0.45998,0.41064 2.11433,-0.005 9.46856,-2.31312 14.68463,-4.60845 3.45184,-1.51897 7.32666,-3.56695 7.17668,-3.79312 -4.09675,2.03264 -0.31071,-0.19433 0.73005,-0.91012 l 0.83803,-0.74728 -0.78638,0.28159 c -1.14168,0.40882 -1.49466,0.34556 -0.87325,-0.1565 1.1094,-0.89631 -3.25567,-0.17424 -11.88863,1.96664 -10.01102,2.48262 -15.01539,3.46255 -18.85583,3.69225 -1.92811,0.11532 -3.00978,0.3126 -3.49181,0.63684 -1.303659,0.87692 -2.734286,1.4394 -3.923193,1.06169 -2.553785,0.22418 -3.708299,-1.97739 -3.710814,-4.72025 -0.0023,-2.42763 1.521367,-4.661 3.760478,-5.51231 0.596239,-0.22669 2.028583,-0.11579 4.781399,0.37019 1.33845,0.23629 0.82966,-0.2877 -0.76852,-0.79148 -4.591487,-1.44734 -9.005982,-4.5625 -9.617387,-6.79864 -0.601366,-2.19941 0.682957,-2.3679 7.662285,1.60182 7.028022,3.99742 23.724442,3.15777 13.865552,3.67195 -3.48142,0.18157 3.92841,-0.23976 3.37592,-0.55328 -0.57974,-0.32898 -10.54061,-2.80976 -13.88932,-3.45916 -3.732793,-0.72389 -8.010374,-4.00188 -9.699449,-7.43287 -1.172082,-2.38084 -1.377272,-4.95384 -0.525406,-6.5884 l 0.565527,-1.08513 -1.21403,-1.99992 c -4.512039,-7.43284 -7.329371,-15.15137 -11.622552,-31.84183 -0.94514,-3.6744 -2.409706,-8.82832 -3.254588,-11.45317 -3.500043,-10.87382 -3.775222,-15.82323 -1.12469,-20.22922 0.855531,-1.42215 2.914243,-3.584621 4.371014,-4.591316 1.006532,-0.695559 0.487302,-0.912035 -0.908757,-0.378876 -2.678592,1.022964 -5.221544,4.423672 -9.610994,12.852842 -2.189006,4.2036 -3.291964,6.00567 -4.379294,7.15511 -0.799355,0.84502 -2.641372,3.28789 -4.09338,5.4286 -1.452,2.14071 -3.400955,4.66492 -4.33103,5.60936 -3.658511,3.71498 -6.361643,4.0725 -12.83494,1.69749 C 29.781448,125.28008 21.06114,118.64705 16.564693,109.86179 l -1.572743,-3.0728 0.117364,-2.24745 c 0.09363,-1.7926 0.300978,-2.6398 1.024601,-4.18614 1.269301,-2.712441 2.578532,-4.348722 7.709082,-9.634773 4.846232,-4.993114 6.729614,-7.31142 8.025861,-9.879324 0.502191,-0.99481 2.038681,-2.963627 3.875445,-4.965808 1.673838,-1.824613 5.789839,-6.614741 9.146667,-10.644729 6.409942,-7.695431 10.574906,-12.355089 12.540728,-14.030343 2.067769,-1.762095 5.912319,-3.995332 8.835435,-5.132357 3.786446,-1.472837 8.344015,-2.566351 17.061496,-4.093615 3.980963,-0.697447 7.752129,-1.386803 8.380366,-1.531902 0.628233,-0.145104 1.219036,-0.266896 1.312884,-0.27065 0.281925,-0.01126 2.092967,4.165821 2.843219,6.557791 1.647608,5.252939 3.02174,12.776543 4.510662,24.696676 0.5452,4.364769 1.02365,7.96341 1.06323,7.996985 0.0396,0.03357 0.7922,0.267753 1.67248,0.520401 1.42671,0.409476 1.7073,0.414742 2.58384,0.0485 0.54082,-0.225971 1.40059,-0.729125 1.91059,-1.11812 2.95808,-2.256243 9.98887,-4.181464 16.58668,-4.541893 l 3.12743,-0.170845 3.15784,2.804725 c 10.54579,9.36654 14.63398,15.746865 14.89868,23.251921 0.06,1.70231 0.21034,2.68644 0.42102,2.75666 0.21949,0.0732 0.26428,-0.0904 0.13568,-0.49563 -0.23942,-0.75435 0.98797,-6.627085 2.28064,-10.912238 1.89017,-6.265846 3.97682,-10.468388 6.62052,-13.333851 0.81866,-0.887324 1.71057,-2.053285 1.98202,-2.591025 1.58513,-3.14007 4.46919,-5.031251 7.66175,-5.024091 2.60107,0.0058 4.65491,0.557769 10.38265,2.790151 2.75825,1.075028 5.19542,1.954398 5.41593,1.954595 0.13413,1.19e-4 0.30769,0.09777 0.45246,0.224795 0.0934,0.0819 0.17473,0.176006 0.22587,0.264059 0.26361,0.464544 0.30251,0.464041 0.78208,-0.01011 0.34058,-0.336723 0.40502,-0.563795 0.19818,-0.698364 -0.16856,-0.109674 -0.38256,-0.858814 -0.47555,-1.664754 -0.093,-0.805943 -0.92268,-4.199992 -1.84378,-7.542332 -2.01272,-7.303432 -2.599,-10.129068 -2.64617,-12.753658 l -0.0356,-1.97897 1.67608,-0.256403 c 3.93836,-0.602484 9.44328,0.880659 18.29713,4.929631 2.84234,1.299838 6.29445,2.790489 7.67136,3.312558 2.19659,0.832864 2.72734,1.176826 4.32985,2.806043 2.26054,2.298211 4.42002,5.716521 5.9033,9.344542 1.37828,3.371179 5.03862,15.97686 5.98941,20.6266 0.64034,3.131537 1.41237,5.030991 4.70631,11.579082 4.08404,8.11873 5.17253,11.5242 4.84346,15.15327 -0.33706,3.71716 -3.24083,7.82244 -7.56998,10.70224 -1.24796,0.83015 -5.41165,3.05275 -9.25265,4.93911 -3.841,1.88635 -7.07792,3.47763 -7.19315,3.53618 -0.32599,0.16563 -0.23833,-2.52213 0.21217,-6.50473 0.5129,-4.53429 0.51863,-7.57697 0.0187,-9.91677 -0.21338,-0.99866 -1.32895,-3.9531 -2.47903,-6.56542 -4.28323,-9.72901 -10.07684,-25.201684 -10.34387,-27.624803 -0.23684,-0.489902 -0.5509,-1.268422 -0.30089,-1.243295 -0.78879,-0.803941 -0.95481,1.590827 -0.2857,6.057028 0.77617,5.18081 2.24507,9.21854 6.9885,19.11747 3.41677,7.13037 4.12731,9.27193 4.46755,13.46514 0.41077,5.06248 -0.60298,9.818 -4.73549,22.21433 -1.45973,4.37874 -2.9743,9.46981 -3.36572,11.31349 -0.39142,1.84368 -0.90705,3.98067 -1.14585,4.74888 -0.64476,2.07419 -0.085,2.46317 2.00126,3.3992 2.4855,1.11517 2.68125,1.5972 1.34724,3.31764 -0.58082,0.74905 -1.51346,1.64844 -1.6671,1.89194 1.18027,0.54172 -16.70603,6.50764 -27.51554,9.92375 -2.0967,0.66262 1.76196,0.006 5.5283,-0.94102 6.49241,-1.63213 12.68311,-3.83416 19.12634,-6.80326 l 2.44666,-1.12745 -0.20775,0.75651 c -0.69149,2.51804 0.0821,4.90991 3.1411,9.7117 0.98441,1.54528 2.19976,3.68227 2.70077,4.74887 0.80027,1.70371 1.25749,2.32498 1.26399,4.40008 l -0.33828,2.26326 -1.11738,0.64175 c -3.3446,1.92091 -8.44627,2.30921 -14.38629,1.09495 -3.7892,-0.77459 -11.86004,-2.69595 -13.04505,-4.14824 0.33082,-0.53527 3.91171,0.10178 7.08433,1.04327 7.45433,2.2121 9.63925,2.69612 12.38566,2.74377 3.43708,0.0596 6.50619,-0.88923 5.2958,-1.6373 -0.16011,-0.099 -2.64279,-0.3567 -5.51708,-0.57277 -2.87427,-0.21608 -6.2316,-0.57634 -7.46072,-0.80057 -1.22912,-0.22424 -2.82956,-0.47401 -3.55653,-0.55504 -1.25713,-0.14014 -3.26168,-0.85704 -8.595,-3.07391 -3.91697,-1.62814 -5.07538,-1.24836 -3.44543,1.12958 1.87682,2.73811 5.82823,12.3451 5.29637,12.87696 -0.37759,0.37759 -1.5667,-1.46732 -4.51851,-7.01049 -4.22438,-7.93293 -5.98957,-10.50233 -6.95945,-10.13015 -1.00113,0.38417 -0.2994,1.7846 5.65566,11.28688 4.67087,7.45315 7.14894,12.70871 7.73801,16.41098 l 0.17779,1.11738 -0.73419,-0.83804 c -0.70044,-0.79952 -2.63113,-4.58849 -6.67367,-13.09712 -1.88021,-3.9574 -4.28857,-7.87418 -5.58909,-9.08971 -0.39853,-0.37247 -0.72459,-0.57159 -0.72459,-0.44247 0,0.34007 4.03245,14.9789 5.34862,19.41683 1.91069,6.44262 3.89008,12.2912 4.15981,12.2912 0.48458,0 0.60702,-1.38724 0.28542,-3.23396 -0.42039,-2.41409 -1.86638,-7.1523 -3.93624,-12.89826 -0.91761,-2.54733 -1.61744,-4.68245 -1.55516,-4.74473 0.26118,-0.26118 2.05242,2.78299 3.40198,5.78157 4.46939,9.93051 5.83667,15.86127 5.19867,22.54996 -0.33875,3.55147 -0.65252,4.96712 -1.29156,5.82724 -0.40183,0.54085 -0.41052,0.54074 -0.9616,-0.0129 -0.71936,-0.72269 -2.52262,-4.85432 -3.63685,-8.3327 -0.48152,-1.50321 -1.5014,-5.81587 -2.26639,-9.5837 -1.95493,-9.62864 -2.97082,-13.35545 -4.34663,-15.94566 -0.84957,-1.59947 -1.20143,-4.00798 -1.49511,-10.23394 -0.13665,-2.89684 -0.36396,-5.3825 -0.50514,-5.52368 -0.50031,-0.50031 -1.08768,0.83292 -1.49275,2.691 -0.87948,4.03429 -1.36651,4.64449 -0.58479,-0.16589 0.17034,-1.04817 -0.16128,-3.25389 0.0187,-2.29862 0.1587,0.84234 -0.8627,-0.97699 -1.72788,1.90445 -0.23067,0.7682 -0.74774,2.26178 -1.14906,3.31908 l -0.72966,1.92234 1.02952,-0.16707 c 0.81134,-0.46517 1.60923,-1.47657 2.08364,-1.78586 0.5196,-0.33875 0.52618,-0.27243 -0.0126,0.58643 -0.64528,1.0287 -0.79269,0.84758 -1.49022,1.48102 -0.22648,0.23302 -0.823,0.41558 -1.71323,0.56311 -0.0351,0.006 -0.0707,0.0116 -0.10675,0.0173 -1.58749,0.25168 -2.81153,-0.35635 -3.63994,-1.53245 -0.6759,-0.95959 -1.09064,-2.1823 -0.64728,-1.90829 -0.16984,0.67754 -0.50436,-2.30309 -0.28435,-3.37052 0.0249,-0.12059 0.58923,2.1998 0.58115,2.08379 -0.0323,-0.46302 -0.12346,-0.84091 -0.23019,-0.90686 -0.13345,-0.0825 -0.32091,-0.62415 -0.41656,-1.20371 -0.30483,-1.84689 -0.75939,-3.16828 -1.03196,-2.99982 -0.14534,0.0898 -0.26424,1.40553 -0.26424,2.9238 0,2.77724 -0.20336,3.41852 -0.84059,2.6507 -1.10009,-1.32552 -1.54251,0.49491 -2.51271,10.33887 -0.31799,3.22644 -0.7025,7.12331 -0.85446,8.65971 -0.15196,1.5364 -0.72107,4.93045 -1.26467,7.54233 -1.41822,6.8141 -2.07171,10.44453 -2.05756,11.43066 l 0.0124,0.86054 0.56142,-1.06391 c 0.89176,-1.68993 2.68364,-7.33758 3.30859,-10.42799 0.70668,-3.49456 1.51105,-8.77527 1.58547,-13.30183 0.12557,-7.63703 0.37344,-10.53974 0.64677,-0.90606 0.25062,8.83302 -1.67421,18.71035 -4.30444,24.78253 -0.72717,1.67876 -4.3192,8.09317 -5.37412,9.34146 -0.10045,0.11886 -0.45834,-0.39325 -0.69991,-0.66575 z m 3.00372,-15.85946 c 0.39967,-2.76552 0.97,-6.41098 1.26741,-8.10102 1.94702,-11.06415 2.59338,-16.51435 1.93238,-16.29401 -0.61718,0.20572 -1.59551,3.28829 -1.93632,6.10101 -0.17664,1.45787 -0.93549,5.47904 -1.68632,8.93594 -1.9996,9.20627 -2.05257,9.56003 -2.07065,13.82761 -0.0149,3.50996 0.33597,6.30899 0.91039,7.26298 0.0925,0.15364 0.32305,-1.29197 0.51232,-3.21247 0.18927,-1.9205 0.67113,-5.75452 1.07079,-8.52004 z M 103.2163,196.03313 c 5.39496,-0.4285 10.6326,-1.42846 20.29979,-3.87562 9.97918,-2.52612 12.99708,-3.52937 12.40322,-4.12322 -0.67783,-0.67784 -7.01457,0.43044 -12.16462,2.12756 -3.51327,1.15775 -7.0169,1.91118 -12.32697,2.65083 -7.47511,1.04123 -11.18067,1.75012 -14.242175,2.72458 -0.84961,0.27042 -0.902844,0.33728 -0.419019,0.52625 0.782187,0.30549 2.311786,0.29828 6.449774,-0.0304 z m 53.89318,-2.53493 c 0.3834,-1.20799 -0.14458,-3.00679 -1.26124,-4.29699 l -1.07756,-1.24503 0.15402,2.03652 c 0.0967,1.27792 0.036,2.25707 -0.16285,2.6286 -0.26715,0.49916 -0.21929,0.66043 0.30496,1.02763 0.88843,0.62229 1.81912,0.5536 2.04267,-0.15073 z m 41.59089,-0.98001 c 0.24302,-0.0933 0.44186,-0.30045 0.44186,-0.46043 0,-0.36089 -4.2692,-0.0737 -4.96903,0.33422 -0.34674,0.20214 0.14908,0.28111 1.80354,0.28727 1.25497,0.005 2.4806,-0.0678 2.72363,-0.16106 z m -87.41232,-1.09538 c 1.07548,-0.26845 2.05671,-0.57834 2.1805,-0.68867 0.30998,-0.27621 -1.9318,-0.50174 -7.22496,-0.72685 -7.524613,-0.32 -9.97304,0.38251 -5.36116,1.53824 2.78602,0.69818 7.33165,0.64457 10.40562,-0.12272 z m 84.78138,-1.77758 c 0,-0.13698 -0.2874,-0.32119 -0.63866,-0.40935 -1.38044,-0.34647 -6.00766,-0.7733 -7.46236,-0.68836 -1.48882,0.0869 -1.51478,0.10215 -0.83804,0.4912 0.96268,0.55344 8.93906,1.09463 8.93906,0.60651 z m -41.43626,-2.82013 c 0,-1.14239 0.61583,-1.73272 3.22195,-3.08857 1.22849,-0.63914 2.127,-1.26824 1.99667,-1.39802 -0.13032,-0.12977 -1.42041,-0.51582 -2.89074,-0.57747 -2.95067,-0.12373 -4.55792,0.58832 -1.81575,-0.70074 0.46092,-0.19757 1.11777,-0.36488 1.45965,-0.37181 0.54645,-0.0111 0.58951,-0.097 0.3561,-0.71096 -0.17072,-0.44904 -2.94454,-1.96231 0.007,-0.69837 0.60902,0.26081 0.18617,-0.51328 -0.63544,-0.6847 -2.57589,-0.53744 -3.10156,-0.49328 -4.45755,0.37444 -1.45753,0.93271 -3.46181,3.66097 -3.19681,4.35155 0.23415,0.61019 2.07831,0.54728 3.15217,-0.10753 l 0.87521,-0.53368 0.14912,0.88391 c 0.13099,0.77644 1.51352,4.09638 1.70587,4.09638 0.04,0 0.0726,-0.3755 0.0726,-0.83443 z m 27.04415,-0.86009 c 2.14777,-0.16254 4.78759,-0.47923 5.86626,-0.70375 2.32255,-0.48344 4.77886,-1.61283 5.19374,-2.38805 0.27332,-0.5107 0.2246,-0.54167 -0.63011,-0.40059 -0.50948,0.0841 -4.08659,0.59579 -7.94914,1.13709 -6.48605,0.90897 -10.07933,1.61735 -11.83301,2.33277 -0.9723,0.39666 4.24252,0.40921 9.35226,0.0225 z m -51.5688,-0.29467 c 3.97094,-0.38774 5.76194,-0.80751 5.76194,-1.35045 0,-0.64586 -1.98092,-0.92118 -4.05051,-0.56298 -2.8318,0.49013 -8.15535,0.36506 -11.42294,-0.26837 -3.53815,-0.68586 -6.14345,-1.47349 -13.43882,-4.06275 -3.14962,-1.11786 -6.15002,-2.12424 -6.66755,-2.2364 -1.837037,-0.39812 -0.755358,0.49003 3.1202,2.50442 4.1332,2.14831 5.71249,2.84638 3.44493,2.26493 -1.99805,-0.48023 -2.55826,-0.5261 -2.23893,-0.18329 0.43857,0.47082 3.66622,1.27953 11.28041,2.82639 7.15956,1.4545 8.91018,1.58612 14.21127,1.0685 z m 18.34146,-0.0917 c 1.09791,-0.45874 1.28129,-0.99265 0.34021,-0.99058 -0.78529,0.002 -2.56972,1.3699 -1.80677,1.3853 0.2738,0.006 0.93376,-0.1721 1.46656,-0.39472 z m 22.23924,-1.83829 c 6.31316,-0.6277 11.30778,-1.91502 14.76508,-3.80555 1.82703,-0.99907 4.31714,-2.8566 4.10876,-3.06499 -0.0616,-0.0616 -0.80485,0.19435 -1.65162,0.56883 -2.33528,1.03277 -5.72997,1.99379 -10.97718,3.10758 -4.58609,0.97346 -10.33406,2.67318 -10.88051,3.21745 -0.34784,0.34644 0.98396,0.33974 4.63547,-0.0233 z m -30.08182,-1.92783 c 0.0884,-0.14302 0.0514,-0.32757 -0.0821,-0.41011 -0.87584,-0.54129 -12.05751,-1.25457 -12.05751,-0.76915 0,0.38318 1.13502,0.61925 4.88855,1.01677 4.15389,0.43992 7.03963,0.50459 7.25105,0.16249 z m 7.20508,-2.432 c 1.19701,-0.18572 1.32195,-0.48371 0.41902,-0.99946 -0.47811,-0.27309 -3.00178,-0.36253 -10.54529,-0.37375 -9.59514,-0.0142 -10.04043,-0.0391 -13.72958,-0.76457 -7.2218,-1.42025 -14.37155,-3.94329 -22.0075,-7.76613 -2.386656,-1.19484 -4.382654,-2.12916 -4.435556,-2.07626 -0.210727,0.21073 3.449806,2.47208 6.974056,4.30835 4.56046,2.37616 10.47339,4.9116 14.76177,6.32978 3.12743,1.03425 3.38255,1.07151 9.63742,1.40758 6.07218,0.32625 16.63622,0.28967 18.92566,-0.0655 z m 19.62403,-0.97891 c 3.73071,-0.43519 13.05965,-2.34804 16.96779,-3.47917 4.17959,-1.20968 7.92204,-2.66853 7.81402,-3.04599 -0.10065,-0.35172 -1.66774,-0.22793 -3.80272,0.30037 -4.85012,1.48387 -1.34545,-0.0323 -0.0507,-0.66686 1.57116,-0.76607 2.50374,-1.44925 1.97831,-1.44925 -0.0947,0 -1.65306,0.68528 -3.46291,1.52284 -4.13145,1.91194 -5.99512,2.42688 -13.29822,3.67435 -3.22644,0.55113 -6.8719,1.31875 -8.10102,1.70582 -2.24587,0.70727 -4.32986,1.63344 -4.32986,1.92429 0,0.16444 2.09709,0.002 6.28528,-0.4864 z m -2.5372,-3.04266 c 4.75579,-0.9319 19.79862,-5.43453 23.04327,-6.89734 0.9087,-0.40967 0.94289,-0.46308 0.36181,-0.5652 -0.88375,-0.15532 -7.52998,1.16083 -10.85735,2.15007 -5.01636,1.49138 -4.25187,0.86967 7.35224,-5.97914 3.61962,-2.13632 5.83962,-3.72046 5.57903,-3.98105 -0.17697,-0.17697 -2.63121,1.19611 -10.51093,5.88056 -7.24581,4.30761 -13.32831,7.56097 -16.76987,8.96974 -2.37086,0.97049 -3.10944,1.41369 -1.94571,1.16754 0.38379,-0.0812 2.07017,-0.41651 3.74751,-0.74518 z m -63.24868,-0.96839 c -1.968058,-1.03034 -2.588301,-1.21152 -1.944921,-0.56814 0.594341,0.59434 2.551201,1.52399 3.201971,1.52117 0.31551,-0.002 -0.23165,-0.4162 -1.25705,-0.95303 z m 52.16008,0.0698 c -0.0785,-0.34569 -0.43194,-1.63417 -0.7855,-2.86329 -0.5681,-1.97493 -0.64379,-2.85187 -0.65097,-7.54233 -0.007,-4.86118 0.0582,-5.5895 0.78021,-8.65972 0.43358,-1.84368 1.54183,-5.55199 2.46277,-8.24069 2.82816,-8.25689 2.99604,-8.83671 3.31272,-11.44127 0.70891,-5.83043 -0.75062,-11.53762 -5.82528,-22.77856 -1.31784,-2.91916 -2.97141,-6.81475 -3.6746,-8.65686 -0.87921,-2.3032 -1.42964,-3.3784 -1.76232,-3.44247 -0.65632,-0.1264 -0.63659,0.92593 0.0836,4.46002 0.73059,3.58507 1.48201,5.53301 3.59341,9.31538 2.16512,3.87859 3.78877,8.01339 4.70616,11.98472 0.58357,2.52624 0.71742,3.82372 0.72325,7.01078 0.009,4.85197 -0.51597,7.18746 -2.88974,12.85902 -3.36174,8.0321 -4.32721,11.90433 -4.31598,17.3103 0.008,3.88379 0.37693,5.70207 1.69053,8.33348 0.37062,0.74242 0.67385,1.52095 0.67385,1.73008 0,0.43926 1.0579,1.24994 1.63112,1.24994 0.25989,0 0.34197,-0.20907 0.24676,-0.62853 z m 3.28624,-3.82912 c 0.0955,-0.30075 0.28039,-1.84064 0.41097,-3.42198 0.13058,-1.58135 0.56378,-3.98916 0.96266,-5.3507 0.77311,-2.63893 0.86521,-3.25106 0.48918,-3.25106 -1.35897,0 -3.52054,6.24129 -3.34853,9.66851 0.12082,2.40717 1.01789,3.82925 1.48572,2.35523 z m -35.33344,-3.62484 c -0.63607,-0.37011 -6.00293,-1.88684 -8.47154,-2.39413 -1.20244,-0.2471 -2.49582,-0.59033 -2.87418,-0.76272 -1.70512,-0.7769 0.22,-2.01884 3.83557,-2.47441 3.14003,-0.39564 4.61269,-0.83029 9.93566,-2.93238 5.75853,-2.27411 11.77033,-5.15458 17.96671,-8.6085 5.38528,-3.00181 5.9633,-3.40251 4.46953,-3.09848 -2.05228,0.41771 -6.5357,2.28 -13.26891,5.51152 -13.84471,6.64461 -17.24753,7.79202 -24.70526,8.3304 -3.78594,0.27332 -4.66864,0.62487 -3.90367,1.55472 0.87999,1.06965 6.09413,2.97036 11.72749,4.27501 3.42205,0.79252 6.15272,1.10179 5.2886,0.59897 z m 71.0192,-3.36249 c 0.69117,-0.62872 0.79487,-0.83183 0.42784,-0.83804 -0.26645,-0.005 -0.89498,0.36524 -1.39673,0.82166 -0.69118,0.62872 -0.79487,0.83183 -0.42784,0.83804 0.26645,0.004 0.89498,-0.36524 1.39673,-0.82166 z m -12.35663,-10.19863 c 0,-0.65234 -1.74523,-1.38853 -8.68293,-3.66272 -3.55984,-1.16693 -7.42145,-2.61278 -8.58134,-3.213 -1.1599,-0.60021 -2.14963,-1.0913 -2.19942,-1.0913 -0.38391,0 0.0616,1.03314 0.73665,1.70816 1.65055,1.65055 11.28406,5.75757 14.94338,6.37076 2.38025,0.39884 3.78366,0.35734 3.78366,-0.1119 z m -62.7534,-3.37026 c 2.36486,-0.59447 11.79692,-4.02352 12.39936,-4.50783 0.43849,-0.3525 0.38654,-0.37449 -0.48686,-0.2061 -2.67271,0.5153 -13.50083,4.33732 -13.83923,4.88486 -0.21356,0.34555 -0.0812,0.33381 1.92673,-0.17093 z m -24.494649,-4.80627 c -0.06886,-0.11523 -2.00678,-3.2893 -4.306489,-7.05348 -5.031673,-8.23589 -7.62019,-12.76028 -9.082695,-15.87541 -0.600911,-1.27993 -1.155723,-2.26399 -1.232919,-2.1868 -0.439237,0.43924 4.139243,9.70101 8.057535,16.29951 2.238806,3.7702 5.987821,9.02569 6.438506,9.02569 0.138194,0 0.19492,-0.0943 0.126062,-0.20951 z m 62.337659,-4.23724 c 0.12205,-1.28006 -0.71069,-3.04053 -1.67382,-3.53859 -0.71409,-0.36926 -0.83065,-0.35604 -1.33852,0.15183 -0.56774,0.56774 -0.77705,1.1789 -0.91294,2.66562 -0.0619,0.67757 0.0839,0.93074 0.76144,1.32222 0.49524,0.28614 1.29509,0.45754 1.95542,0.41902 1.0528,-0.0614 1.12264,-0.12036 1.20842,-1.0201 z m 58.13048,-9.22794 c 2.71112,-1.62944 5.22118,-3.62166 8.15119,-6.46956 3.0335,-2.94849 3.73215,-4.1827 2.14179,-3.78354 -1.43521,0.36021 -11.66768,7.3878 -11.66768,8.01327 0,0.13346 0.4714,0.0442 1.04755,-0.19847 1.54679,-0.65137 2.58394,-0.91781 2.58394,-0.66382 0,0.30726 -2.08852,2.19871 -3.70133,3.35207 -0.72979,0.52189 -1.32689,0.99044 -1.32689,1.04121 0,0.27955 0.70277,-0.0479 2.77143,-1.29116 z m -2.17763,-5.81172 c 2.58734,-2.44076 5.22954,-5.99686 6.92305,-9.3176 1.54757,-3.03459 3.25411,-8.03334 3.52146,-10.31498 0.17622,-1.50389 0.14717,-1.46362 -2.02311,2.80406 -3.36868,6.62424 -6.71391,12.249 -10.14295,17.05462 -0.7625,1.0686 -1.38635,2.00972 -1.38635,2.09139 0,0.35921 1.29074,-0.60328 3.1079,-2.31749 z m -56.72797,-0.0821 c 0.39032,-0.39031 0.51702,-0.7688 0.39744,-1.18722 -0.19088,-0.66793 -1.9044,-2.42998 -2.36304,-2.42998 -0.41693,0 -0.34182,1.13853 0.13548,2.05369 0.23232,0.44545 0.34136,1.09195 0.24734,1.46656 -0.13763,0.54835 -0.0613,0.66993 0.42083,0.66993 0.32394,0 0.84682,-0.25784 1.16195,-0.57298 z M 53.68402,123.84936 c 3.052918,-0.72135 4.668054,-1.35726 4.668054,-1.83789 0,-0.54405 -1.560228,-0.6259 -4.716939,-0.24745 -1.784437,0.21393 -5.19285,0.38148 -7.574277,0.37231 -3.739465,-0.0144 -4.746779,-0.12019 -7.387455,-0.77598 -5.412209,-1.34405 -11.085778,-3.9301 -16.738034,-7.62928 -1.515567,-0.99187 -2.80982,-1.74916 -2.876109,-1.68286 -0.24341,0.2434 3.477909,3.34637 6.270873,5.22885 5.578262,3.75985 11.940179,6.19616 19.194314,7.35054 1.794214,0.28552 6.265318,-0.0944 9.159573,-0.77824 z m -1.383146,-7.44027 c -0.16316,-0.16317 -2.922413,-0.96772 -6.131646,-1.78789 -5.757849,-1.4715 -9.334466,-2.61617 -12.378663,-3.96163 -5.336103,-2.35846 -9.810923,-6.79848 -10.54354,-10.46158 -0.182402,-0.911974 -0.651194,-1.388286 -0.651194,-0.66163 0,0.254291 0.20266,1.17307 0.450333,2.04174 1.727378,6.05858 6.947095,10.43699 16.084533,13.49205 3.851041,1.28759 5.520148,1.55128 10.128679,1.60018 2.355381,0.025 3.250845,-0.0519 3.041498,-0.26124 z m 84.547296,-1.09655 c 0,-0.56381 -8.39799,-4.22987 -13.12924,-5.73144 -2.82585,-0.89685 -7.6255,-3.36147 -14.28369,-7.33468 -6.90584,-4.120992 -12.254142,-6.962431 -12.254142,-6.510369 0,0.40718 5.971212,4.800559 9.533352,7.014259 8.42406,5.23516 24.87475,12.28061 29.92421,12.81585 0.11523,0.0122 0.20951,-0.10191 0.20951,-0.25362 z m 3.63149,-2.43368 c 0,-0.2611 -1.97986,-2.43859 -4.39969,-4.83885 -2.41983,-2.40026 -8.14936,-8.220206 -12.73229,-12.933218 -8.2045,-8.437379 -10.65504,-10.766423 -10.98302,-10.438451 -0.43044,0.430446 6.88056,8.52514 19.70776,21.820299 5.65589,5.86223 8.40724,7.95349 8.40724,6.39022 z m -81.575019,-0.72977 c -0.07345,-0.0668 -2.144864,-0.97248 -4.6031,-2.01261 -10.551323,-4.46445 -16.289422,-7.92701 -21.001121,-12.672777 -1.843803,-1.857137 -2.088505,-2.024683 -1.922998,-1.316799 0.51013,2.181826 5.370402,7.072416 10.353591,10.418126 4.326521,2.90485 9.180849,4.97264 12.544991,5.34379 2.355106,0.25983 4.789067,0.38617 4.628637,0.24027 z m 88.838009,-2.5876 c 0,-1.15783 -1.56634,-3.20814 -2.06778,-2.7067 -0.52244,0.52243 0.023,2.99227 0.76765,3.47636 0.40837,0.26546 1.30013,-0.26245 1.30013,-0.76966 z M 23.351249,107.26958 c -1.183655,-1.18369 -2.152135,-2.0455 -2.152135,-1.91513 0,0.35207 3.979747,4.39187 4.154444,4.21715 0.08244,-0.0824 -0.818616,-1.11833 -2.002309,-2.30202 z m 145.815281,-4.32159 c 1.6768,-1.37604 6.23133,-6.2264 6.23133,-6.636079 0,-0.858494 -2.26346,0.790894 -5.16789,3.765859 -3.53841,3.62433 -4.21821,5.45912 -1.06344,2.87022 z m -14.24121,-3.876388 c 2.7882,-1.024548 5.78035,-3.007585 10.33861,-6.851892 2.42404,-2.044362 5.12303,-4.253709 5.99777,-4.90966 1.74548,-1.30891 2.03775,-1.755877 0.85384,-1.305756 -0.4225,0.160637 -0.8001,0.282466 -0.83909,0.270728 -0.4242,-0.127681 -16.34675,11.113626 -18.63129,13.153676 -0.47674,0.425717 0.61518,0.25471 2.28016,-0.357096 z m 35.02355,-25.032989 c -0.95669,-5.878757 -1.4118,-9.595684 -1.42837,-11.665571 -0.01,-1.254288 -0.0508,-1.344371 -0.4002,-0.883339 -1.14807,1.515049 -1.24332,8.225504 -0.17462,12.302472 0.66375,2.532156 2.59329,6.719425 2.75242,5.973022 0.057,-0.26728 -0.28017,-2.844243 -0.74923,-5.726584 z"
           style="opacity:0.98999999;fill:#ff8080;fill-opacity:1;fill-rule:nonzero;stroke:#000000;stroke-width:0.6;stroke-linecap:square;stroke-linejoin:miter;stroke-miterlimit:4;stroke-dasharray:none;stroke-opacity:1;paint-order:stroke fill markers" />
      </g>
    </g>
  </g>
</svg>
