<?xml version="1.0" encoding="UTF-8" standalone="no"?>
<!-- Created with Inkscape (http://www.inkscape.org/) -->

<svg
   xmlns:dc="http://purl.org/dc/elements/1.1/"
   xmlns:cc="http://creativecommons.org/ns#"
   xmlns:rdf="http://www.w3.org/1999/02/22-rdf-syntax-ns#"
   xmlns:svg="http://www.w3.org/2000/svg"
   xmlns="http://www.w3.org/2000/svg"
   xmlns:sodipodi="http://sodipodi.sourceforge.net/DTD/sodipodi-0.dtd"
   xmlns:inkscape="http://www.inkscape.org/namespaces/inkscape"
   viewBox="0 0 256 256"
   id="svg4166"
   version="1.1"
   inkscape:version="0.92.3 (2405546, 2018-03-11)"
   sodipodi:docname="SheerPatternSuit.svg.2018_07_15_19_18_45.0.svg">
  <style
     id="style3">
    svg { cursor: default; }
  </style>
  <defs
     id="defs4168" />
  <sodipodi:namedview
     id="base"
     pagecolor="#ffffff"
     bordercolor="#666666"
     borderopacity="1.0"
     inkscape:pageopacity="0.0"
     inkscape:pageshadow="2"
     inkscape:zoom="2.8"
     inkscape:cx="64.038071"
     inkscape:cy="119.06298"
     inkscape:document-units="px"
     inkscape:current-layer="layer1"
     showgrid="false"
     units="px"
     inkscape:window-width="1920"
     inkscape:window-height="1001"
     inkscape:window-x="-9"
     inkscape:window-y="-9"
     inkscape:window-maximized="1" />
  <metadata
     id="metadata4171">
    <rdf:RDF>
      <cc:Work
         rdf:about="">
        <dc:format>image/svg+xml</dc:format>
        <dc:type
           rdf:resource="http://purl.org/dc/dcmitype/StillImage" />
        <dc:title />
      </cc:Work>
    </rdf:RDF>
  </metadata>
  <g
     inkscape:label="Layer 1"
     inkscape:groupmode="layer"
     id="layer1"
     transform="translate(0,-796.36216)"
     style="display:inline">
    <g
       id="g828"
       transform="translate(-7.5,-1.7857143)" />
    <path
       style="opacity:0.98999999;fill:#666666;fill-opacity:1;fill-rule:nonzero;stroke:#666666;stroke-width:1;stroke-linecap:square;stroke-linejoin:miter;stroke-miterlimit:4;stroke-dasharray:none;stroke-opacity:1;paint-order:stroke fill markers"
       d=""
       id="path1194"
       inkscape:connector-curvature="0"
       transform="translate(0,796.36216)" />
    <path
       style="fill:#000000;stroke:#000000;stroke-width:1;stroke-miterlimit:4;stroke-dasharray:none;stroke-opacity:1"
       d="m 56.473887,1008.7926 c -9.41043,-26.15602 -19.758102,-53.33137 -14.784586,-81.04129 3.046472,-17.1583 10.956199,-32.9672 17.519175,-48.9765 4.713364,-10.13529 8.797729,-22.2182 20.150397,-26.69024 10.44106,-4.48712 22.854797,-6.55971 28.885677,-17.52751 6.25478,-12.36825 21.66602,-11.2153 33.32292,-10.1143 12.92513,0.113 14.98271,16.30602 25.54659,20.44715 9.99414,4.9908 22.81571,6.39542 29.14151,16.72977 15.67222,29.44619 33.43888,69.4812 26.17645,98.84169 -3.4311,16.90992 -9.37742,33.15003 -14.85348,49.46953 -8.80645,0.041 -25.24854,0.7222 -25.69594,-11.05438 1.6792,-10.00071 5.95475,-19.38532 7.21033,-29.53136 2.29721,-11.64485 5.8142,-24.28747 1.66095,-35.85353 -2.50922,-3.95242 -9.19689,-21.23148 -9.36314,-9.47497 -2.54584,18.95246 -3.71073,38.8005 2.21898,57.23913 0.58877,11.88956 -14.30316,11.85649 -22.75949,13.08606 -25.74956,3.57838 -52.26412,2.67823 -77.41516,-4.1615 -5.810794,-8.9269 2.356746,-20.99508 1.254013,-31.26346 -0.598268,-13.14353 0.804006,-26.61911 -2.763546,-39.45279 -6.170444,8.08815 -11.784317,17.72236 -10.016275,28.32027 0.865558,18.02109 7.241233,35.13991 10.799823,52.63253 -2.423509,9.8619 -18.552739,10.8419 -26.235198,8.3757 z m 12.56269,-0.8873 c 4.256957,0.01 17.023801,-7.97912 5.63615,-6.3149 -4.935713,-0.077 -14.842606,4.2053 -13.706318,7.7114 2.744196,-0.029 5.45451,-0.5972 8.070168,-1.3965 z m 135.389423,0.562 c -3.89062,-5.3686 -17.29865,-9.30093 -19.4484,-5.4383 5.6363,3.5995 12.56993,7.3507 19.4484,5.4383 z m -143.460583,-4.1147 c 2.625271,-8.33275 15.506773,-5.02327 18.490909,-8.75133 -3.061176,-8.25612 -18.406434,-0.45524 -21.343887,2.57359 5.451321,5.28674 -5.40556,0.90963 -1.395381,6.49774 0.999918,4.8755 2.552993,1.2703 4.248359,-0.32 z m -2.70504,-0.091 c 2.555157,-3.6822 2.99336,-0.4898 0,0 z m 6.24763,-2.9095 c -1.39521,-0.2815 0.936195,2.7979 0,0 z m 5.698,-1.1184 c -1.741626,-1.51957 -3.287634,2.4704 0,0 z m 2.7907,-1.74079 c -2.149134,-1.86868 -1.430923,4.07339 0,0 z m 1.26898,-0.3932 c -1.395272,-0.28104 0.936379,2.79779 0,0 z m -5.87983,-6 c 5.876424,-0.29612 7.662256,-2.94444 0.649397,-1.43707 -3.841717,-0.34766 -19.167278,8.85029 -8.247437,4.16494 2.477624,-1.0519 4.994514,-2.03129 7.59804,-2.72787 z m 141.392553,5.2141 c -3.30401,-4.55993 -17.95367,-8.10813 -18.04156,-6.06893 6.38887,0.71933 12.06421,3.97235 18.04156,6.06893 z m -63.0997,-3.36052 c 9.59502,-0.20098 19.05948,-2.53023 28.46059,-3.52079 3.76103,-0.2057 9.88841,-7.01266 1.91809,-4.34232 -9.74794,3.8374 -20.89273,4.0463 -31.54292,5.58016 -4.67859,2.82426 -9.79501,-4.55365 -2.69617,-2.71521 6.20434,3.95676 17.99722,-7.86298 9.82376,-9.44529 3.97704,6.73176 -1.15814,2.96027 -1.85566,-1.91566 1.5138,5.1515 -9.31162,3.05186 -8.42395,1.22262 -3.99781,-2.76803 -1.27712,11.14372 -3.39868,1.19016 -1.70786,-2.26045 -1.73753,3.37249 -2.26299,-1.24048 -4.80428,-2.09715 -5.9205,0.57858 -1.98315,0.90285 -6.34687,1.71529 -15.46484,-3.59632 -12.7854,6.58086 1.68373,7.8992 17.5683,-2.82742 17.82934,5.5158 -4.6364,0.0658 -8.79915,2.08086 -1.18904,2.32116 2.65747,0.12988 5.52157,0.73468 8.10618,-0.13386 z m -8.89599,-3.9395 c 1.58631,-4.0081 0.093,3.41868 0,0 z m -6.91971,-4.46838 c -2.69508,-7.25804 7.39515,0.89741 0,0 z m 5.4075,-1.74337 c 1.51192,-7.01005 2.36386,5.77138 0,0 z m 6.84673,1.43591 c 0.0642,-8.89537 6.01012,3.1186 0,0 z m -74.992022,2.43214 c -0.324079,-0.43087 -23.710391,-38.00684 -23.710391,-38.00684 -2.55963,4.99381 -0.901947,12.73705 4.710163,31.43288 -0.53103,1.80974 3.705906,6.46566 3.688972,9.93495 -0.0372,7.62136 11.451295,-3.0973 15.311256,-3.36099 z m 71.920452,6.542 c -9.1824,-3.98409 -19.74924,-2.45086 -29.52724,-3.77997 -9.08724,-1.44193 -19.047179,-1.08851 -27.139813,-5.95413 0.871592,8.06928 14.056096,4.8788 20.125433,7.18038 12.14027,1.24325 24.32525,2.56645 36.54162,2.55372 z m 71.03377,-1.19446 c 4.1031,-6.87573 3.96983,-15.7444 4.3765,-22.19573 4.2248,-3.63864 2.16967,-12.97799 6.44741,-19.13813 1.00348,-7.71886 1.24065,-15.44912 -1.51914,-22.85734 -10.71247,-13.1522 -6.97345,-34.8535 -18.29325,-47.48677 -0.77302,-5.66246 -10.61067,-19.25077 -11.36123,-6.30533 -2.60043,24.21318 5.9984,50.21706 25.07464,65.95198 2.99729,5.56698 -13.42117,18.05945 -4.39574,7.7227 9.85248,-6.26117 -3.38256,-11.94411 -6.67037,-17.83511 -13.03144,-16.47983 -18.34034,-38.93886 -14.47695,-59.5425 1.71077,-14.17006 15.60345,13.04714 9.6009,0.74278 -1.66619,-6.2114 -10.19129,-18.65081 -10.95061,-5.73451 -4.01619,22.22389 -2.82602,47.2172 10.52508,66.25214 3.82449,5.3084 15.72151,10.0149 6.16248,16.5176 -5.0497,7.12009 -7.47033,15.62472 -9.96501,23.87601 0.88445,-11.30653 6.56568,-21.50439 13.02644,-30.56034 -14.52536,-7.2232 -19.26394,-24.37518 -22.1095,-39.07607 -1.86144,-10.57551 -1.38356,-21.44943 -0.54766,-32.02648 -3.94998,10.18892 -4.67778,21.49534 -4.72249,32.32335 1.05463,8.09395 2.39561,15.74333 8.3218,21.82665 5.19223,6.33138 5.61775,14.35836 5.42356,22.06839 -0.31396,10.42032 -4.21817,20.31925 -5.46268,30.55523 0.13236,6.02561 20.20393,14.91133 21.51582,14.92148 z m 5.2041,-26.29154 c 2.18127,-3.78151 1.96609,2.68452 0,0 z m -9.73776,-8.51087 c 0.93688,-4.38773 1.91654,-0.18577 0,0 z m -86.27824,32.74503 c -1.12837,-7.2664 -2.99884,-2.91309 0,0 z m -53.365893,-3.82286 c 12.885761,-1.25632 6.363701,-16.17821 4.629009,-23.99002 -2.318709,-11.52615 -5.118483,-24.83684 2.481106,-35.09516 3.840274,-7.46231 10.845217,-15.36967 8.279715,-24.28664 2.201144,-10.57604 -0.707474,-21.53277 -3.635371,-31.65584 0.603313,14.53306 1.172214,29.5333 -3.705263,43.53955 -3.001653,7.26144 -4.84795,15.758 -11.093643,21.00676 -7.21509,2.98515 -9.210526,9.22136 -2.367611,14.11699 3.868998,7.19003 6.628863,15.40901 7.133578,23.705 -0.982123,-12.04058 -9.218898,-22.04995 -13.113186,-32.44063 6.975964,-6.77251 14.589504,-13.14849 16.82602,-23.43301 6.293911,-18.11646 6.793027,-38.34708 1.872501,-56.83064 -4.76595,-5.45493 -10.664456,11.33028 -10.036711,12.00477 3.456431,-8.51794 12.055125,-7.64467 10.719011,2.24385 2.750651,24.8829 -7.156316,51.46756 -27.285455,66.82255 3.471911,2.90477 9.909103,12.71135 8.735071,12.72456 -4.974531,-5.95691 -12.964832,-15.45272 -2.059237,-20.12847 15.95787,-16.44544 21.964748,-40.67739 19.222152,-63.02346 -12.068131,4.85612 -24.417996,38.44851 -28.854194,53.48672 -2.66455,8.12953 -2.450013,16.57477 -2.377722,24.83003 3.237414,14.11062 12.971225,42.71937 24.63023,36.40309 z m 129.216003,1.51374 c -2.02644,-4.28333 -14.67491,-2.69667 -5.67376,-0.0698 1.8737,0.0446 3.84098,0.69516 5.67376,0.0698 z m -84.18715,-1.48811 c 7.64646,4.95381 4.98685,-16.14905 -1.56511,-7.53852 -6.71371,-0.90729 -17.495907,-5.00655 -25.744436,-4.23687 -4.941868,10.54223 13.184021,8.33284 19.247676,11.08331 3.03153,-0.32157 5.87611,2.84491 8.06187,0.69208 z m -4.28254,-3.26252 c 0.44449,-5.144 5.75618,2.83029 0,0 z m -10.028048,-1.05734 c -6.103618,-4.55855 7.742928,-2.33459 0,0 z m -10.625715,-1.95808 c -4.042082,-9.23582 9.066424,0.2556 0,0 z m 26.020493,-1.30852 c -2.70468,-3.0833 3.64555,0.69347 0,0 z m 48.51385,6.50663 c 5.8084,-2.21647 22.84789,-0.92142 17.76628,-10.51738 -5.92035,-0.94604 -15.8037,2.55693 -19.13769,2.27274 -1.25002,2.08718 -2.54755,-0.23351 -3.80836,0.54676 -2.11793,-5.15702 0.39044,14.11475 5.17977,7.69788 z m 3.75937,-3.2017 c -1.847,-7.14059 5.53451,1.40522 0.14934,0.26893 z m 9.39286,-2.51267 c -1.3473,-9.76845 8.9254,3.08374 0,0 z m 3.0969,-1.35442 c -1.76449,0.47273 -0.6479,3.6783 0,0 z m -58.30235,1.36387 c 0.0641,-6.83939 -1.30962,6.57026 0,0 z m 10.29006,-2.1214 c -2.66567,-4.42502 -5.23467,3.49746 0,0 z m 29.71743,-0.97351 c -1.39521,-0.28137 0.93625,2.7979 0,0 z m -49.88331,-0.27288 c -2.27582,-1.41635 -2.1991,2.52008 0,0 z m -5.38028,-0.64868 c -1.9711,-0.93113 -1.57777,1.37519 0,0 z m 15.13796,-0.82262 c 12.28696,0.35474 -0.17956,-13.75766 1.05007,-20.3602 -3.47593,-15.31452 -6.8687,-30.87995 -12.89497,-45.36444 -0.13363,-7.82934 -1.13726,-16.82355 -11.212713,-15.50392 -7.305138,-0.54785 -10.340374,-13.3649 -10.255221,-14.39047 0.155287,9.88868 1.177055,19.79151 2.081399,29.60657 -0.559235,5.44405 4.641842,17.01795 0.689171,20.87505 -3.241044,8.6154 0.894059,-6.73181 -1.792729,-5.05572 0.675923,-2.14594 2.777472,-8.71439 0.612421,-8.28699 -0.905998,10.28038 -2.378307,-13.68883 -3.581831,-0.80343 2.235277,12.10773 2.614392,24.41156 2.38217,36.67284 0.438109,6.07804 6.35119,10.93512 1.129402,17.25527 -0.533294,-0.25539 9.052675,5.68544 13.559111,4.54422 5.99636,-0.34369 12.51654,2.52983 18.23372,0.81122 z m -26.508373,-8.31032 c -3.14623,-8.21383 -0.422472,-17.18183 1.029275,-25.44403 2.889004,-3.62192 -1.512125,-17.14696 6.09757,-11.38017 0.304558,9.24086 -0.491483,19.88501 -2.963244,29.96082 -0.719618,2.49674 0.543075,8.82113 -4.163601,6.86338 z m 2.43942,-3.87957 c -1.168933,-1.97022 -2.582512,1.36144 0,0 z m -0.47485,-3.73987 c -2.539463,0.39873 -0.129179,3.1067 0,0 z m 4.030338,-15.93325 c -2.141339,-0.24187 -1.404882,3.25835 0,0 z m 0.02233,-4.00056 c 2.202825,-3.47428 -2.070201,-1.47142 0,0 z m -10.033768,17.74136 c -2.244228,-4.89673 -1.335748,-17.70859 0.645059,-17.88535 0.449761,-7.3158 -0.380368,-2.34573 -1.910609,-2.33774 0.737017,-7.34455 3.723659,-6.25748 3.029407,0.29413 -0.712185,4.6014 0.546637,10.92341 -1.83766,11.80863 1.640018,0.93236 1.505179,10.72337 0.0738,8.12033 z m 0.4757,-5.72409 c -1.764505,0.47274 -0.647841,3.67819 0,0 z m 4.67922,-15.59508 c 2.024302,-3.64317 1.976566,3.49912 0,0 z m -0.32525,-27.26645 c -5.787156,-5.37627 6.544663,4.52756 0,0 z m 65.051243,66.35018 c 5.97709,-0.73751 21.95886,-2.18238 17.01177,-8.79847 0.53454,-4.8937 -0.67639,-6.90716 0.18085,-12.89524 -4.29106,3.11318 -0.2383,-8.9166 -2.17629,-11.49145 5.80673,-2.08495 1.12485,15.84351 3.74289,4.83778 -0.66527,-11.71636 3.35379,-23.61043 2.40865,-35.00455 -2.33037,3.14553 -2.17833,13.84989 -3.92129,8.80831 -3.28161,1.56901 -0.61927,-8.81655 1.46876,-7.86019 -2.91724,-4.04323 1.31667,-16.63601 0.26391,-25.02777 0.86035,-8.28231 0.29078,-14.19895 4.03651,-21.14368 3.71487,-5.9053 6.12403,-15.08079 -4.18658,-14.52145 -7.08655,-3.42554 -13.04185,-1.07138 -5.93506,5.75574 3.97154,2.23909 7.33193,15.4505 1.48354,10.75673 0.74818,-2.29605 -4.40915,1.90068 -6.11567,-0.81223 0.23552,3.01018 -14.00321,-4.19673 -15.62803,0.2344 5.18269,3.31337 12.7983,8.5846 12.55037,14.09406 9.30303,1.33031 -11.32892,17.23815 2.19461,11.50046 9.56503,-0.45176 9.15349,-9.3906 11.63968,-16.23664 2.42732,12.70826 -10.32342,17.90736 -19.81488,20.77423 -3.36701,3.01625 -13.51644,10.91133 -11.01798,12.00599 6.57127,0.62213 17.48554,-10.1519 18.91409,-9.05181 -3.35259,5.68423 0.12102,3.94344 2.52167,0.21164 6.417,1.06147 -3.23394,-1.34707 1.51217,-2.81059 2.46085,2.53184 4.74461,9.95525 -0.19505,6.96547 -4.80738,4.47364 -10.00148,6.34921 -10.35509,0.40789 5.01837,9.0771 -9.18292,9.18501 -14.46884,14.4839 -0.46606,10.76949 -7.42717,4.05733 -6.59633,-2.58 -7.72355,2.51867 -10.84487,12.4056 -11.0818,20.022 -0.13014,2.86844 -0.54138,13.4345 -0.82775,5.13641 -1.28602,-11.18818 2.75677,-22.76525 12.38979,-29.05308 6.57055,-7.57421 -6.72729,2.89433 -8.86355,4.24223 -3.60729,2.50057 -8.63291,11.53166 -5.8808,18.53226 1.18841,12.15849 2.6666,24.33676 5.46078,36.22203 4.02281,8.19703 14.78948,1.67163 21.95485,3.03852 2.44932,-0.18301 4.89454,-0.42473 7.3301,-0.7429 z m -18.21435,-6.49914 c -8.8745,-0.49498 -7.25036,-13.82961 -3.85349,-18.5354 8.40041,1.89683 17.49291,-1.39953 25.69139,1.62146 0.64814,8.2491 1.35636,17.54131 -9.15365,17.87376 -4.24545,1.52903 -8.71406,1.08984 -12.68425,-0.95982 z m 11.06168,-2.34058 c -1.28543,-2.11269 -8.35634,1.50166 -4.85808,-4.57306 4.947,-2.25869 7.62907,8.97979 12.01145,0.60191 2.01684,-5.78258 0.7257,-12.65664 -6.86355,-9.16098 -7.79774,0.64029 -19.64497,-1.94783 -13.10057,9.94835 2.72397,4.26118 8.53774,3.28798 12.81075,3.18378 z m 9.89626,-7.62976 c -1.31337,3.3249 1.13992,3.9344 0,0 z m -20.80886,-7.72023 c -1.9711,-0.93116 -1.57778,1.37524 0,0 z m 27.54242,15.73395 c -0.28482,-7.13183 -3.22826,-15.08039 -2.62979,-21.39756 -3.36543,-3.323 2.42379,-3.93781 -1.48695,-6.49103 0.16494,-4.87464 -0.26629,-13.84869 5.43445,-7.83375 -1.70246,7.9575 3.03529,15.81377 3.14556,24.43664 -0.28011,2.45538 0.86537,15.07385 -4.46327,11.2857 z m 3.29082,-13.22677 c 1.98331,-2.98199 -4.27436,4.20324 0,0 z m -1.69205,-13.69775 c -2.16412,-0.085 -1.60257,2.54311 0,0 z m -1.28321,-9.82664 c -3.18477,-2.74029 0.80347,4.56756 0,0 z m 5.49433,27.26484 c 1.98545,-2.54404 1.56864,2.01565 0,0 z m 0.16263,-16.73134 c -3.11308,-6.27174 2.50667,-5.29665 0,0 z m 1.75152,-0.18198 c -0.55751,-3.85504 -1.54047,-13.83144 0.57351,-4.78117 -0.0192,1.59412 0.17852,3.29825 -0.57351,4.78117 z m -1.75152,-5.02212 c -3.24572,-3.41748 3.00641,-0.9304 0,0 z m 1.49799,-4.68001 c 0.13558,-6.88276 2.98762,-5.51974 0.81191,0.34615 l -0.35223,-0.0134 z m -1.60926,-4.12126 c 0.33039,-8.73996 2.55246,5.02849 0.046,1.38786 -0.0153,-0.46262 -0.0306,-0.92524 -0.046,-1.38786 z m -7.85751,-15.82487 c 3.43065,-2.69972 5.68543,-0.33609 0,0 z m -1.62628,-6.78044 c 2.59246,-2.88598 0.5318,2.35153 0,0 z m 7.48089,70.90586 c -1.53158,-2.81497 -1.06861,2.60005 0,0 z m -44.5601,-1.95154 c -0.25324,-2.55774 -1.84776,2.45536 0,0 z m 89.29653,-1.1795 c -2.28794,-1.86487 -1.5163,3.36028 0,0 z m -38.2313,0.24212 c -1.21247,-2.50871 -1.8202,1.22867 0,0 z m -50.73997,-1.66467 c -1.0372,-1.94664 -1.14215,2.17929 0,0 z m -1.05282,-2.31058 c -0.24023,-2.74643 -1.79186,3.67355 0,0 z m -39.929463,-0.57833 c -1.212455,-2.50873 -1.820224,1.22864 0,0 z m 1.22939,-1.90362 c 0.94132,-5.79351 -3.172267,2.97088 0,0 z m 38.275683,-2.10562 c -1.97111,-0.93112 -1.57776,1.37519 0,0 z m -0.47433,-2.20903 c -1.03721,-1.94665 -1.14214,2.17931 0,0 z m -1.05282,-4.26211 c -0.24023,-2.74644 -1.79189,3.67356 0,0 z m -0.57346,-2.24301 c -0.25325,-2.55774 -1.84775,2.45535 0,0 z m 0.32525,-2.60205 c -1.03719,-1.94664 -1.14214,2.1793 0,0 z m 51.23933,-8.10743 c -0.53116,-3.72756 -1.72456,1.84797 -0.42056,1.24606 z m -57.7498,-7.3218 c -1.70941,0.35867 1.98408,4.72661 0,0 z m -1.14235,-6.82178 c -1.28481,-3.25987 -4.45223,-14.97526 -5.78997,-12.97988 0.98666,1.93146 3.05608,5.39462 3.88257,8.29912 1.15716,4.06652 1.07818,7.46663 2.74144,7.80676 -0.15715,-1.07212 -0.53876,-2.08911 -0.83404,-3.126 z m 2.91075,-6.37154 c 2.25209,-7.71603 8.69091,-17.35421 -2.91974,-21.12934 -2.74655,-3.53064 -9.4982,-6.42023 -5.2501,0.6979 2.34099,6.36699 5.91139,18.47551 8.16984,20.43144 z m 6.83718,-4.65379 c 10.47952,-8.52952 22.39476,-15.36655 31.65895,-25.33141 -10.81352,9.61326 -23.61072,16.67478 -34.38871,26.33187 -3.93944,6.7092 0.19606,2.50945 2.72976,-1.00046 z m -9.90126,3.35277 c -1.53159,-2.81494 -1.06858,2.60003 0,0 z m 25.84432,-1.04353 c -1.97109,-0.93113 -1.57778,1.3752 0,0 z m -26.82008,-0.90801 c -0.25325,-2.55774 -1.84775,2.45535 0,0 z m -1.12709,-3.25313 c -2.98645,-3.21975 1.46458,4.2243 0,0 z m 23.24451,-9.522 c 7.39671,-3.5755 12.65616,-11.97313 17.30128,-16.07057 -1.19561,4.37226 9.10077,-6.06089 5.74511,-9.38738 2.50341,-4.92297 -11.25517,-12.45909 -3.6075,-3.88335 -0.75006,2.90691 -8.13294,-17.71947 -10.61188,-5.60334 -2.61373,6.20227 -5.77765,14.3544 -8.64397,15.97026 0.30116,5.58225 -5.91106,8.02775 -1.37932,1.16537 3.57096,-9.20277 10.69606,-17.10315 11.26362,-27.27847 1.0131,-9.03107 7.82873,-17.30243 5.82831,-26.60754 -1.53084,3.4572 -2.91513,16.6689 -5.97469,23.49658 -1.7399,7.914 -4.71401,15.33364 -8.72601,22.35839 -4.00887,8.031 -6.3584,16.83294 -10.6295,24.68845 -2.10297,3.76812 -7.83517,15.26533 0.45649,7.84193 2.81782,-2.50283 5.84173,-4.62764 8.97806,-6.69033 z m -4.87884,-9.9928 c 3.18484,-4.78747 -1.61032,4.37284 0,0 z m 9.5815,20.42337 c -1.9711,-0.93113 -1.57776,1.37519 0,0 z m 3.42874,-3.32399 c -5.59066,-0.61213 5.20564,-4.43012 -3.12573,-2.6818 -4.97752,2.01048 1.00093,3.76714 3.12573,2.6818 z m -58.127923,-0.51132 c -4.481908,-3.78751 1.595234,3.12629 0,0 z m 22.605703,-8.90356 c -0.28218,-1.13264 -0.68718,-2.47953 -1.07782,-3.77546 -1.07768,-3.57514 -2.51708,-5.43176 -0.59142,1.23588 0.99168,4.4798 5.44625,13.66461 2.16253,4.02298 -0.16443,-0.49447 -0.32886,-0.98893 -0.49329,-1.4834 z m 45.06308,6.36353 c -2.11564,-2.4906 -0.52967,2.5227 0,0 z M 87.078117,908.0963 c -0.820048,-3.71452 -2.609029,4.47335 0,0 z M 58.10528,884.928 c 2.251502,-7.47181 -2.531045,12.19925 -1.435825,8.87338 -5.799611,0.005 2.468489,-12.44595 0.349742,-4.49908 -1.925451,5.04449 -0.61212,-6.13481 1.086083,-4.3743 z m 86.70487,23.03513 c 1.98331,-2.98199 -4.27436,4.20324 0,0 z m 33.53852,-2.16512 c 0.0745,-2.57088 -2.22788,5.05582 0,0 z m -49.75415,-4.03142 c 6.33836,-3.82457 -4.30037,-22.15758 -0.23177,-9.58135 1.51612,5.10182 -1.15112,12.82552 -7.70874,11.23135 3.0345,3.85696 7.44731,3.9859 7.94051,-1.65 z m 39.63408,4.24501 c 1.98329,-2.98199 -4.27428,4.20316 0,0 z m 10.76959,-3.53717 c -1.39522,-0.28137 0.93624,2.79791 0,0 z m -48.05742,-1.52152 c -1.7645,0.47275 -0.64784,3.67812 0,0 z m -24.14946,-0.43001 c -1.3952,-0.28143 0.9362,2.79795 0,0 z m 19.43455,0.49893 c 4.11582,-9.79675 -3.33518,-18.538 -7.45354,-26.62315 -3.45156,-14.35586 -11.4083,7.18753 -12.5415,4.97107 4.56893,-5.77081 1.86522,-6.16101 -1.99699,-1.28901 -1.91388,4.34691 -2.05484,11.41161 4.04128,12.53298 -4.46198,-9.00526 5.80923,4.9437 6.59238,7.92226 3.07229,2.46547 7.52705,4.62296 11.35837,2.48585 z m -4.61863,-19.2851 c -0.91283,-3.62496 2.02249,2.66205 0,0 z M 85.994547,897.0802 c -2.301396,-14.29462 -0.296407,11.99338 0,0 z m 68.490313,2.5889 c 3.47081,-5.02495 -4.60096,4.78219 0,0 z m -2.2768,-2.92731 c 3.10578,-4.63995 -4.95362,5.09768 0,0 z m 26.581,-0.32525 c -0.55522,-3.80349 -1.46558,3.48246 0,0 z m -65.28649,-0.52881 c -4.25221,-4.47886 -5.34195,-4.54674 0,0 z m -8.74815,-1.85435 c -4.759314,-5.19343 -8.182731,-11.70335 -3.45907,-16.981 4.03888,-7.26643 -2.245182,-11.68408 -8.593304,-7.41363 -10.654995,1.47748 -0.73,-11.09777 2.679624,-15.8264 3.90053,-7.84006 -10.649422,-0.73184 -14.209122,0.6075 -5.685156,7.04431 5.049556,15.98418 5.621986,23.29699 0.409506,9.89409 7.603248,18.16688 17.575736,17.2187 z m 2.24303,0.10636 c -3.00829,-4.32006 1.08191,3.95897 0,0 z m 48.87141,-0.48788 c 1.9834,-2.98206 -4.27452,4.20334 0,0 z m -46.91987,0.24228 c -1.71651,-3.44444 -2.23812,-0.008 0,0 z m 24.87136,-4.14536 c 4.84531,-13.85457 13.46498,-27.16138 12.11727,-42.422 -6.23278,-7.54948 -20.36168,-7.13462 -26.93113,-0.4718 -2.91594,8.78757 2.02104,17.84202 4.23609,26.27171 3.1118,5.50561 5.13892,17.06401 9.7735,18.63959 l 0.39514,-0.83714 z m 25.30107,1.30103 c 1.9833,-2.98198 -4.27428,4.20319 0,0 z m -54.07551,-0.40824 c -1.71654,-3.44444 -2.23809,-0.008 0,0 z m 58.87138,-1.70593 c 3.10574,-4.63995 -4.95361,5.09769 0,0 z m 15.68006,-1.12484 c -2.65413,0.20726 1.54709,2.72295 0,0 z m -94.675913,-4.65239 c -2.5582,-8.31925 -1.957392,-22.82642 -10.63814,-26.09788 4.91229,9.48706 8.466833,19.62242 10.358475,30.0901 0.21111,-1.32059 0.189623,-2.66271 0.279665,-3.99222 z m 16.221403,4.2306 c -1.716537,-3.44444 -2.238095,-0.008 0,0 z m 78.98646,-3.78005 c 0.85088,-9.40004 4.92768,-16.49286 9.06183,-24.7814 -2.45094,-7.1799 -6.30321,9.99204 -7.47746,13.34437 -0.57444,2.51338 -4.58691,14.65827 -1.58437,11.43703 z m -77.68544,1.81845 c -2.41859,-2.52005 -1.86185,1.10288 0,0 z m -3.458696,-1.81785 c -1.395218,-0.28144 0.936194,2.798 0,0 z m 62.193536,-0.52944 c -0.28012,-3.49406 -1.58894,4.51886 0,0 z m -60.49273,-0.21594 c -1.020148,-3.43432 -1.412861,3.1729 0,0 z m 42.72025,-4.662 c -2.41254,0.43685 -0.15355,4.19603 0,0 z m -81.419763,-0.66773 c -1.764491,0.47274 -0.647881,3.6782 0,0 z m 98.353013,-1.28381 c -6.69389,-6.77534 3.49488,4.86866 1.08984,1.13662 -0.36328,-0.37887 -0.72656,-0.75775 -1.08984,-1.13662 z m -39.60185,0.53668 c -2.39529,-2.39962 1.81068,4.18495 0,0 z m -16.99273,-1.51245 c -1.0372,-1.94664 -1.14216,2.17931 0,0 z m 15.6917,-1.74012 c -2.39531,-2.39959 1.81071,4.18498 0,0 z m 1.95154,0 c -2.39531,-2.39959 1.81071,4.18498 0,0 z m -6.15045,-7.35985 c 3.4046,6.46704 3.42053,3.84591 0.39175,-0.89867 -1.89188,-7.97301 -6.52929,-15.434 -7.7907,-23.91264 -3.54137,-6.87431 -1.70101,9.779 -4.55469,8.76679 3.76411,-6.41651 1.5501,-8.98636 -2.79261,-2.75973 -1.842422,5.70843 -11.498573,13.64392 -9.068819,17.8977 4.767815,-1.2632 -4.605578,6.01616 1.205204,2.64091 3.471879,-0.38504 11.369875,-4.45578 17.296945,-2.39207 -5.32199,-0.1635 -7.67267,1.26117 -5.09141,6.2872 0.37766,6.16 8.14957,-6.09682 10.40433,-5.62949 z m -8.0278,-5.57117 c -6.68652,-4.07454 7.97972,2.65711 0.26958,0.0988 z m -4.71466,-4.57318 c 0.75851,-2.2461 0.25392,2.9619 0,0 z m 1.24967,16.60388 c -1.85741,-2.10306 -0.91173,3.06582 0,0 z m 52.6915,-0.17347 c -3.01907,-3.4354 -4.85934,-3.71048 0,0 z m -36.9998,-4.13031 c -2.39531,-2.39959 1.81071,4.18498 0,0 z m -18.78163,-1.29274 c -3.121923,-1.12405 -1.081194,1.36464 0,0 z m 64.40072,0 c -3.12192,-1.12406 -1.08118,1.36464 0,0 z m 6.50108,-2.49648 c 8.72998,5.15106 -2.74548,-7.50558 -4.09623,-11.41466 -2.47115,-4.42626 -11.0839,-14.08927 -6.54631,-3.22729 0.98603,3.66013 -6.15053,-10.39173 -0.0517,-6.64277 -7.88205,-6.81211 -6.07982,11.23253 -9.52957,15.36211 -4.38665,6.74144 -0.7268,7.99814 5.26793,6.04658 4.73641,0.0231 11.34025,4.73001 14.95592,-0.12397 z m -18.37293,-2.91858 c 4.5053,0.42495 12.43765,-11.60407 6.0088,-2.22091 -1.76155,1.22183 -3.77701,2.36013 -6.0088,2.22091 z m 8.61929,4.76455 c -3.12192,-1.12405 -1.08118,1.36464 0,0 z m -4.54464,-0.67761 c -3.85738,-0.78153 -3.65343,0.94577 0,0 z m -40.57562,-5.32441 c -2.76252,-5.38388 1.47552,5.66776 0,0 z m -2.34803,-2.04962 c -1.98232,-3.59177 0.70898,4.2906 0,0 z m -0.14126,-5.9048 c -1.32198,-5.04572 -4.37458,-17.55436 -1.76734,-17.6642 -0.18888,7.15216 -0.025,4.31591 1.19662,-0.8843 -3.85974,-6.56919 -4.75245,8.98569 -2.35182,11.84756 -0.0655,1.57558 5.42391,15.84919 2.92254,6.70094 z m 54.98461,-4.20077 c -7.26374,-2.03928 4.70447,2.53859 0,0 z m -71.287903,-0.21593 c -2.754566,-1.35716 -3.056061,2.26187 0,0 z m 17.344143,-3.47609 c -1.25127,1.16834 1.04943,2.4993 0,0 z m 35.02126,-4.48418 c 2.8604,-13.14566 -12.98036,-16.21345 -22.57785,-14.48818 -8.38421,-1.04351 -17.1126,8.23062 -12.64786,15.60363 1.78495,-6.68303 6.95418,-17.2844 14.62741,-10.95363 6.40027,0.82978 13.61988,-4.4947 17.19326,4.92501 2.6259,2.63019 1.96421,16.48367 3.40504,4.91317 z m -27.23779,1.66742 c 7.42361,-4.48545 19.12731,4.09373 24.22914,-1.02196 -0.44971,-8.61519 -9.30905,-10.24025 -14.86647,-5.49967 -6.11015,-5.08092 -13.91566,-3.24135 -15.10681,4.81089 -2.18549,9.63802 1.48473,2.34104 5.74414,1.71074 z m 29.4697,-3.97523 c -1.81052,-4.35053 -0.39008,6.95815 0,0 z m -1.46578,-5.38716 c -0.77896,-1.87337 4.6376,0.56881 -0.10046,-1.33986 -1.4731,0.61274 0.93615,4.63733 0.10046,1.33986 z m -35.24244,-3.27052 c 3.10575,-4.63996 -4.95359,5.09765 0,0 z"
       id="path850"
       inkscape:connector-curvature="0"
       sodipodi:nodetypes="cccccccccccccccccccccccccccccccccccccccccccccccccccccccccccccccccccccccccccscscccccccccccccccccccccccccccccccccccccccccccccccccccccccccccccccccccccccccccccccccccccccccccccccccccccccccccccccccccccccccccccccccccccccccccccccccccccccccccccccccccccccccccccccccccccccccccccccccccccccccccccccccccccccccccccccccccccccccccccccccccccccccsccccccccccccccccccccccccccccccccccccccccccsccccccccccccccccccccccccccccccccccccccccccccccccccccccccccccccccccccccccccccccccccccccccccccccccccccccccccccccccccccccccccccccccccccccccccccccccccccccccccccccccccccccccccccccccccccc" />
    <path
       style="opacity:0.98999999;fill:#ff8080;fill-opacity:1;fill-rule:nonzero;stroke:#ff8080;stroke-width:1;stroke-linecap:square;stroke-linejoin:miter;stroke-miterlimit:4;stroke-dasharray:none;stroke-opacity:1;paint-order:stroke fill markers"
       d="m 132.11703,976.16728 c -3.43198,-2.67315 -3.27902,-7.57261 -4.19446,-11.46105 -2.02425,-10.49721 -3.11647,-21.14147 -4.18202,-31.76882 -0.5818,-5.16806 1.23455,-10.82324 5.7769,-13.71268 2.83376,-3.05906 6.59316,-5.17955 9.97789,-7.61074 2.73651,-1.34188 -1.75922,3.03555 -2.62642,3.70392 -4.36583,3.35453 -8.03862,7.79711 -9.39381,13.22919 -1.36094,5.74529 -1.86794,11.8412 -0.87091,17.6786 0.85485,-2.55288 0.25827,-6.15325 0.77944,-9.1007 0.34347,-5.80952 2.1365,-11.6251 6.14036,-15.97932 1.47558,-2.65332 6.48248,-4.91448 5.5424,0.1147 -0.79446,2.98209 2.0384,7.98383 4.72794,4.06262 1.26503,-3.19444 1.26428,-6.91961 5.55242,-7.6187 3.2503,-1.36246 6.33369,-3.11525 9.5054,-4.58828 4.19586,0.27145 -1.61628,-6.84623 1.98394,-3.84031 3.1014,2.91418 6.02042,-2.9464 9.20068,-3.58993 1.33726,-0.63321 3.05174,2.4769 2.69651,-0.75969 0.52228,-2.59918 -3.68842,-9.52005 -4.28462,-4.44814 2.51002,1.06841 -2.16928,0.51907 -2.30193,2.4489 -4.10661,1.63408 3.18688,-4.27821 -0.54649,-2.20204 -4.39695,1.92895 -7.97336,5.21308 -12.16211,7.46884 -1.96025,0.61095 -6.50595,2.62751 -7.20755,1.36847 4.04469,-4.30526 8.26994,-8.54821 13.06406,-12.01598 3.46436,-2.17264 7.95138,-1.74195 11.28452,-4.29288 3.36044,-2.05611 5.83106,-5.40185 6.92057,-9.17589 0.24558,7.38516 -0.31478,14.85904 -1.16193,22.21821 0.0639,2.25918 -2.42181,6.05169 1.11519,5.40822 -0.70483,1.96154 -3.60355,2.63253 -2.83474,5.60955 -0.01,1.30239 -0.45457,6.01106 1.66487,3.31146 0.73487,5.20618 2.25759,-3.2326 2.31321,-4.80095 -0.11454,-1.62337 1.42387,-5.96023 1.572,-2.04121 -0.56773,10.05368 -2.67286,19.97025 -2.76366,30.06206 0.21478,1.72932 -0.88993,8.86652 -0.74598,3.70599 1.18106,-2.35239 -0.28398,-7.81906 -3.36343,-5.05272 0.92323,2.97353 0.90421,5.84636 0.59871,9.09956 0.003,1.36414 0.007,2.72828 0.0102,4.09242 0.8176,-1.85485 3.0096,-2.48342 1.81542,0.37771 -2.28901,0.69999 -1.56824,1.81319 -0.20315,2.17873 -0.61331,1.95752 -0.86178,4.02902 0.60207,4.94356 -0.35257,2.11192 -0.90288,4.81548 0.82676,5.46008 -1.66445,4.26661 -6.91135,4.4909 -10.76718,5.23171 -8.0142,1.33285 -16.10364,2.00234 -24.21285,2.40432 -3.19424,-0.19997 -6.93258,1.50251 -9.84822,-0.11879 z m 17.83597,-5.67575 c 4.13638,-0.84993 8.09023,-2.36488 12.08704,-3.69618 0.47169,-5.09428 0.40574,-10.21308 0.23439,-15.3204 -4.82223,-1.85655 -10.15514,-0.84974 -15.19429,-0.99551 -3.6073,0.32079 -7.19677,-0.69193 -10.76079,-0.4302 -3.30639,2.48378 -1.58381,7.63751 -2.07981,11.24857 -1.06846,4.2553 2.0266,6.96601 5.94976,7.46457 3.10603,1.22937 6.35632,2.71451 9.7637,1.72915 z m 21.41076,-3.35154 c 0.45585,-3.70096 1.96404,-7.35492 1.50329,-11.07326 -0.92369,-6.16578 -1.61694,-12.41256 -3.31717,-18.42237 -2.23295,-2.13037 2.42087,-7.97974 -1.97334,-8.547 -1.80313,-0.26099 -3.66988,-0.73538 -3.07937,1.77872 0.53759,2.65981 -1.17551,6.1888 -0.10477,9.04937 2.17712,1.38047 -1.61902,3.17473 0.70214,5.02874 0.83408,3.21545 0.1528,7.03635 1.22438,10.48111 0.6843,3.50948 1.31365,7.041 1.66421,10.59333 0.35691,1.34263 2.3217,2.20798 3.38063,1.11136 z m 3.44439,-27.93274 c 1.08685,-1.9242 -2.12615,-5.08697 -1.5774,-1.45077 0.0633,0.94522 1.05942,4.53776 1.5774,1.45077 z m 1.85224,-2.18616 c 0.67332,-1.5112 -0.91698,-6.65065 -2.01225,-5.40527 1.62283,2.67759 -3.56188,1.30622 -0.43859,3.66864 2.49409,-0.35089 0.82179,8.38279 2.29497,3.27759 0.0758,-0.51088 0.12583,-1.02542 0.15587,-1.54096 z m 0.4793,-6.89333 c 0.92492,-1.80982 -0.28695,-7.95597 -1.0509,-2.94354 -0.34861,0.98891 -0.79239,6.05883 1.0509,2.94354 z m -1.84211,-1.73575 c 1.37492,-1.58423 -0.93973,-8.09533 -1.34558,-3.35677 0.059,0.86697 -0.67614,5.78141 1.34558,3.35677 z m -5.97616,-18.28203 c 2.1201,-2.80733 -6.44692,1.79182 -1.39774,0.46149 0.47539,-0.11943 0.95703,-0.24031 1.39774,-0.46149 z"
       id="path817"
       inkscape:connector-curvature="0" />
    <path
       style="opacity:0.98999999;fill:#ff8080;fill-opacity:1;fill-rule:nonzero;stroke:#ff8080;stroke-width:1;stroke-linecap:square;stroke-linejoin:miter;stroke-miterlimit:4;stroke-dasharray:none;stroke-opacity:1;paint-order:stroke fill markers"
       d="m 114.59586,975.86275 c -7.49401,-1.09685 -15.314636,-0.70521 -22.509911,-3.32341 -2.831882,-0.6912 -4.615323,-2.70439 -2.841889,-5.4382 0.856085,-3.4212 1.111552,-7.40717 -1.930467,-9.29943 -1.248457,-7.78958 -0.442168,-15.74527 -0.983797,-23.59714 -0.154255,-6.40429 -1.810221,-12.68453 -1.922928,-19.07446 -0.03921,-1.833 1.112962,-4.28847 1.272593,-0.94655 0.467922,1.60271 0.124837,6.11351 1.681527,5.93441 0.866275,-4.58644 1.958198,2.20296 -0.415619,2.97069 -0.685072,1.47134 -0.08921,2.88597 1.511709,2.36515 -1.96552,2.83203 -1.122691,6.30606 -0.473758,9.31446 -0.753417,1.34655 -0.582329,5.17291 0.719341,2.05183 0.595813,-2.04974 1.102323,3.4314 0.302141,3.19927 -3.050266,-1.00865 0.146506,3.7637 -1.08468,5.46144 -0.188203,4.23978 -1.78781,9.09456 1.106812,12.77745 1.585106,-1.22976 1.338088,-6.14556 0.07511,-8.4617 -0.695949,-1.21815 0.225329,-2.40921 1.139881,-1.07106 0.349788,-5.6228 0.374957,-11.30141 0.0057,-16.9256 -0.422238,-1.86392 -2.185659,0.67664 -1.014921,-1.97944 1.754152,-1.24179 0.924948,-5.4868 0.873699,-7.90073 -0.222569,-3.78873 -1.466983,-7.39625 -2.310869,-11.04565 0.78441,-3.89214 -0.335063,-7.92397 -0.476705,-11.86018 -0.526304,-6.33854 -0.92763,-12.68689 -1.263477,-19.03819 0.47664,5.60972 3.191509,11.44902 8.646185,13.75163 3.150429,2.70127 8.910993,0.0154 10.778863,4.18971 1.85151,5.21877 0.6001,11.24678 3.59888,16.10509 4.06043,11.25445 6.83449,22.93039 9.67849,34.53992 1.74216,6.79974 2.37929,13.89786 5.17286,20.3994 2.13818,3.22476 0.44406,7.22862 -3.73616,6.63141 -1.87255,0.20691 -3.71018,0.6867 -5.59866,0.26988 z m -18.776051,-8.7692 c 1.624259,-3.35316 1.140456,-7.43319 2.22902,-11.03121 1.303249,-5.3778 1.906204,-10.87974 1.77426,-16.41205 -0.179294,-3.60186 2.729411,-7.65785 -0.826457,-10.5748 -3.184334,-2.06474 -5.989132,2.81631 -3.701096,5.35012 -2.785617,1.51827 0.880777,3.94141 -1.174984,6.23687 -1.675851,6.43746 -2.764283,13.10534 -2.781558,19.76738 0.388412,2.47429 0.04869,9.31969 4.480815,6.66369 z"
       id="path819"
       inkscape:connector-curvature="0"
       sodipodi:nodetypes="ccccccccccccccccccccccccccccccccccccccc" />
    <path
       style="opacity:0.98999999;fill:#ff8080;fill-opacity:1;fill-rule:nonzero;stroke:#ff8080;stroke-width:1;stroke-linecap:square;stroke-linejoin:miter;stroke-miterlimit:4;stroke-dasharray:none;stroke-opacity:1;paint-order:stroke fill markers"
       d="m 161.21595,97.645327 c 0.13669,-0.44964 0.67183,-1.350332 1.18921,-2.001536 2.43119,-3.060029 2.93008,-3.841661 3.6073,-5.651696 1.20415,-3.218375 0.86882,-4.414297 -1.23775,-4.414297 -1.05344,0 -1.09985,-0.05997 -0.96178,-1.24269 0.31787,-2.722775 -3.55252,-6.897597 -11.09861,-11.971595 -2.74416,-1.845174 -1.13853,-2.503719 3.9416,-1.616634 9.20112,1.606689 11.72041,1.886676 11.33279,1.259491 -0.35979,-0.582154 0.60347,-0.406531 1.31826,0.240347 0.61941,0.560552 0.74559,0.549513 2.04104,-0.178572 1.74825,-0.982571 2.33403,-1.018756 1.76594,-0.109085 -0.9996,1.600613 0.7827,2.397623 2.90612,1.299561 0.93127,-0.481576 1.01162,-0.66395 0.82612,-1.875 -0.37088,-2.421358 -1.37497,-4.496174 -4.24339,-8.768371 -4.6708,-6.956641 -4.83214,-7.233283 -4.58865,-7.867824 0.28909,-0.753358 2.35041,-0.799329 4.34152,-0.09682 0.78158,0.275757 3.15729,0.846609 5.27937,1.268562 4.34286,0.863531 5.84834,1.403298 6.92951,2.484474 1.06596,1.065957 0.93205,2.273778 -0.66164,5.967744 -0.77305,1.791828 -1.92602,4.765043 -2.56216,6.607143 -0.63613,1.8421 -1.44788,3.730263 -1.80389,4.195916 -0.41242,0.539445 -0.57019,1.153773 -0.43483,1.6931 0.14431,0.574992 0.038,0.91341 -0.33158,1.05522 -0.44425,0.170476 -0.51151,0.711445 -0.36676,2.949756 0.12896,1.99424 0.0737,2.595046 -0.20268,2.205281 -0.20896,-0.294643 -0.39593,-0.9375 -0.41549,-1.428571 -0.0671,-1.68514 -1.28519,1.69714 -2.31515,6.428571 -1.07371,4.932464 -1.48872,5.638597 -4.0888,6.957139 -1.47746,0.749243 -7.00257,2.623293 -9.4035,3.189557 -0.92671,0.218565 -0.99,0.170472 -0.76212,-0.579167 z"
       id="path821"
       inkscape:connector-curvature="0"
       transform="translate(0,796.36216)" />
    <path
       style="opacity:0.98999999;fill:#ff8080;fill-opacity:1;fill-rule:nonzero;stroke:#ff8080;stroke-width:1;stroke-linecap:square;stroke-linejoin:miter;stroke-miterlimit:4;stroke-dasharray:none;stroke-opacity:1;paint-order:stroke fill markers"
       d="m 89.955184,91.473337 c -0.33686,-0.787189 -1.190279,-3.55009 -1.896487,-6.139778 -0.706208,-2.589689 -1.671394,-5.482546 -2.144857,-6.428572 -0.473462,-0.946025 -0.792003,-1.913701 -0.707869,-2.15039 0.209487,-0.589337 -2.936113,-8.034702 -4.443855,-10.518222 -3.525646,-5.807367 -1.357477,-8.647299 8.261156,-10.820709 2.032104,-0.459171 4.026328,-1.012319 4.431608,-1.229219 0.405282,-0.2169 1.229583,-0.394363 1.831783,-0.394363 0.904998,0 1.094907,0.142737 1.094907,0.822936 0,0.994499 -1.731975,3.812553 -3.584745,5.83265 -1.692291,1.845125 -2.10531,2.663743 -3.547333,7.030938 -0.637069,1.929374 -1.379313,3.592761 -1.649431,3.696415 -0.771033,0.295873 -0.0075,1.360994 1.482454,2.068026 1.507108,0.71517 2.569336,0.591666 6.637399,-0.771723 3.21135,-1.076265 4.877366,-0.942072 5.998456,0.483158 0.39869,0.506856 0.63216,1.071603 0.51882,1.254994 -0.16254,0.262995 -1.52769,8.683787 -1.5617,9.633174 -0.005,0.126028 -0.41546,0.331354 -0.913209,0.456282 -3.575563,5.66642 3.988519,9.478906 4.452869,13.985832 -4.247632,0.765185 -12.540767,-2.965074 -14.259966,-6.811429 z"
       id="path823"
       inkscape:connector-curvature="0"
       transform="translate(0,796.36216)"
       sodipodi:nodetypes="cssssscssssscscccccc" />
    <path
       style="opacity:0.98999999;fill:#ff8080;fill-opacity:1;fill-rule:nonzero;stroke:#ff8080;stroke-width:1;stroke-linecap:square;stroke-linejoin:miter;stroke-miterlimit:4;stroke-dasharray:none;stroke-opacity:1;paint-order:stroke fill markers"
       d="m 58.623999,192.01654 c -1.158373,-1.33303 -1.921152,-3.93425 -3.140916,-3.37145 -3.9845,1.83845 -4.783372,-4.57223 -6.569825,-8.44799 -0.644016,-1.39721 -1.439702,-4.30333 -2.031626,-6.16809 -0.967201,-3.04702 -2.617815,-13.29377 -3.343557,-15.9217 -0.910416,-3.31008 -1.076209,-4.44043 -0.880749,-6.00483 0.141685,-1.13402 0.0613,-2.77297 -0.195328,-3.98223 -0.599493,-2.82494 0.311307,-10.24326 2.13188,-17.36385 2.181602,-8.53264 4.553992,-14.38721 9.18981,-22.67857 2.600059,-4.65032 2.885654,-5.00725 8.047284,-10.057347 5.517025,-5.397812 6.687052,-6.784607 6.691098,-7.930737 0.0019,-0.525997 -15.319481,22.050224 -15.953506,22.243124 -3.572135,1.0868 -4.132794,10.26334 -4.865636,8.65492 -0.536905,-1.17838 14.398539,-35.948426 15.778513,-38.624248 0.557161,-1.080357 1.614331,-3.130383 2.349266,-4.555613 2.46309,-4.776573 5.530763,-5.784413 7.161511,-2.352811 0.538986,1.134194 0.680265,2.557993 0.813086,8.194263 0.09024,3.829371 -0.01987,8.685704 -0.251023,11.071429 -1.211793,12.50673 -5.507894,25.15276 -11.756666,34.60702 -3.154772,4.77309 -7.795709,10.10592 -10.24962,11.77767 -1.974572,1.3452 -2.396676,1.889 -3.731596,4.80753 -0.333109,0.72827 2.054236,4.91042 4.661762,8.16648 1.210504,1.51157 2.695289,3.61974 3.299523,4.6848 1.360844,2.39872 1.694418,1.8067 0.478496,-0.84923 -1.077048,-2.35258 -2.462092,-4.40291 -5.473602,-8.10275 -1.241985,-1.52586 -2.258154,-2.95878 -2.258154,-3.18427 0,-0.22549 1.943916,-2.27236 4.319814,-4.5486 6.549958,-6.27523 10.774514,-12.01781 14.63546,-19.89449 4.66399,-9.51496 7.136795,-18.92938 7.794515,-29.67513 0.501931,-8.200501 -0.542962,-18.824593 -2.051665,-20.860583 -1.53012,-2.064892 -3.814538,-1.061623 -7.220419,3.171059 -1.166309,1.44944 -2.120563,2.458486 -2.120563,2.242326 0,-1.511659 5.185098,-10.502019 7.133557,-12.36876 1.258709,-1.20592 1.890535,-1.04586 2.933257,0.743079 0.811259,1.39183 1.958087,7.202504 2.649896,13.426312 0.719065,6.469033 0.514604,21.781807 -0.363858,27.250267 -1.351953,8.41597 -3.671131,15.91144 -7.182745,23.21429 -1.038991,2.16071 -1.99358,4.28482 -2.12131,4.72024 -0.339635,1.15779 -2.744742,3.49134 -6.798797,6.5965 -3.939889,3.01773 -4.821428,4.16748 -4.821428,6.28836 0,1.13462 0.339872,1.88438 1.674929,3.69489 4.689955,6.36022 8.124171,13.90446 10.453303,22.9637 0.400901,1.55931 0.728911,3.11679 0.728911,3.46106 0,0.34428 0.153756,0.72098 0.34168,0.83712 0.883242,0.54587 -0.843225,-8.57104 -2.501461,-13.2094 -0.631098,-1.76529 -1.574747,-4.42326 -2.096998,-5.9066 -0.609843,-1.73213 -1.583429,-3.50199 -2.721385,-4.94715 -5.727282,-7.27341 -5.70119,-6.92232 -0.789694,-10.62585 4.786147,-3.609 7.380589,-6.28263 8.449456,-8.70732 0.473093,-1.0732 1.700984,-3.79948 2.728646,-6.05841 2.402129,-5.28017 3.393251,-8.22818 5.114394,-15.21235 2.272611,-9.22193 2.359611,-10.09776 2.364129,-23.799188 0.0021,-6.822417 0.130286,-11.965275 0.284529,-11.428571 0.525918,1.82999 2.699986,12.753261 3.126693,15.709572 0.272957,1.891105 0.342578,4.708045 0.194196,7.857137 -0.298353,6.33182 -0.298371,6.34301 -0.01507,8.67888 0.164043,1.35249 0.05893,2.71673 -0.330225,4.28572 -0.6678,2.69246 -4.085579,9.72463 -7.801434,16.05166 -5.068459,8.63012 -5.819995,11.21767 -5.497684,18.92857 0.310864,7.43704 1.521766,14.55848 4.35542,25.61464 2.516352,9.81813 1.223121,13.73489 -5.026638,15.22398 -1.178571,0.28081 -3.026786,0.92864 -4.107143,1.43963 -2.348295,1.11068 -4.057664,1.18129 -5.614714,0.23192 z"
       id="path825"
       inkscape:connector-curvature="0"
       transform="translate(0,796.36216)"
       sodipodi:nodetypes="cssscccssscsssssscccccccsscssssssssssccsccscsscccsscsssccssssccc" />
    <path
       style="opacity:0.98999999;fill:#ff8080;fill-opacity:1;fill-rule:nonzero;stroke:#ff8080;stroke-width:1;stroke-linecap:square;stroke-linejoin:miter;stroke-miterlimit:4;stroke-dasharray:none;stroke-opacity:1;paint-order:stroke fill markers"
       d="m 84.129639,87.00637 c -0.157738,-1.080358 -0.605465,-2.848215 -0.994949,-3.928572 -0.389484,-1.080357 -1.099157,-3.364094 -1.577051,-5.074971 -1.087418,-3.892992 -2.776608,-8.261155 -5.137378,-13.285009 -1.006848,-2.142633 -1.745739,-3.98059 -1.641979,-4.08435 0.10376,-0.10376 0.622511,-0.03608 1.15278,0.15041 1.189706,0.418397 2.35822,2.103543 3.152443,4.546224 0.331699,1.020161 1.146903,3.262055 1.811564,4.981986 1.387833,3.591271 3.791669,14.966302 3.629858,17.176606 l -0.108492,1.481961 z"
       id="path829"
       inkscape:connector-curvature="0"
       transform="translate(0,796.36216)" />
    <path
       style="opacity:0.98999999;fill:#ff8080;fill-opacity:1;fill-rule:nonzero;stroke:#ff8080;stroke-width:1;stroke-linecap:square;stroke-linejoin:miter;stroke-miterlimit:4;stroke-dasharray:none;stroke-opacity:1;paint-order:stroke fill markers"
       d="m 54.628754,196.46206 c -1.307024,-0.0443 -3.089168,-3.9513 -4.440233,-8.93443 -0.690189,-2.54562 -1.431814,-5.09266 -1.648055,-5.66008 -0.216241,-0.56742 -0.316973,-1.10787 -0.223848,-1.20099 0.302868,-0.30287 1.613039,2.16116 2.896247,5.44695 0.690406,1.76786 6.254117,0.88982 6.730798,1.67554 1.833235,3.02172 10.641714,0.21053 10.535027,0.93268 -0.161567,1.09362 -12.858402,8.73186 -13.849936,7.74033 z"
       id="path833"
       inkscape:connector-curvature="0"
       transform="translate(0,796.36216)"
       sodipodi:nodetypes="csscscsc" />
    <path
       style="opacity:0.98999999;fill:#ff8080;fill-opacity:1;fill-rule:nonzero;stroke:#ff8080;stroke-width:1;stroke-linecap:square;stroke-linejoin:miter;stroke-miterlimit:4;stroke-dasharray:none;stroke-opacity:1;paint-order:stroke fill markers"
       d="m 201.83148,193.33201 c -0.98473,-0.45857 -4.12832,-2.40464 -4.9023,-2.54984 -2.97851,-0.55878 -5.35402,-2.40133 -6.47949,-5.0258 -0.85771,-2.00009 -0.7684,-6.39883 0.1994,-9.82143 1.09965,-3.88885 3.8431,-17.47775 4.3187,-21.39149 0.22429,-1.84568 0.29664,-4.09568 0.16077,-5 -0.13586,-0.90432 -0.22697,-3.33172 -0.20247,-5.39422 0.0301,-2.53289 -0.14362,-4.38754 -0.53522,-5.71429 -0.77079,-2.6114 -3.30748,-7.48881 -5.69354,-10.94723 -5.70991,-8.2761 -5.53005,-7.9642 -5.53005,-9.58955 0,-0.85161 -0.40178,-3.56765 -0.89285,-6.03565 -0.49107,-2.468 -0.89195,-5.65509 -0.89083,-7.08242 0.003,-4.33021 1.04092,-14.71486 1.97599,-19.777645 0.80661,-4.367303 2.23578,-9.615609 2.53653,-9.314855 0.0681,0.06807 -0.0569,1.47746 -0.27776,3.131984 -0.22083,1.654523 -0.40338,6.704653 -0.40566,11.22251 -0.006,10.936296 0.94378,18.252666 3.56809,27.499996 1.89139,6.66472 5.46577,14.84739 8.09546,18.53257 2.13694,2.99466 7.16528,7.69678 9.58619,8.96429 l 1.96738,1.03005 -2.53303,3.77226 c -5.73944,8.54734 -10.24496,19.82807 -10.20785,25.55798 0.007,1.13336 0.36217,0.32155 1.71713,-3.92858 1.91944,-6.0207 3.14749,-9.20376 4.9604,-12.85714 1.71283,-3.45171 4.18997,-7.11984 5.29872,-7.84633 0.50933,-0.33372 1.24453,-1.32674 1.63378,-2.2067 l 0.70772,-1.59994 -0.83042,-1.66631 c -0.63844,-1.2811 -1.36707,-2.00526 -3.15184,-3.13255 -4.1267,-2.60649 -7.79988,-7.15585 -11.07922,-13.72199 -7.42212,-14.86112 -9.82123,-36.603183 -6.22708,-56.43332 0.60987,-3.364819 2.21253,-8.571429 2.6384,-8.571429 0.60282,0 4.26242,4.248568 5.53421,6.424872 1.22925,2.103508 2.70512,5.372181 2.70512,5.991151 0,0.135697 -0.51779,-0.392574 -1.15064,-1.173936 -2.90651,-3.588603 -4.8818,-4.674947 -6.53308,-3.592985 -2.49343,1.633755 -3.82586,15.494407 -2.48158,25.814749 2.45674,18.861058 9.6962,33.499868 22.80065,46.104878 4.09193,3.93597 4.09069,4.01162 -0.13802,8.45052 -2.86514,3.00754 -3.92591,4.51401 -3.92591,5.57543 0,0.7729 0.73486,0.16361 3.36628,-2.79111 3.27427,-3.67655 4.84,-6.22936 4.84466,-7.89881 0.003,-1.06397 -0.4816,-1.6807 -4.20913,-5.35715 -11.60866,-11.4496 -18.52635,-25.64792 -20.99101,-43.083323 -1.09511,-7.746957 -0.69083,-20.984625 0.72445,-23.721474 1.70029,-3.287998 4.68966,-0.361824 9.43822,9.238712 -2.29995,14.098718 -13.53324,-17.44546 0.75021,1.561035 5.77603,7.79013 15.5425,36.52222 18.38944,48.73005 0.49183,2.10899 1.13687,4.62347 1.43342,5.58772 1.0728,3.48829 0.40771,13.9638 -1.09046,17.17538 -0.89386,1.91614 -4.03824,16.83445 -4.03824,18.83944 -6.4574,16.38085 0.32293,25.07165 -14.95364,18.02192 z m 5.68719,-32.22001 c 0.42165,-0.92543 0.15886,-1.63282 -0.38863,-1.04611 -0.17107,0.18334 -0.4203,0.69494 -0.55383,1.13691 -0.33571,1.11117 0.42834,1.03756 0.94246,-0.0908 z"
       id="path835"
       inkscape:connector-curvature="0"
       transform="translate(0,796.36216)"
       sodipodi:nodetypes="ccccccccssscccccscccscccccccsscsssccsscsscsssccscscccccc" />
    <path
       style="opacity:0.98999999;fill:#ff8080;fill-opacity:1;fill-rule:nonzero;stroke:#ff8080;stroke-width:1;stroke-linecap:square;stroke-linejoin:miter;stroke-miterlimit:4;stroke-dasharray:none;stroke-opacity:1;paint-order:stroke fill markers"
       d="m 180.1293,87.246797 c -0.78374,-1.867743 0.73101,-8.785576 4.19731,-19.168999 2.30161,-6.894564 3.32768,-8.727496 4.39141,-7.844672 0.28638,0.237673 0.52069,0.732159 0.52069,1.098857 0,0.918612 -1.2761,4.197597 -1.9112,4.910891 -1.56563,1.758395 -5.42914,12.99898 -6.40011,18.620638 -0.36057,2.08759 -0.60984,2.831946 -0.7981,2.383285 z"
       id="path839"
       inkscape:connector-curvature="0"
       transform="translate(0,796.36216)" />
    <path
       style="opacity:0.98999999;fill:#ff8080;fill-opacity:1;fill-rule:nonzero;stroke:#ff8080;stroke-width:1;stroke-linecap:square;stroke-linejoin:miter;stroke-miterlimit:4;stroke-dasharray:none;stroke-opacity:1;paint-order:stroke fill markers"
       d="m 190.26648,192.10286 c -1.18849,-0.095 -1.88601,-0.38226 -2.49064,-1.02586 -0.70917,-0.75487 -0.75794,-0.94576 -0.31348,-1.22683 0.28949,-0.18307 0.87103,-0.33532 1.2923,-0.33833 1.27042,-0.009 5.35591,1.38206 6.25231,2.12895 l 0.83889,0.69896 -1.96429,-0.0525 c -1.08036,-0.0289 -2.70715,-0.11185 -3.61509,-0.1844 z"
       id="path841"
       inkscape:connector-curvature="0"
       transform="translate(0,796.36216)" />
    <path
       style="opacity:0.98999999;fill:#ff8080;fill-opacity:1;fill-rule:nonzero;stroke:#ff8080;stroke-width:1;stroke-linecap:square;stroke-linejoin:miter;stroke-miterlimit:4;stroke-dasharray:none;stroke-opacity:1;paint-order:stroke fill markers"
       d="m 118.17103,124.28433 c -1.87833,-4.50756 -7.87098,-21.9727 -7.65769,-22.3178 0.31564,-0.51073 2.07211,0.58968 5.51448,3.45477 1.77709,1.47907 3.974,3.12572 4.88201,3.6592 3.66201,2.15156 4.01801,4.38268 1.52865,9.58031 -0.83424,1.74184 -1.87188,4.35278 -2.30588,5.80209 l -0.78908,2.63511 z"
       id="path843"
       inkscape:connector-curvature="0"
       transform="translate(0,796.36216)" />
    <path
       style="opacity:0.98999999;fill:#ff8080;fill-opacity:1;fill-rule:nonzero;stroke:#ff8080;stroke-width:1;stroke-linecap:square;stroke-linejoin:miter;stroke-miterlimit:4;stroke-dasharray:none;stroke-opacity:1;paint-order:stroke fill markers"
       d="m 142.95754,118.09823 c -1.50247,-0.35918 -1.93522,-0.67082 -1.71791,-1.23711 0.29387,-0.7658 2.76791,-1.70696 4.09964,-1.55957 l 1.22087,0.13513 -1.31486,0.60086 c -1.67082,0.76353 -1.96169,1.24523 -1.13162,1.87409 0.7245,0.54888 0.50647,0.58407 -1.15612,0.1866 z"
       id="path849"
       inkscape:connector-curvature="0"
       transform="translate(0,796.36216)" />
    <path
       style="opacity:0.98999999;fill:#ff5555;fill-opacity:1;fill-rule:nonzero;stroke:#ff5555;stroke-width:0.5;stroke-linecap:square;stroke-linejoin:miter;stroke-miterlimit:4;stroke-dasharray:none;stroke-opacity:1;paint-order:stroke fill markers"
       d="m 142.29029,169.29591 c -2.66787,-0.97686 -4.12301,-3.05592 -4.12301,-5.89085 0,-0.81477 -0.27338,-2.25113 -0.60752,-3.19192 -0.53003,-1.49232 -0.54215,-1.7893 -0.0951,-2.32801 0.45491,-0.54814 1.03455,-0.59421 5.1611,-0.41028 3.72723,0.16613 5.64924,0.056 9.69694,-0.5557 4.77487,-0.72159 5.09843,-0.73007 5.97363,-0.15662 l 0.92531,0.60629 -0.21971,4.0152 c -0.12084,2.20837 -0.43523,4.44298 -0.69864,4.96581 -0.85063,1.68842 -2.17521,2.44225 -4.29135,2.44225 -1.82542,0 -1.91612,-0.0439 -1.91612,-0.92857 0,-1.22421 -2.11437,-3.35714 -3.32794,-3.35714 -1.38324,0 -2.00857,0.3527 -2.57813,1.45411 -0.75242,1.45502 -0.65034,2.65531 0.28107,3.30502 0.77626,0.5415 0.74288,0.56033 -0.98215,0.55411 -0.98214,-0.004 -2.42143,-0.2392 -3.19842,-0.5237 z"
       id="path851"
       inkscape:connector-curvature="0"
       transform="translate(0,796.36216)" />
    <path
       style="opacity:0.98999999;fill:#ff5555;fill-opacity:1;fill-rule:nonzero;stroke:#ff5555;stroke-width:0.5;stroke-linecap:square;stroke-linejoin:miter;stroke-miterlimit:4;stroke-dasharray:none;stroke-opacity:1;paint-order:stroke fill markers"
       d="m 124.23871,119.84319 c 0,-0.50353 4.64069,-10.82398 6.53302,-14.52882 0.82648,-1.6181 1.68528,-2.94399 1.90843,-2.94643 0.22316,-0.002 0.66512,-0.55104 0.98215,-1.21912 0.66547,-1.40239 0.72114,-1.774061 0.21926,-1.463879 -0.58436,0.361149 -0.42943,-0.278886 1.09554,-4.525807 0.79898,-2.225092 3.36283,-7.902764 5.69745,-12.61705 3.88072,-7.836321 4.38903,-9.099899 5.92696,-14.733452 0.92521,-3.389113 1.7354,-6.108821 1.80042,-6.043797 0.065,0.06502 -0.29131,2.596864 -0.79186,5.626309 -0.76357,4.621271 -1.12852,5.939338 -2.26675,8.186654 -4.82282,9.522098 -9.34924,18.665721 -10.03869,20.278725 -0.83125,1.944711 -0.69445,2.945718 0.23026,1.685 0.28793,-0.39255 0.8212,-0.666171 1.18504,-0.608049 0.54956,0.08779 0.70376,-0.214447 0.91107,-1.785714 0.3219,-2.439765 1.52225,-5.286093 1.9425,-4.606121 0.23572,0.381405 0.42246,0.302364 0.85801,-0.363166 0.82531,-1.261104 3.2965,-6.600186 5.74847,-12.419734 1.19123,-2.827269 2.43989,-5.312963 2.77481,-5.523763 0.86671,-0.54551 1.92759,0.55707 4.17728,4.341489 2.23622,3.761757 4.30304,6.638255 4.5746,6.366695 0.31998,-0.319975 -0.65808,-2.437001 -1.74912,-3.78602 -2.00289,-2.476469 -0.61984,-2.084366 2.30807,0.654353 2.63023,2.460272 3.41059,4.447772 2.253,5.738183 -0.52888,0.589562 -0.38296,2.528122 0.19029,2.528122 0.51194,0 0.36122,1.759994 -0.26345,3.076394 -0.51515,1.085607 -4.17987,4.414138 -4.86747,4.420952 -0.14732,0.0015 -0.26786,-0.348843 -0.26786,-0.77845 0,-0.745399 -0.0503,-0.733156 -1.10001,0.267857 -1.32705,1.265473 -4.29744,5.245539 -5.11415,6.852529 -0.32444,0.6384 -0.82369,1.16072 -1.10943,1.16072 -0.28574,0 -1.76822,1.14583 -3.2944,2.5463 -1.52618,1.40047 -4.70344,3.82731 -7.06058,5.39298 -2.35714,1.56567 -5.41071,3.76852 -6.78571,4.89523 -4.76723,3.90639 -6.60715,5.00104 -6.60715,3.93088 z"
       id="path853"
       inkscape:connector-curvature="0"
       transform="translate(0,796.36216)" />
    <path
       style="opacity:0.98999999;fill:#ff5555;fill-opacity:1;fill-rule:nonzero;stroke:#ff5555;stroke-width:0.5;stroke-linecap:square;stroke-linejoin:miter;stroke-miterlimit:4;stroke-dasharray:none;stroke-opacity:1;paint-order:stroke fill markers"
       d="m 119.41728,104.64713 c -0.78571,-0.28442 -2.28301,-1.11548 -3.32732,-1.8468 -1.56064,-1.09289 -2.05142,-1.70766 -2.75606,-3.452302 -1.01648,-2.51677 -2.72407,-5.065715 -5.03794,-7.52023 -1.28459,-1.362677 -1.71582,-1.643507 -1.82031,-1.185435 -0.0753,0.330154 0.29801,1.257528 0.82961,2.060832 0.53161,0.803303 0.87761,1.549492 0.76891,1.658197 -0.35469,0.354687 -2.27549,-0.861073 -3.42014,-2.164757 -1.5384,-1.752143 -1.76183,-2.857022 -0.83206,-4.1146 0.62126,-0.840308 0.65841,-1.043555 0.2214,-1.211252 -0.28882,-0.110831 -0.70469,-0.595611 -0.92415,-1.077289 -0.58137,-1.27595 0.69711,-3.686555 3.13859,-5.917931 2.05079,-1.874315 3.12845,-2.376951 2.13155,-0.994193 -0.85075,1.180045 -2.72208,4.824555 -2.72208,5.301402 0,0.803045 1.16285,-0.550709 3.55199,-4.135118 1.31131,-1.967349 2.58826,-4.083445 2.83768,-4.702435 0.24941,-0.618991 0.82867,-1.47791 1.28724,-1.908711 1.65934,-1.55887 3.23516,-0.03089 5.54736,5.378928 0.78213,1.829932 1.73703,3.662431 2.12201,4.07222 0.45756,0.487054 0.62788,1.020678 0.49183,1.540937 -0.11447,0.437727 0.004,1.051663 0.26364,1.364304 0.42848,0.516293 0.49215,0.510313 0.69402,-0.06518 0.29472,-0.840192 2.04677,2.22657 3.38298,5.921511 1.73618,4.800987 1.57938,11.728362 -0.29519,13.041362 -0.96153,0.67348 -4.21673,0.65042 -6.13356,-0.0435 z"
       id="path855"
       inkscape:connector-curvature="0"
       transform="translate(0,796.36216)" />
    <path
       style="opacity:0.98999999;fill:#ff5555;fill-opacity:1;fill-rule:nonzero;stroke:#ff5555;stroke-width:0.5;stroke-linecap:square;stroke-linejoin:miter;stroke-miterlimit:4;stroke-dasharray:none;stroke-opacity:1;paint-order:stroke fill markers"
       d="m 105.13583,76.656127 c -0.11905,-0.192634 -0.18506,-1.036384 -0.14669,-1.875 0.047,-1.026778 -0.18289,-1.946156 -0.70383,-2.815034 -1.00678,-1.679191 -0.66829,-1.94402 2.89983,-2.268759 3.71984,-0.338548 3.69839,-1.264168 -0.0292,-1.260957 -3.9804,0.0034 -13.553822,2.114595 -13.078262,2.884067 0.137301,0.222157 -0.115236,0.27305 -0.667329,0.134483 -0.61932,-0.155439 -0.986529,-0.04726 -1.212946,0.357321 -0.195621,0.349556 -0.557222,0.491032 -0.90951,0.355847 -0.475982,-0.182651 -0.305709,-0.49795 0.915165,-1.694624 l 1.499951,-1.47022 -1.681418,-0.209621 c -0.92478,-0.115291 -1.796849,-0.325051 -1.93793,-0.466132 -0.141082,-0.141082 1.12161,-2.304087 2.805982,-4.806677 1.684372,-2.502591 3.947468,-6.076951 5.029101,-7.943023 2.527836,-4.361115 3.826926,-6.125112 5.387266,-7.315245 1.91925,-1.463881 2.11994,-0.899262 0.88927,2.501856 -1.30588,3.608976 -1.19237,4.57854 0.24893,2.126273 0.95061,-1.6174 1.04451,-2.073268 1.04451,-5.070788 0,-2.922216 0.0891,-3.382669 0.78967,-4.083314 0.62094,-0.620973 0.82609,-0.680328 0.96019,-0.277809 0.0938,0.281536 0.8322,2.978706 1.6409,5.993709 1.87134,6.976748 3.81016,12.46051 4.84567,13.705531 0.93989,1.130037 1.4615,2.658922 1.67849,4.919787 0.14852,1.547445 0.10653,1.630356 -1.13034,2.232052 -0.70652,0.343699 -2.77418,1.99102 -4.5948,3.660714 -3.18066,2.916982 -4.07343,3.44478 -4.54266,2.685563 z m 5.17431,-11.751921 c 0,-0.351057 -1.70893,-1.221843 -3.94881,-2.012119 -2.14772,-0.757761 -1.67446,0.12104 0.72509,1.346426 1.93313,0.987198 3.22372,1.253702 3.22372,0.665693 z m -7.14286,-5.219265 c 0,-0.271457 -0.16071,-0.592886 -0.35714,-0.714286 -0.20336,-0.125681 -0.35714,0.181889 -0.35714,0.714286 0,0.532397 0.15378,0.839968 0.35714,0.714286 0.19643,-0.1214 0.35714,-0.442828 0.35714,-0.714286 z"
       id="path857"
       inkscape:connector-curvature="0"
       transform="translate(0,796.36216)" />
    <path
       style="opacity:0.98999999;fill:#ff5555;fill-opacity:1;fill-rule:nonzero;stroke:#ff5555;stroke-width:0.5;stroke-linecap:square;stroke-linejoin:miter;stroke-miterlimit:4;stroke-dasharray:none;stroke-opacity:1;paint-order:stroke fill markers"
       d="m 124.06014,109.43837 c -0.39286,-0.22188 -1.14453,-0.75925 -1.67038,-1.19416 l -0.9561,-0.79075 1.61055,-0.22075 c 3.18759,-0.43691 4.88608,-2.2497 5.52932,-5.90142 0.37304,-2.117792 0.2933,-3.222924 -0.60838,-8.432063 -0.16198,-0.935792 -0.0759,-0.867974 0.68024,0.535714 1.94589,3.612461 2.17635,8.496629 0.51733,10.963569 -0.50224,0.74682 -1.0087,1.75965 -1.12547,2.25072 -0.63235,2.65937 -2.2269,3.77764 -3.97711,2.78914 z"
       id="path859"
       inkscape:connector-curvature="0"
       transform="translate(0,796.36216)" />
    <path
       style="opacity:0.98999999;fill:#ff5555;fill-opacity:1;fill-rule:nonzero;stroke:#ff5555;stroke-width:0.5;stroke-linecap:square;stroke-linejoin:miter;stroke-miterlimit:4;stroke-dasharray:none;stroke-opacity:1;paint-order:stroke fill markers"
       d="m 162.453,69.336633 c -5.14423,-1.331711 -7.59854,-1.468748 -10.16054,-0.567318 -3.23639,1.138711 -3.39115,0.761939 -1.68388,-4.099402 0.75592,-2.152449 1.63373,-4.518744 1.95067,-5.258433 0.31695,-0.73969 1.08572,-3.632547 1.70838,-6.428572 1.63098,-7.323825 2.44868,-8.740559 4.49692,-7.791286 l 1.00988,0.468038 -0.84941,0.321658 c -0.76175,0.288466 -0.83091,0.485741 -0.67018,1.911707 0.17806,1.579735 2.61652,7.242601 2.96755,6.891572 0.10093,-0.100926 -0.22574,-1.595694 -0.72591,-3.321705 -0.50018,-1.726012 -0.80951,-3.233933 -0.68739,-3.350934 0.34642,-0.331922 4.23849,4.107245 6.54571,7.46584 1.88837,2.748869 8.24106,13.065019 8.24106,13.382677 0,0.07221 -0.64707,-0.122885 -1.43794,-0.433544 -1.42038,-0.557941 -1.4503,-0.552977 -2.45202,0.406726 -1.46797,1.40641 -3.91518,1.525903 -8.2529,0.402976 z m -6.75658,-4.304829 c 2.82189,-0.99562 4.98749,-2.647867 5.72467,-4.367635 0.37112,-0.865788 0.67477,-1.74745 0.67477,-1.95925 0,-0.211799 -1.3259,0.985498 -2.94643,2.660659 -2.17357,2.246839 -3.36799,3.191336 -4.55357,3.600789 -0.88393,0.305272 -1.3461,0.567728 -1.02705,0.583236 0.31905,0.01551 1.27648,-0.217502 2.12761,-0.517799 z"
       id="path861"
       inkscape:connector-curvature="0"
       transform="translate(0,796.36216)" />
    <path
       style="opacity:0.98999999;fill:#ff5555;fill-opacity:1;fill-rule:nonzero;stroke:#ff5555;stroke-width:0.5;stroke-linecap:square;stroke-linejoin:miter;stroke-miterlimit:4;stroke-dasharray:none;stroke-opacity:1;paint-order:stroke fill markers"
       d=""
       id="path863"
       inkscape:connector-curvature="0"
       transform="translate(0,796.36216)" />
    <path
       style="opacity:0.98999999;fill:#ff5555;fill-opacity:1;fill-rule:nonzero;stroke:#ff5555;stroke-width:0.5;stroke-linecap:square;stroke-linejoin:miter;stroke-miterlimit:4;stroke-dasharray:none;stroke-opacity:1;paint-order:stroke fill markers"
       d="m 149.59822,58.226608 c 0.001,-0.18006 0.54727,-2.497024 1.21327,-5.14881 1.26858,-5.051074 2.35579,-10.84893 2.35579,-12.562934 0,-1.658421 0.62908,-1.140688 0.88629,0.729412 0.3222,2.342703 -0.19132,4.85396 -2.34047,11.445528 -1.70594,5.232227 -2.12052,6.317596 -2.11488,5.536804 z"
       id="path865"
       inkscape:connector-curvature="0"
       transform="translate(0,796.36216)" />
    <path
       style="opacity:0.98999999;fill:#ff5555;fill-opacity:1;fill-rule:nonzero;stroke:#ff5555;stroke-width:0.5;stroke-linecap:square;stroke-linejoin:miter;stroke-miterlimit:4;stroke-dasharray:none;stroke-opacity:1;paint-order:stroke fill markers"
       d="m 148.84568,44.429076 c -1.28235,-6.636945 -4.56889,-10.779751 -9.10297,-11.474646 -1.26987,-0.19462 -1.57257,-0.102025 -2.32143,0.710096 -1.17382,1.273005 -2.82001,1.913272 -4.91919,1.913272 -1.93343,0 -5.90249,-1.097821 -7.01846,-1.941269 -0.98708,-0.746033 -2.99643,-0.6858 -4.33421,0.129924 -1.59163,0.970519 -3.06313,3.271925 -4.83508,7.561998 -1.39902,3.387199 -1.55321,3.618327 -1.76215,2.641392 -0.12593,-0.588839 -0.24445,-2.195616 -0.26338,-3.570616 -0.0728,-5.288948 3.09926,-8.870832 9.15181,-10.334197 3.1883,-0.770856 14.05127,-1.010012 16.79575,-0.36977 4.03205,0.940614 7.07639,3.047213 8.8996,6.158276 1.14544,1.954544 1.44036,5.538811 0.7497,9.111254 l -0.46839,2.422706 z"
       id="path867"
       inkscape:connector-curvature="0"
       transform="translate(0,796.36216)" />
    <path
       style="opacity:0.98999999;fill:#ff5555;fill-opacity:1;fill-rule:nonzero;stroke:#ff5555;stroke-width:0.5;stroke-linecap:square;stroke-linejoin:miter;stroke-miterlimit:4;stroke-dasharray:none;stroke-opacity:1;paint-order:stroke fill markers"
       d=""
       id="path869"
       inkscape:connector-curvature="0"
       transform="translate(0,796.36216)" />
    <path
       style="opacity:0.98999999;fill:#ff5555;fill-opacity:1;fill-rule:nonzero;stroke:#ff5555;stroke-width:0.5;stroke-linecap:square;stroke-linejoin:miter;stroke-miterlimit:4;stroke-dasharray:none;stroke-opacity:1;paint-order:stroke fill markers"
       d="m 112.69408,53.555691 c -2.04637,-6.369324 -3.0499,-12.647575 -2.40464,-15.043855 0.4776,-1.773669 1.6646,-3.323181 2.34555,-3.061876 0.78662,0.301853 0.9887,2.277235 0.39671,3.877838 l -0.52837,1.428572 -0.0365,-1.964286 c -0.0323,-1.736755 -0.0928,-1.890024 -0.52275,-1.323179 -1.28926,1.699957 -1.01806,5.240157 1.0962,14.309675 0.68055,2.919358 1.16088,5.38441 1.0674,5.477893 -0.0935,0.09348 -0.7296,-1.571869 -1.41358,-3.700782 z"
       id="path871"
       inkscape:connector-curvature="0"
       transform="translate(0,796.36216)" />
    <path
       style="opacity:0.98999999;fill:#ff5555;fill-opacity:1;fill-rule:nonzero;stroke:#ff5555;stroke-width:0.5;stroke-linecap:square;stroke-linejoin:miter;stroke-miterlimit:4;stroke-dasharray:none;stroke-opacity:1;paint-order:stroke fill markers"
       d="m 116.90161,48.052442 c -0.69073,-1.117628 0.99494,-6.545072 2.9602,-9.531135 2.12011,-3.221338 3.47029,-3.875131 5.6269,-2.72471 4.31767,2.303206 5.1758,2.638344 6.75554,2.638344 1.21266,0 1.8822,-0.206451 2.45582,-0.757248 0.8784,-0.84343 3.3544,-2.081024 4.1815,-2.090059 3.62429,-0.03959 7.85266,4.47993 7.98307,8.532746 l 0.0526,1.63599 -1.92102,0.109546 c -1.05657,0.06025 -4.43055,-0.318135 -7.49774,-0.840857 -9.26293,-1.578624 -14.60972,-0.910528 -18.5221,2.314388 -1.45044,1.195572 -1.71943,1.28801 -2.07481,0.712995 z"
       id="path873"
       inkscape:connector-curvature="0"
       transform="translate(0,796.36216)" />
    <path
       style="opacity:0.98999999;fill:#ff5555;fill-opacity:1;fill-rule:nonzero;stroke:#ff5555;stroke-width:0.5;stroke-linecap:square;stroke-linejoin:miter;stroke-miterlimit:4;stroke-dasharray:none;stroke-opacity:1;paint-order:stroke fill markers"
       d="m 131.42949,95.456966 c -0.22904,-0.275971 -0.7931,-1.607218 -1.25348,-2.958325 -0.46037,-1.351107 -1.56273,-3.902986 -2.44969,-5.670843 -4.99977,-9.965391 -9.82576,-26.361535 -9.47089,-32.177 0.29406,-4.818785 1.99016,-6.503162 8.09604,-8.040082 2.51948,-0.634182 3.73253,-0.730076 7.5,-0.592889 5.36923,0.195514 7.6893,0.938368 10.28737,3.293863 l 1.70702,1.547634 -0.0532,3.905106 c -0.0872,6.401044 -2.20022,15.050629 -5.38122,22.027639 -0.72541,1.59108 -2.77264,6.498147 -4.54941,10.904593 -1.77676,4.40645 -3.40724,8.06805 -3.6233,8.136897 -0.21605,0.06884 -0.58022,-0.100625 -0.80925,-0.376593 z"
       id="path875"
       inkscape:connector-curvature="0"
       transform="translate(0,796.36216)" />
    <path
       style="opacity:0.98999999;fill:#ff5555;fill-opacity:1;fill-rule:nonzero;stroke:#ff5555;stroke-width:0.5;stroke-linecap:square;stroke-linejoin:miter;stroke-miterlimit:4;stroke-dasharray:none;stroke-opacity:1;paint-order:stroke fill markers"
       d="m 193.14469,203.57588 c -5.88685,-1.8036 -2.82366,-3.09102 -6.78062,-4.01126 11.70608,4.58165 9.46842,5.21958 -1.23945,1.63947 -2.08359,-0.94934 0.0221,-4.60501 3.16373,-5.25721 1.98692,-0.41248 4.27122,-0.13099 7.55751,0.93132 1.70776,0.55204 10.83256,4.78173 11.155,5.04644 1.06369,0.38558 0.93171,3.20132 0.93171,3.20132 -0.8122,3.88144 -0.38499,1.3601 -0.79157,3.50562 0.16825,2.71874 -8.0616,-2.60021 -13.99631,-5.0557 z"
       id="path877"
       inkscape:connector-curvature="0"
       transform="translate(0,796.36216)"
       sodipodi:nodetypes="ccccccccc" />
    <path
       style="opacity:0.98999999;fill:#ff8080;fill-opacity:1;fill-rule:nonzero;stroke:#ff8080;stroke-width:1;stroke-linecap:square;stroke-linejoin:miter;stroke-miterlimit:4;stroke-dasharray:none;stroke-opacity:1;paint-order:stroke fill markers"
       d="m 196.02443,211.79471 c -3.73309,-0.99167 -11.80759,-5.26647 -11.16374,-5.91031 0.17684,-0.17684 1.35477,-0.41361 2.61763,-0.52615 2.95923,-0.26372 6.83675,0.54958 10.14068,2.12697 2.81781,1.34529 6.39497,4.01798 6.07363,4.53792 -0.31858,0.51548 -5.44238,0.36284 -7.6682,-0.22843 z"
       id="path885"
       inkscape:connector-curvature="0"
       transform="translate(0,796.36216)" />
    <path
       style="opacity:0.98999999;fill:#ff8080;fill-opacity:1;fill-rule:nonzero;stroke:#ff8080;stroke-width:1;stroke-linecap:square;stroke-linejoin:miter;stroke-miterlimit:4;stroke-dasharray:none;stroke-opacity:1;paint-order:stroke fill markers"
       d="m 208.39717,200.41063 c -0.65976,-0.24967 -2.10869,-0.83199 -3.21986,-1.29403 -5.45444,-2.26806 -7.41672,-2.98302 -9.87856,-3.59926 -1.45744,-0.36482 -3.01684,-0.63205 -4.28265,-0.73389 -0.48404,-0.0389 -0.52268,-0.0522 -0.50507,-0.17362 0.0462,-0.3184 0.75434,-0.54624 1.6973,-0.54608 0.62832,1e-4 1.9882,0.16144 2.99372,0.35518 4.87337,0.939 10.29541,3.08371 13.06433,5.16766 0.5393,0.40589 1.40998,1.20423 1.36191,1.24875 -0.0174,0.0161 -0.57136,-0.17504 -1.23112,-0.42471 z"
       id="path887"
       inkscape:connector-curvature="0"
       transform="translate(0,796.36216)" />
    <path
       style="opacity:0.98999999;fill:#ff8080;fill-opacity:1;fill-rule:nonzero;stroke:#ff8080;stroke-width:1;stroke-linecap:square;stroke-linejoin:miter;stroke-miterlimit:4;stroke-dasharray:none;stroke-opacity:1;paint-order:stroke fill markers"
       d="m 60.089412,212.66892 c 0,-0.27787 1.134746,-1.67223 2.020305,-2.48252 1.885546,-1.7253 6.319027,-3.77884 9.618269,-4.45509 2.360139,-0.48376 7.479184,-0.58526 7.895582,-0.15655 0.660168,0.67969 -3.514597,3.42464 -7.465261,4.90848 -3.947102,1.4825 -12.068895,2.95336 -12.068895,2.18568 z"
       id="path889"
       inkscape:connector-curvature="0"
       transform="translate(0,796.36216)" />
    <path
       style="opacity:0.98999999;fill:#ff8080;fill-opacity:1;fill-rule:nonzero;stroke:#ff8080;stroke-width:1;stroke-linecap:square;stroke-linejoin:miter;stroke-miterlimit:4;stroke-dasharray:none;stroke-opacity:1;paint-order:stroke fill markers"
       d="m 56.267876,200.26362 c -0.41668,-1.08585 7.842953,-4.9241 12.749143,-5.92453 1.431164,-0.29183 5.104869,-0.51291 5.402535,-0.32512 0.449328,0.28348 -2.693359,1.22462 -5.386332,1.61305 -1.924611,0.2776 -5.07392,1.41625 -10.688587,3.86449 -2.207938,0.96276 -2.029113,0.89628 -2.076759,0.77211 z"
       id="path893"
       inkscape:connector-curvature="0"
       transform="translate(0,796.36216)" />
    <path
       style="opacity:0.98999999;fill:#ff5555;fill-opacity:1;fill-rule:nonzero;stroke:#ff5555;stroke-width:0.5;stroke-linecap:square;stroke-linejoin:miter;stroke-miterlimit:4;stroke-dasharray:none;stroke-opacity:1;paint-order:stroke fill markers"
       d="m 57.630565,210.11503 c -0.575687,-0.93861 -0.955592,-2.11175 -1.171381,-3.6172 l -0.144793,-1.01015 1.272697,-0.0249 c 1.344959,-0.0263 2.563434,-0.61344 2.563434,-1.23518 0,-0.20051 -0.511389,-0.94036 -1.136421,-1.64411 -1.273014,-1.43335 -1.399251,-1.93214 -0.568211,-2.24515 3.219574,-1.21264 13.328596,-4.36197 14.682759,-4.57422 3.897755,-0.61092 6.214772,0.88731 6.214772,4.01861 v 0.95443 l -3.4724,0.16362 c -4.746105,0.22363 -6.366738,0.53137 -9.097754,1.72752 -2.589847,1.13433 -4.576893,2.71322 -5.369247,4.26636 -0.269016,0.52731 -0.740853,1.13507 -1.048525,1.35058 -0.307672,0.2155 -0.792173,0.87063 -1.076668,1.45584 -0.284495,0.58521 -0.655917,1.10659 -0.825382,1.15862 -0.169465,0.052 -0.539761,-0.28307 -0.82288,-0.74467 z m 2.330554,-2.94385 c 0.665475,-0.61478 0.923208,-1.30469 0.487398,-1.30469 -0.379271,0 -2.324069,1.80666 -2.185736,2.03048 0.195108,0.3157 0.8945,0.0168 1.698338,-0.72579 z"
       id="path895"
       inkscape:connector-curvature="0"
       transform="translate(0,796.36216)" />
    <path
       style="opacity:0.98999999;fill:#ff5555;fill-opacity:1;fill-rule:nonzero;stroke:#ff5555;stroke-width:0.5;stroke-linecap:square;stroke-linejoin:miter;stroke-miterlimit:4;stroke-dasharray:none;stroke-opacity:1;paint-order:stroke fill markers"
       d="m 122.03842,127.47073 c 0.0498,-0.31165 0.3327,-0.94876 1.11156,-2.50363 l 0.76976,-1.53667 0.98214,-0.85835 c 3.99295,-3.48968 7.55013,-6.1946 16.31696,-12.40759 4.41676,-3.13012 6.57863,-4.68982 8.59375,-6.20001 2.78254,-2.08532 5.30787,-4.098113 7.2424,-5.772486 0.34939,-0.302403 0.65056,-0.549824 0.66928,-0.549824 0.0555,0 -1.94509,1.99067 -2.934,2.91949 -3.90758,3.67012 -7.74328,6.726 -15.3755,12.24956 -7.15334,5.17699 -8.82889,6.42487 -11.76736,8.76383 -1.19613,0.9521 -1.23824,0.99678 -3.23198,3.42906 -1.67499,2.04343 -2.20703,2.63806 -2.36036,2.63806 -0.0261,0 -0.0329,-0.0699 -0.0166,-0.17144 z"
       id="path897"
       inkscape:connector-curvature="0"
       transform="translate(0,796.36216)" />
    <path
       style="opacity:0.98999999;fill:#ff8080;fill-opacity:1;fill-rule:nonzero;stroke:#ff5555;stroke-width:0.12626907;stroke-linecap:square;stroke-linejoin:miter;stroke-miterlimit:4;stroke-dasharray:none;stroke-opacity:1;paint-order:stroke fill markers"
       d=""
       id="path903"
       inkscape:connector-curvature="0"
       transform="translate(0,796.36216)" />
    <path
       style="opacity:0.98999999;fill:#ff8080;fill-opacity:1;fill-rule:nonzero;stroke:#ff8080;stroke-width:1;stroke-linecap:square;stroke-linejoin:miter;stroke-miterlimit:4;stroke-dasharray:none;stroke-opacity:1;paint-order:stroke fill markers"
       d="m 141.06128,197.84109 c -0.39286,-0.0357 -1.19643,-0.30334 -1.78571,-0.59471 -0.58929,-0.29136 -1.63393,-0.66894 -2.32143,-0.83904 l -1.25,-0.30929 1.33928,-0.22898 c 0.73661,-0.12595 3.34822,-0.30324 5.80358,-0.39399 6.62468,-0.24486 11.73148,-0.91833 24.84362,-3.2763 1.97603,-0.35536 2.39451,-0.38425 2.66806,-0.18423 0.55784,0.40791 1.14541,0.26948 3.4584,-0.81478 3.00275,-1.40761 5.09922,-2.05508 6.2852,-1.94113 0.83508,0.0802 1.21715,0.3157 1.22412,0.75438 0.008,0.47429 -2.08278,2.08921 -3.79206,2.92964 -2.25306,1.10779 -3.66448,1.4786 -5.45855,1.43408 -0.96271,-0.0239 -2.37101,0.16 -4.72362,0.61679 -5.63971,1.095 -12.16226,1.94244 -18.7016,2.42979 -1.22768,0.0915 -2.59375,0.24754 -3.03572,0.34677 -0.76951,0.17278 -3.04409,0.20824 -4.55357,0.071 z"
       id="path911"
       inkscape:connector-curvature="0"
       transform="translate(0,796.36216)" />
    <path
       style="opacity:0.98999999;fill:#ff8080;fill-opacity:1;fill-rule:nonzero;stroke:#ff8080;stroke-width:1;stroke-linecap:square;stroke-linejoin:miter;stroke-miterlimit:4;stroke-dasharray:none;stroke-opacity:1;paint-order:stroke fill markers"
       d="m 133.20414,197.66591 c -11.85759,-0.59824 -32.62981,-2.52715 -36.315482,-3.37225 -0.6253,-0.14338 -2.665103,-0.46011 -4.532894,-0.70385 -6.301386,-0.82231 -8.384108,-1.60013 -9.059952,-3.38359 -0.165449,-0.4366 -0.101854,-1.88301 0.08279,-1.88301 0.02958,0 0.60511,0.3228 1.278947,0.71733 2.588908,1.51581 5.546796,2.36549 10.868016,3.12193 1.767858,0.25132 4.419643,0.65383 5.892855,0.89449 4.701,0.76792 8.05453,1.07738 19.375,1.78791 6.42518,0.40327 13.52197,1.04792 13.72035,1.24631 0.0395,0.0395 -0.13858,0.12459 -0.3957,0.18913 -0.25713,0.0645 -0.4675,0.22606 -0.4675,0.35895 0,0.2727 0.89292,0.54879 2.85714,0.88344 l 1.33929,0.22818 -1.78572,-0.0155 c -0.98214,-0.008 -2.26786,-0.0398 -2.85714,-0.0695 z"
       id="path913"
       inkscape:connector-curvature="0"
       transform="translate(0,796.36216)" />
    <path
       style="opacity:0.98999999;fill:#ff8080;fill-opacity:1;fill-rule:nonzero;stroke:#ff8080;stroke-width:1;stroke-linecap:square;stroke-linejoin:miter;stroke-miterlimit:4;stroke-dasharray:none;stroke-opacity:1;paint-order:stroke fill markers"
       d="m 138.96737,197.74592 c -2.64438,-0.277 -4.90976,-0.72563 -5.18176,-1.02618 -0.0776,-0.0858 -0.0774,-0.0919 0.006,-0.17422 0.0917,-0.0905 0.68581,-0.2776 1.15691,-0.3644 0.23695,-0.0437 0.34674,-0.0397 0.67759,0.0243 1.28656,0.24889 2.70117,0.67515 3.41082,1.02777 0.35908,0.17843 0.9349,0.53905 0.9349,0.5855 0,0.0292 -0.10012,0.022 -1.00447,-0.0727 z"
       id="path915"
       inkscape:connector-curvature="0"
       transform="translate(0,796.36216)" />
    <path
       style="opacity:0.98999999;fill:#ff9955;fill-opacity:1;fill-rule:nonzero;stroke:#ff9955;stroke-width:0.5;stroke-linecap:square;stroke-linejoin:miter;stroke-miterlimit:4;stroke-dasharray:none;stroke-opacity:1;paint-order:stroke fill markers"
       d="m 107.38853,190.2014 c -1.11116,-0.40074 -2.36123,-0.73515 -2.77791,-0.74315 -0.41669,-0.008 -1.22003,-0.1757 -1.78521,-0.37268 -0.56517,-0.19698 -3.362715,-0.709 -6.216756,-1.13782 -5.610763,-0.84303 -7.397486,-1.23919 -9.321192,-2.06675 -1.467944,-0.63149 -2.742875,-1.98033 -2.780388,-2.94158 -0.04528,-1.16013 0.06379,-2.13917 0.310633,-2.78841 l 0.236067,-0.62091 3.212429,0.14123 c 3.548578,0.156 6.235508,0.62999 13.945297,2.46005 2.84737,0.67588 5.906,1.3677 6.79696,1.53739 l 1.61992,0.30852 0.55392,-0.69467 0.55392,-0.69468 0.51415,0.65364 c 0.60209,0.76544 1.9183,0.90305 2.2897,0.23938 0.64253,-1.14813 1.4282,1.57731 1.26865,4.40088 -0.15523,2.74729 -1.31811,3.71748 -3.13084,2.61205 -0.75281,-0.45907 -0.78574,-0.45905 -1.35381,9.4e-4 -0.77748,0.62956 -1.53224,0.57328 -3.93554,-0.29344 z m 3.00981,-1.66124 c 0.70222,-0.26946 0.50627,-1.79906 -0.33873,-2.64405 -1.29389,-1.29389 -2.57622,-0.81558 -2.93042,1.09306 -0.16666,0.89809 -0.13165,0.96653 0.67312,1.31594 0.9037,0.39236 1.94127,0.48631 2.59603,0.23505 z m -11.178086,-2.01939 c 0.877256,-0.44602 1.476016,-1.05741 1.476016,-1.50716 0,-0.99626 -2.340869,-2.06759 -3.811797,-1.74452 -1.740045,0.38218 -1.928105,1.51164 -0.490982,2.94877 1.058648,1.05864 1.29131,1.08358 2.826763,0.30291 z m -9.183243,-2.04081 c 1.031491,-0.76667 1.034187,-1.82737 0.0076,-2.99657 -1.373539,-1.56437 -3.076076,-2.04319 -3.995566,-1.1237 -0.647717,0.64772 -0.639318,1.64257 0.02895,3.42867 l 0.534023,1.4273 1.370486,-0.11365 c 0.829655,-0.0688 1.640414,-0.31428 2.054493,-0.62205 z"
       id="path921"
       inkscape:connector-curvature="0"
       transform="translate(0,796.36216)" />
    <path
       style="opacity:0.98999999;fill:#ff9955;fill-opacity:1;fill-rule:nonzero;stroke:#ff9955;stroke-width:0.5;stroke-linecap:square;stroke-linejoin:miter;stroke-miterlimit:4;stroke-dasharray:none;stroke-opacity:1;paint-order:stroke fill markers"
       d="m 143.37522,192.24466 c -1.1944,-0.51766 -3.16312,-0.66886 -3.76308,-0.289 -0.21866,0.13844 -0.73722,0.0887 -1.35757,-0.13014 -1.17117,-0.41321 -3.69944,-0.45585 -5.89538,-0.0994 -5.07656,0.82398 -7.75805,0.73185 -8.86113,-0.30444 -1.2721,-1.19507 -1.8283,-5.51895 -0.83739,-6.50986 0.74898,-0.74897 1.47863,-0.84215 5.56724,-0.71091 3.39328,0.10892 6.40709,-0.0676 6.73383,-0.39431 0.26298,-0.26297 -0.22577,-1.17422 -0.63178,-1.17791 -0.23371,-0.002 -0.59538,-0.11999 -0.80373,-0.26191 -0.59908,-0.40809 1.53589,0.004 2.20971,0.42621 0.33436,0.20965 0.56821,0.6076 0.56821,0.96691 0,0.33584 0.11238,0.68007 0.24973,0.76496 0.15409,0.0952 0.10239,0.37922 -0.13501,0.74153 -0.8076,1.23255 -0.90158,2.16986 -0.32112,3.20265 0.66868,1.18976 1.08637,1.36477 1.72736,0.72378 0.60652,-0.60652 0.68751,-2.78438 0.14239,-3.82922 -0.28597,-0.54815 -0.29307,-0.76134 -0.037,-1.11155 0.39447,-0.53947 0.49114,-0.36697 0.89528,1.5976 0.61283,2.97904 1.63969,2.73721 1.823,-0.42933 0.066,-1.1407 0.26188,-2.17797 0.45521,-2.41092 0.30595,-0.36864 0.39738,-0.33466 0.92973,0.34556 1.24639,1.59259 6.02898,2.26167 7.97197,1.11528 l 0.94445,-0.55724 0.49709,0.93814 c 0.69747,1.31629 1.28653,1.99222 2.09783,2.40715 l 0.69968,0.35785 -0.82595,1.00957 c -1.02603,1.25415 -2.98952,2.74617 -4.48774,3.41016 -1.65227,0.73226 -4.13297,0.82549 -5.55584,0.20881 z m -9.51778,-3.09893 c 0.62384,-0.74538 0.37417,-1.64991 -0.72716,-2.63451 -0.97513,-0.87177 -1.76409,-1.12079 -2.58678,-0.81646 -0.72542,0.26835 -0.91947,1.21771 -0.5574,2.72697 0.33345,1.39001 0.64243,1.56723 2.40371,1.37873 0.62886,-0.0673 1.18283,-0.31443 1.46763,-0.65473 z m 12.15511,0.24915 c 0.54387,-0.77648 0.49195,-1.66117 -0.17508,-2.98362 -0.7356,-1.45839 -1.71017,-1.86513 -2.52251,-1.05279 -0.43694,0.43694 -0.57525,0.92297 -0.6527,2.29354 -0.0971,1.7185 -0.0897,1.74221 0.62302,2.00168 1.25762,0.45783 2.29421,0.35946 2.72727,-0.25881 z"
       id="path923"
       inkscape:connector-curvature="0"
       transform="translate(0,796.36216)" />
    <path
       style="opacity:0.98999999;fill:#ff9955;fill-opacity:1;fill-rule:nonzero;stroke:#ff9955;stroke-width:0.5;stroke-linecap:square;stroke-linejoin:miter;stroke-miterlimit:4;stroke-dasharray:none;stroke-opacity:1;paint-order:stroke fill markers"
       d="m 158.64901,189.80086 c -0.71698,-0.77363 -1.51927,-2.80418 -2.06983,-5.23862 -0.33201,-1.46805 -0.33848,-1.766 -0.0425,-1.95451 0.19211,-0.12234 0.51974,-0.14747 0.72809,-0.0558 0.88422,0.38881 2.42855,0.37535 2.76003,-0.0241 0.18275,-0.2202 0.60014,-0.40036 0.92755,-0.40036 0.3274,0 2.92024,-0.45275 5.76185,-1.00611 2.84162,-0.55336 5.81036,-1.08178 6.59719,-1.17426 l 1.4306,-0.16814 -0.43227,0.83594 c -0.31189,0.60312 -0.40268,1.2452 -0.326,2.30536 0.0585,0.80818 0.15635,1.51948 0.21753,1.58067 0.0612,0.0612 0.89487,0.26961 1.85263,0.46318 l 1.74137,0.35194 -1.28306,0.55196 c -1.68129,0.72327 -3.5825,1.14868 -8.64082,1.93343 -5.08027,0.78816 -6.53615,1.19024 -7.31619,2.02054 -0.7596,0.80857 -1.14122,0.80434 -1.90622,-0.0211 z m 9.11653,-2.99712 c 0.33676,-0.51396 0.35943,-0.77451 0.12572,-1.44493 -0.41493,-1.19026 -1.49685,-2.2212 -2.33105,-2.2212 -0.93333,0 -1.32676,0.76366 -1.13063,2.1946 0.2442,1.78166 0.51652,2.09855 1.8034,2.09855 0.91577,0 1.19715,-0.11512 1.53256,-0.62702 z"
       id="path925"
       inkscape:connector-curvature="0"
       transform="translate(0,796.36216)" />
    <path
       style="opacity:0.98999999;fill:#ff9955;fill-opacity:1;fill-rule:nonzero;stroke:#ff9955;stroke-width:0.5;stroke-linecap:square;stroke-linejoin:miter;stroke-miterlimit:4;stroke-dasharray:none;stroke-opacity:1;paint-order:stroke fill markers"
       d="m 178.97894,183.34192 c -0.006,-0.88463 -1.036,-2.51843 -1.99421,-3.16416 l -0.85425,-0.57568 1.11064,0.004 c 1.25397,0.004 1.54346,0.14145 1.95671,0.92655 0.35685,0.67795 0.38423,3.02235 0.0378,3.23646 -0.14017,0.0866 -0.25438,-0.10337 -0.25669,-0.42704 z"
       id="path927"
       inkscape:connector-curvature="0"
       transform="translate(0,796.36216)" />
    <path
       style="opacity:0.98999999;fill:#ff9955;fill-opacity:1;fill-rule:nonzero;stroke:#ff9955;stroke-width:0.03156727;stroke-linecap:square;stroke-linejoin:miter;stroke-miterlimit:4;stroke-dasharray:none;stroke-opacity:1;paint-order:stroke fill markers"
       d="m 154.6524,186.37855 c -0.0507,-0.43162 -0.28706,-1.10739 -0.61855,-1.76867 -0.1349,-0.26911 -0.22287,-0.48929 -0.19549,-0.48929 0.1936,0 0.69266,0.48151 0.88337,0.85231 0.13401,0.26055 0.1615,0.39836 0.15742,0.78919 -0.003,0.26043 -0.0454,0.58606 -0.0948,0.72363 l -0.0899,0.25013 z"
       id="path929"
       inkscape:connector-curvature="0"
       transform="translate(0,796.36216)" />
    <path
       style="opacity:0.98999999;fill:#ff9955;fill-opacity:1;fill-rule:nonzero;stroke:#ff9955;stroke-width:0.03156727;stroke-linecap:square;stroke-linejoin:miter;stroke-miterlimit:4;stroke-dasharray:none;stroke-opacity:1;paint-order:stroke fill markers"
       d="m 177.84424,185.05184 c -0.25594,-0.0589 -0.26846,-0.0698 -0.12627,-0.10999 0.34766,-0.0982 0.70593,-0.33309 0.88473,-0.57991 0.10371,-0.14316 0.18856,-0.29865 0.18856,-0.34553 0,-0.10464 0.0518,-0.10453 0.24113,5e-4 l 0.14644,0.0812 -0.21736,0.26016 c -0.18918,0.22644 -0.78779,0.78457 -0.82118,0.76567 -0.007,-0.004 -0.13979,-0.0362 -0.29605,-0.0721 z"
       id="path931"
       inkscape:connector-curvature="0"
       transform="translate(0,796.36216)" />
    <path
       style="opacity:0.98999999;fill:#ff9955;fill-opacity:1;fill-rule:nonzero;stroke:#ff9955;stroke-width:0.01116071;stroke-linecap:square;stroke-linejoin:miter;stroke-miterlimit:4;stroke-dasharray:none;stroke-opacity:1;paint-order:stroke fill markers"
       d="m 114.64374,182.88756 c -0.0833,-0.32485 -0.51989,-0.73397 -1.16192,-1.0887 l -0.21331,-0.11786 h 0.12478 c 0.16138,0 0.43357,0.0702 0.61094,0.15748 0.20164,0.0993 0.47256,0.32218 0.65334,0.53758 0.16357,0.19489 0.43882,0.59834 0.42062,0.61654 -0.006,0.006 -0.0427,-6.8e-4 -0.082,-0.0144 -0.0866,-0.0302 -0.19927,-0.0321 -0.27166,-0.005 -0.0501,0.019 -0.0553,0.0136 -0.0808,-0.0861 z"
       id="path935"
       inkscape:connector-curvature="0"
       transform="translate(0,796.36216)" />
    <path
       style="opacity:0.98999999;fill:#ff9955;fill-opacity:1;fill-rule:nonzero;stroke:#ff9955;stroke-width:0.01116071;stroke-linecap:square;stroke-linejoin:miter;stroke-miterlimit:4;stroke-dasharray:none;stroke-opacity:1;paint-order:stroke fill markers"
       d="m 127.39267,182.2811 c -0.12499,-0.0361 -0.17939,-0.20187 -0.13953,-0.42514 0.0559,-0.31294 0.28696,-0.65134 0.52398,-0.76731 0.3083,-0.15083 0.66778,-0.0134 1.05813,0.40461 0.22864,0.24482 0.22729,0.23981 0.0866,0.3221 -0.61525,0.35981 -1.23861,0.54966 -1.52916,0.46574 z"
       id="path937"
       inkscape:connector-curvature="0"
       transform="translate(0,796.36216)" />
  </g>
</svg>
