<?xml version="1.0" encoding="UTF-8" standalone="no"?>
<svg
   xmlns:dc="http://purl.org/dc/elements/1.1/"
   xmlns:cc="http://creativecommons.org/ns#"
   xmlns:rdf="http://www.w3.org/1999/02/22-rdf-syntax-ns#"
   xmlns:svg="http://www.w3.org/2000/svg"
   xmlns="http://www.w3.org/2000/svg"
   xmlns:sodipodi="http://sodipodi.sourceforge.net/DTD/sodipodi-0.dtd"
   xmlns:inkscape="http://www.inkscape.org/namespaces/inkscape"
   cursor="default"
   viewBox="0 0 256 256"
   version="1.1"
   id="svg40"
   sodipodi:docname="feminine_skinny_sweater.svg"
   inkscape:version="0.92.3 (2405546, 2018-03-11)">
  <metadata
     id="metadata46">
    <rdf:RDF>
      <cc:Work
         rdf:about="">
        <dc:format>image/svg+xml</dc:format>
        <dc:type
           rdf:resource="http://purl.org/dc/dcmitype/StillImage" />
        <dc:title></dc:title>
      </cc:Work>
    </rdf:RDF>
  </metadata>
  <defs
     id="defs44" />
  <sodipodi:namedview
     pagecolor="#ffffff"
     bordercolor="#666666"
     borderopacity="1"
     objecttolerance="10"
     gridtolerance="10"
     guidetolerance="10"
     inkscape:pageopacity="0"
     inkscape:pageshadow="2"
     inkscape:window-width="1920"
     inkscape:window-height="1001"
     id="namedview42"
     showgrid="false"
     inkscape:zoom="2.6074563"
     inkscape:cx="-10.525462"
     inkscape:cy="132.03124"
     inkscape:window-x="-9"
     inkscape:window-y="-9"
     inkscape:window-maximized="1"
     inkscape:current-layer="svg40" />
  <path
     d="m 38.598,217.45203 c -0.176,2.12 -0.557814,0.81995 0.681186,3.19495 2.012,2.408 13.401661,1.31814 21.768661,1.41814 2.019,-1.807 1.349611,-1.78039 0.763611,-4.24839 -9.624,0.478 -14.344661,1.27486 -23.145661,-0.55014 z m 146.31152,-3.5663 c 0.203,2.497 -0.17434,3.47929 0.694,4.22 2.52522,2.15406 15.86,1.769 21.99,0.6 1.45,-1.934 1.678,-1.8 1.66,-5.372 -6.884,2.056 -15.842,1.083 -24.344,0.552 z M 66.747,228.31 c -0.176,2.12 0.778,3.892 2.195,5.062 3.435,7.624 107.426,5.406 114.359,0.246 0.947,-2.253 1.374,-3.06 0.788,-5.527 -7.26,4.899 -104.735,6.842 -117.342,0.22 z"
     id="path6"
     inkscape:connector-curvature="0"
     style="fill:#ffaaaa;fill-rule:evenodd;stroke:#000000"
     sodipodi:nodetypes="cccccccsccccccccc" />
  <path
     inkscape:connector-curvature="0"
     style="fill:#414042;stroke:#000000;stroke-width:1.21335244;stroke-miterlimit:10"
     stroke-miterlimit="10"
     d="m 125.54685,35.489324 c 14.7119,-0.0182 38.12351,-3.189298 38.85515,-2.228324 0.73166,0.960976 -37.07782,68.05978 -37.07782,68.05978 0,0 -38.111174,-69.109934 -37.16718,-70.33178 0.943988,-1.221844 20.67795,4.517312 35.38985,4.500324 z"
     id="path2"
     sodipodi:nodetypes="ccccc" />
  <path
     style="fill:#ff8080;fill-rule:evenodd;stroke:#000000"
     d="m 38.527,217.43192 c 2.85,-69.342 1.197,-167.28692 27.98,-176.14792 9.283,-3.071 16.3,-6.382 23.65,-10.295 14.13637,18.29678 22.92313,55.74676 35.758,57.986116 10.24858,1.788113 12.33859,-8.275305 38.487,-55.714116 8.428,4.019 13.949,7.425 25.507,12.122 23.896,9.711 22.707,126.02621 18.877,169.25221 -7.112,1.66 -18.002,0.4 -23.943,0.247 -1.272,-2.713 4.7488,-41.53333 2.4058,-67.19433 0.49565,-34.39977 -11.03528,-45.65525 -6.1778,-57.75888 -14.47463,37.63276 -16.52288,86.35927 3.014,138.995 -22.724,5.063 -80.913,9.525 -116.982,0.974 8.670326,-37.63016 15.386871,-21.62743 17.71978,-75.12678 C 85.53378,140.38922 76.741,109.072 74.677,90.868 c 1.515,23.992 -3.046729,11.85808 -6.658729,46.46008 -4.283698,19.56395 -9.048896,54.98675 -6.206813,80.48865 -5.373,-0.263 -13.070458,0.58919 -23.284458,-0.38481 z"
     id="path4"
     inkscape:connector-curvature="0"
     sodipodi:nodetypes="cccscsccccccccccc" />
</svg>
