<?xml version="1.0" encoding="UTF-8" standalone="no"?>
<svg
   xmlns:dc="http://purl.org/dc/elements/1.1/"
   xmlns:cc="http://creativecommons.org/ns#"
   xmlns:rdf="http://www.w3.org/1999/02/22-rdf-syntax-ns#"
   xmlns:svg="http://www.w3.org/2000/svg"
   xmlns="http://www.w3.org/2000/svg"
   xmlns:sodipodi="http://sodipodi.sourceforge.net/DTD/sodipodi-0.dtd"
   xmlns:inkscape="http://www.inkscape.org/namespaces/inkscape"
   cursor="default"
   viewBox="0 0 256 256"
   version="1.1"
   id="svg24"
   sodipodi:docname="leather_belt.svg"
   inkscape:version="0.92.3 (2405546, 2018-03-11)">
  <metadata
     id="metadata30">
    <rdf:RDF>
      <cc:Work
         rdf:about="">
        <dc:format>image/svg+xml</dc:format>
        <dc:type
           rdf:resource="http://purl.org/dc/dcmitype/StillImage" />
      </cc:Work>
    </rdf:RDF>
  </metadata>
  <defs
     id="defs28">
    <inkscape:path-effect
       effect="bspline"
       id="path-effect873"
       is_visible="true"
       weight="33.333333"
       steps="2"
       helper_size="0"
       apply_no_weight="true"
       apply_with_weight="true"
       only_selected="false" />
    <inkscape:path-effect
       effect="bspline"
       id="path-effect873-3"
       is_visible="true"
       weight="33.333333"
       steps="2"
       helper_size="0"
       apply_no_weight="true"
       apply_with_weight="true"
       only_selected="false" />
  </defs>
  <sodipodi:namedview
     pagecolor="#ffffff"
     bordercolor="#666666"
     borderopacity="1"
     objecttolerance="10"
     gridtolerance="10"
     guidetolerance="10"
     inkscape:pageopacity="0"
     inkscape:pageshadow="2"
     inkscape:window-width="1920"
     inkscape:window-height="1001"
     id="namedview26"
     showgrid="false"
     inkscape:zoom="1.84375"
     inkscape:cx="50.692765"
     inkscape:cy="34.625367"
     inkscape:window-x="-9"
     inkscape:window-y="-9"
     inkscape:window-maximized="1"
     inkscape:current-layer="svg24" />
  <g
     id="g859"
     transform="translate(-0.83916514,-1.6414308)">
    <path
       style="fill:#ff8080;stroke:#000000;stroke-width:1.39999998;stroke-miterlimit:4;stroke-dasharray:none;stroke-opacity:1"
       d="m 126.81069,184.4197 c -0.60216,-0.3259 -5.7553,-4.51181 -12.04144,-9.7813 -1.14527,-0.96004 -2.55083,-2.12548 -3.12347,-2.58985 -0.57263,-0.46437 -3.69609,-3.04884 -6.94102,-5.74326 -3.24494,-2.69442 -6.138266,-4.99445 -6.429627,-5.11116 -1.260042,-0.50477 -4.079807,0.28573 -8.817352,2.48343 -3.701753,1.71721 -5.716297,2.10426 -7.92106,1.29636 -1.63017,-0.52466 -10.354746,-4.87212 -14.310104,-7.13072 -3.927887,-2.24292 -10.400942,-6.49853 -12.910498,-8.48781 -6.225892,-4.93515 -13.465987,-12.46536 -15.102917,-15.7081 -1.025175,-2.03086 -1.322636,-3.81212 -1.598638,-9.57299 -0.134126,-2.79955 -0.447241,-8.83824 -0.695812,-13.41932 C 36.127306,96.068876 35.929208,91.292847 36.0673,90.126883 c 0.280225,-2.366064 1.406593,-3.312598 5.771643,-4.850149 14.569011,-5.131808 41.088825,-9.052503 68.534317,-10.132127 3.05405,-0.120137 8.43343,-0.343726 11.95418,-0.496865 5.00144,-0.217543 7.83493,-0.217087 12.95659,0.0021 3.60537,0.154283 9.00194,0.378114 11.99236,0.497402 14.94482,0.596147 31.036,2.168025 43.95985,4.294248 14.88284,2.448515 27.45139,6.032116 29.43848,8.393627 1.30006,1.545042 1.29836,0.764298 0.0537,24.670821 -0.18552,3.56306 -0.44183,8.71677 -0.5696,11.4527 -0.42239,9.04493 -0.87867,10.03605 -7.96338,17.29783 -4.03875,4.13969 -6.90617,6.70875 -10.41314,9.32964 l -2.29488,1.71506 -17.29688,9.64368 c -0.25555,0.47751 -3.98085,2.35641 -6.05907,3.05598 -1.28222,0.43161 -2.89427,0.47714 -4.21438,0.11901 -0.509,-0.13809 -2.53926,-0.96647 -4.51166,-1.84085 -3.78911,-1.67972 -6.33559,-2.42316 -7.5315,-2.19881 -0.42836,0.0804 -1.51651,0.80682 -2.66924,1.78201 -3.61257,3.05617 -15.54095,13.02968 -16.96251,14.18262 -0.77586,0.62925 -2.96875,2.44788 -4.87309,4.0414 -1.90433,1.59352 -3.82645,3.0829 -4.27137,3.30973 -1.02953,0.52488 -3.33749,0.53771 -4.28698,0.0238 z M 97.333453,137.76227 c 2.708777,-3.78114 5.643577,-7.06802 7.024247,-7.86693 0.61714,-0.3571 19.17293,-0.59356 35.39925,-0.4511 13.43453,0.11795 14.00473,0.17215 15.48494,1.47179 0.43734,0.38399 2.42693,2.99157 4.42133,5.79462 1.99439,2.80305 3.777,5.15433 3.96135,5.22508 0.61117,0.23453 2.08386,-0.64935 3.48634,-2.09241 1.33733,-1.37604 10.32448,-11.42739 14.91147,-16.67719 2.45659,-2.81157 3.50032,-3.64009 7.54338,-5.98801 3.24804,-1.88623 3.51575,-2.1088 2.91215,-2.42117 -1.07052,-0.554 -9.12884,-2.39388 -14.31394,-3.26818 -13.04557,-2.1997 -38.95428,-3.94448 -54.14002,-3.64597 -23.65379,0.46498 -41.512942,2.25948 -53.5616,5.38192 -4.358993,1.12964 -5.354737,1.4831 -5.277872,1.87348 0.03965,0.20141 1.47766,1.17936 3.195564,2.17321 1.717904,0.99386 3.678352,2.29418 4.356548,2.8896 0.678196,0.59543 5.01154,5.31149 9.629656,10.48013 4.618113,5.16864 8.696361,9.67147 9.062773,10.0063 0.885386,0.80906 1.950922,1.36095 2.501031,1.29539 0.285616,-0.034 1.512531,-1.54111 3.403403,-4.18056 z"
       id="path863"
       inkscape:connector-curvature="0"
       sodipodi:nodetypes="cccccsccsssssssscsscccscccccccscccccccscccccsccsscccsccc" />
    <path
       style="fill:none;stroke:#000000;stroke-width:1px;stroke-linecap:butt;stroke-linejoin:miter;stroke-opacity:1"
       d="m 192.22535,115.70088 c 15.15337,-7.46513 23.40608,-15.59667 29.59505,-21.527256"
       id="path865"
       inkscape:connector-curvature="0"
       sodipodi:nodetypes="cc" />
    <path
       style="fill:none;stroke:#000000;stroke-width:1px;stroke-linecap:butt;stroke-linejoin:miter;stroke-opacity:1"
       d="M 65.19917,115.44132 46.773531,104.18708 c -6.467466,-4.519795 -6.100841,-4.70668 -8.446494,-6.587902 -1.01336,-0.884945 -2.039153,-1.757457 -2.305085,-3.38983"
       id="path867"
       inkscape:connector-curvature="0"
       sodipodi:nodetypes="cccc" />
    <path
       style="fill:none;stroke:#000000;stroke-width:1.39999998;stroke-linecap:butt;stroke-linejoin:miter;stroke-miterlimit:4;stroke-dasharray:none;stroke-opacity:1"
       d="m 93.961306,142.09588 c -2.492022,3.38659 -4.983909,6.773 -4.312831,9.90688 0.671077,3.13388 4.504753,6.00914 8.339741,8.88538"
       id="path871"
       inkscape:connector-curvature="0"
       inkscape:path-effect="#path-effect873"
       inkscape:original-d="m 93.961306,142.09588 c -2.491851,3.38672 -4.983737,6.77313 -7.478552,10.16316 3.837638,2.87648 7.671312,5.75174 11.505462,8.6291"
       sodipodi:nodetypes="ccc" />
    <path
       style="fill:none;stroke:#000000;stroke-width:1.39999998;stroke-linecap:butt;stroke-linejoin:miter;stroke-miterlimit:4;stroke-dasharray:none;stroke-opacity:1"
       d="m 162.88727,141.66054 c 3.09917,3.35477 6.1979,6.70907 5.53815,10.02389 -0.65974,3.31482 -5.07783,6.58347 -9.49726,9.85312"
       id="path871-7"
       inkscape:connector-curvature="0"
       inkscape:path-effect="#path-effect873-3"
       inkscape:original-d="m 162.88727,141.66054 c 3.10021,3.35381 6.19894,6.70811 9.30025,10.06728 -4.42197,3.27126 -8.84006,6.53991 -13.25936,9.80973"
       sodipodi:nodetypes="ccc" />
  </g>
</svg>
